<svg width="511" height="476" viewBox="0 0 511 476" fill="none" xmlns="http://www.w3.org/2000/svg">
    <path d="M348.888 108.775L446.793 108.63C446.793 108.63 441.921 102.294 436.545 101.511C436.545 101.511 426.063 70.4556 408.608 70.2209C392.359 70.0309 385.877 89.3639 385.877 89.3639C385.877 89.3639 378.334 80.7032 371.149 84.6815C363.963 88.6598 359.906 100.003 359.906 100.003C359.906 100.003 351.816 104.417 348.888 108.775Z" fill="#EBEBEB"/>
    <path d="M193.866 150.447L70.0569 150.637C70.0569 150.637 70.0569 142.725 87.099 141.149C87.099 141.149 102.621 106.507 126.402 111.167C141.209 114.027 148.808 134.344 148.808 134.344C148.808 134.344 159.983 118.33 168.923 121.414C177.863 124.499 183.216 141.529 183.216 141.529C183.216 141.529 192.458 145.977 193.866 150.447Z" fill="#EBEBEB"/>
    <path d="M335.746 42.3502L251.563 42.4731C251.563 42.4731 259.498 35.064 263.029 35.064C266.561 35.064 276.83 10.2217 289.995 11.2498C303.159 12.2779 310.177 30.7616 310.177 30.7616C310.177 30.7616 326.18 25.7216 335.746 42.3502Z" fill="#EBEBEB"/>
    <path d="M101.236 89.4087L29.2453 89.5205C29.2453 89.5205 32.8102 84.8493 36.755 84.2682C36.755 84.2682 44.3988 61.4039 57.2502 61.2251C69.1964 61.0463 74.0129 75.2499 74.0129 75.2499C74.0129 75.2499 79.5446 68.8688 84.8305 71.7744C90.1163 74.6799 93.1112 83.0166 93.1112 83.0166C93.1112 83.0166 99.0676 86.2015 101.236 89.4087Z" fill="#EBEBEB"/>
    <path d="M391.934 181.324C391.242 187.738 391.979 194.226 394.091 200.322C398.472 213.073 410.262 221.633 414.788 234.149C414.788 235.747 414.788 237.367 414.653 239.01C414.653 239.01 414.653 239.01 414.653 239.088C414.653 239.167 414.653 239.088 414.653 239.088C414.667 239.118 414.687 239.145 414.712 239.166C414.737 239.187 414.767 239.203 414.799 239.211C414.866 239.01 414.91 238.82 414.955 238.63C415 238.44 415.134 237.926 415.201 237.58C415.268 237.233 415.424 236.585 415.503 236.082C415.503 236.082 415.57 235.848 415.503 235.781C417.861 221.633 410.72 207.742 405.993 194.701C403.288 187.236 402.394 179.369 399.824 171.926C399.209 170.149 398.584 166.674 396.08 167.858C393.309 169.244 392.225 178.72 391.934 181.324Z" fill="#EBEBEB"/>
    <path d="M395.957 192.276C398.081 208.379 415.369 219.61 414.899 236.172C414.899 236.652 414.843 237.11 414.81 237.58C414.776 238.049 414.754 238.228 414.709 238.552C414.709 238.675 414.709 238.809 414.709 238.954C414.709 239.1 414.709 238.954 414.709 239.033C414.709 239.111 414.709 239.033 414.709 239.033C414.723 239.062 414.743 239.089 414.768 239.11C414.793 239.131 414.823 239.147 414.855 239.155H414.922C414.949 239.146 414.973 239.129 414.993 239.108C415.012 239.086 415.026 239.061 415.033 239.033C415.134 238.53 415.201 238.016 415.257 237.524C415.423 236.306 415.479 235.075 415.424 233.847C415.67 226.55 414.005 219.655 411.156 212.559C407.658 203.842 403.724 195.494 400.383 186.643C399.969 185.526 399.142 181.056 397.432 182.017C395.209 183.257 395.723 190.409 395.957 192.276ZM396.304 189.761C396.304 188.834 396.304 182.62 397.935 182.978C398.896 183.179 399.846 187.694 400.103 188.309C401.087 190.689 402.07 193.036 403.054 195.416C405.143 200.389 407.267 205.351 409.345 210.324C412.001 216.324 413.792 222.672 414.665 229.176C411.267 215.364 396.661 204.669 396.304 189.761Z" fill="white"/>
    <path d="M416.441 335.183C416.441 335.396 416.71 335.653 416.955 335.418C427.605 325.36 443.843 328.948 455.074 319.695C459.467 315.821 463.32 311.375 466.528 306.475C469.113 303.002 471.256 299.222 472.909 295.221C473.111 294.685 474.273 292.427 473.848 291.489C470.551 284.392 453.532 300.585 450.615 302.954C439.239 312.207 428.823 320.645 419.325 331.552C418.33 332.669 417.358 333.787 416.397 335.027C416.408 335.061 416.419 335.116 416.441 335.183Z" fill="#EBEBEB"/>
    <path d="M416.441 335.183L417.559 334.066C425.124 328.545 434.12 325.427 442.625 321.494C451.129 317.56 458.214 312.341 463.701 304.563C464.673 303.189 468.763 297.858 466.897 295.892C465.232 294.137 461.008 298.909 459.924 299.814C451.867 306.519 444.022 313.224 435.45 319.326C429.963 323.204 424.409 327.093 419.325 331.507C418.33 332.624 417.358 333.742 416.397 334.982C416.408 335.06 416.419 335.116 416.441 335.183ZM421.459 330.769C427.382 325.852 433.752 321.483 440.032 316.945C444.346 313.839 448.521 310.561 452.559 307.111C454.794 305.212 456.962 303.278 459.197 301.401C460.315 300.462 461.433 299.523 462.55 298.618C463.12 298.149 464.975 296.573 465.679 297.501C467.579 299.825 456.136 315.56 439.552 322.153C433.271 324.467 427.214 327.351 421.459 330.769Z" fill="white"/>
    <path d="M432.31 308.587C432.298 308.596 432.289 308.608 432.283 308.622C432.276 308.635 432.273 308.65 432.273 308.665C432.273 308.68 432.276 308.695 432.283 308.708C432.289 308.722 432.298 308.734 432.31 308.743C432.335 308.765 432.367 308.777 432.399 308.777C432.432 308.777 432.464 308.765 432.489 308.743L433.104 307.871C433.852 306.754 434.568 305.726 435.26 304.631L435.629 304.038C435.681 304.026 435.727 303.999 435.763 303.96C443.586 292.304 457.655 286.583 463.779 273.608C466.342 267.773 467.898 261.546 468.383 255.192C468.663 252.465 470.909 243.883 467.266 242.43C464.427 241.312 461.108 245.503 459.723 247.28C455.331 252.923 452.805 260.142 450.246 266.736C447.687 273.329 445.564 279.766 443.228 286.281C441.035 292.19 438.359 297.909 435.227 303.379C434.31 305.078 433.316 306.821 432.31 308.587Z" fill="#EBEBEB"/>
    <path d="M432.31 308.587C432.298 308.596 432.289 308.608 432.283 308.622C432.276 308.635 432.273 308.65 432.273 308.665C432.273 308.68 432.276 308.695 432.283 308.708C432.289 308.722 432.298 308.734 432.31 308.743C432.947 307.76 433.584 306.788 434.232 305.826L433.115 307.827C433.863 306.709 434.579 305.681 435.272 304.586C435.596 304.016 435.931 303.468 436.277 302.887C440.84 296.503 445.876 290.47 451.341 284.84C454.057 282.101 456.273 278.909 457.89 275.408C460.863 268.859 464.595 254.041 463.019 252.208C461.444 250.375 459.667 255.192 459.186 256.265C454.984 264.97 451.967 274.145 447.285 282.627C444.133 288.337 440.926 294.014 437.719 299.702C436.87 300.887 436.031 302.105 435.249 303.334C434.31 305.078 433.316 306.821 432.31 308.587ZM440.244 296.294C443.474 290.908 446.648 285.488 449.531 279.934C451.911 275.318 453.833 270.513 455.811 265.719C456.795 263.316 457.789 260.925 458.862 258.578C459.153 257.93 461.198 252.622 462.215 252.845C463.232 253.069 462.416 257.047 462.215 258.097C461.06 263.191 459.646 268.223 457.979 273.173C456.191 278.38 452.973 282.191 449.173 286.069C445.998 289.31 443.017 292.736 440.244 296.328V296.294Z" fill="white"/>
    <path d="M371.618 382.801C371.619 382.815 371.623 382.829 371.631 382.841C371.638 382.854 371.647 382.865 371.659 382.873C371.671 382.882 371.684 382.888 371.698 382.891C371.712 382.893 371.727 382.893 371.741 382.89C371.797 382.89 371.841 382.89 371.853 382.778C371.853 382.454 371.853 382.141 371.853 381.828C371.853 380.655 371.853 379.504 371.797 378.353C371.797 378.141 371.797 377.939 371.797 377.727C371.829 377.694 371.849 377.65 371.853 377.604C371.741 365.077 379.206 353.779 377.172 341.151C376.119 335.562 374.124 330.192 371.271 325.271C370.154 323.125 367.438 315.672 364.03 316.443C361.381 317.035 361.046 321.807 360.923 323.807C360.532 330.177 362.32 336.759 363.751 342.905C365.181 349.052 366.88 354.852 368.444 360.786C369.811 366.244 370.727 371.806 371.182 377.414C371.372 379.213 371.484 381.001 371.618 382.801Z" fill="#EBEBEB"/>
    <path d="M371.618 382.801C371.619 382.815 371.623 382.829 371.631 382.842C371.638 382.854 371.647 382.865 371.659 382.874C371.671 382.882 371.684 382.888 371.698 382.891C371.712 382.894 371.727 382.893 371.741 382.89C371.741 381.851 371.741 380.812 371.685 379.783C371.741 380.465 371.797 381.147 371.864 381.829C371.864 380.655 371.864 379.504 371.808 378.353C371.808 377.772 371.73 377.18 371.696 376.587C371.84 369.593 372.505 362.619 373.685 355.723C374.296 352.336 374.315 348.869 373.741 345.476C372.624 339.151 367.93 326.366 365.829 325.808C363.728 325.249 364.891 329.674 365.047 330.736C366.343 339.251 368.746 347.499 369.584 356.137C370.143 361.926 370.702 367.726 371.149 373.525C371.149 374.833 371.149 376.14 371.149 377.448C371.372 379.214 371.484 381.002 371.618 382.801ZM371.283 369.782C370.947 364.194 370.556 358.607 369.875 353.019C369.294 348.426 368.288 343.911 367.327 339.385C366.835 337.15 366.366 334.915 365.975 332.591C365.863 331.976 364.689 327.003 365.55 326.679C366.41 326.355 367.785 329.674 368.176 330.568C369.841 334.871 371.439 339.33 372.646 343.788C373.954 348.527 373.507 352.963 372.646 357.724C371.955 361.713 371.5 365.739 371.283 369.782Z" fill="white"/>
    <path d="M372.087 393.126C372.419 393.043 372.721 392.869 372.959 392.624C384.447 385.606 397.924 382.901 409.479 375.861C414.624 372.887 418.972 368.711 422.152 363.691C423.459 361.456 428.008 353.958 426.175 351.186C420.721 342.85 384.279 379.035 372.456 391.808C372.243 391.957 372.058 392.142 371.908 392.355C371.562 392.825 371.696 393.171 372.087 393.126Z" fill="#EBEBEB"/>
    <path d="M372.087 393.127C372.903 392.456 373.73 391.763 374.568 391.104C377.351 389.338 380.156 387.628 383.072 386.086C387.677 383.639 392.549 381.795 397.287 379.616C404.715 376.288 411.178 371.133 416.073 364.63C417.134 363.222 420.364 359.367 419.135 357.321C418.017 355.455 415.246 358.003 414.24 358.73C399.947 369.122 386.302 380.543 372.635 391.808L371.908 392.367C371.562 392.825 371.696 393.171 372.087 393.127ZM378.625 387.796C383.989 383.453 389.357 379.132 394.728 374.833C398.945 371.465 403.173 368.113 407.412 364.775C409.513 363.133 411.58 361.423 413.715 359.847C414.553 359.21 417.782 356.729 418.363 357.958C418.945 359.188 416.911 362.049 416.542 362.585C410.843 371.134 402.495 376.543 393.197 380.465C388.173 382.563 383.304 385.013 378.625 387.796Z" fill="white"/>
    <path d="M411.983 277.743C411.946 277.818 411.927 277.9 411.927 277.984C411.927 278.067 411.946 278.149 411.983 278.224C412.046 278.323 412.136 278.403 412.243 278.452C412.35 278.502 412.469 278.519 412.586 278.503C412.713 278.508 412.838 278.473 412.944 278.403C412.984 278.403 413.024 278.393 413.059 278.373C413.094 278.354 413.124 278.325 413.145 278.291C417.928 271.508 425.851 264.545 430.846 257.952C434.614 252.832 437.604 247.184 439.719 241.189C442.223 234.561 443.911 227.652 444.748 220.616C445.106 217.263 446.447 209.296 443.295 206.669C436.836 201.238 430.477 226.494 429.427 229.388C423.582 245.492 417.704 261.584 411.983 277.743Z" fill="#EBEBEB"/>
    <path d="M412.016 278.224C412.079 278.324 412.17 278.403 412.277 278.452C412.384 278.502 412.503 278.52 412.619 278.503C412.876 277.956 413.122 277.386 413.379 276.838C415.167 273.732 416.955 270.625 418.967 267.619C422.163 262.713 426.018 258.276 429.025 253.27C434.299 244.553 442.379 218.415 438.356 216.694C436.255 215.8 434.847 221.164 434.377 222.427C432.545 227.511 431.36 232.797 429.449 237.871C427.471 243.201 425.169 248.398 422.889 253.605C419.358 261.607 415.804 269.597 412.362 277.654C412.217 277.844 412.128 278.034 412.016 278.224ZM415.737 271.519C418.889 264.434 421.962 257.326 425.069 250.23C427.203 245.313 429.293 240.374 431.081 235.323C432.064 232.495 432.891 229.612 433.718 226.729C434.12 225.332 434.523 223.924 435.026 222.549C435.461 221.365 436.97 216.481 438.378 217.912C439.786 219.342 437.864 226.919 437.417 228.685C436.691 231.568 435.931 234.429 435.07 237.267C433.444 242.899 431.112 248.302 428.131 253.348C425.057 258.332 421.213 262.78 418.073 267.731C417.268 269.027 416.486 270.278 415.737 271.564V271.519Z" fill="white"/>
    <path d="M344.161 302.284C357.046 311.973 374.971 312.006 385.073 331.283C385.073 331.362 385.207 331.339 385.229 331.283C385.252 331.228 385.229 331.228 385.229 331.205C384.484 329.216 383.635 327.249 382.681 325.305C377.7 314.764 370.738 305.279 362.175 297.367C357.08 292.682 351.304 288.797 345.043 285.845C341.847 284.359 334.774 280.381 331.387 281.833C324.101 284.974 341.803 300.529 344.161 302.284Z" fill="#EBEBEB"/>
    <path d="M343.434 294.987C349.324 302.664 358.923 306.575 366.701 311.973C372.125 315.611 377.073 319.913 381.43 324.78C382.737 326.914 384.011 329.071 385.263 331.272C385.263 331.272 385.263 331.216 385.263 331.194C384.518 329.205 383.668 327.238 382.715 325.294C382.625 325.204 382.558 325.092 382.469 325.003C378.977 319.195 374.883 313.772 370.255 308.821C363.925 301.933 356.657 295.97 348.664 291.109C347.29 290.26 342.529 286.359 340.73 287.913C338.931 289.466 342.641 293.914 343.434 294.987ZM341.49 288.539C342.864 287.712 351.022 293.277 354.229 295.568C361.166 300.502 367.438 306.309 372.892 312.844C375.243 315.666 377.419 318.629 379.407 321.718C376.45 318.705 373.255 315.936 369.852 313.437C362.756 308.184 354.408 304.497 347.793 298.652C346.042 297.142 344.488 295.419 343.166 293.523C342.674 292.763 340.272 289.287 341.523 288.539H341.49Z" fill="white"/>
    <path d="M345.669 236.161C346.007 241.993 347.031 247.766 348.72 253.359C352.053 264.167 357.857 274.05 365.673 282.225C365.807 282.37 365.941 282.526 366.086 282.672C366.287 283.197 366.489 283.722 366.723 284.225C366.723 284.348 366.813 284.46 366.869 284.582V284.661C366.893 284.678 366.922 284.687 366.952 284.687C366.982 284.687 367.011 284.678 367.035 284.661C367.059 284.643 367.078 284.619 367.088 284.591C367.098 284.563 367.1 284.533 367.092 284.504C366.969 283.834 366.846 283.163 366.734 282.482C364.399 268.624 364.499 254.622 360.029 241.134C359.057 238.194 353.436 218.783 347.144 223.432C344.328 225.589 345.513 233.21 345.669 236.161Z" fill="#EBEBEB"/>
    <path d="M349.022 238.429C350.139 247.034 354.051 255.762 357.336 263.741C359.828 270.041 362.64 276.211 365.762 282.224C366.008 282.716 366.276 283.208 366.544 283.688C366.626 283.867 366.716 284.046 366.813 284.225C366.86 284.377 366.923 284.523 367.003 284.66C367.027 284.678 367.056 284.687 367.086 284.687C367.116 284.687 367.145 284.677 367.169 284.66C367.193 284.643 367.212 284.619 367.222 284.591C367.232 284.563 367.234 284.533 367.226 284.504C367.103 283.834 366.98 283.163 366.868 282.481C366.645 282.001 366.41 281.52 366.176 281.04C363.966 273.654 362.278 266.122 361.124 258.5C360.398 254.376 359.582 250.286 358.465 246.263C357.347 242.24 356.42 238.172 354.498 234.607C353.648 233.054 351.939 230.003 349.838 231.634C348.027 233.02 348.742 236.607 349.022 238.429ZM353.57 234.618C355.861 238.82 357.046 244.039 358.23 248.665C359.348 253.08 360.152 257.606 360.934 262.076C361.773 266.836 362.622 271.686 363.929 276.369C361.192 270.68 358.498 264.97 356.196 259.036C354.397 254.387 352.698 249.705 351.246 244.955C350.437 242.516 349.887 239.999 349.603 237.446C349.497 236.541 349.452 235.63 349.469 234.719C349.502 231.858 352.486 232.718 353.492 234.618H353.57Z" fill="white"/>
    <path d="M423.895 184.576C423.895 184.811 423.895 185.034 423.895 185.258C423.895 185.329 423.913 185.399 423.948 185.461C423.982 185.523 424.032 185.575 424.093 185.612C424.154 185.649 424.223 185.67 424.294 185.673C424.365 185.675 424.436 185.659 424.499 185.627C424.569 185.591 424.629 185.537 424.67 185.47C424.711 185.403 424.733 185.326 424.733 185.247C424.733 184.833 424.733 184.409 424.789 183.995C424.789 183.66 424.789 183.336 424.789 182.989C424.98 182.396 425.203 181.814 425.46 181.246C428.097 175.021 433.584 169.154 437.015 163.623C440.239 158.639 442.956 153.345 445.128 147.821C447.377 142.222 448.438 136.217 448.246 130.187C448.156 128.555 448.168 124.42 446.011 123.783C443.273 122.99 440.334 128.499 439.216 129.997C435.404 135.262 432.311 141.012 430.019 147.095C425.337 159.186 424.096 171.68 423.895 184.576Z" fill="#EBEBEB"/>
    <path d="M424.521 181.615C424.263 182.59 424.058 183.579 423.906 184.576C423.906 184.811 423.906 185.034 423.906 185.258C423.906 185.329 423.924 185.399 423.959 185.461C423.993 185.523 424.044 185.575 424.104 185.612C424.165 185.649 424.234 185.67 424.305 185.672C424.376 185.675 424.447 185.659 424.51 185.627C424.51 185.459 424.51 185.291 424.51 185.124C424.599 184.744 424.666 184.375 424.745 184.006C424.946 183.079 425.191 182.173 425.46 181.257C426.431 177.968 427.699 174.774 429.248 171.713C431.897 166.372 434.746 161.119 437.194 155.677C438.423 152.95 447.855 131.93 442.457 131.092C441.44 130.924 440.758 132.377 440.345 132.992C438.957 135.236 437.797 137.613 436.881 140.088C434.579 145.675 432.5 151.486 430.6 157.275C427.966 165.224 425.934 173.36 424.521 181.615ZM430.176 160.672C431.762 155.554 433.528 150.503 435.417 145.497C436.344 143.06 437.249 140.591 438.311 138.199C438.825 137.015 441.574 131.617 442.681 132.064C444.301 132.701 442.222 140.702 441.563 142.87C440.77 145.363 439.876 147.799 438.915 150.213C436.959 155.074 434.69 159.801 432.321 164.472C430.243 168.607 427.65 173.055 425.851 177.703C426.996 171.955 428.44 166.271 430.176 160.672Z" fill="white"/>
    <path d="M391.644 257.594L391.979 258.198C392.015 258.258 392.065 258.308 392.126 258.343C392.187 258.377 392.255 258.396 392.325 258.396C392.395 258.396 392.464 258.377 392.525 258.343C392.586 258.308 392.636 258.258 392.672 258.198C392.716 258.132 392.74 258.054 392.74 257.974C392.74 257.895 392.716 257.817 392.672 257.751C392.482 257.382 392.292 257.013 392.091 256.633C391.934 256.332 391.789 256.041 391.621 255.739C391.498 255.125 391.398 254.51 391.331 253.884C390.482 247.179 392.292 239.357 392.448 232.853C392.734 226.928 392.42 220.99 391.51 215.129C390.64 209.177 388.547 203.47 385.363 198.366C384.469 197.014 382.402 193.427 380.212 193.963C377.44 194.645 377.664 200.881 377.451 202.747C376.788 209.2 376.987 215.713 378.044 222.113C380.133 234.92 385.352 246.363 391.644 257.594Z" fill="#EBEBEB"/>
    <path d="M390.683 254.734C390.944 255.706 391.265 256.661 391.644 257.595L391.979 258.198C392.015 258.258 392.065 258.308 392.126 258.343C392.187 258.378 392.256 258.396 392.325 258.396C392.395 258.396 392.464 258.378 392.525 258.343C392.586 258.308 392.636 258.258 392.672 258.198C392.605 258.042 392.538 257.885 392.482 257.729L392.113 256.611C391.823 255.695 391.577 254.79 391.353 253.862C390.544 250.532 390.039 247.136 389.845 243.715C389.453 237.759 389.286 231.791 388.727 225.835C388.414 222.862 386.034 199.953 380.905 201.931C379.943 202.3 380.078 203.898 380.033 204.636C379.961 207.274 380.148 209.912 380.592 212.514C381.441 218.549 382.525 224.572 383.788 230.528C385.481 238.757 387.786 246.848 390.683 254.734ZM385.095 233.78C383.911 228.565 382.886 223.309 382.022 218.012C381.597 215.442 381.15 212.849 380.905 210.257C380.759 208.972 380.435 202.926 381.609 202.747C383.33 202.49 385.542 210.458 386.079 212.682C386.649 215.218 387.096 217.789 387.464 220.359C388.224 225.533 388.582 230.763 388.928 236.004C389.196 240.631 389.196 245.771 389.956 250.699C388.034 245.148 386.4 239.501 385.062 233.78H385.095Z" fill="white"/>
    <path d="M363.203 272.446C367.168 284.074 371.787 295.469 377.038 306.575C381.161 315.157 385.33 323.874 387.42 333.216C389.912 344.392 388.973 357.478 385.263 369.312C387.878 365.021 390.448 360.681 392.974 356.293C398.125 347.353 403.199 338.223 406.194 328.355C406.484 327.372 406.741 326.388 406.987 325.405C406.936 325.346 406.909 325.271 406.909 325.193C407.303 312.75 405.826 300.319 402.528 288.315C399.326 282.368 395.541 276.753 391.23 271.552C386.816 266.166 382.581 260.925 379.597 254.588C379.429 254.219 379.921 253.895 380.145 254.253C385.129 262.444 393.622 269.742 399.377 278.123C398.863 276.659 398.338 275.195 397.779 273.731C392.46 259.762 384.771 246.162 387.386 230.718C387.475 230.204 388.224 230.405 388.168 230.908C386.157 247.939 397.287 264.221 402.562 279.799C406.496 291.377 409.446 304.083 408.764 316.476C409.666 309.514 410.199 302.508 410.362 295.489C411.949 253.225 415.011 210.916 427.918 170.384C428.052 169.992 428.678 170.127 428.555 170.54C415.76 214.302 415.804 259.282 413.256 304.362C413.256 304.876 413.189 305.39 413.156 305.893C415.709 299.623 419.015 293.687 423.001 288.214C423.042 288.168 423.097 288.136 423.158 288.126C423.219 288.115 423.281 288.126 423.335 288.156C423.389 288.186 423.431 288.234 423.453 288.292C423.476 288.349 423.478 288.412 423.459 288.471C419.045 296.953 416.128 305.882 412.351 314.588C411.615 320.985 410.16 327.279 408.015 333.351C405.25 340.57 401.886 347.545 397.958 354.203C404.92 345.777 411.971 337.441 418.33 328.501C428.011 314.985 436.781 300.84 444.58 286.158C444.692 285.946 445.005 286.158 444.904 286.337C437.679 302.067 429.157 317.169 419.425 331.484C411.055 343.576 401.992 356.003 391.13 366.127C381.877 381.851 371.808 397.786 358.722 410.459C358.6 410.585 358.434 410.657 358.259 410.661C358.084 410.664 357.915 410.597 357.789 410.476C357.663 410.354 357.59 410.188 357.587 410.013C357.584 409.838 357.65 409.669 357.772 409.543C360.007 406.604 362.242 403.642 364.477 400.658C365.986 394.445 368.567 388.533 369.752 382.164C371.137 374.717 371.629 367.131 371.216 359.567C371.216 359.009 372.009 358.997 372.076 359.567C373.328 369.793 373.361 382.644 369.752 393.294C372.829 388.869 375.809 384.399 378.692 379.884C385.632 363.333 388.682 344.615 383.296 327.361C380.536 318.488 376.3 310.196 372.534 301.725C368.471 292.31 365.139 282.596 362.566 272.67C362.557 272.592 362.575 272.513 362.617 272.447C362.659 272.381 362.722 272.33 362.796 272.305C362.87 272.279 362.95 272.279 363.024 272.304C363.098 272.33 363.161 272.38 363.203 272.446Z" fill="#EBEBEB"/>
    <path d="M173.572 231.109C174.422 236.842 172.689 243.346 171.337 248.855C169.74 255.168 167.708 261.362 165.258 267.395C163.023 272.983 160.497 278.57 157.882 283.99L157.804 284.147L157.29 285.264C157.134 285.722 156.977 286.18 156.798 286.639C156.777 286.697 156.737 286.748 156.685 286.782C156.632 286.816 156.57 286.832 156.508 286.829C156.467 286.834 156.425 286.828 156.387 286.812C156.349 286.796 156.316 286.77 156.291 286.738C156.266 286.705 156.25 286.666 156.245 286.625C156.24 286.584 156.246 286.542 156.262 286.504C156.34 286.259 156.43 286.002 156.497 285.756C159.626 275.151 155.379 264.031 157.189 253.258C158.173 247.358 160.777 241.77 163.034 236.272C164.286 233.221 165.269 229.154 167.102 226.416C167.594 225.689 167.839 224.862 168.812 224.617C171.818 223.834 173.293 229.109 173.572 231.109Z" fill="#EBEBEB"/>
    <path d="M170.22 234.596C168.812 232.853 167.024 236.518 166.476 237.513C162.811 244.218 159.838 252.42 159.614 260.053C159.357 268.445 159.179 276.816 156.91 284.951L156.508 285.711C156.441 285.957 156.351 286.214 156.273 286.46C156.257 286.498 156.251 286.539 156.256 286.58C156.262 286.621 156.277 286.66 156.302 286.693C156.327 286.726 156.36 286.751 156.398 286.767C156.436 286.783 156.478 286.789 156.519 286.784C156.519 286.627 156.642 286.471 156.687 286.314C157.078 285.599 157.458 284.873 157.804 284.147L157.882 283.99C160.261 278.695 162.35 273.275 164.14 267.753C167.018 260.145 169.057 252.246 170.22 244.195C170.466 242.249 170.611 240.29 170.655 238.328C170.711 237.345 170.913 235.445 170.22 234.596ZM170.22 239.591C170.121 241.66 169.915 243.723 169.605 245.771C168.444 252.815 166.618 259.734 164.152 266.434C162.286 272.332 160.077 278.115 157.536 283.755C158.808 279.134 159.558 274.385 159.771 269.597C160.006 265.998 159.961 262.4 160.151 258.79C160.501 254.775 161.45 250.835 162.967 247.101C164.1 243.465 165.637 239.968 167.549 236.675C167.962 236.026 169.057 234.652 169.639 234.887C170.655 235.289 170.22 238.731 170.22 239.591Z" fill="white"/>
    <path d="M136.448 387.047C136.498 387.089 136.531 387.146 136.541 387.21C136.551 387.274 136.538 387.339 136.504 387.394C136.481 387.445 136.443 387.487 136.395 387.517C136.347 387.547 136.292 387.562 136.236 387.561C136.16 387.56 136.087 387.537 136.024 387.494C130.101 382.812 124.849 376.219 117.294 374.274C111.371 372.743 106.119 372.441 100.889 368.832C95.6303 365.119 91.2038 360.35 87.8924 354.829C86.3867 352.319 85.1184 349.674 84.1041 346.929C83.6124 345.61 81.869 342.213 82.4837 340.782C85.4562 334.077 103.716 350.84 106.175 353.075C116.914 363.01 127.676 373.928 135.845 386.12C135.856 386.138 135.861 386.16 135.861 386.181C135.861 386.203 135.856 386.224 135.845 386.243C135.839 386.266 135.827 386.289 135.812 386.308C135.797 386.327 135.777 386.343 135.756 386.354L136.448 387.047Z" fill="#EBEBEB"/>
    <path d="M136.448 387.047L135.756 386.332C135.777 386.321 135.797 386.305 135.812 386.285C135.827 386.266 135.839 386.244 135.845 386.22C130.123 379.716 123.888 373.592 117.585 367.636C110.813 361.255 103.884 354.718 96.352 349.264C95.3127 348.515 91.1556 344.727 89.7922 346.359C88.4289 347.99 92.4966 353.198 93.3459 354.349C98.4083 361.132 105.951 365.3 113.282 369.167C118.043 371.681 122.725 374.118 126.693 377.828C130.045 380.946 132.973 384.432 136.27 387.572C136.326 387.573 136.381 387.558 136.429 387.528C136.476 387.499 136.514 387.456 136.538 387.405C134.85 385.784 133.264 384.052 131.665 382.342C133.297 384.019 134.921 385.702 136.538 387.394C136.568 387.335 136.576 387.267 136.559 387.203C136.543 387.139 136.503 387.084 136.448 387.047ZM121.496 373.157C114.523 368.686 106.644 365.703 100.096 360.484C96.9061 358.016 94.1944 354.987 92.0943 351.544C91.692 350.873 89.7252 347.901 90.4851 347.074C90.988 346.481 92.843 347.487 93.1001 347.666C95.093 348.911 97.0075 350.277 98.8329 351.756C105.236 356.841 111.327 362.373 117.272 367.971C120.624 371.089 123.776 374.274 126.938 377.515C125.264 375.896 123.442 374.437 121.496 373.157Z" fill="white"/>
    <path d="M135.834 235.613C135.364 242.106 132.749 248.464 129.788 254.208C122.915 267.485 112.522 279.017 107.125 293.053C106.913 293.612 106.711 294.171 106.51 294.718C106.51 295.489 106.432 295.288 106.365 294.361C106.086 290.282 105.873 272.491 110.042 260.601C112.645 253.18 116.747 246.509 120.837 239.848C123.183 236.049 125.486 232.227 127.855 228.45C128.615 227.232 130.09 223.622 132.124 223.745C136.08 223.935 136.013 233.065 135.834 235.613Z" fill="#EBEBEB"/>
    <path d="M128.872 235.524C128.615 235.309 128.286 235.2 127.952 235.219C127.618 235.237 127.304 235.382 127.072 235.624C126.473 236.301 126.017 237.091 125.731 237.949C125.039 239.379 124.346 240.787 123.653 242.206C118.892 251.985 113.159 261.796 109.997 272.245C107.989 279.218 106.822 286.406 106.521 293.657C106.521 293.88 106.443 294.115 106.398 294.349C106.466 295.277 106.521 295.467 106.544 294.707C106.745 294.148 106.946 293.59 107.158 293.042C107.315 292.249 107.505 291.466 107.717 290.673C109.344 285.309 111.65 280.176 114.579 275.396C119.797 266.121 124.636 256.589 127.989 246.453C128.789 244.206 129.344 241.879 129.643 239.513C129.743 238.44 129.911 236.317 128.872 235.524ZM129.118 239.044C129.105 239.572 129.052 240.099 128.961 240.619C128.773 241.728 128.523 242.824 128.212 243.905C127.456 246.509 126.565 249.071 125.541 251.582C121.999 260.601 117.417 268.971 112.768 277.442C110.388 281.58 108.512 285.988 107.181 290.572C107.577 286.581 108.177 282.612 108.98 278.682C111.058 268.624 115.797 259.684 120.233 250.521C121.351 248.286 122.468 245.984 123.586 243.726C124.133 242.609 124.703 241.491 125.24 240.318L126.056 238.619C126.603 237.502 126.536 236.943 127.944 236.842C129.665 236.719 129.218 237.613 129.162 239.044H129.118Z" fill="white"/>
    <path d="M133.9 296.585C134.688 301.625 134.991 306.729 134.806 311.827C134.448 322.053 130.604 333.172 131.196 343.554C131.297 344.246 131.375 344.951 131.42 345.643C131.42 345.9 131.42 346.169 131.42 346.426C131.42 346.683 131.196 346.593 131.163 346.426C131.051 345.967 130.928 345.509 130.794 345.04L130.593 344.314C127.687 333.72 123.172 323.662 123.284 312.487C123.351 305.603 125.005 286.907 129.665 286.415C131.721 286.181 133.409 293.489 133.9 296.585Z" fill="#EBEBEB"/>
    <path d="M129.721 296.741C128.603 297.02 128.201 299.077 127.966 299.915C127.404 302.17 127.03 304.469 126.849 306.787C126.447 311.084 126.447 315.409 126.849 319.706C127.392 328.001 128.686 336.23 130.716 344.291L130.917 345.017C131.051 345.487 131.174 345.945 131.286 346.403C131.286 346.537 131.554 346.515 131.543 346.403C131.531 346.291 131.543 345.878 131.543 345.621C130.034 336.513 130.492 327.361 131.196 318.13C131.241 316.096 133.666 295.724 129.721 296.741ZM131.341 305.513C131.274 307.469 131.151 309.402 131.017 311.358C130.716 315.895 130.313 320.443 130.056 324.98C129.736 329.942 129.773 334.921 130.168 339.877C128.972 334.086 128.073 328.237 127.475 322.354C127.08 318.475 126.931 314.575 127.028 310.676C127.093 308.56 127.298 306.451 127.642 304.362C127.81 303.368 128.548 297.557 129.877 297.311C131.431 296.998 131.386 304.664 131.341 305.513Z" fill="white"/>
    <path d="M179.663 285.554C181.473 289.008 179.126 294.707 177.182 297.568C174.41 301.658 170.276 304.463 165.917 306.675C159.603 309.872 152.842 311.961 147.177 316.342C141.511 320.723 143.343 319.404 138.784 325.506C138.695 325.629 138.572 325.595 138.493 325.506C138.408 325.332 138.363 325.141 138.363 324.947C138.363 324.753 138.408 324.562 138.493 324.388C138.509 324.327 138.527 324.268 138.549 324.209C143.746 313.716 151.211 306.128 160.52 298.998C165.794 294.964 169.65 289.265 175.047 285.443C177.104 283.979 178.411 283.163 179.663 285.554Z" fill="#EBEBEB"/>
    <path d="M175.908 290.863C174.433 289.745 171.706 292.662 170.633 293.69C167.617 296.759 164.329 299.55 160.81 302.027C157.58 304.013 154.485 306.212 151.546 308.609C147.134 312.403 143.327 316.85 140.259 321.796C139.644 322.6 139.063 323.461 138.516 324.343C138.43 324.517 138.385 324.708 138.385 324.902C138.385 325.096 138.43 325.287 138.516 325.461C138.516 325.349 138.639 325.237 138.706 325.126C142.818 318.532 148.462 313.951 155.681 310.509C162.9 307.067 169.773 303.01 174.567 296.462C175.394 295.299 177.271 291.891 175.908 290.863ZM174.69 295.534C173.899 296.668 173.037 297.751 172.108 298.775C170.411 300.623 168.54 302.303 166.521 303.792C162.892 306.325 159.03 308.507 154.988 310.307C150.324 312.49 146.095 315.5 142.505 319.192C145.44 315.082 148.896 311.371 152.786 308.151C156.284 305.29 160.285 303.2 163.839 300.451C165.481 299.177 166.99 297.758 168.499 296.35C169.314 295.579 170.119 294.796 170.935 294.037C171.751 293.277 174.008 290.885 175.148 291.366C176.634 291.902 175.014 295.076 174.69 295.534Z" fill="white"/>
    <path d="M83.6682 236.887C91.2338 249.962 97.9947 263.461 104.242 277.207C104.282 277.282 104.295 277.368 104.279 277.452C104.262 277.535 104.218 277.611 104.152 277.665C104.157 277.691 104.157 277.717 104.152 277.743C104.196 277.826 104.234 277.912 104.264 278C104.279 278.043 104.277 278.09 104.258 278.132C104.239 278.174 104.205 278.206 104.163 278.224H104.085C104.053 278.221 104.021 278.212 103.992 278.197C103.963 278.181 103.938 278.16 103.918 278.134C99.0229 270.904 94.4075 264.121 87.5125 258.589C81.1985 253.527 74.8734 249.101 69.7999 242.709C65.4751 237.245 55.071 212.469 58.5353 207.776C60.8151 204.613 77.6448 226.494 83.6682 236.887Z" fill="#EBEBEB"/>
    <path d="M72.996 227.019C71.9679 225.522 69.2076 219.89 66.6038 220.393C64 220.895 66.8273 226.595 67.3302 227.779C69.0917 232.171 71.2815 236.378 73.8677 240.34C76.5162 244.24 80.014 247.179 83.333 250.476C91.4685 258.611 98.1289 268.356 104.007 278.235H104.085C104.127 278.218 104.161 278.185 104.18 278.143C104.199 278.102 104.201 278.055 104.186 278.011C104.155 277.923 104.118 277.837 104.074 277.754C104.079 277.729 104.079 277.702 104.074 277.676C95.4357 259.852 84.1711 243.346 72.996 227.019ZM103.392 277.017C99.4137 270.15 94.9314 263.587 89.9822 257.382C84.2493 250.185 76.6503 244.754 72.102 236.652C69.7272 232.74 67.8502 228.547 66.5144 224.17C66.358 223.589 65.7433 221.622 66.5144 221.063C67.2855 220.504 68.7494 221.678 70.4816 224.036C71.9008 226.002 73.2195 228.047 74.5829 230.059C79.9469 237.949 85.2663 245.872 90.3175 253.985C94.9663 261.495 99.3321 269.172 103.415 277.017H103.392Z" fill="white"/>
    <path d="M108.008 326.4C108.007 326.459 107.983 326.515 107.941 326.556C107.906 326.616 107.849 326.66 107.782 326.679C107.715 326.697 107.644 326.69 107.583 326.657L106.7 326.165C106.689 326.173 106.675 326.178 106.661 326.178C106.647 326.178 106.633 326.173 106.622 326.165C99.7828 323.841 93.8376 323.863 86.7414 324.221C81.4996 324.463 76.2802 323.395 71.5544 321.114C66.4024 318.543 61.7063 315.145 57.6525 311.056C55.9763 309.425 50.3663 305.413 52.065 302.228C54.8476 297.009 72.0796 308.05 75.1081 309.749C80.4522 312.862 85.9832 315.642 91.6696 318.074C97.3131 320.399 102.979 322.544 107.929 326.21C107.959 326.231 107.983 326.26 107.996 326.293C108.01 326.327 108.014 326.364 108.008 326.4Z" fill="#EBEBEB"/>
    <path d="M104.454 324.779C101.213 323.315 98.0283 321.717 94.7316 320.421C91.0327 318.979 87.099 318.264 83.3889 316.823C76.4491 314.118 70.1352 310.118 63.3519 307.089C62.4578 306.698 60.7034 305.972 60.871 307.637C60.938 308.363 61.8209 309.123 62.2567 309.603C63.6272 311.051 65.123 312.375 66.7267 313.559C72.0796 317.594 78.5277 321.047 85.2104 322.097C92.966 323.304 100.722 323.382 107.974 326.567C108.016 326.526 108.04 326.47 108.041 326.411C106.891 325.772 105.691 325.227 104.454 324.779ZM87.6913 321.874C79.1411 320.723 71.1332 317.033 64.704 311.28C63.7667 310.43 62.8752 309.531 62.0332 308.587C61.5415 307.972 60.9157 306.731 63.1507 307.469C63.665 307.666 64.1653 307.897 64.6482 308.162C66.3915 309 68.1125 309.872 69.8334 310.766C73.4989 312.665 77.1532 314.621 80.9415 316.264C84.3201 317.663 87.7976 318.809 91.3456 319.695C95.5915 320.983 99.7343 322.589 103.739 324.5C98.6206 322.824 93.1112 322.544 87.736 321.885L87.6913 321.874Z" fill="white"/>
    <path d="M90.8762 307.078C90.9089 307.183 90.9089 307.296 90.8762 307.402C90.8531 307.458 90.8231 307.51 90.7868 307.558C90.7432 307.615 90.6903 307.664 90.6303 307.704H90.5633C90.4872 307.749 90.4004 307.773 90.3118 307.773C90.2233 307.773 90.1365 307.749 90.0604 307.704C89.0878 307.131 88.1579 306.488 87.2778 305.782C76.5497 298.987 65.5869 291.88 57.7978 281.755C53.8604 276.547 50.5905 270.867 48.0642 264.847C46.8126 261.908 43.0019 255.505 45.3599 252.219C47.7178 248.934 50.4222 251.906 52.2996 253.817C57.213 258.741 61.8149 263.966 66.0786 269.462C70.2584 274.906 73.8191 280.798 76.6949 287.03C80.1257 294.495 83.3218 302.15 90.5745 306.687C90.6514 306.724 90.7186 306.779 90.7709 306.847C90.8232 306.915 90.8592 306.994 90.8762 307.078Z" fill="#EBEBEB"/>
    <path d="M72.7389 286.281C67.5377 278.018 61.7411 270.145 55.3951 262.724C54.5905 261.752 52.1879 259.193 51.2939 261.338C50.2546 263.864 53.5289 267.753 54.6464 269.619C59.0271 276.749 63.987 283.507 69.4758 289.824C75.548 296.844 82.7187 302.834 90.7086 307.559C90.7448 307.51 90.7749 307.458 90.798 307.402C77.8013 299.323 67.4084 287.689 58.9153 275.106C56.8591 272.066 54.7805 268.993 52.9813 265.797C52.7019 265.283 51.1374 261.908 52.1432 261.327C53.1489 260.746 55.5628 263.786 55.8645 264.166C57.2726 265.909 58.6695 267.663 60.0775 269.429C65.2509 276.07 70.0668 282.983 74.5046 290.137C78.693 296.953 84.2438 302.831 90.8091 307.402C90.8418 307.297 90.8418 307.184 90.8091 307.078C83.1095 301.591 77.7231 294.35 72.7389 286.281Z" fill="white"/>
    <path d="M94.0499 181.816C96.8772 187.973 99.1346 194.299 99.6375 201.104C100.487 211.486 98.2294 221.733 97.6036 232.059C97.5986 232.1 97.5986 232.141 97.6036 232.182C97.4304 234.988 97.4304 237.802 97.6036 240.608C97.6036 241.212 97.6483 241.815 97.7377 242.419C97.7471 242.481 97.7397 242.546 97.7161 242.604C97.6925 242.663 97.6537 242.715 97.6036 242.754C97.5309 242.803 97.4455 242.83 97.3578 242.832C97.2708 242.836 97.1848 242.813 97.1119 242.765C97.0519 242.732 97.0003 242.686 96.9615 242.63C96.9227 242.573 96.8976 242.509 96.8884 242.441C96.7655 241.569 96.6873 240.709 96.609 239.848C96.5826 239.836 96.5596 239.817 96.5421 239.794C96.5245 239.77 96.513 239.743 96.5085 239.714C93.0554 225.958 88.8088 211.899 84.5175 198.109C82.5109 192.014 81.0817 185.743 80.2486 179.38C79.824 175.614 79.5223 169.881 82.7631 167.143C82.8596 167.039 82.9817 166.963 83.1171 166.922C83.2525 166.881 83.3963 166.876 83.5341 166.908C88.9988 169.032 91.8149 176.944 94.0499 181.816Z" fill="#EBEBEB"/>
    <path d="M87.6242 181.335C85.0875 179.905 84.9869 183.235 85.0986 184.945C85.5672 189.534 86.3136 194.091 87.3337 198.59C88.2873 203.648 89.3117 208.696 90.4068 213.732C92.4966 223.231 96.1062 232.998 97.1119 242.72C97.1848 242.768 97.2708 242.792 97.3578 242.788C97.4455 242.786 97.5309 242.758 97.6036 242.709V240.564C97.6036 237.759 97.6036 234.976 97.6036 232.138C97.5986 232.097 97.5986 232.055 97.6036 232.015C97.6707 218.482 97.4695 205.016 93.0553 191.695C92.0719 188.644 90.7421 183.09 87.6242 181.335ZM93.4353 194.366C95.842 202.683 97.1163 211.287 97.2237 219.946C97.3801 226.829 97.0337 233.702 97.056 240.586C96.2514 234.898 94.5081 229.299 93.1671 223.678C91.0587 214.857 89.1962 205.991 87.5795 197.081C87.1772 194.936 86.8047 192.786 86.462 190.633C86.1379 188.733 85.2327 185.683 85.6239 183.749C86.3614 179.994 88.9764 183.179 89.7699 184.487C90.4154 185.661 90.9611 186.887 91.4014 188.152C92.1055 190.197 92.8095 192.276 93.4353 194.366Z" fill="white"/>
    <path d="M163.246 266.311C159.115 278.203 154.179 289.8 148.473 301.021C143.209 311.369 137.812 321.583 134.046 332.602C129.039 347.13 127.061 363.825 132.045 378.42C122.346 360.892 115.642 341.867 112.21 322.131C106.197 288.784 101.504 254.812 92.6307 222.058C92.4854 221.521 91.7143 221.767 91.8037 222.292C94.6199 239.759 98.587 257.047 101.56 274.491C104.532 291.936 106.968 309.268 110.22 326.534C110.578 328.411 110.969 330.255 111.338 332.121C104.219 318.387 92.0161 306.854 79.3323 299.032C79.1758 298.931 79.0529 299.177 79.1982 299.289C88.0213 305.58 95.7432 313.287 102.051 322.097C107.639 329.775 111.316 338.111 115.305 346.593C123.177 371.276 137.243 393.53 156.161 411.23C156.201 411.27 156.256 411.293 156.312 411.293C156.369 411.293 156.423 411.27 156.463 411.23C156.503 411.19 156.526 411.136 156.526 411.079C156.526 411.023 156.503 410.969 156.463 410.929C148.973 403.318 142.305 394.938 136.571 385.93C127.631 367.211 131.431 345.442 139.086 326.5C143.098 316.566 147.881 306.989 152.406 297.277C156.932 287.566 161.883 277.218 163.794 266.456C163.788 266.395 163.764 266.337 163.724 266.289C163.684 266.242 163.631 266.208 163.571 266.193C163.511 266.177 163.448 266.18 163.39 266.201C163.332 266.222 163.282 266.26 163.246 266.311Z" fill="#EBEBEB"/>
    <path d="M255.151 475.431C310.747 475.431 355.816 468.312 355.816 459.529C355.816 450.747 310.747 443.627 255.151 443.627C199.555 443.627 154.485 450.747 154.485 459.529C154.485 468.312 199.555 475.431 255.151 475.431Z" fill="#EBEBEB"/>
    <path d="M183.183 410.258H85.5904C85.5904 410.258 85.8139 395.73 95.4133 391.886C98.0157 390.754 100.916 390.499 103.676 391.161C106.436 391.822 108.905 393.363 110.712 395.552C110.712 395.552 114.623 368.843 132.504 368.843C150.384 368.843 158.933 391.886 158.933 391.886C158.933 391.886 162.933 384.924 172.857 386.22C182.781 387.517 183.183 410.258 183.183 410.258Z" fill="#37474F"/>
    <path d="M497.204 410.258C497.204 410.258 494.209 396.3 488.264 394.155C482.319 392.009 478.653 398.267 478.653 398.267C478.653 398.267 477.245 384.924 468.775 380.934C460.304 376.945 453.923 385.125 453.923 385.125C453.923 385.125 447.419 368.195 435.808 368.195C424.197 368.195 418.308 392.948 418.308 392.948C418.308 392.948 411.457 385.561 404.428 389.729C397.399 393.898 397.399 410.247 397.399 410.247L497.204 410.258Z" fill="#37474F"/>
    <path d="M103.079 410.258H13.0973C13.0973 410.258 16.0587 397.574 22.0374 396.68C28.0161 395.786 30.7875 401.665 30.7875 401.665C30.7875 401.665 30.5305 384.008 41.7056 380.957C52.8807 377.906 62.1896 393.574 62.1896 393.574C62.1896 393.574 69.1741 384.634 78.6953 385.226C88.2165 385.818 90.6415 400.525 90.6415 400.525C90.6415 400.525 99.2576 395.418 103.079 410.258Z" fill="#455A64"/>
    <path d="M403.881 410.258H348.586C348.586 410.258 348.72 402.033 354.174 399.854C355.648 399.211 357.291 399.065 358.855 399.438C360.42 399.811 361.82 400.682 362.845 401.921C362.845 401.921 365.08 386.802 375.138 386.802C385.196 386.802 390.113 399.854 390.113 399.854C390.113 399.854 392.348 395.909 398.014 396.636C403.679 397.362 403.881 410.258 403.881 410.258Z" fill="#455A64"/>
    <path d="M0 410.258L63.7877 409.99L127.575 409.889L255.151 409.699L382.726 409.889L446.514 409.99L510.301 410.258L446.514 410.537L382.726 410.627L255.151 410.817L127.575 410.627L63.7877 410.537L0 410.258Z" fill="#263238"/>
    <path d="M397.846 313.135C397.892 343.279 388.347 372.656 370.59 397.015C356.239 416.772 337.059 432.515 314.884 442.74C292.709 452.964 268.282 457.328 243.938 455.413C219.595 453.498 196.15 445.369 175.847 431.802C155.544 418.236 139.061 399.688 127.976 377.93C116.89 356.173 111.573 331.935 112.533 307.535C113.493 283.136 120.698 259.391 133.459 238.572C146.219 217.752 164.108 200.556 185.415 188.627C206.721 176.698 230.732 170.436 255.151 170.439C259.062 170.439 262.936 170.596 266.773 170.909C288.879 172.68 310.263 179.608 329.208 191.136C348.287 202.754 364.386 218.669 376.222 237.613C390.386 260.254 397.881 286.429 397.846 313.135Z" fill="#FFC727"/>
    <g opacity="0.2">
        <path opacity="0.2" d="M285.961 380.476C284.161 385.282 287.167 385.483 287.357 387.472C287.547 389.461 287.357 393.272 281.569 399.072C275.78 404.872 266.181 403.665 264.18 406.067C262.18 408.47 258.783 418.651 254.033 422.003C249.284 425.356 248.446 423.4 241.64 424.808C234.834 426.216 229.649 435 227.649 439.19C225.648 443.381 228.051 450.366 223.257 450.589C218.463 450.813 216.261 440.386 211.869 434.799C207.478 429.211 205.98 424.238 204.628 417.656C203.276 411.074 205.421 397.272 204.628 391.875C203.834 386.477 189.441 376.889 184.244 370.285C179.048 363.68 171.851 350.505 172.254 346.102C172.862 341.838 174.989 337.937 178.243 335.116C180.646 333.317 179.64 332.323 180.043 330.713C180.445 329.104 182.445 328.724 182.836 326.724C183.228 324.723 181.641 318.722 179.64 317.728C177.64 316.733 176.288 320.131 175.047 319.527C173.807 318.924 170.253 314.733 168.856 314.331C167.459 313.928 167.851 316.934 165.85 313.135C163.85 309.335 162.855 299.725 161.257 298.138C159.659 296.551 158.463 300.943 154.664 298.138C150.864 295.333 149.266 289.947 147.668 289.198C146.07 288.449 143.869 289.399 142.226 286.192C140.583 282.984 143.668 277.252 142.226 277.799C140.784 278.347 137.678 282.996 136.873 278.604C136.068 274.212 140.874 259.416 140.069 251.426C139.436 242.995 142.168 234.658 147.668 228.237C147.668 228.237 148.462 223.846 149.266 221.041C150.071 218.236 167.258 207.061 169.247 203.864C170.08 202.076 170.561 200.146 170.667 198.176C195.13 180.12 224.745 170.397 255.151 170.44C259.062 170.44 262.936 170.596 266.773 170.909L267.175 171.434C268.907 173.669 270.774 175.033 275.836 176.899C280.898 178.765 282.094 181.168 281.032 183.157C279.971 185.146 278.239 185.56 276.238 185.694C274.238 185.828 272.372 184.755 270.248 186.096C268.125 187.437 265.979 194.623 263.186 195.036C260.392 195.45 255.452 188.633 254.391 186.644C253.329 184.654 256.782 180.374 255.151 178.374C253.519 176.374 250.681 176.776 246.121 176.374C241.562 175.971 231.068 177.715 231.471 179.447C231.873 181.179 246.926 179.179 247.328 182.643C247.73 186.107 236.265 191.963 234.276 191.438C232.286 190.912 229.604 187.437 226.676 187.035C223.749 186.632 221.346 189.035 219.502 189.27C217.658 189.504 215.49 187.269 212.685 187.806C209.88 188.342 209.221 190.734 207.757 191.672C206.293 192.611 202.829 192.6 202.426 194.734C202.024 196.869 206.818 198.087 208.014 199.394C209.21 200.702 206.539 205.261 207.746 206.189C208.953 207.116 216.407 200.601 218.273 198.992C220.139 197.383 221.737 190.465 225.727 190.6C229.716 190.734 231.057 197.528 232.432 198.199C233.806 198.869 236.689 196.601 241.092 197.528C245.495 198.456 248.546 208.055 249.351 210.938C250.155 213.821 252.01 216.805 250.468 218.001C248.926 219.197 241.673 217.208 240.746 215.341C239.818 213.475 245.54 210.67 245.138 210.011C244.735 209.351 241.405 208.413 239.673 209.452C237.941 210.491 237.148 212.67 235.281 213.207C233.415 213.743 228.487 208.144 227.157 209.743C225.827 211.341 228.487 216.448 229.817 217.565C231.147 218.683 236.075 219.42 236.522 220.761C236.969 222.102 233.169 225.019 228.699 224.751C224.229 224.483 220.441 221.018 218.697 222.516C216.954 224.013 217.904 227.835 216.708 229.221C215.513 230.607 208.975 229.623 205.779 233.076C202.583 236.529 201.119 241.737 197.956 244.676C194.794 247.615 193.296 243.871 189.016 248.029C184.736 252.186 184.088 261.349 183.954 264.545C183.82 267.742 183.954 270.278 182.892 269.876C181.831 269.474 180.356 266.68 179.953 264.948C179.551 263.216 180.892 260.276 180.892 259.215C180.892 258.153 174.757 252.689 171.158 252.152C167.56 251.616 164.364 254.555 161.704 256.689C159.045 258.824 154.239 258.421 152.507 260.154C150.775 261.886 149.445 277.207 150.775 280.805C152.105 284.404 153.837 284.404 158.106 282.537C162.375 280.671 159.972 277.073 162.509 277.866C163.644 278.294 164.621 279.058 165.31 280.057C165.999 281.055 166.367 282.241 166.364 283.454C166.364 285.588 161.302 290.651 161.972 292.114C162.643 293.578 167.035 291.846 169.158 292.517C171.281 293.187 172.365 294.517 171.695 299.971C171.024 305.424 171.427 309.704 174.623 311.503C177.819 313.303 179.618 308.9 181.026 309.503C182.434 310.106 184.379 313.303 186.412 313.101C188.446 312.9 187.418 311.101 191.218 309.905C195.017 308.71 193.609 307.905 194.414 305.502C195.218 303.1 197.61 301.11 200.203 302.306C202.795 303.502 201.007 305.301 201.208 307.301C201.409 309.302 206.002 309.536 209.601 310.654C213.199 311.772 215.188 310.654 222.385 313.057C229.582 315.459 229.984 322.645 232.979 323.841C235.974 325.036 245.976 323.047 253.173 328.244C260.369 333.44 258.358 343.028 261.956 345.833C265.555 348.638 278.943 352.427 284.139 353.421C289.335 354.416 290.14 350.829 294.331 351.823C298.521 352.818 300.935 354.058 302.332 359.813C303.383 365.01 287.76 375.682 285.961 380.476Z" fill="black"/>
        <path opacity="0.2" d="M178.579 278.291C178.713 279.408 182.043 279.889 186.044 282.158C190.044 284.426 191.497 291.098 193.632 290.952C195.766 290.807 195.095 287.756 195.867 286.952C196.638 286.147 198.001 284.415 195.867 282.683C193.732 280.951 191.654 277.229 187.765 276.693C183.876 276.156 183.205 274.558 181.473 274.693C181.033 274.702 180.601 274.808 180.206 275.002C179.811 275.197 179.464 275.475 179.188 275.818C178.912 276.161 178.715 276.56 178.61 276.987C178.504 277.414 178.494 277.859 178.579 278.291Z" fill="black"/>
        <path opacity="0.2" d="M200.56 289.488C199.968 291.12 200.56 292.282 204.829 293.344C209.098 294.405 213.087 292.282 211.758 291.41C210.428 290.539 208.405 290.952 209.221 289.488C210.037 288.024 209.746 285.89 206.282 286.281C202.818 286.672 201.097 288.013 200.56 289.488Z" fill="black"/>
        <path opacity="0.2" d="M215.479 289.935C214.026 290.148 213.244 292.684 214.686 294.282C216.127 295.88 216.149 295.612 217.882 294.282C219.614 292.952 222.273 292.282 221.614 290.93C220.955 289.578 216.954 289.723 215.479 289.935Z" fill="black"/>
        <path opacity="0.2" d="M227.079 295.378C227.727 293.388 231.068 295.378 232.532 297.478C233.996 299.579 233.337 302.675 232.532 304.943C231.728 307.212 231.202 309.872 229.336 308.799C227.47 307.726 229.47 304.541 229.202 302.675C228.934 300.809 226.542 297.02 227.079 295.378Z" fill="black"/>
        <path opacity="0.2" d="M284.497 184.23C283.804 185.906 287.033 186.465 288.9 187.582C290.766 188.7 292.252 189.314 293.291 187.582C294.331 185.85 292.889 183.85 291.425 183.447C289.961 183.045 285.167 182.632 284.497 184.23Z" fill="black"/>
        <path opacity="0.2" d="M309.674 199.819C310.915 201.115 313.027 200.881 314.479 202.747C315.932 204.613 315.407 207.809 317.273 208.748C319.139 209.687 320.469 208.748 320.626 207.407C320.782 206.066 317.966 202.747 318.223 202.088C318.48 201.428 322.09 203.015 322.894 205.015C323.699 207.016 322.09 209.81 323.956 210.346C325.822 210.882 325.42 208.48 326.191 207.943C326.962 207.407 328.717 207.675 328.582 206.077C328.448 204.479 326.347 201.015 324.593 199.819C322.838 198.623 321.531 197.282 318.592 196.623C315.653 195.964 312.87 196.489 311.395 197.74C309.92 198.992 308.925 199.014 309.674 199.819Z" fill="black"/>
        <path opacity="0.2" d="M367.327 224.93C367.239 225.468 366.971 225.961 366.567 226.326C363.773 228.327 360.443 221.398 356.576 220.068C352.71 218.739 350.989 213.81 350.184 214.872C349.379 215.934 349.648 217.409 348.452 219.13C347.256 220.851 345.524 220.471 344.719 223.801C343.915 227.131 348.452 233.255 347.39 235.255C346.329 237.256 344.988 236.585 342.853 236.462C340.719 236.339 341.121 238.183 338.327 237.39C335.533 236.596 337.925 233.121 333.533 228.997C329.141 224.874 327.666 224.069 328.605 222.203C329.544 220.337 328.203 217.677 330.203 217.409C332.203 217.14 333.79 220.068 335.131 220.873C336.472 221.678 338.193 219.275 338.327 217.14C338.461 215.006 333.656 212.078 331.924 210.435C330.192 208.793 330.058 202.758 330.728 201.562C331.399 200.367 333.399 200.758 333.924 197.83C334.237 196.109 331.51 193.226 329.208 191.125C343.829 200.03 356.738 211.478 367.327 224.93Z" fill="black"/>
        <path opacity="0.2" d="M387.218 344.381C387.621 340.112 385.486 339.843 387.621 331.987C389.755 324.131 385.386 315.727 383.754 313.995C382.123 312.263 378.692 312.8 375.932 314.532C373.171 316.264 375.127 317.594 373.261 318.264C371.394 318.935 369.539 317.862 367.807 317.996C366.075 318.13 364.455 322.522 360.745 322.388C357.034 322.254 354.609 316.934 351.804 313.135C348.999 309.335 343.278 306.933 341.412 302.273C339.545 297.613 343.144 290.416 342.339 284.951C341.534 279.486 337.947 280.693 337.277 277.631C336.606 274.569 337.813 276.033 338.741 273.094C339.668 270.155 337.679 268.568 339.545 263.506C341.412 258.444 344.742 255.907 343.937 253.65C343.133 251.392 340.585 247.649 340.473 244.989C340.361 242.329 343.01 242.452 348.072 238.72C353.134 234.987 354.464 235.255 358.331 236.585C361.105 237.61 363.956 238.413 366.857 238.988C369.092 239.39 372.188 245.246 373.115 244.978C374.043 244.709 374.233 242.989 374.591 240.508C374.845 239.408 375.421 238.408 376.244 237.636C391.291 261.748 398.797 289.803 397.801 318.207C396.806 346.611 387.354 374.072 370.657 397.071C384.179 376.274 386.816 348.638 387.218 344.381Z" fill="black"/>
    </g>
    <path opacity="0.1" d="M365.695 403.363C350.472 422.014 330.777 436.511 308.443 445.503C286.11 454.496 261.865 457.691 237.964 454.792C214.064 451.893 191.285 442.994 171.75 428.923C152.214 414.852 136.556 396.067 126.233 374.317C115.911 352.566 111.259 328.558 112.711 304.526C114.164 280.494 121.673 257.221 134.54 236.872C147.407 216.523 165.214 199.761 186.302 188.145C207.39 176.53 231.075 170.439 255.15 170.439C259.062 170.439 262.939 170.596 266.784 170.909C267.845 170.987 268.907 171.088 269.957 171.199C249.792 173.397 230.415 180.257 213.359 191.235C196.302 202.214 182.034 217.011 171.682 234.455C161.33 251.9 155.18 271.513 153.716 291.745C152.253 311.977 155.516 332.271 163.249 351.024C170.982 369.777 182.973 386.473 198.272 399.792C213.571 413.111 231.759 422.688 251.398 427.766C271.036 432.843 291.587 433.281 311.425 429.046C331.262 424.811 349.842 416.018 365.695 403.363Z" fill="black"/>
    <path opacity="0.3" d="M397.846 313.135C397.899 343.28 388.353 372.659 370.59 397.015C357.207 415.404 339.64 430.343 319.341 440.598C337.021 430.488 352.359 416.747 364.343 400.279C381.142 377.151 390.656 349.535 391.665 320.968C392.675 292.4 385.134 264.182 370.009 239.926C358.094 220.885 341.9 204.886 322.716 193.203C303.672 181.584 282.169 174.595 259.934 172.797C256.078 172.485 252.167 172.328 248.244 172.328C236.636 172.335 225.071 173.75 213.803 176.541C227.21 172.484 241.143 170.428 255.151 170.439C259.062 170.439 262.94 170.596 266.784 170.909C288.888 172.674 310.269 179.602 329.208 191.136C343.828 200.037 356.737 211.482 367.327 224.929C387.114 250.071 397.864 281.141 397.846 313.135Z" fill="white"/>
    <path d="M318.19 261.193H390.269C390.269 261.193 386.682 256.522 382.726 255.94C382.726 255.94 375.049 233.065 362.186 232.909C350.218 232.752 345.423 246.978 345.423 246.978C345.423 246.978 339.892 240.597 334.595 243.514C329.298 246.43 326.303 254.778 326.303 254.778C326.303 254.778 320.346 257.986 318.19 261.193Z" fill="white"/>
    <path d="M252.368 329.942H161.28C161.28 329.942 161.28 324.12 173.84 322.98C173.84 322.98 185.306 297.523 202.806 300.943C213.702 303.077 219.278 318.041 219.278 318.041C219.278 318.041 227.515 306.262 234.108 308.542C240.701 310.822 244.601 323.36 244.601 323.36C244.601 323.36 251.34 326.646 252.368 329.942Z" fill="white"/>
    <path d="M338.819 227.276H276.842C276.842 227.276 282.686 221.834 285.29 221.834C287.894 221.834 295.471 203.563 305.171 204.345C314.871 205.127 319.966 218.727 319.966 218.727C319.966 218.727 331.79 215.028 338.819 227.276Z" fill="white"/>
    <path d="M173.036 355.802H120.032C120.032 355.802 122.669 352.371 125.62 351.946C125.62 351.946 131.274 335.128 140.728 335.005C149.523 334.893 153.021 345.342 153.021 345.342C153.021 345.342 157.089 340.659 160.989 342.805C164.889 344.951 167.079 351.086 167.079 351.086C167.079 351.086 171.449 353.444 173.036 355.802Z" fill="white"/>
    <path d="M284.742 399.273H356.844C356.844 399.273 353.257 394.613 349.301 394.032C349.301 394.032 341.624 371.156 328.761 370.989C316.804 370.843 311.999 385.058 311.999 385.058C311.999 385.058 306.411 378.677 301.159 381.594C295.906 384.511 292.867 392.858 292.867 392.858C292.867 392.858 286.899 396.066 284.742 399.273Z" fill="white"/>
    <path d="M246.278 1.81795C264.616 10.4787 276.082 46.0156 266.84 74.9033C256.849 106.127 224.888 112.083 206.494 105.411C186.982 98.2929 181.104 76.6914 189.966 63.8511C198.537 51.3909 212.607 47.703 216.429 36.3268C218.273 30.8733 218.005 20.8157 220.362 12.6467C222.989 3.53892 235.192 -3.45672 246.278 1.81795Z" fill="#263238"/>
    <path d="M253.351 6.73499C260.55 14.4503 266.105 23.5486 269.678 33.4771C271.469 38.4571 272.629 43.6417 273.131 48.9099C273.357 51.5485 273.409 54.1989 273.288 56.8443C273.15 59.4841 272.867 62.1143 272.439 64.7228C270.673 75.1045 266.426 85.3185 259.107 93.0517C255.47 96.9051 251.18 100.083 246.434 102.439C241.709 104.771 236.616 106.268 231.381 106.864C241.808 105.329 251.387 100.245 258.503 92.4706C265.544 84.771 269.678 74.7804 271.355 64.5328C271.791 61.9655 272.09 59.3766 272.249 56.7772C272.38 54.17 272.343 51.557 272.137 48.9546C271.659 43.763 270.568 38.6463 268.885 33.7118C267.204 28.7673 265.029 24.0049 262.392 19.497C259.799 14.9601 256.771 10.6861 253.351 6.73499Z" fill="#263238"/>
    <path d="M218.474 23.0507C218.325 25.965 217.914 28.8599 217.245 31.7002C216.536 34.5705 215.374 37.3093 213.803 39.8134C212.195 42.3129 210.128 44.4856 207.712 46.2167C205.321 47.893 202.963 49.5693 200.705 51.3461C196.074 54.7536 192.168 59.0504 189.217 63.9852C186.361 69.0441 185.294 74.9183 186.189 80.6585C185.549 77.7986 185.409 74.8495 185.775 71.9419C185.964 70.483 186.293 69.0459 186.759 67.6506C187.217 66.2504 187.789 64.8899 188.469 63.5829C191.207 58.3194 195.509 54.0952 200.046 50.4521C202.337 48.6305 204.773 46.999 207.142 45.3562C209.478 43.7112 211.5 41.6596 213.11 39.2993C216.351 34.5834 217.669 28.7723 218.474 23.0507Z" fill="#263238"/>
    <path d="M242.31 64.6781C237.08 77.9653 207.466 128.678 177.618 124.867C167.482 123.571 170.912 82.9047 193.263 44.0041C193.922 42.8866 224.028 49.5916 223.313 56.9561C223.234 57.7383 215.412 74.4451 216.284 74.6575C216.418 74.6575 220.105 71.3049 236.254 57.2578C244.3 50.2063 245.294 57.1125 242.31 64.6781Z" fill="#EB9481"/>
    <path d="M216.272 74.5122C212.965 84.1973 209.441 93.8377 205.701 103.433C204.65 106.093 203.622 108.764 202.594 111.424C202.594 111.524 202.706 111.58 202.75 111.491C205.12 106.934 207.25 102.256 209.131 97.4771C211.009 92.75 212.797 87.9224 214.194 83.0388C214.998 80.2227 215.758 77.4513 216.429 74.5569C216.423 74.542 216.414 74.5286 216.403 74.5178C216.391 74.507 216.377 74.4991 216.362 74.4947C216.347 74.4904 216.331 74.4897 216.315 74.4927C216.299 74.4958 216.285 74.5024 216.272 74.5122Z" fill="#263238"/>
    <path d="M217.792 71.3385C217.792 71.3385 215.557 73.4394 216.898 74.9592C218.239 76.4791 221.189 74.9592 221.189 74.9592C221.189 74.9592 219.737 77.5072 221.312 78.8594C222.888 80.2116 225.514 78.133 225.514 78.133C225.514 78.133 224.084 80.7368 225.637 82.1002C227.19 83.4635 229.716 81.2508 229.716 81.2508C229.716 81.2508 228.409 83.9441 229.716 85.1957C231.024 86.4473 233.359 84.1676 233.359 84.1676C233.359 84.1676 232.074 86.8384 233.493 87.8889C234.912 88.9393 237.237 86.2908 237.237 86.2908L217.792 71.3385Z" fill="white"/>
    <path d="M216.708 71.8301L237.136 87.4753C237.136 87.4753 245.808 68.7234 246.792 60.8897C247.775 53.0559 245.674 49.1446 234.309 57.1236C227.986 61.4523 222.092 66.377 216.708 71.8301Z" fill="#FFC727"/>
    <path d="M246.792 60.8674C245.808 68.69 237.136 87.4531 237.136 87.4531L222.665 76.3897L242.378 52.9219C246.658 51.9273 247.462 55.4586 246.792 60.8674Z" fill="#263238"/>
    <path d="M189.787 51.2679C189.787 51.2679 194.57 38.9753 201.923 32.2702C207.019 27.6213 214.216 20.1116 233.851 26.1462C238.522 27.5766 246.144 35.4886 243.171 38.2265C240.198 40.9644 234.231 32.6389 227.313 31.8679C227.313 31.8679 233.683 39.1317 232.074 43.747C230.655 47.7651 228.956 51.6786 226.989 55.4586C226.211 55.2515 225.446 54.9977 224.698 54.6987C224.698 54.6987 223.056 58.9787 216.652 61.7502L189.787 51.2679Z" fill="#EB9481"/>
    <path d="M207.489 28.5712C211.109 28.4929 218.764 28.4482 225.045 30.5827C232.007 32.963 244.803 39.4334 242.992 44.5628C241.662 48.3176 236.566 46.2838 236.566 46.2838C236.566 46.2838 241.294 50.061 239.349 53.2012C237.583 56.062 233.761 54.2405 233.761 54.2405C233.761 54.2405 236.231 57.0342 233.996 59.4592C231.314 62.3759 224.855 54.6875 219.58 55.2797C218.362 55.4585 207.489 28.5712 207.489 28.5712Z" fill="#EB9481"/>
    <path d="M221.301 37.5784C227.138 38.8255 232.456 41.8235 236.544 46.1721C236.633 46.2838 236.6 46.4291 236.544 46.3397C231.831 42.8085 226.705 39.8663 221.279 37.5784C221.279 37.5784 221.256 37.5784 221.301 37.5784Z" fill="#263238"/>
    <path d="M224.665 29.8899C230.502 31.137 235.819 34.135 239.908 38.4836C239.997 38.5953 239.975 38.7294 239.852 38.6512C235.153 35.1473 230.046 32.2278 224.643 29.9569C224.643 29.9569 224.62 29.8899 224.665 29.8899Z" fill="#263238"/>
    <path d="M219.1 44.641C221.994 45.3562 229.548 48.8764 233.806 54.1287C233.896 54.2516 233.806 54.3857 233.75 54.2963C229.234 50.5599 224.312 47.3436 219.077 44.708L219.1 44.641Z" fill="#263238"/>
    <path d="M224.196 56.2185C221.745 54.6002 218.849 53.7911 215.915 53.9053C215.891 53.9053 215.868 53.9147 215.852 53.9314C215.835 53.9482 215.825 53.971 215.825 53.9947C215.825 54.0184 215.835 54.0411 215.852 54.0579C215.868 54.0746 215.891 54.0841 215.915 54.0841C218.284 54.6093 220.217 55.2016 220.251 55.2016C217.233 58.8447 211.892 60.331 209.601 60.7891C209.456 60.7891 209.511 61.035 209.601 61.035C213.803 61.035 218.452 59.124 220.508 55.3245C221.687 55.7603 222.888 56.1333 224.106 56.442C224.196 56.3303 224.24 56.2632 224.196 56.2185Z" fill="#263238"/>
    <path d="M138.818 205.563C139.611 202.981 183.518 142.099 186.625 140.87C186.982 140.714 207.556 154.671 207.556 154.671C208.416 155.789 246.725 146.759 246.725 146.759L248.166 193.192L178.009 193.281C178.009 193.281 168.655 199.07 160.128 203.797C156.49 205.946 152.729 207.879 148.864 209.586C145.31 210.569 138.013 208.122 138.818 205.563Z" fill="#EB9481"/>
    <path d="M148.797 209.597C152.665 207.897 156.427 205.964 160.061 203.808C168.622 199.081 177.942 193.293 177.942 193.293H193.587L217.155 153.286C211.814 154.403 207.824 155.018 207.556 154.66C207.556 154.66 186.982 140.714 186.625 140.87C183.563 142.099 139.611 202.982 138.818 205.563C138.024 208.144 145.299 210.581 148.797 209.597Z" fill="#EBEBEB"/>
    <path d="M138.404 205.652C139.242 203.004 183.395 142.144 186.547 140.837C187.742 140.356 197.789 146.245 207.556 154.616L179.037 193.818C179.037 193.818 152.217 208.793 148.652 209.798C145.087 210.804 137.577 208.29 138.404 205.652Z" fill="#455A64"/>
    <path d="M141.477 206.546C149.132 196.489 179.048 155.387 185.854 144.904C185.854 144.815 185.854 144.77 185.787 144.904C177.964 154.66 148.395 196.042 141.31 206.468C141.164 206.647 141.31 206.759 141.477 206.546Z" fill="#263238"/>
    <path d="M153.68 207.53C154.532 206.416 155.144 205.138 155.477 203.777C155.81 202.415 155.856 200.999 155.614 199.618C155.202 197.129 153.845 194.895 151.825 193.382C151.758 193.382 151.68 193.449 151.736 193.505C153.506 195.318 154.64 197.658 154.966 200.171C155.293 202.684 154.794 205.235 153.546 207.44C153.457 207.519 153.613 207.608 153.68 207.53Z" fill="#263238"/>
    <path d="M175.695 196.332C178.713 192.287 180.713 186.509 179.216 181.548C179.149 181.358 178.88 181.436 178.858 181.548C178.134 186.475 176.887 191.312 175.137 195.975C175.113 196.011 175.097 196.052 175.09 196.095C175.082 196.138 175.083 196.182 175.092 196.225C175.101 196.267 175.119 196.307 175.144 196.343C175.169 196.379 175.201 196.409 175.237 196.433C175.274 196.456 175.315 196.472 175.358 196.48C175.401 196.488 175.445 196.487 175.487 196.477C175.53 196.468 175.57 196.451 175.606 196.426C175.642 196.401 175.672 196.369 175.695 196.332Z" fill="#263238"/>
    <path d="M172.175 198.59C175.204 194.544 177.193 188.767 175.695 183.805C175.64 183.615 175.36 183.693 175.338 183.861C174.623 188.789 173.379 193.626 171.628 198.288C171.592 198.36 171.585 198.444 171.61 198.52C171.634 198.597 171.687 198.662 171.757 198.701C171.828 198.74 171.911 198.75 171.989 198.729C172.066 198.709 172.133 198.659 172.175 198.59Z" fill="#263238"/>
    <path d="M168.666 200.847C171.684 196.802 173.673 191.024 172.175 186.062C172.119 185.872 171.851 185.962 171.818 186.129C171.102 191.057 169.858 195.894 168.108 200.556C168.09 200.627 168.097 200.701 168.127 200.767C168.157 200.834 168.208 200.888 168.273 200.921C168.337 200.955 168.411 200.966 168.482 200.952C168.554 200.939 168.619 200.902 168.666 200.847Z" fill="#263238"/>
    <path d="M165.146 203.105C168.163 199.07 170.164 193.282 168.666 188.331C168.599 188.13 168.331 188.219 168.309 188.331C167.598 193.275 166.366 198.13 164.632 202.814C164.621 202.878 164.629 202.944 164.657 203.002C164.685 203.061 164.73 203.11 164.786 203.142C164.843 203.173 164.908 203.187 164.972 203.18C165.037 203.174 165.097 203.147 165.146 203.105Z" fill="#263238"/>
    <path d="M193.687 154.526C197.04 149.944 189.866 144.781 186.558 149.386C183.25 153.99 190.335 159.13 193.687 154.526Z" fill="#263238"/>
    <path d="M183.384 208.648C186.602 207.821 186.815 203.999 185.965 201.44C184.413 197.063 181.739 193.171 178.21 190.153C178.199 190.137 178.183 190.123 178.166 190.114C178.148 190.105 178.129 190.1 178.109 190.1C178.09 190.1 178.07 190.105 178.053 190.114C178.035 190.123 178.02 190.137 178.009 190.153C177.92 190.111 177.823 190.091 177.725 190.095C177.627 190.099 177.532 190.126 177.446 190.174C177.361 190.222 177.288 190.29 177.235 190.372C177.181 190.454 177.147 190.547 177.137 190.644C177.048 195.014 176.399 199.663 177.64 203.932C178.366 206.468 180.355 209.419 183.384 208.648ZM178.344 197.383C178.344 195.237 178.445 193.103 178.344 190.946C179.853 193.181 181.451 195.282 182.736 197.651C183.369 198.778 183.925 199.947 184.401 201.149C185.105 203.004 185.608 209.497 180.881 206.737C178.277 205.071 178.355 199.897 178.344 197.383Z" fill="#263238"/>
    <path d="M184.066 178.91C180.937 182.062 179.283 186.465 177.294 190.354C177.256 190.444 177.241 190.542 177.248 190.639C177.256 190.736 177.287 190.83 177.338 190.913C177.39 190.996 177.46 191.066 177.543 191.116C177.627 191.167 177.721 191.196 177.819 191.203C177.816 191.223 177.818 191.244 177.826 191.263C177.833 191.282 177.845 191.299 177.861 191.313C177.876 191.326 177.895 191.335 177.915 191.339C177.935 191.344 177.956 191.343 177.975 191.337C182.517 190.362 186.722 188.207 190.167 185.09C192.145 183.246 193.777 179.782 191.341 177.525C188.904 175.267 185.865 177.067 184.066 178.91ZM188.178 178.128C193.676 177.905 190.145 183.369 188.636 184.677C187.647 185.495 186.602 186.242 185.507 186.912C183.226 188.296 180.876 189.565 178.467 190.711C179.584 188.856 180.49 186.934 181.518 185.046C182.747 182.855 185.138 178.251 188.178 178.128Z" fill="#263238"/>
    <path d="M248.524 135.618L280.004 131.751C280.004 131.751 325.051 116.553 351.715 122.331C382.279 128.946 388.079 164.081 357.973 179.57C328.18 194.891 194.112 195.55 194.112 195.55L220.932 151.811C220.932 151.811 264.515 139.518 303.215 139.965L248.87 148.626L248.524 135.618Z" fill="#263238"/>
    <path d="M249.239 144.591C253.899 143.619 258.637 143.027 263.364 142.356C268.091 141.686 272.897 141.15 277.68 140.636C287.215 139.591 296.797 139.031 306.389 138.959C307.283 138.959 308.177 138.959 309.082 138.959C309.272 138.892 309.473 138.847 309.663 138.792L311.038 138.456C311.898 138.266 312.77 138.121 313.641 137.965C315.441 137.652 317.262 137.417 319.05 137.037C319.162 137.037 319.207 137.182 319.106 137.205C317.296 137.652 315.53 138.211 313.72 138.646C313.194 138.78 312.68 138.903 312.155 139.015C315.675 139.127 319.184 139.317 322.704 139.552C322.816 139.552 322.816 139.73 322.704 139.73C317.933 139.552 313.116 139.63 308.344 139.82C303.573 140.01 298.857 140.222 294.118 140.602C284.552 141.362 274.987 142.446 265.465 143.653C260.124 144.334 254.76 145.128 249.384 145.474C248.859 145.553 248.714 144.703 249.239 144.591Z" fill="#455A64"/>
    <path d="M205.053 194.03C206.706 191.248 208.103 188.286 209.601 185.425L214.138 176.809C217.166 171.076 228.051 151.811 229.135 150.447C229.202 150.369 229.347 150.447 229.314 150.559C228.822 152.045 222.039 164.796 220.485 167.635C217.356 173.323 214.071 178.91 210.83 184.531C209.903 186.129 208.942 187.716 208.003 189.314C207.064 190.912 206.058 192.477 205.198 194.12C205.153 194.164 204.997 194.03 205.053 194.03Z" fill="#455A64"/>
    <path d="M360.599 206.211C359.75 203.652 314.435 143.776 311.339 142.625C310.982 142.468 290.732 156.884 290.732 156.884C289.894 158.002 251.385 149.866 251.385 149.866L251.005 196.321L321.151 194.824C321.151 194.824 330.616 200.411 339.288 204.881C342.971 206.974 346.777 208.84 350.687 210.469C354.229 211.363 361.46 208.759 360.599 206.211Z" fill="#EB9481"/>
    <path d="M350.72 210.469C349.368 210.123 344.652 207.753 339.322 204.881C330.661 200.344 321.185 194.824 321.185 194.824L305.539 195.159L281.099 155.722C286.463 156.672 290.464 157.242 290.732 156.839C290.732 156.839 310.982 142.424 311.339 142.58C314.435 143.698 359.75 203.607 360.599 206.167C361.449 208.726 354.229 211.374 350.72 210.469Z" fill="#EBEBEB"/>
    <path d="M361.013 206.323C360.119 203.697 314.602 143.854 311.417 142.625C310.222 142.167 300.309 148.29 290.732 156.873L320.123 195.416C320.123 195.416 347.245 209.787 350.866 210.715C354.486 211.642 361.907 208.916 361.013 206.323Z" fill="#455A64"/>
    <path d="M357.962 207.251C350.139 197.405 319.251 156.962 312.211 146.625C312.155 146.547 312.211 146.502 312.267 146.625C320.291 156.214 350.81 196.914 358.085 207.172C358.286 207.34 358.13 207.441 357.962 207.251Z" fill="#263238"/>
    <path d="M345.792 208.558C344.919 207.47 344.28 206.214 343.915 204.868C343.549 203.522 343.466 202.115 343.669 200.735C344.029 198.239 345.338 195.977 347.323 194.421C347.323 194.421 347.469 194.488 347.413 194.544C345.685 196.395 344.605 198.756 344.335 201.273C344.065 203.79 344.62 206.327 345.915 208.502C345.971 208.558 345.848 208.558 345.792 208.558Z" fill="#263238"/>
    <path d="M323.52 197.819C320.413 193.84 318.29 188.107 319.676 183.112C319.732 182.922 320 183 320.033 183.168C320.867 188.077 322.219 192.883 324.068 197.506C324.088 197.576 324.085 197.651 324.057 197.718C324.03 197.786 323.981 197.843 323.918 197.879C323.854 197.915 323.781 197.929 323.708 197.918C323.636 197.907 323.57 197.872 323.52 197.819Z" fill="#263238"/>
    <path d="M327.085 199.998C323.978 196.019 321.855 190.287 323.241 185.291C323.297 185.101 323.565 185.18 323.598 185.291C324.432 190.2 325.784 195.006 327.633 199.629C327.657 199.665 327.674 199.705 327.682 199.748C327.691 199.79 327.691 199.834 327.683 199.877C327.674 199.919 327.658 199.96 327.634 199.996C327.61 200.032 327.579 200.063 327.543 200.087C327.507 200.111 327.467 200.128 327.424 200.137C327.382 200.145 327.338 200.146 327.296 200.137C327.253 200.129 327.213 200.112 327.176 200.088C327.14 200.065 327.109 200.034 327.085 199.998Z" fill="#263238"/>
    <path d="M330.661 202.177C327.543 198.199 325.42 192.466 326.806 187.471C326.862 187.281 327.141 187.359 327.163 187.526C327.997 192.431 329.35 197.234 331.197 201.853C331.219 201.888 331.233 201.927 331.239 201.968C331.245 202.009 331.243 202.05 331.234 202.09C331.224 202.13 331.206 202.168 331.182 202.201C331.157 202.234 331.127 202.262 331.091 202.283C331.056 202.305 331.017 202.319 330.976 202.325C330.936 202.331 330.894 202.329 330.854 202.319C330.814 202.309 330.777 202.292 330.744 202.267C330.71 202.243 330.682 202.212 330.661 202.177Z" fill="#263238"/>
    <path d="M334.226 204.356C331.108 200.378 328.985 194.645 330.371 189.661C330.426 189.46 330.706 189.538 330.728 189.661C331.554 194.601 332.91 199.438 334.774 204.088C334.781 204.154 334.767 204.221 334.735 204.28C334.703 204.338 334.654 204.385 334.594 204.414C334.534 204.444 334.467 204.454 334.401 204.443C334.335 204.433 334.274 204.403 334.226 204.356Z" fill="#263238"/>
    <path d="M304.623 156.437C301.27 151.967 308.221 146.603 311.641 151.129C315.061 155.655 308.043 160.952 304.623 156.437Z" fill="#263238"/>
    <path d="M321.754 205.507C322.872 201.216 322.146 196.567 321.944 192.209C321.944 191.762 321.43 191.605 321.073 191.74C321.061 191.723 321.046 191.71 321.029 191.701C321.011 191.692 320.992 191.687 320.972 191.687C320.952 191.687 320.933 191.692 320.916 191.701C320.898 191.71 320.883 191.723 320.872 191.74C317.41 194.838 314.824 198.792 313.373 203.205C312.58 205.787 312.881 209.597 316.111 210.346C319.162 211.017 321.084 208.011 321.754 205.507ZM318.57 208.223C313.898 211.151 314.256 204.658 314.915 202.769C315.364 201.561 315.894 200.385 316.502 199.249C317.797 196.914 319.211 194.646 320.738 192.455C320.738 194.6 320.849 196.735 320.894 198.88C320.95 201.451 321.14 206.614 318.57 208.223Z" fill="#263238"/>
    <path d="M307.461 179.391C305.081 181.693 306.78 185.113 308.803 186.923C312.302 189.959 316.537 192.025 321.084 192.913C321.185 192.913 321.24 192.857 321.24 192.768C321.609 192.7 321.967 192.309 321.743 191.918C319.665 188.074 317.921 183.705 314.725 180.62C312.904 178.787 309.708 177.201 307.461 179.391ZM317.441 186.699C318.558 188.566 319.486 190.477 320.626 192.287C318.223 191.169 315.787 190.052 313.496 188.644C312.388 187.973 311.328 187.226 310.322 186.409C308.78 185.146 305.126 179.76 310.635 179.86C313.675 179.961 316.167 184.476 317.441 186.699Z" fill="#263238"/>
    <path d="M249.261 135.618H217.781C217.781 135.618 184.848 119.794 158.318 126.164C127.911 133.483 124.022 171.68 146.752 185.18C175.55 202.289 303.707 198.981 303.707 198.981L276.003 152.045C276.003 152.045 233.382 143.105 194.738 144.379L249.261 151.811V135.618Z" fill="#263238"/>
    <path d="M277.847 155.051C277.818 154.976 277.799 154.897 277.792 154.817C277.792 154.75 277.792 154.683 277.792 154.616L277.669 154.157C277.577 153.846 277.469 153.54 277.344 153.241C277.222 152.939 277.099 152.649 276.953 152.347C276.78 152.075 276.589 151.813 276.383 151.565C276.383 151.565 276.328 151.565 276.305 151.509H276.238C276.238 151.509 276.238 151.509 276.16 151.509C271.478 150.637 239.628 146.078 234.89 145.541C230.152 145.005 225.335 144.547 220.541 144.144C210.984 143.321 201.391 142.978 191.799 143.116C190.905 143.116 190.011 143.116 189.106 143.195L188.525 143.049C188.055 142.938 187.608 142.826 187.139 142.736C186.278 142.569 185.407 142.446 184.535 142.312C182.713 142.032 180.903 141.842 179.093 141.507C178.981 141.507 178.936 141.652 179.093 141.675C180.914 142.077 182.691 142.602 184.513 142.993C185.038 143.116 185.552 143.228 186.077 143.329C182.568 143.519 179.059 143.787 175.55 144.1C175.438 144.1 175.438 144.29 175.55 144.279C180.322 143.999 185.127 143.966 189.91 144.044C194.693 144.122 199.409 144.234 204.147 144.502C213.736 145.05 223.313 145.91 232.867 146.905C238.22 147.475 270.695 152.213 276.082 152.436H276.149C276.149 152.559 276.238 152.682 276.294 152.805C276.439 153.096 276.596 153.386 276.752 153.666C276.909 153.945 277.054 154.213 277.233 154.481L277.49 154.873L277.624 155.063C277.68 155.124 277.728 155.191 277.769 155.264C277.724 155.241 277.914 155.163 277.847 155.051Z" fill="#455A64"/>
    <path d="M293.716 196.131C292.006 193.382 290.542 190.454 288.967 187.627L284.206 179.111C281.055 173.457 269.734 154.437 268.617 153.107C268.55 153.018 268.404 153.107 268.438 153.208C268.974 154.683 276.037 167.277 277.657 170.093C280.909 175.681 284.363 181.212 287.715 186.755C288.676 188.342 289.671 189.907 290.654 191.482C291.637 193.058 292.666 194.6 293.56 196.221C293.627 196.321 293.772 196.265 293.716 196.131Z" fill="#455A64"/>
    <path d="M224.43 101.02L218.005 138.669C218.005 138.669 251.619 151.788 292.297 138.501C292.297 138.501 280.25 72.456 264.359 55.2128C256.413 46.5856 247.082 47.2337 241.137 53.2571C239.628 54.7881 223.916 76.2779 222.028 85.3409C220.374 93.3423 224.43 101.02 224.43 101.02Z" fill="#FFC727"/>
    <path d="M268.84 55.0898C301.159 76.5237 329.823 107.211 327.856 117.581C325.778 128.544 303.617 143.284 286.754 147.888C282.988 148.916 268.46 121.157 272.349 119.626C275.378 118.43 287.357 112.128 288.922 110.105C290.039 108.697 266.963 79.094 258.928 63.5158C250.513 47.2001 260.179 49.3569 268.84 55.0898Z" fill="#EB9481"/>
    <path d="M279.49 118.431C279.49 118.431 267.756 120.308 260.135 121.906C255.877 122.8 248.736 124.968 245.909 127.047C241.685 130.164 226.006 145.888 229.738 149.766C233.091 153.286 237.561 147.139 237.561 147.139C237.561 147.139 232.108 153.398 236.522 155.856C240.936 158.315 245.965 149.777 245.965 149.777C245.965 149.777 239.707 156.013 244.68 158.192C248.982 160.08 255.788 150.85 255.788 150.85C255.788 150.85 248.501 156.672 252.737 159.041C257.408 161.656 269.343 149.095 269.343 149.095C279.524 149.62 285.703 148.57 292.71 146.145C293.962 145.709 279.49 118.431 279.49 118.431Z" fill="#EB9481"/>
    <path d="M244.266 151.855C244.691 151.207 245.127 150.559 245.551 149.9C246.353 148.615 247.226 147.376 248.166 146.189C249.105 145.072 250.1 143.954 251.116 142.893C252.133 141.831 253.351 140.747 254.469 139.54C254.558 139.451 254.693 139.54 254.603 139.663C253.547 140.789 252.558 141.975 251.642 143.217C250.703 144.401 249.775 145.597 248.859 146.782C247.943 147.966 246.97 149.017 246.032 150.134C245.574 150.704 245.127 151.252 244.691 151.889C244.303 152.473 243.869 153.026 243.394 153.543C243.383 153.551 243.369 153.555 243.355 153.554C243.341 153.554 243.327 153.549 243.316 153.54C243.305 153.531 243.297 153.519 243.293 153.506C243.289 153.492 243.289 153.478 243.294 153.464C243.564 152.897 243.889 152.358 244.266 151.855Z" fill="#263238"/>
    <path d="M236.421 148.469C237.823 146.03 239.395 143.692 241.126 141.474C242.883 139.268 244.856 137.243 247.015 135.428C247.093 135.361 247.205 135.428 247.149 135.54C245.395 137.775 243.596 139.943 241.819 142.133C240.936 143.195 237.125 148.179 236.656 148.648C236.544 148.76 236.365 148.603 236.421 148.469Z" fill="#263238"/>
    <path d="M251.563 155.241C252.934 152.975 254.454 150.802 256.112 148.737C257.988 146.789 260.005 144.981 262.146 143.329C262.236 143.329 262.347 143.384 262.28 143.452C260.403 145.396 258.514 147.307 256.693 149.352C255.821 150.335 252.603 154.493 251.698 155.364C251.664 155.454 251.519 155.342 251.563 155.241Z" fill="#263238"/>
    <path d="M267.879 82.3796C267.879 82.3796 269.432 85.0393 271.232 84.0447C273.031 83.0501 272.204 79.8652 272.204 79.8652C272.204 79.8652 274.361 81.8543 276.037 80.6139C277.713 79.3735 276.249 76.3562 276.249 76.3562C276.249 76.3562 278.484 78.323 280.149 77.1161C281.815 75.9092 280.228 72.9478 280.228 72.9478C280.228 72.9478 282.563 74.8252 284.083 73.8082C285.603 72.7913 283.882 70.0199 283.882 70.0199C283.882 70.0199 286.195 71.8638 287.536 70.7127C288.877 69.5617 286.81 66.712 286.81 66.712L267.879 82.3796Z" fill="white"/>
    <path d="M268.125 83.5417L287.883 67.0807C287.883 67.0807 271.522 54.4752 264.091 51.7819C256.659 49.0887 252.379 50.2957 257.643 63.1135C260.48 70.2406 263.99 77.0809 268.125 83.5417Z" fill="#FFC727"/>
    <path d="M259.252 67.7512C259.238 67.7388 259.22 67.7312 259.201 67.7297C259.182 67.7281 259.163 67.7327 259.146 67.7426C259.13 67.7526 259.118 67.7675 259.111 67.7851C259.103 67.8027 259.102 67.8222 259.107 67.8406C259.397 68.567 261.632 72.8024 262.113 73.7299C261.945 73.5623 259.52 71.4167 259.151 71.0032C259.073 70.9138 258.95 71.0032 259.028 71.1261C259.42 71.5396 262.761 75.1157 262.94 75.2498C263.331 75.9761 267.108 82.4913 267.879 83.4858C268.091 83.754 268.192 83.4858 268.114 83.1841C267.812 82.0442 259.922 68.5782 259.252 67.7512Z" fill="#263238"/>
    <path d="M248.96 47.1667C241.305 48.0719 236.891 60.5768 238.734 62.3984C240.578 64.2199 244.981 60.1634 244.981 60.1634C244.981 60.1634 247.831 65.4827 251.631 63.9406C258.067 61.3256 259.274 45.9374 248.96 47.1667Z" fill="white"/>
    <path d="M254.324 49.547C254.078 51.3127 250.2 59.4146 244.847 59.4258C242.098 59.4258 241.707 49.804 241.707 49.804L241.539 49.1L239.304 39.2547L252.525 30.7839C252.525 30.7839 254.402 49.0441 254.324 49.547Z" fill="#EB9481"/>
    <path d="M253.206 37.5784C252.168 40.201 250.594 42.5783 248.585 44.5582C246.576 46.5382 244.177 48.0775 241.539 49.0776L239.304 39.2324L252.525 30.7616C252.525 30.7616 252.837 33.9018 253.206 37.5784Z" fill="#263238"/>
    <path d="M223.603 28.4819C226.732 45.9263 237.539 46.0157 241.294 45.334C244.713 44.7193 256.257 42.1826 254.938 24.5147C253.62 6.84681 244.523 2.77906 236.645 3.78482C228.766 4.79059 220.508 11.0375 223.603 28.4819Z" fill="#EB9481"/>
    <path d="M228.587 23.3636C228.979 23.2184 229.325 23.0172 229.705 22.8384C230.122 22.7111 230.484 22.4474 230.733 22.0897C230.789 21.9624 230.802 21.8204 230.77 21.6852C230.737 21.5501 230.662 21.4291 230.554 21.3409C230.313 21.2006 230.04 21.1266 229.761 21.1266C229.482 21.1266 229.208 21.2006 228.967 21.3409C228.438 21.5465 228.006 21.9461 227.76 22.4584C227.708 22.5773 227.692 22.7088 227.713 22.8369C227.734 22.965 227.792 23.0842 227.879 23.1801C227.967 23.2759 228.08 23.3443 228.206 23.3769C228.332 23.4095 228.464 23.4049 228.587 23.3636Z" fill="#263238"/>
    <path d="M240.377 20.5474C239.972 20.5753 239.565 20.5753 239.159 20.5474C238.731 20.623 238.29 20.5521 237.907 20.3463C237.797 20.2605 237.719 20.1395 237.686 20.0034C237.654 19.8672 237.669 19.7241 237.729 19.5976C237.878 19.3633 238.087 19.1734 238.335 19.0477C238.583 18.9219 238.859 18.8648 239.137 18.8823C239.704 18.8324 240.27 18.9958 240.724 19.3405C240.833 19.4218 240.915 19.5347 240.959 19.664C241.003 19.7933 241.006 19.9328 240.969 20.064C240.931 20.1952 240.854 20.3118 240.748 20.3982C240.643 20.4846 240.513 20.5366 240.377 20.5474Z" fill="#263238"/>
    <path d="M239.137 25.4534C239.137 25.4534 239.237 25.4534 239.248 25.5316C239.461 26.7273 239.908 28.046 241.07 28.2025V28.2695C239.729 28.3701 239.148 26.6044 239.137 25.4534Z" fill="#263238"/>
    <path d="M239.919 23.9894C241.785 23.4418 242.757 27.2079 241.036 27.7219C239.315 28.236 238.388 24.4588 239.919 23.9894Z" fill="#263238"/>
    <path d="M240.712 24.0006C241.092 24.1236 241.517 24.4253 241.919 24.3582C242.322 24.2912 242.646 23.7995 242.847 23.3413C242.847 23.3413 242.847 23.3413 242.914 23.3413C243.063 23.6702 243.08 24.0438 242.961 24.3849C242.843 24.726 242.598 25.0085 242.277 25.174C241.595 25.4534 240.925 24.9505 240.556 24.2688C240.489 24.1683 240.556 23.9448 240.712 24.0006Z" fill="#263238"/>
    <path d="M231.895 27.1073C231.895 27.1073 231.817 27.1855 231.839 27.2414C232.186 28.3589 232.387 29.7782 231.437 30.4487C231.437 30.4487 231.437 30.5269 231.437 30.4487C232.7 29.9793 232.409 28.1466 231.895 27.1073Z" fill="#263238"/>
    <path d="M230.565 26.1686C228.654 26.5262 229.504 30.3258 231.281 30.0017C233.057 29.6776 232.13 25.8669 230.565 26.1686Z" fill="#263238"/>
    <path d="M229.794 26.5932C229.537 26.8614 229.325 27.2972 228.967 27.409C228.61 27.5207 228.163 27.1855 227.85 26.8502C227.85 26.8502 227.794 26.8502 227.85 26.9061C227.995 27.6325 228.397 28.3365 229.135 28.3141C229.873 28.2918 230.118 27.5766 230.13 26.8167C230.051 26.6714 229.895 26.4926 229.794 26.5932Z" fill="#263238"/>
    <path d="M234.588 31.9907C234.588 31.9907 234.778 33.8011 234.98 34.6281C235.799 34.6238 236.603 34.3997 237.307 33.9791C238.01 33.5584 238.588 32.9567 238.98 32.2366C238.98 32.1472 238.891 32.0801 238.824 32.1472C237.947 33.1352 236.768 33.8068 235.471 34.0581C235.36 33.8458 235.259 30.9514 235.125 30.9738C234.495 31.1858 233.897 31.4828 233.348 31.8566C232.856 28.0906 232.957 24.2911 232.409 20.5474C232.409 20.4245 232.186 20.4245 232.186 20.5474C231.94 24.6251 232.105 28.7171 232.677 32.7618C232.8 33.2424 234.298 32.2031 234.588 31.9907Z" fill="#263238"/>
    <path d="M236.086 34.2259C236.683 34.6826 237.387 34.9788 238.131 35.0864C238.541 35.1358 238.956 35.0536 239.315 34.8517C240.098 34.4158 239.908 33.6336 239.584 33.019C239.409 32.6924 239.195 32.3884 238.947 32.1138C238.239 33.1016 237.238 33.8408 236.086 34.2259Z" fill="#263238"/>
    <path d="M238.131 35.1199C238.541 35.1694 238.956 35.0872 239.316 34.8852C240.098 34.4494 239.908 33.6671 239.584 33.0525C239.146 33.1863 238.765 33.4622 238.502 33.8367C238.239 34.2112 238.108 34.6628 238.131 35.1199Z" fill="#FF9BBC"/>
    <path d="M252.413 26.4033C252.413 26.4033 254.648 20.0558 257.486 20.7375C260.325 21.4192 259.554 29.9123 256.995 31.7338C256.683 31.9922 256.322 32.1847 255.934 32.2996C255.545 32.4145 255.138 32.4496 254.736 32.4026C254.334 32.3556 253.945 32.2275 253.594 32.0261C253.243 31.8248 252.936 31.5542 252.692 31.231L252.413 26.4033Z" fill="#EB9481"/>
    <path d="M257.218 23.1066C257.218 23.1066 257.285 23.1066 257.218 23.1848C255.441 24.5258 254.894 26.6603 254.681 28.7724C254.738 28.5418 254.845 28.3264 254.993 28.141C255.142 27.9555 255.329 27.8045 255.541 27.6983C255.754 27.592 255.987 27.5331 256.224 27.5256C256.461 27.5181 256.698 27.5622 256.916 27.6549C256.931 27.6549 256.945 27.6607 256.956 27.6712C256.966 27.6817 256.972 27.6959 256.972 27.7107C256.972 27.7255 256.966 27.7398 256.956 27.7502C256.945 27.7607 256.931 27.7666 256.916 27.7666C256.538 27.747 256.163 27.8436 255.842 28.0433C255.52 28.2431 255.267 28.5365 255.117 28.8841C254.887 29.48 254.719 30.0978 254.614 30.728C254.614 30.9292 254.223 30.918 254.234 30.728C253.541 28.1913 254.558 24.1012 257.218 23.1066Z" fill="#263238"/>
    <path d="M256.503 31.1304C256.505 31.2833 256.462 31.4335 256.378 31.5617C256.295 31.69 256.175 31.7906 256.035 31.8507C255.894 31.9107 255.739 31.9276 255.588 31.8991C255.438 31.8707 255.3 31.7981 255.191 31.6907C255.082 31.5834 255.007 31.446 254.976 31.2961C254.946 31.1462 254.96 30.9906 255.018 30.8491C255.076 30.7075 255.175 30.5864 255.302 30.5012C255.429 30.416 255.579 30.3705 255.732 30.3704C255.833 30.369 255.933 30.3875 256.026 30.425C256.12 30.4626 256.205 30.5183 256.276 30.589C256.348 30.6597 256.405 30.744 256.444 30.8369C256.483 30.9299 256.503 31.0296 256.503 31.1304Z" fill="#455A64"/>
    <path d="M256.101 31.1304C256.103 31.2037 256.083 31.2761 256.044 31.3382C256.005 31.4003 255.948 31.4493 255.881 31.4789C255.814 31.5086 255.739 31.5175 255.667 31.5045C255.595 31.4916 255.528 31.4574 255.475 31.4063C255.423 31.3552 255.386 31.2895 255.371 31.2177C255.356 31.1459 255.363 31.0712 255.39 31.0031C255.418 30.9351 255.465 30.8768 255.526 30.8358C255.587 30.7947 255.658 30.7728 255.732 30.7728C255.78 30.7713 255.827 30.7794 255.872 30.7967C255.917 30.814 255.957 30.8401 255.992 30.8735C256.026 30.9068 256.054 30.9467 256.072 30.9909C256.091 31.035 256.101 31.0824 256.101 31.1304Z" fill="#263238"/>
    <path d="M257.006 30.4263C257.302 30.4263 257.542 30.1862 257.542 29.8899C257.542 29.5937 257.302 29.3535 257.006 29.3535C256.709 29.3535 256.469 29.5937 256.469 29.8899C256.469 30.1862 256.709 30.4263 257.006 30.4263Z" fill="#455A64"/>
    <path d="M239.93 45.4904C237.725 45.598 235.53 45.1413 233.551 44.1635C231.572 43.1858 229.875 41.7193 228.621 39.9028C226.118 36.3156 224.855 31.8567 223.95 27.6102C223.659 26.2692 223.424 24.9058 223.235 23.5424C223.01 22.2476 222.912 20.9338 222.944 19.6199C222.944 19.5082 222.765 19.5082 222.776 19.6199C222.888 20.8827 222.832 22.1567 222.888 23.4195C222.944 24.6823 223.078 25.9339 223.268 27.1855C223.621 29.5797 224.193 31.9364 224.978 34.2258C226.397 38.3048 228.643 42.2608 232.555 44.3952C234.82 45.5778 237.416 45.971 239.93 45.5127C239.997 45.5686 239.986 45.4792 239.93 45.4904Z" fill="#263238"/>
    <path d="M254.838 24.6264C252.837 25.0176 246.345 20.8939 243.786 11.4398C243.786 11.4398 246.68 19.7764 247.63 20.8604C248.58 21.9444 243.976 18.5807 241.83 10.9481C239.868 13.2829 237.579 15.3228 235.035 17.005C231.683 18.9383 229.448 19.4635 229.135 19.24C228.822 19.0165 233.706 16.0104 234.723 13.9877C234.723 13.9877 226.241 20.8939 221.882 22.3579C221.379 22.5255 218.105 12.1326 223.827 5.91926C229.548 -0.294116 241.629 1.79564 245.261 3.87421C245.261 3.87421 248.814 3.49426 253.821 7.62906C258.827 11.7639 256.983 24.2241 254.838 24.6264Z" fill="#263238"/>
</svg>
