<svg width="450" height="420" viewBox="0 0 450 420" fill="none" xmlns="http://www.w3.org/2000/svg">
    <path d="M307.66 95.9213L393.996 95.7932C393.996 95.7932 389.7 90.2057 384.96 89.5158C384.96 89.5158 375.716 62.1299 360.323 61.923C345.995 61.7555 340.279 78.8039 340.279 78.8039C340.279 78.8039 333.627 71.1666 327.291 74.6748C320.954 78.1831 317.377 88.1855 317.377 88.1855C317.377 88.1855 310.242 92.078 307.66 95.9213Z" fill="#EBEBEB"/>
    <path d="M170.957 132.669L61.7784 132.837C61.7784 132.837 61.7784 125.86 76.8067 124.47C76.8067 124.47 90.4947 93.9208 111.465 98.0302C124.523 100.553 131.224 118.469 131.224 118.469C131.224 118.469 141.078 104.347 148.962 107.067C156.846 109.787 161.566 124.805 161.566 124.805C161.566 124.805 169.716 128.727 170.957 132.669Z" fill="#EBEBEB"/>
    <path d="M296.071 37.3458L221.837 37.4542C221.837 37.4542 228.833 30.9206 231.947 30.9206C235.062 30.9206 244.118 9.01383 255.727 9.92045C267.335 10.8271 273.524 27.1266 273.524 27.1266C273.524 27.1266 287.636 22.6821 296.071 37.3458Z" fill="#EBEBEB"/>
    <path d="M89.2727 78.8435L25.7895 78.9421C25.7895 78.9421 28.9331 74.8228 32.4117 74.3104C32.4117 74.3104 39.1523 54.1479 50.4851 53.9902C61.0196 53.8326 65.267 66.3578 65.267 66.3578C65.267 66.3578 70.145 60.7308 74.8062 63.293C79.4674 65.8552 82.1084 73.2067 82.1084 73.2067C82.1084 73.2067 87.3609 76.0152 89.2727 78.8435Z" fill="#EBEBEB"/>
    <path d="M345.62 159.897C345.01 165.554 345.659 171.275 347.522 176.65C351.385 187.894 361.782 195.443 365.773 206.48C365.773 207.889 365.773 209.318 365.655 210.767C365.655 210.767 365.655 210.767 365.655 210.836C365.655 210.905 365.655 210.836 365.655 210.836C365.667 210.862 365.684 210.886 365.707 210.904C365.729 210.923 365.755 210.937 365.783 210.944C365.842 210.767 365.881 210.599 365.921 210.432C365.96 210.264 366.078 209.811 366.137 209.505C366.197 209.2 366.335 208.628 366.404 208.185C366.404 208.185 366.463 207.978 366.404 207.919C368.483 195.443 362.186 183.194 358.017 171.693C355.632 165.111 354.844 158.173 352.578 151.61C352.036 150.043 351.484 146.978 349.276 148.023C346.832 149.245 345.876 157.601 345.62 159.897Z" fill="#EBEBEB"/>
    <path d="M349.168 169.555C351.04 183.755 366.285 193.659 365.871 208.264C365.871 208.688 365.822 209.092 365.792 209.505C365.763 209.919 365.743 210.077 365.704 210.363C365.704 210.471 365.704 210.589 365.704 210.718C365.704 210.846 365.704 210.718 365.704 210.787C365.704 210.856 365.704 210.787 365.704 210.787C365.716 210.813 365.734 210.836 365.756 210.855C365.778 210.874 365.804 210.887 365.832 210.895H365.891C365.915 210.886 365.936 210.872 365.954 210.853C365.971 210.834 365.983 210.811 365.99 210.787C366.078 210.343 366.137 209.89 366.187 209.456C366.333 208.382 366.383 207.297 366.335 206.214C366.551 199.779 365.083 193.699 362.57 187.441C359.486 179.754 356.017 172.393 353.07 164.588C352.706 163.603 351.976 159.661 350.469 160.508C348.508 161.602 348.961 167.909 349.168 169.555ZM349.473 167.338C349.473 166.52 349.473 161.041 350.912 161.356C351.76 161.533 352.597 165.515 352.824 166.057C353.691 168.156 354.558 170.225 355.425 172.324C357.268 176.709 359.141 181.085 360.974 185.47C363.316 190.762 364.895 196.359 365.664 202.095C362.669 189.915 349.789 180.484 349.473 167.338Z" fill="white"/>
    <path d="M367.231 295.575C367.231 295.763 367.468 295.989 367.685 295.782C377.076 286.913 391.395 290.077 401.299 281.917C405.173 278.501 408.57 274.58 411.4 270.259C413.678 267.197 415.569 263.863 417.027 260.335C417.204 259.862 418.229 257.872 417.854 257.044C414.947 250.786 399.939 265.066 397.367 267.155C387.335 275.314 378.15 282.755 369.774 292.373C368.897 293.358 368.039 294.344 367.192 295.437C367.202 295.467 367.212 295.516 367.231 295.575Z" fill="#EBEBEB"/>
    <path d="M367.231 295.575L368.217 294.59C374.888 289.722 382.821 286.972 390.321 283.503C397.82 280.035 404.068 275.433 408.906 268.574C409.764 267.362 413.371 262.661 411.725 260.927C410.256 259.379 406.531 263.587 405.576 264.386C398.47 270.298 391.552 276.211 383.994 281.592C379.155 285.011 374.258 288.441 369.774 292.333C368.897 293.319 368.039 294.304 367.192 295.398C367.202 295.467 367.212 295.516 367.231 295.575ZM371.656 291.683C376.879 287.347 382.496 283.494 388.034 279.493C391.838 276.753 395.521 273.862 399.081 270.821C401.052 269.145 402.964 267.44 404.935 265.785C405.92 264.957 406.906 264.129 407.891 263.331C408.394 262.917 410.03 261.528 410.651 262.346C412.326 264.395 402.235 278.271 387.611 284.085C382.072 286.125 376.731 288.669 371.656 291.683Z" fill="white"/>
    <path d="M381.225 272.121C381.215 272.13 381.206 272.14 381.201 272.152C381.195 272.164 381.192 272.177 381.192 272.19C381.192 272.204 381.195 272.217 381.201 272.229C381.206 272.241 381.215 272.251 381.225 272.259C381.247 272.279 381.275 272.29 381.304 272.29C381.333 272.29 381.361 272.279 381.383 272.259L381.924 271.491C382.585 270.505 383.215 269.599 383.826 268.633L384.152 268.111C384.197 268.1 384.238 268.076 384.27 268.042C391.168 257.763 403.575 252.718 408.975 241.277C411.235 236.131 412.608 230.64 413.035 225.036C413.282 222.632 415.263 215.063 412.05 213.782C409.547 212.797 406.62 216.492 405.398 218.059C401.525 223.036 399.298 229.402 397.041 235.216C394.785 241.03 392.912 246.706 390.853 252.452C388.919 257.663 386.559 262.706 383.797 267.529C382.989 269.027 382.112 270.564 381.225 272.121Z" fill="#EBEBEB"/>
    <path d="M381.225 272.122C381.215 272.13 381.206 272.14 381.201 272.152C381.195 272.164 381.192 272.177 381.192 272.19C381.192 272.204 381.195 272.217 381.201 272.229C381.206 272.241 381.215 272.251 381.225 272.259C381.787 271.392 382.348 270.535 382.92 269.687L381.934 271.451C382.595 270.466 383.225 269.559 383.836 268.594C384.122 268.091 384.418 267.608 384.723 267.096C388.747 261.466 393.187 256.146 398.007 251.18C400.401 248.765 402.356 245.951 403.782 242.863C406.403 237.088 409.695 224.021 408.305 222.405C406.916 220.789 405.349 225.036 404.925 225.982C401.22 233.659 398.559 241.75 394.43 249.229C391.651 254.265 388.823 259.271 385.994 264.287C385.245 265.332 384.506 266.406 383.817 267.49C382.989 269.027 382.112 270.564 381.225 272.122ZM388.222 261.281C391.07 256.532 393.868 251.752 396.411 246.854C398.51 242.784 400.205 238.547 401.949 234.319C402.816 232.201 403.693 230.092 404.639 228.022C404.896 227.451 406.699 222.77 407.596 222.967C408.492 223.164 407.773 226.672 407.596 227.598C406.577 232.09 405.33 236.527 403.861 240.892C402.284 245.485 399.446 248.845 396.095 252.264C393.296 255.123 390.666 258.144 388.222 261.311V261.281Z" fill="white"/>
    <path d="M327.705 337.566C327.706 337.578 327.709 337.591 327.716 337.602C327.722 337.613 327.73 337.622 327.741 337.63C327.751 337.637 327.763 337.643 327.775 337.645C327.788 337.648 327.801 337.647 327.813 337.645C327.862 337.645 327.902 337.645 327.911 337.546C327.911 337.26 327.911 336.984 327.911 336.708C327.911 335.674 327.911 334.659 327.862 333.644C327.862 333.456 327.862 333.279 327.862 333.092C327.891 333.062 327.908 333.024 327.911 332.983C327.813 321.936 334.396 311.973 332.602 300.838C331.673 295.909 329.914 291.174 327.399 286.834C326.414 284.942 324.019 278.369 321.013 279.049C318.678 279.572 318.382 283.779 318.274 285.543C317.929 291.161 319.505 296.965 320.767 302.385C322.028 307.805 323.526 312.919 324.906 318.152C326.111 322.966 326.919 327.87 327.32 332.816C327.488 334.402 327.586 335.979 327.705 337.566Z" fill="#EBEBEB"/>
    <path d="M327.705 337.566C327.706 337.579 327.709 337.591 327.716 337.602C327.722 337.613 327.73 337.623 327.741 337.63C327.751 337.638 327.763 337.643 327.775 337.645C327.788 337.648 327.801 337.648 327.813 337.645C327.813 336.728 327.813 335.812 327.764 334.905C327.813 335.506 327.862 336.107 327.921 336.709C327.921 335.674 327.921 334.659 327.872 333.644C327.872 333.131 327.803 332.609 327.774 332.087C327.9 325.919 328.486 319.769 329.528 313.688C330.066 310.701 330.083 307.644 329.577 304.652C328.591 299.074 324.453 287.8 322.6 287.307C320.747 286.815 321.772 290.717 321.91 291.653C323.053 299.163 325.172 306.435 325.911 314.053C326.404 319.157 326.896 324.272 327.291 329.387C327.291 330.54 327.291 331.693 327.291 332.846C327.488 334.403 327.586 335.979 327.705 337.566ZM327.409 326.085C327.113 321.158 326.768 316.231 326.167 311.303C325.655 307.253 324.768 303.272 323.92 299.281C323.487 297.31 323.073 295.339 322.728 293.289C322.629 292.747 321.595 288.362 322.353 288.076C323.112 287.79 324.324 290.717 324.669 291.506C326.138 295.3 327.547 299.232 328.611 303.164C329.764 307.342 329.37 311.254 328.611 315.452C328.002 318.97 327.601 322.52 327.409 326.085V326.085Z" fill="white"/>
    <path d="M328.118 346.671C328.411 346.598 328.677 346.444 328.887 346.228C339.018 340.039 350.902 337.654 361.092 331.446C365.629 328.824 369.463 325.141 372.267 320.714C373.42 318.743 377.431 312.131 375.815 309.687C371.006 302.336 338.87 334.245 328.444 345.509C328.256 345.64 328.092 345.804 327.961 345.991C327.655 346.405 327.773 346.711 328.118 346.671Z" fill="#EBEBEB"/>
    <path d="M328.118 346.672C328.838 346.08 329.567 345.469 330.306 344.888C332.76 343.331 335.233 341.823 337.805 340.463C341.866 338.305 346.162 336.679 350.34 334.757C356.89 331.823 362.59 327.277 366.906 321.542C367.842 320.301 370.69 316.901 369.606 315.097C368.621 313.452 366.177 315.699 365.29 316.339C352.686 325.504 340.653 335.575 328.601 345.509L327.961 346.002C327.655 346.406 327.773 346.711 328.118 346.672ZM333.883 341.971C338.614 338.141 343.347 334.33 348.084 330.54C351.802 327.57 355.531 324.614 359.269 321.671C361.121 320.222 362.945 318.714 364.827 317.325C365.566 316.763 368.414 314.575 368.926 315.659C369.439 316.743 367.645 319.266 367.32 319.739C362.294 327.278 354.933 332.047 346.734 335.506C342.304 337.357 338.01 339.517 333.883 341.971V341.971Z" fill="white"/>
    <path d="M363.299 244.923C363.267 244.989 363.25 245.061 363.25 245.135C363.25 245.208 363.267 245.281 363.299 245.347C363.355 245.434 363.435 245.504 363.529 245.548C363.624 245.592 363.728 245.607 363.831 245.593C363.943 245.597 364.054 245.566 364.147 245.504C364.182 245.504 364.217 245.495 364.248 245.478C364.279 245.461 364.306 245.436 364.324 245.406C368.542 239.424 375.529 233.285 379.934 227.47C383.256 222.956 385.893 217.974 387.758 212.688C389.966 206.843 391.455 200.751 392.193 194.546C392.508 191.59 393.691 184.563 390.912 182.248C385.216 177.458 379.609 199.73 378.682 202.282C373.528 216.482 368.345 230.673 363.299 244.923Z" fill="#EBEBEB"/>
    <path d="M363.329 245.347C363.385 245.434 363.464 245.504 363.559 245.548C363.653 245.592 363.758 245.607 363.861 245.593C364.088 245.11 364.304 244.608 364.531 244.125C366.108 241.385 367.685 238.646 369.458 235.995C372.277 231.668 375.677 227.756 378.327 223.341C382.979 215.655 390.104 192.605 386.556 191.087C384.703 190.299 383.462 195.029 383.048 196.143C381.432 200.627 380.387 205.288 378.702 209.762C376.958 214.462 374.928 219.045 372.917 223.637C369.803 230.693 366.67 237.739 363.634 244.844C363.506 245.012 363.427 245.179 363.329 245.347ZM366.61 239.434C369.389 233.186 372.099 226.919 374.839 220.661C376.721 216.325 378.564 211.969 380.141 207.515C381.008 205.022 381.737 202.479 382.466 199.937C382.821 198.705 383.176 197.463 383.619 196.251C384.004 195.207 385.334 190.9 386.576 192.161C387.817 193.423 386.122 200.104 385.728 201.661C385.088 204.204 384.418 206.727 383.659 209.23C382.225 214.196 380.168 218.96 377.539 223.41C374.829 227.805 371.439 231.728 368.67 236.093C367.96 237.236 367.271 238.34 366.61 239.473V239.434Z" fill="white"/>
    <path d="M303.492 266.564C314.854 275.108 330.661 275.137 339.569 292.136C339.569 292.205 339.688 292.186 339.707 292.136C339.727 292.087 339.707 292.087 339.707 292.067C339.05 290.313 338.301 288.579 337.461 286.864C333.068 277.569 326.929 269.205 319.377 262.228C314.885 258.096 309.791 254.67 304.27 252.068C301.452 250.757 295.214 247.249 292.228 248.53C285.803 251.299 301.412 265.016 303.492 266.564Z" fill="#EBEBEB"/>
    <path d="M302.851 260.128C308.045 266.899 316.51 270.348 323.368 275.107C328.152 278.316 332.515 282.11 336.357 286.401C337.51 288.283 338.633 290.185 339.737 292.126C339.737 292.126 339.737 292.077 339.737 292.057C339.08 290.303 338.331 288.569 337.49 286.854C337.411 286.775 337.352 286.677 337.273 286.598C334.194 281.477 330.583 276.694 326.502 272.328C320.92 266.254 314.511 260.996 307.463 256.709C306.251 255.96 302.053 252.521 300.466 253.891C298.88 255.26 302.152 259.182 302.851 260.128ZM301.137 254.442C302.349 253.713 309.543 258.621 312.371 260.641C318.487 264.992 324.019 270.113 328.828 275.876C330.901 278.364 332.82 280.978 334.573 283.701C331.966 281.044 329.148 278.602 326.147 276.398C319.89 271.767 312.528 268.515 306.695 263.361C305.151 262.029 303.78 260.51 302.615 258.838C302.181 258.167 300.062 255.103 301.166 254.442H301.137Z" fill="white"/>
    <path d="M304.822 208.254C305.12 213.398 306.023 218.488 307.513 223.42C310.451 232.951 315.57 241.666 322.462 248.875C322.58 249.003 322.698 249.141 322.827 249.269C323.004 249.732 323.181 250.195 323.388 250.639C323.388 250.747 323.467 250.846 323.516 250.954V251.023C323.538 251.038 323.563 251.046 323.59 251.046C323.616 251.046 323.642 251.038 323.663 251.023C323.685 251.008 323.701 250.986 323.71 250.962C323.719 250.937 323.72 250.91 323.713 250.885C323.605 250.294 323.497 249.702 323.398 249.101C321.338 236.882 321.427 224.534 317.485 212.639C316.628 210.048 311.671 192.93 306.123 197.03C303.64 198.932 304.684 205.652 304.822 208.254Z" fill="#EBEBEB"/>
    <path d="M307.779 210.254C308.764 217.842 312.213 225.539 315.11 232.575C317.308 238.131 319.788 243.572 322.541 248.874C322.758 249.308 322.994 249.742 323.231 250.165C323.303 250.323 323.382 250.481 323.467 250.638C323.508 250.772 323.565 250.901 323.635 251.023C323.656 251.038 323.682 251.046 323.708 251.046C323.734 251.046 323.76 251.038 323.781 251.023C323.803 251.008 323.819 250.986 323.828 250.962C323.837 250.937 323.838 250.91 323.832 250.885C323.723 250.293 323.615 249.702 323.516 249.101C323.319 248.677 323.112 248.254 322.905 247.83C320.957 241.317 319.468 234.675 318.451 227.953C317.81 224.317 317.091 220.71 316.106 217.162C315.12 213.615 314.302 210.028 312.607 206.884C311.858 205.514 310.351 202.824 308.498 204.263C306.901 205.485 307.532 208.648 307.779 210.254ZM311.789 206.894C313.81 210.599 314.854 215.201 315.899 219.281C316.884 223.174 317.594 227.165 318.284 231.107C319.023 235.305 319.772 239.582 320.925 243.711C318.51 238.695 316.135 233.659 314.105 228.426C312.519 224.327 311.021 220.198 309.74 216.009C309.027 213.859 308.541 211.639 308.291 209.387C308.198 208.589 308.158 207.786 308.173 206.983C308.202 204.46 310.833 205.219 311.72 206.894H311.789Z" fill="white"/>
    <path d="M373.804 162.765C373.804 162.972 373.804 163.169 373.804 163.366C373.804 163.429 373.82 163.491 373.851 163.545C373.881 163.6 373.925 163.646 373.979 163.679C374.032 163.711 374.093 163.73 374.156 163.732C374.219 163.734 374.281 163.72 374.336 163.691C374.399 163.66 374.451 163.613 374.487 163.553C374.524 163.494 374.543 163.426 374.543 163.356C374.543 162.992 374.543 162.617 374.593 162.253C374.593 161.957 374.593 161.671 374.593 161.366C374.76 160.843 374.958 160.329 375.184 159.828C377.51 154.339 382.348 149.166 385.374 144.288C388.216 139.893 390.613 135.225 392.528 130.353C394.511 125.416 395.447 120.121 395.277 114.803C395.199 113.364 395.208 109.718 393.307 109.156C390.892 108.456 388.3 113.315 387.315 114.635C383.953 119.278 381.226 124.349 379.205 129.713C375.076 140.376 373.982 151.393 373.804 162.765Z" fill="#EBEBEB"/>
    <path d="M374.356 160.154C374.128 161.014 373.947 161.885 373.814 162.765C373.814 162.972 373.814 163.169 373.814 163.366C373.814 163.429 373.83 163.491 373.86 163.545C373.891 163.6 373.935 163.646 373.989 163.679C374.042 163.711 374.103 163.73 374.166 163.732C374.228 163.734 374.291 163.72 374.346 163.691C374.346 163.544 374.346 163.396 374.346 163.248C374.425 162.913 374.484 162.588 374.553 162.263C374.731 161.445 374.947 160.646 375.184 159.838C376.041 156.938 377.159 154.121 378.525 151.422C380.86 146.712 383.373 142.08 385.531 137.281C386.615 134.877 394.932 116.34 390.173 115.601C389.276 115.453 388.675 116.734 388.31 117.276C387.086 119.255 386.063 121.352 385.255 123.534C383.225 128.461 381.392 133.586 379.717 138.69C377.394 145.7 375.602 152.875 374.356 160.154V160.154ZM379.342 141.686C380.742 137.173 382.299 132.718 383.964 128.304C384.782 126.155 385.58 123.977 386.517 121.869C386.97 120.824 389.394 116.064 390.37 116.458C391.799 117.02 389.966 124.076 389.384 125.988C388.685 128.185 387.896 130.334 387.049 132.462C385.324 136.749 383.324 140.917 381.235 145.037C379.402 148.683 377.115 152.605 375.529 156.705C376.539 151.636 377.812 146.623 379.342 141.686V141.686Z" fill="white"/>
    <path d="M345.364 227.155L345.66 227.687C345.691 227.74 345.736 227.784 345.789 227.815C345.843 227.845 345.903 227.862 345.965 227.862C346.027 227.862 346.087 227.845 346.141 227.815C346.194 227.784 346.239 227.74 346.271 227.687C346.31 227.629 346.33 227.56 346.33 227.49C346.33 227.42 346.31 227.351 346.271 227.293C346.103 226.968 345.935 226.643 345.758 226.307C345.62 226.041 345.492 225.785 345.344 225.519C345.236 224.977 345.147 224.435 345.088 223.883C344.339 217.97 345.935 211.072 346.073 205.337C346.326 200.113 346.048 194.876 345.246 189.708C344.478 184.459 342.633 179.426 339.826 174.926C339.037 173.733 337.214 170.57 335.283 171.043C332.839 171.644 333.036 177.143 332.849 178.789C332.263 184.479 332.439 190.222 333.371 195.867C335.214 207.16 339.816 217.251 345.364 227.155Z" fill="#EBEBEB"/>
    <path d="M344.516 224.632C344.747 225.49 345.03 226.332 345.364 227.155L345.66 227.687C345.691 227.74 345.736 227.784 345.789 227.815C345.843 227.845 345.903 227.862 345.965 227.862C346.027 227.862 346.087 227.845 346.141 227.815C346.195 227.784 346.239 227.74 346.271 227.687C346.211 227.549 346.152 227.411 346.103 227.273L345.778 226.288C345.522 225.48 345.305 224.681 345.108 223.864C344.394 220.927 343.949 217.932 343.777 214.916C343.432 209.663 343.285 204.401 342.792 199.148C342.516 196.527 340.417 176.325 335.894 178.069C335.046 178.394 335.164 179.804 335.125 180.454C335.062 182.78 335.227 185.107 335.618 187.402C336.367 192.723 337.323 198.035 338.436 203.287C339.929 210.543 341.962 217.678 344.516 224.632V224.632ZM339.589 206.155C338.545 201.556 337.641 196.921 336.879 192.25C336.505 189.983 336.11 187.697 335.894 185.411C335.766 184.278 335.48 178.946 336.515 178.789C338.032 178.562 339.983 185.588 340.456 187.549C340.959 189.786 341.353 192.053 341.678 194.319C342.348 198.882 342.664 203.494 342.969 208.116C343.206 212.196 343.206 216.729 343.876 221.075C342.181 216.179 340.74 211.199 339.56 206.155H339.589Z" fill="white"/>
    <path d="M320.284 240.252C323.78 250.506 327.853 260.554 332.484 270.348C336.12 277.916 339.796 285.603 341.639 293.841C343.836 303.696 343.009 315.235 339.737 325.671C342.043 321.887 344.309 318.06 346.537 314.191C351.08 306.307 355.554 298.256 358.195 289.554C358.451 288.687 358.677 287.82 358.894 286.953C358.85 286.901 358.825 286.834 358.825 286.765C359.172 275.793 357.87 264.831 354.962 254.245C352.138 249.001 348.801 244.049 344.999 239.463C341.107 234.713 337.372 230.092 334.741 224.504C334.593 224.179 335.026 223.893 335.224 224.209C339.619 231.432 347.108 237.867 352.183 245.258C351.73 243.967 351.267 242.676 350.774 241.385C346.083 229.067 339.303 217.074 341.609 203.455C341.688 203.001 342.348 203.179 342.299 203.622C340.525 218.641 350.341 232.999 354.992 246.736C358.461 256.945 361.062 268.15 360.461 279.079C361.257 272.939 361.727 266.761 361.87 260.572C363.27 223.302 365.97 185.992 377.352 150.25C377.47 149.905 378.022 150.023 377.914 150.388C366.63 188.978 366.67 228.643 364.423 268.397C364.423 268.85 364.364 269.303 364.334 269.747C366.586 264.217 369.501 258.982 373.016 254.157C373.052 254.115 373.1 254.088 373.154 254.079C373.208 254.069 373.263 254.079 373.31 254.105C373.358 254.132 373.395 254.174 373.415 254.225C373.435 254.275 373.436 254.331 373.42 254.383C369.527 261.863 366.955 269.737 363.625 277.413C362.975 283.055 361.692 288.605 359.801 293.959C357.362 300.325 354.396 306.476 350.932 312.348C357.071 304.918 363.289 297.566 368.897 289.682C377.434 277.764 385.167 265.29 392.045 252.343C392.144 252.156 392.42 252.343 392.331 252.501C385.96 266.373 378.444 279.689 369.862 292.314C362.481 302.976 354.489 313.935 344.911 322.863C336.751 336.728 327.872 350.781 316.332 361.956C316.225 362.067 316.078 362.131 315.924 362.134C315.77 362.137 315.621 362.078 315.509 361.971C315.398 361.864 315.334 361.717 315.332 361.562C315.329 361.408 315.388 361.259 315.495 361.148C317.466 358.556 319.437 355.945 321.407 353.313C322.738 347.834 325.014 342.621 326.059 337.004C327.281 330.437 327.714 323.748 327.35 317.078C327.35 316.585 328.049 316.576 328.109 317.078C329.212 326.095 329.242 337.428 326.059 346.819C328.772 342.917 331.4 338.975 333.942 334.994C340.062 320.399 342.752 303.893 338.003 288.677C335.568 280.853 331.834 273.541 328.513 266.071C324.93 257.768 321.991 249.202 319.722 240.449C319.715 240.38 319.731 240.311 319.767 240.253C319.804 240.194 319.86 240.15 319.925 240.127C319.99 240.104 320.061 240.104 320.126 240.127C320.191 240.149 320.247 240.193 320.284 240.252V240.252Z" fill="#EBEBEB"/>
    <path d="M153.061 203.8C153.81 208.855 152.283 214.59 151.091 219.449C149.682 225.015 147.891 230.478 145.73 235.797C143.759 240.725 141.532 245.652 139.226 250.432L139.157 250.57L138.703 251.555C138.565 251.959 138.427 252.363 138.27 252.767C138.251 252.819 138.216 252.863 138.169 252.893C138.123 252.924 138.069 252.938 138.014 252.935C137.977 252.939 137.941 252.934 137.907 252.92C137.874 252.906 137.844 252.883 137.823 252.854C137.801 252.825 137.787 252.791 137.782 252.755C137.778 252.719 137.783 252.682 137.797 252.649C137.866 252.432 137.945 252.205 138.004 251.989C140.763 242.637 137.018 232.831 138.615 223.331C139.482 218.128 141.778 213.201 143.769 208.352C144.872 205.662 145.74 202.075 147.356 199.661C147.789 199.02 148.006 198.291 148.863 198.074C151.514 197.384 152.815 202.036 153.061 203.8Z" fill="#EBEBEB"/>
    <path d="M150.105 206.874C148.863 205.337 147.287 208.569 146.804 209.446C143.572 215.359 140.95 222.592 140.753 229.323C140.526 236.724 140.369 244.105 138.368 251.279L138.014 251.949C137.954 252.166 137.876 252.393 137.807 252.609C137.792 252.643 137.787 252.68 137.792 252.716C137.796 252.752 137.81 252.786 137.832 252.815C137.854 252.844 137.884 252.867 137.917 252.881C137.951 252.895 137.987 252.9 138.023 252.895C138.023 252.757 138.132 252.619 138.171 252.481C138.516 251.851 138.851 251.21 139.157 250.569L139.226 250.432C141.324 245.762 143.166 240.982 144.744 236.113C147.282 229.404 149.079 222.438 150.105 215.339C150.322 213.623 150.45 211.896 150.489 210.166C150.539 209.298 150.716 207.623 150.105 206.874ZM150.105 211.279C150.018 213.104 149.837 214.923 149.563 216.729C148.539 222.941 146.929 229.042 144.754 234.95C143.109 240.151 141.161 245.251 138.92 250.225C140.042 246.149 140.703 241.961 140.891 237.739C141.098 234.566 141.059 231.392 141.226 228.209C141.535 224.669 142.372 221.194 143.709 217.902C144.709 214.696 146.064 211.612 147.75 208.707C148.114 208.136 149.08 206.924 149.593 207.13C150.489 207.485 150.105 210.52 150.105 211.279Z" fill="white"/>
    <path d="M120.325 341.311C120.368 341.347 120.397 341.398 120.406 341.454C120.415 341.51 120.404 341.568 120.374 341.616V341.616C120.353 341.661 120.319 341.699 120.277 341.725C120.235 341.751 120.187 341.765 120.137 341.764C120.07 341.763 120.005 341.742 119.95 341.705C114.727 337.576 110.095 331.761 103.434 330.047C98.2108 328.697 93.5792 328.431 88.9672 325.248C84.3299 321.973 80.4264 317.768 77.5063 312.9C76.1786 310.686 75.0601 308.354 74.1656 305.933C73.732 304.77 72.1947 301.774 72.7367 300.513C75.358 294.6 91.4604 309.382 93.6284 311.353C103.099 320.113 112.589 329.741 119.792 340.493C119.802 340.509 119.807 340.528 119.807 340.547C119.807 340.566 119.802 340.585 119.792 340.601C119.787 340.622 119.777 340.642 119.763 340.659C119.75 340.676 119.733 340.689 119.714 340.7L120.325 341.311Z" fill="#EBEBEB"/>
    <path d="M120.325 341.311L119.714 340.68C119.733 340.67 119.75 340.656 119.763 340.639C119.777 340.622 119.787 340.602 119.792 340.581C114.747 334.846 109.248 329.446 103.69 324.193C97.7181 318.566 91.6083 312.801 84.9663 307.992C84.0498 307.332 80.3839 303.991 79.1816 305.43C77.9794 306.869 81.5664 311.461 82.3154 312.476C86.7795 318.458 93.4314 322.133 99.896 325.543C104.094 327.76 108.223 329.909 111.721 333.18C114.678 335.93 117.26 339.005 120.167 341.774C120.216 341.775 120.265 341.761 120.307 341.735C120.349 341.709 120.382 341.671 120.403 341.626C118.915 340.197 117.516 338.67 116.107 337.162C117.546 338.64 118.978 340.125 120.403 341.616C120.43 341.564 120.437 341.505 120.422 341.448C120.408 341.392 120.373 341.343 120.325 341.311V341.311ZM107.139 329.061C100.99 325.119 94.0424 322.488 88.2676 317.886C85.4549 315.71 83.0636 313.038 81.2117 310.003C80.8569 309.411 79.1225 306.79 79.7926 306.061C80.2361 305.538 81.8719 306.425 82.0986 306.583C83.856 307.681 85.5443 308.885 87.154 310.19C92.8007 314.674 98.1714 319.552 103.414 324.489C106.37 327.238 109.149 330.047 111.938 332.905C110.462 331.477 108.855 330.19 107.139 329.061V329.061Z" fill="white"/>
    <path d="M119.783 207.771C119.369 213.497 117.063 219.104 114.451 224.169C108.391 235.876 99.2259 246.046 94.4661 258.424C94.2789 258.916 94.1015 259.409 93.9241 259.892C93.9241 260.572 93.8551 260.395 93.796 259.577C93.5496 255.98 93.3624 240.291 97.0381 229.806C99.3343 223.262 102.951 217.379 106.558 211.506C108.627 208.155 110.657 204.785 112.746 201.454C113.416 200.38 114.717 197.197 116.511 197.305C119.999 197.473 119.94 205.524 119.783 207.771Z" fill="#EBEBEB"/>
    <path d="M113.643 207.692C113.417 207.503 113.127 207.407 112.832 207.423C112.538 207.44 112.26 207.568 112.057 207.781C111.528 208.377 111.126 209.075 110.874 209.831C110.263 211.092 109.652 212.334 109.041 213.585C104.843 222.208 99.7876 230.86 96.9987 240.074C95.2277 246.223 94.1988 252.562 93.934 258.956C93.934 259.153 93.865 259.36 93.8256 259.567C93.8847 260.385 93.934 260.552 93.9537 259.882C94.1311 259.389 94.3084 258.897 94.4957 258.414C94.6336 257.714 94.8012 257.024 94.9884 256.325C96.4234 251.595 98.4568 247.068 101.039 242.853C105.641 234.674 109.908 226.268 112.865 217.33C113.57 215.349 114.059 213.297 114.323 211.21C114.412 210.264 114.56 208.392 113.643 207.692ZM113.86 210.796C113.849 211.262 113.803 211.727 113.722 212.186C113.556 213.163 113.335 214.13 113.062 215.083C112.395 217.379 111.609 219.639 110.706 221.853C107.583 229.806 103.542 237.187 99.4427 244.657C97.3435 248.306 95.6893 252.193 94.5154 256.236C94.8647 252.716 95.3942 249.216 96.102 245.751C97.9349 236.881 102.113 228.998 106.026 220.917C107.011 218.946 107.996 216.916 108.982 214.925C109.465 213.94 109.967 212.954 110.44 211.92L111.16 210.422C111.643 209.436 111.584 208.944 112.825 208.855C114.343 208.747 113.949 209.535 113.899 210.796H113.86Z" fill="white"/>
    <path d="M118.078 261.538C118.772 265.983 119.039 270.484 118.876 274.979C118.561 283.996 115.171 293.802 115.693 302.957C115.782 303.568 115.851 304.188 115.89 304.799C115.89 305.026 115.89 305.263 115.89 305.489C115.89 305.716 115.693 305.637 115.663 305.489C115.565 305.085 115.456 304.681 115.338 304.267L115.161 303.627C112.599 294.285 108.617 285.415 108.716 275.561C108.775 269.49 110.233 253.004 114.343 252.57C116.156 252.363 117.644 258.808 118.078 261.538Z" fill="#EBEBEB"/>
    <path d="M114.392 261.676C113.407 261.922 113.052 263.735 112.845 264.474C112.348 266.464 112.019 268.491 111.859 270.535C111.505 274.324 111.505 278.138 111.859 281.927C112.338 289.242 113.479 296.498 115.269 303.607L115.447 304.247C115.565 304.661 115.673 305.065 115.772 305.469C115.772 305.588 116.008 305.568 115.998 305.469C115.989 305.371 115.998 305.006 115.998 304.779C114.668 296.748 115.072 288.677 115.693 280.537C115.732 278.744 117.871 260.779 114.392 261.676ZM115.821 269.411C115.762 271.136 115.653 272.841 115.535 274.565C115.269 278.566 114.914 282.577 114.688 286.578C114.405 290.953 114.438 295.344 114.786 299.714C113.732 294.607 112.939 289.45 112.411 284.262C112.063 280.841 111.932 277.402 112.017 273.964C112.075 272.098 112.256 270.238 112.559 268.396C112.707 267.519 113.357 262.395 114.53 262.178C115.9 261.902 115.86 268.662 115.821 269.411V269.411Z" fill="white"/>
    <path d="M158.432 251.811C160.029 254.856 157.959 259.882 156.244 262.405C153.801 266.012 150.154 268.485 146.311 270.436C140.743 273.255 134.781 275.097 129.785 278.96C124.789 282.823 126.405 281.661 122.384 287.041C122.305 287.15 122.197 287.12 122.128 287.041C122.052 286.888 122.013 286.719 122.013 286.549C122.013 286.378 122.052 286.209 122.128 286.056C122.141 286.002 122.158 285.95 122.177 285.898C126.76 276.645 133.342 269.953 141.551 263.666C146.203 260.109 149.603 255.083 154.362 251.713C156.176 250.422 157.329 249.702 158.432 251.811Z" fill="#EBEBEB"/>
    <path d="M155.121 256.492C153.82 255.507 151.416 258.079 150.47 258.985C147.81 261.692 144.911 264.153 141.808 266.337C138.959 268.089 136.23 270.028 133.638 272.141C129.747 275.487 126.391 279.409 123.685 283.77C123.143 284.479 122.631 285.238 122.148 286.016C122.072 286.17 122.033 286.338 122.033 286.509C122.033 286.68 122.072 286.849 122.148 287.002C122.148 286.903 122.256 286.805 122.315 286.706C125.942 280.892 130.918 276.852 137.284 273.816C143.65 270.781 149.711 267.204 153.939 261.429C154.668 260.404 156.323 257.399 155.121 256.492ZM154.047 260.611C153.35 261.611 152.589 262.566 151.771 263.469C150.274 265.099 148.624 266.58 146.843 267.894C143.643 270.128 140.238 272.051 136.673 273.639C132.561 275.564 128.831 278.218 125.666 281.473C128.254 277.849 131.301 274.576 134.732 271.737C137.816 269.214 141.344 267.372 144.478 264.947C145.927 263.824 147.257 262.572 148.588 261.331C149.307 260.651 150.016 259.961 150.736 259.291C151.455 258.621 153.446 256.512 154.451 256.936C155.762 257.409 154.333 260.207 154.047 260.611Z" fill="white"/>
    <path d="M73.7813 208.895C80.4529 220.424 86.4149 232.329 91.9236 244.45C91.9591 244.516 91.9706 244.592 91.9563 244.666C91.9419 244.74 91.9025 244.806 91.8448 244.854C91.8493 244.877 91.8493 244.9 91.8448 244.923C91.8835 244.996 91.9164 245.072 91.9433 245.15C91.9564 245.188 91.9545 245.229 91.938 245.266C91.9216 245.302 91.8917 245.331 91.8546 245.347H91.7856C91.7569 245.345 91.7289 245.336 91.7034 245.323C91.6779 245.309 91.6556 245.291 91.6378 245.268C87.3215 238.892 83.2516 232.91 77.1713 228.032C71.6034 223.568 66.0257 219.666 61.5518 214.029C57.738 209.21 48.5634 187.362 51.6183 183.223C53.6287 180.434 68.4697 199.73 73.7813 208.895Z" fill="#EBEBEB"/>
    <path d="M64.3702 200.193C63.4636 198.872 61.0295 193.906 58.7334 194.349C56.4373 194.792 58.9305 199.818 59.3739 200.863C60.9273 204.735 62.8583 208.445 65.1389 211.939C67.4744 215.379 70.5589 217.97 73.4857 220.878C80.6598 228.052 86.5332 236.645 91.7167 245.356H91.7857C91.8228 245.341 91.8526 245.312 91.8691 245.275C91.8856 245.239 91.8875 245.197 91.8744 245.159C91.8475 245.081 91.8145 245.005 91.7758 244.933C91.7803 244.91 91.7803 244.886 91.7758 244.864C84.1582 229.146 74.2248 214.59 64.3702 200.193ZM91.1747 244.282C87.6662 238.226 83.7135 232.439 79.3492 226.968C74.2938 220.621 67.5926 215.832 63.5818 208.687C61.4877 205.238 59.8325 201.54 58.6545 197.68C58.5166 197.167 57.9746 195.433 58.6545 194.94C59.3345 194.448 60.6255 195.482 62.1529 197.562C63.4045 199.296 64.5673 201.099 65.7696 202.873C70.4998 209.831 75.1905 216.817 79.6448 223.972C83.7443 230.594 87.5942 237.364 91.1944 244.282H91.1747Z" fill="white"/>
    <path d="M95.2446 287.83C95.2439 287.882 95.2226 287.931 95.1855 287.968C95.1545 288.02 95.1044 288.059 95.0456 288.076C94.9869 288.092 94.924 288.085 94.8701 288.056L94.0916 287.623C94.0816 287.63 94.0695 287.634 94.0571 287.634C94.0447 287.634 94.0327 287.63 94.0226 287.623C87.9916 285.573 82.749 285.593 76.4913 285.908C71.8689 286.121 67.2663 285.18 63.0989 283.169C58.5558 280.901 54.4146 277.905 50.8398 274.299C49.3616 272.861 44.4146 269.323 45.9125 266.514C48.3663 261.912 63.5621 271.649 66.2327 273.146C70.9453 275.892 75.8227 278.343 80.8372 280.488C85.8138 282.538 90.81 284.43 95.1756 287.662C95.202 287.681 95.2225 287.706 95.2347 287.736C95.2469 287.766 95.2504 287.798 95.2446 287.83Z" fill="#EBEBEB"/>
    <path d="M92.1109 286.401C89.253 285.11 86.4445 283.701 83.5374 282.557C80.2755 281.286 76.8067 280.655 73.535 279.384C67.4153 276.999 61.8474 273.471 55.8657 270.801C55.0773 270.456 53.5302 269.815 53.678 271.284C53.7371 271.924 54.5156 272.594 54.8999 273.018C56.1085 274.295 57.4276 275.462 58.8418 276.507C63.5621 280.064 69.2482 283.109 75.1413 284.036C81.9804 285.1 88.8194 285.169 95.2151 287.977C95.2522 287.941 95.2735 287.891 95.2742 287.839C94.2597 287.277 93.2019 286.795 92.1109 286.401ZM77.329 283.838C69.7892 282.824 62.7275 279.569 57.0581 274.496C56.2316 273.747 55.4454 272.954 54.7029 272.121C54.2692 271.579 53.7174 270.486 55.6883 271.136C56.1418 271.309 56.583 271.514 57.0088 271.747C58.5461 272.486 60.0637 273.255 61.5814 274.043C64.8137 275.718 68.0361 277.443 71.3768 278.891C74.3562 280.125 77.4228 281.136 80.5514 281.917C84.2957 283.053 87.9489 284.469 91.4802 286.154C86.9668 284.676 82.1085 284.43 77.3684 283.848L77.329 283.838Z" fill="white"/>
    <path d="M80.1375 270.791C80.1663 270.884 80.1663 270.984 80.1375 271.077C80.1172 271.126 80.0907 271.172 80.0587 271.215C80.0202 271.265 79.9736 271.308 79.9207 271.343H79.8616C79.7945 271.383 79.7179 271.404 79.6399 271.404C79.5618 271.404 79.4852 271.383 79.4181 271.343C78.5605 270.838 77.7404 270.271 76.9643 269.648C67.5039 263.656 57.8366 257.389 50.9679 248.461C47.4958 243.868 44.6123 238.859 42.3846 233.551C41.2809 230.959 37.9204 225.312 39.9998 222.415C42.0791 219.518 44.4639 222.139 46.1195 223.824C50.4523 228.166 54.5104 232.774 58.2702 237.621C61.9561 242.421 65.096 247.617 67.632 253.112C70.6574 259.695 73.4758 266.445 79.8714 270.446C79.9393 270.479 79.9985 270.528 80.0447 270.588C80.0908 270.647 80.1226 270.717 80.1375 270.791Z" fill="#EBEBEB"/>
    <path d="M64.1435 252.452C59.5569 245.165 54.4452 238.222 48.8492 231.678C48.1396 230.821 46.0209 228.564 45.2325 230.456C44.3161 232.683 47.2035 236.113 48.1889 237.759C52.052 244.046 56.4257 250.005 61.266 255.576C66.6206 261.767 72.944 267.048 79.9897 271.215C80.0217 271.172 80.0482 271.126 80.0685 271.077C68.6076 263.952 59.4429 253.693 51.9534 242.597C50.1401 239.917 48.3072 237.207 46.7206 234.388C46.4742 233.935 45.0946 230.959 45.9815 230.446C46.8684 229.934 48.997 232.614 49.2631 232.95C50.5047 234.487 51.7366 236.034 52.9783 237.591C57.5403 243.448 61.7871 249.543 65.7005 255.852C69.394 261.862 74.2888 267.046 80.0784 271.077C80.1072 270.984 80.1072 270.884 80.0784 270.791C73.2886 265.953 68.5386 259.567 64.1435 252.452Z" fill="white"/>
    <path d="M82.9362 160.331C85.4294 165.761 87.4201 171.339 87.8635 177.34C88.6125 186.495 86.6218 195.532 86.07 204.637C86.0656 204.673 86.0656 204.71 86.07 204.746C85.9172 207.22 85.9172 209.702 86.07 212.176C86.07 212.708 86.1094 213.24 86.1882 213.773C86.1965 213.828 86.19 213.884 86.1692 213.936C86.1484 213.988 86.1142 214.034 86.07 214.068C86.0058 214.111 85.9306 214.135 85.8532 214.137C85.7765 214.141 85.7006 214.12 85.6364 214.078V214.078C85.5834 214.049 85.538 214.008 85.5037 213.959C85.4695 213.909 85.4474 213.852 85.4393 213.792C85.3309 213.024 85.2619 212.265 85.1929 211.506C85.1696 211.495 85.1493 211.478 85.1339 211.458C85.1184 211.437 85.1082 211.413 85.1042 211.388C82.0592 199.257 78.3144 186.86 74.5303 174.699C72.7608 169.324 71.5004 163.794 70.7658 158.183C70.3913 154.862 70.1253 149.806 72.9831 147.392C73.0682 147.301 73.1759 147.234 73.2953 147.197C73.4147 147.161 73.5415 147.157 73.6631 147.185C78.482 149.057 80.9653 156.034 82.9362 160.331Z" fill="#EBEBEB"/>
    <path d="M77.2698 159.907C75.0328 158.646 74.9442 161.582 75.0427 163.09C75.4559 167.137 76.1141 171.155 77.0136 175.123C77.8545 179.584 78.7579 184.035 79.7236 188.476C81.5664 196.852 84.7495 205.465 85.6364 214.038C85.7006 214.081 85.7765 214.101 85.8532 214.098C85.9306 214.096 86.0058 214.072 86.07 214.029V212.137C86.07 209.663 86.07 207.209 86.07 204.706C86.0656 204.67 86.0656 204.634 86.07 204.598C86.1291 192.664 85.9517 180.789 82.0592 169.042C81.192 166.352 80.0193 161.454 77.2698 159.907ZM82.3942 171.398C84.5165 178.732 85.6402 186.32 85.7349 193.955C85.8729 200.025 85.5674 206.086 85.5871 212.156C84.8776 207.14 83.3403 202.203 82.1577 197.246C80.2985 189.468 78.6561 181.65 77.2304 173.792C76.8757 171.9 76.5472 170.005 76.245 168.106C75.9592 166.431 75.161 163.741 75.5059 162.036C76.1563 158.725 78.4622 161.533 79.1619 162.686C79.7312 163.721 80.2124 164.803 80.6007 165.919C81.2215 167.722 81.8424 169.555 82.3942 171.398V171.398Z" fill="white"/>
    <path d="M143.956 234.842C140.313 245.328 135.96 255.555 130.928 265.45C126.287 274.575 121.527 283.582 118.206 293.299C113.791 306.11 112.047 320.833 116.442 333.703C107.888 318.246 101.977 301.469 98.9499 284.065C93.6482 254.659 89.5092 224.701 81.6847 195.817C81.5566 195.344 80.8766 195.561 80.9555 196.024C83.4388 211.427 86.9372 226.672 89.5585 242.055C92.1798 257.438 94.3281 272.723 97.1958 287.948C97.5112 289.603 97.8561 291.229 98.1813 292.875C91.9039 280.764 81.1427 270.594 69.9577 263.696C69.8198 263.607 69.7114 263.824 69.8395 263.922C77.62 269.47 84.4294 276.266 89.9921 284.036C94.9194 290.806 98.1616 298.157 101.68 305.637C108.621 327.403 121.026 347.027 137.708 362.636C137.743 362.671 137.791 362.691 137.841 362.691C137.891 362.691 137.939 362.671 137.974 362.636C138.009 362.601 138.029 362.553 138.029 362.503C138.029 362.453 138.009 362.405 137.974 362.37C131.369 355.658 125.489 348.269 120.433 340.325C112.549 323.819 115.9 304.622 122.65 287.918C126.188 279.158 130.406 270.712 134.397 262.149C138.388 253.585 142.754 244.46 144.439 234.97C144.434 234.915 144.412 234.864 144.377 234.822C144.342 234.781 144.295 234.751 144.242 234.737C144.189 234.723 144.134 234.726 144.082 234.744C144.031 234.763 143.987 234.797 143.956 234.842V234.842Z" fill="#EBEBEB"/>
    <path d="M225 419.25C274.026 419.25 313.77 412.972 313.77 405.227C313.77 397.483 274.026 391.204 225 391.204C175.974 391.204 136.23 397.483 136.23 405.227C136.23 412.972 175.974 419.25 225 419.25Z" fill="#EBEBEB"/>
    <path d="M161.536 361.778H75.4763C75.4763 361.778 75.6734 348.967 84.1385 345.577C86.4334 344.579 88.9908 344.355 91.4245 344.938C93.8582 345.521 96.0362 346.88 97.6294 348.81C97.6294 348.81 101.079 325.257 116.846 325.257C132.613 325.257 140.152 345.577 140.152 345.577C140.152 345.577 143.68 339.438 152.431 340.581C161.182 341.724 161.536 361.778 161.536 361.778Z" fill="#37474F"/>
    <path d="M438.45 361.778C438.45 361.778 435.809 349.47 430.567 347.578C425.324 345.686 422.092 351.204 422.092 351.204C422.092 351.204 420.85 339.438 413.38 335.92C405.911 332.402 400.284 339.615 400.284 339.615C400.284 339.615 394.548 324.686 384.309 324.686C374.07 324.686 368.877 346.514 368.877 346.514C368.877 346.514 362.836 340 356.638 343.676C350.439 347.351 350.439 361.769 350.439 361.769L438.45 361.778Z" fill="#37474F"/>
    <path d="M90.8987 361.779H11.5496C11.5496 361.779 14.1611 350.594 19.4333 349.805C24.7055 349.017 27.1494 354.201 27.1494 354.201C27.1494 354.201 26.9227 338.63 36.7773 335.94C46.6319 333.25 54.8408 347.066 54.8408 347.066C54.8408 347.066 60.9999 339.182 69.396 339.704C77.7921 340.227 79.9306 353.195 79.9306 353.195C79.9306 353.195 87.5285 348.692 90.8987 361.779Z" fill="#455A64"/>
    <path d="M356.155 361.779H307.394C307.394 361.779 307.512 354.526 312.321 352.604C313.621 352.037 315.07 351.908 316.45 352.237C317.829 352.566 319.065 353.334 319.969 354.427C319.969 354.427 321.94 341.094 330.809 341.094C339.678 341.094 344.014 352.604 344.014 352.604C344.014 352.604 345.985 349.125 350.981 349.766C355.977 350.406 356.155 361.779 356.155 361.779Z" fill="#455A64"/>
    <path d="M0 361.779L56.25 361.542L112.5 361.453L225 361.286L337.5 361.453L393.75 361.542L450 361.779L393.75 362.025L337.5 362.104L225 362.271L112.5 362.104L56.25 362.025L0 361.779Z" fill="#263238"/>
    <path d="M350.833 276.132C350.874 302.714 342.456 328.62 326.798 350.101V350.101C314.143 367.523 297.229 381.406 277.675 390.422C258.12 399.439 236.579 403.286 215.112 401.598C193.646 399.909 172.971 392.74 155.067 380.777C137.163 368.814 122.628 352.457 112.853 333.271C103.078 314.085 98.389 292.711 99.2356 271.195C100.082 249.678 106.436 228.739 117.688 210.38C128.941 192.021 144.716 176.857 163.505 166.337C182.293 155.818 203.467 150.296 225 150.299C228.449 150.299 231.865 150.437 235.249 150.713C254.743 152.275 273.599 158.384 290.306 168.55C307.13 178.795 321.327 192.83 331.765 209.535C344.255 229.5 350.864 252.582 350.833 276.132V276.132Z" fill="#FFC727"/>
    <g opacity="0.2">
        <path opacity="0.2" d="M252.169 335.516C250.583 339.754 253.233 339.931 253.401 341.685C253.568 343.439 253.401 346.8 248.296 351.914C243.192 357.029 234.726 355.964 232.962 358.083C231.199 360.202 228.203 369.179 224.015 372.136C219.826 375.092 219.087 373.368 213.086 374.609C207.084 375.851 202.512 383.597 200.748 387.292C198.984 390.988 201.103 397.147 196.875 397.344C192.647 397.541 190.706 388.347 186.833 383.419C182.96 378.492 181.64 374.107 180.447 368.302C179.255 362.498 181.147 350.328 180.447 345.568C179.748 340.808 167.055 332.353 162.473 326.529C157.89 320.705 151.544 309.086 151.899 305.203C152.435 301.444 154.311 298.004 157.181 295.516C159.299 293.93 158.413 293.053 158.767 291.634C159.122 290.215 160.886 289.879 161.231 288.115C161.576 286.352 160.177 281.06 158.413 280.183C156.649 279.306 155.456 282.301 154.362 281.769C153.268 281.237 150.135 277.542 148.903 277.187C147.671 276.832 148.016 279.483 146.252 276.132C144.488 272.782 143.611 264.307 142.202 262.907C140.793 261.508 139.738 265.381 136.388 262.907C133.037 260.434 131.628 255.684 130.219 255.024C128.809 254.364 126.868 255.201 125.419 252.373C123.971 249.545 126.691 244.489 125.419 244.972C124.148 245.455 121.409 249.554 120.699 245.682C119.989 241.809 124.227 228.761 123.517 221.715C122.959 214.281 125.368 206.929 130.219 201.267C130.219 201.267 130.918 197.394 131.628 194.921C132.337 192.447 147.494 182.593 149.248 179.774C149.982 178.197 150.406 176.495 150.499 174.758C172.072 158.835 198.188 150.261 225 150.299C228.449 150.299 231.865 150.437 235.249 150.713L235.604 151.176C237.131 153.147 238.777 154.349 243.241 155.995C247.705 157.641 248.759 159.759 247.823 161.514C246.887 163.268 245.36 163.632 243.596 163.751C241.832 163.869 240.186 162.923 238.314 164.105C236.441 165.288 234.549 171.624 232.085 171.989C229.622 172.354 225.266 166.342 224.33 164.588C223.394 162.834 226.439 159.06 225 157.296C223.561 155.532 221.058 155.887 217.037 155.532C213.017 155.177 203.763 156.714 204.118 158.242C204.473 159.769 217.747 158.005 218.102 161.06C218.457 164.115 208.346 169.279 206.592 168.816C204.838 168.353 202.472 165.288 199.891 164.933C197.309 164.578 195.19 166.697 193.564 166.904C191.938 167.111 190.026 165.14 187.553 165.613C185.079 166.086 184.498 168.195 183.207 169.023C181.916 169.851 178.861 169.841 178.506 171.723C178.151 173.605 182.379 174.679 183.433 175.832C184.488 176.985 182.133 181.006 183.197 181.824C184.261 182.642 190.834 176.897 192.48 175.478C194.126 174.058 195.535 167.958 199.053 168.077C202.571 168.195 203.754 174.187 204.966 174.778C206.178 175.369 208.72 173.369 212.603 174.187C216.486 175.005 219.176 183.47 219.885 186.012C220.595 188.555 222.231 191.186 220.871 192.24C219.511 193.295 213.115 191.541 212.297 189.895C211.48 188.249 216.525 185.776 216.17 185.194C215.816 184.613 212.879 183.785 211.351 184.701C209.824 185.618 209.124 187.54 207.479 188.013C205.833 188.486 201.487 183.548 200.314 184.958C199.142 186.367 201.487 190.87 202.66 191.856C203.832 192.841 208.178 193.492 208.572 194.674C208.967 195.857 205.616 198.429 201.674 198.192C197.732 197.956 194.392 194.901 192.854 196.221C191.317 197.542 192.155 200.912 191.1 202.134C190.046 203.356 184.281 202.489 181.462 205.534C178.644 208.579 177.353 213.171 174.564 215.763C171.775 218.355 170.455 215.054 166.681 218.72C162.906 222.385 162.335 230.466 162.216 233.285C162.098 236.103 162.216 238.34 161.28 237.985C160.344 237.63 159.043 235.167 158.688 233.639C158.334 232.112 159.516 229.52 159.516 228.584C159.516 227.648 154.106 222.829 150.933 222.356C147.76 221.883 144.941 224.475 142.596 226.357C140.251 228.239 136.013 227.884 134.486 229.412C132.958 230.939 131.785 244.45 132.958 247.623C134.131 250.796 135.658 250.796 139.423 249.15C143.187 247.505 141.068 244.332 143.305 245.031C144.307 245.409 145.168 246.083 145.776 246.963C146.384 247.844 146.708 248.889 146.705 249.959C146.705 251.841 142.241 256.305 142.832 257.596C143.424 258.887 147.297 257.359 149.169 257.951C151.041 258.542 151.997 259.715 151.406 264.524C150.815 269.333 151.169 273.107 153.988 274.694C156.806 276.28 158.393 272.397 159.635 272.93C160.876 273.462 162.591 276.28 164.384 276.103C166.178 275.925 165.271 274.339 168.622 273.284C171.972 272.23 170.731 271.52 171.44 269.402C172.15 267.283 174.259 265.529 176.545 266.583C178.831 267.638 177.255 269.224 177.432 270.988C177.609 272.752 181.66 272.959 184.833 273.945C188.006 274.93 189.76 273.945 196.106 276.063C202.453 278.182 202.807 284.519 205.449 285.573C208.09 286.627 216.909 284.873 223.256 289.456C229.602 294.038 227.828 302.493 231.001 304.967C234.175 307.44 245.98 310.781 250.563 311.658C255.145 312.535 255.855 309.372 259.55 310.249C263.246 311.126 265.374 312.22 266.606 317.295C267.532 321.877 253.756 331.288 252.169 335.516Z" fill="black"/>
        <path opacity="0.2" d="M157.476 245.406C157.595 246.391 160.531 246.815 164.059 248.815C167.587 250.816 168.868 256.699 170.75 256.571C172.633 256.443 172.041 253.752 172.721 253.043C173.401 252.333 174.604 250.806 172.721 249.279C170.839 247.751 169.006 244.469 165.577 243.996C162.147 243.523 161.556 242.114 160.029 242.232C159.641 242.241 159.259 242.334 158.911 242.506C158.563 242.677 158.257 242.923 158.014 243.225C157.771 243.527 157.597 243.879 157.504 244.256C157.411 244.633 157.402 245.025 157.476 245.406V245.406Z" fill="black"/>
        <path opacity="0.2" d="M176.86 255.28C176.338 256.719 176.86 257.744 180.625 258.68C184.389 259.616 187.907 257.744 186.735 256.975C185.562 256.206 183.778 256.571 184.498 255.28C185.217 253.989 184.961 252.107 181.906 252.452C178.851 252.797 177.333 253.979 176.86 255.28Z" fill="black"/>
        <path opacity="0.2" d="M190.016 255.674C188.735 255.861 188.045 258.098 189.317 259.508C190.588 260.917 190.607 260.68 192.135 259.508C193.662 258.335 196.008 257.744 195.426 256.551C194.845 255.359 191.317 255.487 190.016 255.674Z" fill="black"/>
        <path opacity="0.2" d="M200.245 260.473C200.817 258.719 203.763 260.473 205.054 262.326C206.345 264.179 205.764 266.908 205.054 268.909C204.345 270.909 203.882 273.255 202.236 272.309C200.59 271.363 202.354 268.554 202.118 266.908C201.881 265.263 199.772 261.922 200.245 260.473Z" fill="black"/>
        <path opacity="0.2" d="M250.878 162.46C250.267 163.938 253.115 164.431 254.761 165.416C256.407 166.402 257.717 166.944 258.634 165.416C259.55 163.889 258.279 162.125 256.988 161.77C255.697 161.415 251.469 161.051 250.878 162.46Z" fill="black"/>
        <path opacity="0.2" d="M273.08 176.207C274.174 177.35 276.037 177.143 277.318 178.789C278.599 180.434 278.136 183.253 279.782 184.081C281.427 184.908 282.6 184.081 282.738 182.898C282.876 181.715 280.393 178.789 280.619 178.207C280.846 177.626 284.029 179.025 284.738 180.789C285.448 182.553 284.029 185.017 285.675 185.49C287.32 185.963 286.966 183.844 287.646 183.371C288.326 182.898 289.873 183.135 289.754 181.725C289.636 180.316 287.784 177.261 286.236 176.207C284.689 175.152 283.536 173.97 280.944 173.388C278.353 172.807 275.899 173.27 274.598 174.374C273.297 175.477 272.42 175.497 273.08 176.207Z" fill="black"/>
        <path opacity="0.2" d="M323.92 198.35C323.843 198.825 323.607 199.259 323.25 199.582C320.787 201.346 317.85 195.236 314.44 194.063C311.031 192.891 309.513 188.545 308.803 189.481C308.094 190.417 308.33 191.718 307.276 193.236C306.222 194.753 304.694 194.418 303.985 197.355C303.275 200.291 307.276 205.692 306.34 207.456C305.404 209.22 304.221 208.628 302.339 208.52C300.457 208.412 300.811 210.038 298.348 209.338C295.884 208.638 297.993 205.573 294.12 201.937C290.247 198.301 288.946 197.591 289.774 195.946C290.602 194.3 289.419 191.954 291.183 191.718C292.947 191.481 294.347 194.063 295.529 194.773C296.712 195.482 298.229 193.364 298.348 191.481C298.466 189.599 294.228 187.017 292.701 185.569C291.174 184.12 291.055 178.799 291.647 177.744C292.238 176.69 294.002 177.035 294.465 174.453C294.741 172.935 292.336 170.393 290.306 168.54C303.199 176.393 314.583 186.488 323.92 198.35V198.35Z" fill="black"/>
        <path opacity="0.2" d="M341.461 303.686C341.816 299.921 339.934 299.685 341.816 292.757C343.698 285.829 339.845 278.419 338.407 276.891C336.968 275.364 333.942 275.837 331.508 277.364C329.074 278.892 330.799 280.064 329.153 280.656C327.507 281.247 325.872 280.301 324.344 280.419C322.817 280.537 321.388 284.41 318.116 284.292C314.844 284.174 312.706 279.483 310.232 276.132C307.759 272.782 302.713 270.663 301.068 266.554C299.422 262.444 302.595 256.098 301.885 251.279C301.176 246.46 298.013 247.524 297.421 244.824C296.83 242.124 297.894 243.415 298.712 240.823C299.53 238.232 297.776 236.832 299.422 232.368C301.068 227.904 304.004 225.667 303.295 223.676C302.585 221.686 300.338 218.384 300.24 216.039C300.141 213.694 302.477 213.802 306.941 210.511C311.405 207.219 312.578 207.456 315.987 208.628C318.434 209.532 320.948 210.24 323.506 210.747C325.477 211.102 328.207 216.266 329.025 216.029C329.843 215.793 330.01 214.275 330.326 212.087C330.55 211.117 331.058 210.236 331.784 209.555C345.052 230.818 351.672 255.557 350.794 280.605C349.916 305.653 341.581 329.868 326.857 350.15C338.781 331.811 341.107 307.44 341.461 303.686Z" fill="black"/>
    </g>
    <path opacity="0.1" d="M322.481 355.698C309.057 372.146 291.689 384.93 271.995 392.859C252.301 400.789 230.92 403.606 209.844 401.05C188.768 398.494 168.682 390.646 151.454 378.238C134.227 365.83 120.419 349.265 111.316 330.084C102.214 310.904 98.1117 289.733 99.3926 268.541C100.673 247.349 107.295 226.826 118.642 208.881C129.989 190.937 145.691 176.156 164.287 165.913C182.883 155.67 203.769 150.299 225 150.299C228.449 150.299 231.868 150.437 235.258 150.713C236.195 150.782 237.131 150.871 238.057 150.969C220.275 152.907 203.187 158.956 188.146 168.638C173.105 178.319 160.523 191.367 151.395 206.75C142.266 222.133 136.842 239.429 135.552 257.27C134.261 275.111 137.139 293.008 143.959 309.544C150.778 326.081 161.351 340.804 174.842 352.55C188.333 364.295 204.372 372.74 221.69 377.218C239.008 381.695 257.131 382.081 274.624 378.346C292.117 374.612 308.502 366.858 322.481 355.698V355.698Z" fill="black"/>
    <path opacity="0.3" d="M350.833 276.132C350.88 302.715 342.462 328.623 326.798 350.101C326.798 350.101 326.798 350.101 326.798 350.101C314.996 366.316 299.505 379.49 281.605 388.534C297.196 379.618 310.721 367.501 321.289 352.978V352.978C336.103 332.584 344.493 308.231 345.383 283.04C346.273 257.848 339.623 232.964 326.285 211.575C315.779 194.783 301.499 180.675 284.581 170.373C267.788 160.127 248.826 153.963 229.218 152.378C225.818 152.103 222.369 151.965 218.91 151.965C208.673 151.971 198.475 153.218 188.538 155.68C200.361 152.102 212.647 150.289 225 150.299C228.449 150.299 231.869 150.437 235.259 150.713C254.751 152.27 273.605 158.379 290.306 168.55C303.198 176.399 314.582 186.492 323.92 198.35C341.369 220.521 350.849 247.919 350.833 276.132V276.132Z" fill="white"/>
    <path d="M280.59 230.328H344.152C344.152 230.328 340.989 226.209 337.5 225.697C337.5 225.697 330.73 205.524 319.387 205.386C308.833 205.248 304.605 217.793 304.605 217.793C304.605 217.793 299.727 212.166 295.056 214.738C290.385 217.31 287.744 224.672 287.744 224.672C287.744 224.672 282.492 227.5 280.59 230.328Z" fill="white"/>
    <path d="M222.546 290.954H142.221C142.221 290.954 142.221 285.819 153.298 284.814C153.298 284.814 163.409 262.365 178.841 265.381C188.449 267.263 193.367 280.458 193.367 280.458C193.367 280.458 200.63 270.072 206.444 272.082C212.258 274.092 215.697 285.149 215.697 285.149C215.697 285.149 221.64 288.046 222.546 290.954Z" fill="white"/>
    <path d="M298.781 200.42H244.128C244.128 200.42 249.282 195.62 251.578 195.62C253.874 195.62 260.555 179.508 269.109 180.198C277.663 180.888 282.157 192.881 282.157 192.881C282.157 192.881 292.583 189.619 298.781 200.42Z" fill="white"/>
    <path d="M152.588 313.757H105.848C105.848 313.757 108.174 310.732 110.775 310.357C110.775 310.357 115.762 295.526 124.099 295.418C131.854 295.319 134.939 304.533 134.939 304.533C134.939 304.533 138.526 300.404 141.965 302.296C145.404 304.188 147.336 309.599 147.336 309.599C147.336 309.599 151.189 311.678 152.588 313.757Z" fill="white"/>
    <path d="M251.095 352.092H314.677C314.677 352.092 311.513 347.982 308.025 347.47C308.025 347.47 301.255 327.297 289.912 327.15C279.368 327.022 275.13 339.557 275.13 339.557C275.13 339.557 270.203 333.93 265.571 336.502C260.94 339.074 258.259 346.435 258.259 346.435C258.259 346.435 252.997 349.263 251.095 352.092Z" fill="white"/>
    <path d="M217.175 1.60312C233.347 9.24043 243.458 40.578 235.308 66.0521C226.498 93.5859 198.314 98.8384 182.093 92.9552C164.887 86.6778 159.703 67.6289 167.518 56.3059C175.077 45.3181 187.484 42.0661 190.854 32.0341C192.48 27.2251 192.243 18.3559 194.323 11.1522C196.638 3.12073 207.4 -3.04824 217.175 1.60312Z" fill="#263238"/>
    <path d="M223.413 5.93909C229.761 12.7427 234.66 20.7659 237.811 29.5211C239.39 33.9127 240.413 38.4846 240.856 43.1303C241.055 45.457 241.101 47.7943 240.994 50.1271C240.873 52.4549 240.623 54.7743 240.245 57.0746C238.688 66.2295 234.943 75.2366 228.489 82.0559C225.282 85.454 221.498 88.2566 217.313 90.3338C213.147 92.3904 208.656 93.7107 204.039 94.2362C213.234 92.8821 221.681 88.3993 227.956 81.5435C234.165 74.7537 237.811 65.9437 239.289 56.907C239.674 54.6431 239.937 52.3601 240.078 50.0679C240.194 47.7688 240.161 45.4646 239.979 43.1697C239.558 38.5916 238.595 34.0795 237.111 29.7281C235.629 25.3679 233.711 21.1683 231.386 17.193C229.099 13.1923 226.429 9.42327 223.413 5.93909V5.93909Z" fill="#263238"/>
    <path d="M192.657 20.3268C192.526 22.8967 192.164 25.4496 191.573 27.9542C190.949 30.4854 189.924 32.9005 188.538 35.1087C187.12 37.3128 185.298 39.2288 183.167 40.7554C181.058 42.2335 178.979 43.7117 176.988 45.2786C172.904 48.2834 169.46 52.0725 166.858 56.4241C164.339 60.8853 163.398 66.0653 164.187 71.1272C163.623 68.6053 163.499 66.0046 163.823 63.4406C163.989 62.1541 164.279 60.8868 164.69 59.6565C165.094 58.4216 165.598 57.2219 166.198 56.0694C168.612 51.4279 172.406 47.7028 176.407 44.4902C178.427 42.8839 180.575 41.4452 182.665 39.9965C184.725 38.5459 186.507 36.7368 187.927 34.6554C190.785 30.4967 191.948 25.3723 192.657 20.3268Z" fill="#263238"/>
    <path d="M213.677 57.0352C209.065 68.7523 182.95 113.472 156.629 110.112C147.691 108.969 150.716 73.108 170.425 38.8042C171.007 37.8187 197.555 43.7315 196.924 50.2256C196.855 50.9155 189.957 65.6481 190.726 65.8353C190.844 65.8353 194.096 62.8789 208.336 50.4917C215.431 44.2735 216.308 50.3636 213.677 57.0352Z" fill="#EB9481"/>
    <path d="M190.716 65.7072C187.799 74.2478 184.691 82.7491 181.393 91.2109C180.467 93.5563 179.56 95.9115 178.654 98.2569C178.654 98.3456 178.752 98.3949 178.792 98.316C180.881 94.2975 182.759 90.1726 184.419 85.9584C186.074 81.7899 187.651 77.5327 188.883 73.2263C189.592 70.7429 190.263 68.299 190.854 65.7466C190.849 65.7335 190.841 65.7217 190.831 65.7121C190.821 65.7026 190.808 65.6956 190.795 65.6918C190.781 65.6879 190.767 65.6873 190.754 65.69C190.74 65.6927 190.727 65.6986 190.716 65.7072Z" fill="#263238"/>
    <path d="M192.056 62.9086C192.056 62.9086 190.085 64.7612 191.268 66.1015C192.45 67.4417 195.052 66.1015 195.052 66.1015C195.052 66.1015 193.771 68.3483 195.16 69.5407C196.55 70.7331 198.866 68.9002 198.866 68.9002C198.866 68.9002 197.604 71.1963 198.974 72.3985C200.344 73.6008 202.571 71.6496 202.571 71.6496C202.571 71.6496 201.418 74.0245 202.571 75.1283C203.724 76.232 205.784 74.2216 205.784 74.2216C205.784 74.2216 204.65 76.5769 205.902 77.5032C207.153 78.4295 209.203 76.094 209.203 76.094L192.056 62.9086Z" fill="white"/>
    <path d="M191.1 63.342L209.114 77.1385C209.114 77.1385 216.762 60.6025 217.629 53.6944C218.496 46.7863 216.643 43.3372 206.621 50.3734C201.045 54.1905 195.848 58.5333 191.1 63.342V63.342Z" fill="#FFC727"/>
    <path d="M217.629 53.6748C216.762 60.573 209.114 77.1189 209.114 77.1189L196.353 67.3628L213.736 46.6682C217.511 45.7911 218.22 48.9052 217.629 53.6748Z" fill="#263238"/>
    <path d="M167.36 45.2097C167.36 45.2097 171.578 34.3696 178.063 28.4569C182.556 24.3573 188.903 17.7351 206.217 23.0565C210.336 24.3179 217.057 31.295 214.436 33.7094C211.815 36.1237 206.552 28.7821 200.452 28.1021C200.452 28.1021 206.069 34.5076 204.65 38.5775C203.399 42.1208 201.901 45.5718 200.166 48.9051C199.48 48.7225 198.806 48.4988 198.146 48.235C198.146 48.235 196.698 52.0093 191.051 54.4533L167.36 45.2097Z" fill="#EB9481"/>
    <path d="M182.97 25.195C186.163 25.126 192.913 25.0866 198.452 26.9688C204.591 29.0678 215.875 34.7737 214.278 39.2969C213.105 42.608 208.612 40.8145 208.612 40.8145C208.612 40.8145 212.78 44.1454 211.066 46.9145C209.509 49.4373 206.138 47.831 206.138 47.831C206.138 47.831 208.316 50.2946 206.345 52.4331C203.98 55.0051 198.284 48.2252 193.633 48.7475C192.559 48.9051 182.97 25.195 182.97 25.195Z" fill="#EB9481"/>
    <path d="M195.15 33.1378C200.298 34.2376 204.987 36.8813 208.592 40.716C208.671 40.8145 208.641 40.9426 208.592 40.8638C204.436 37.7499 199.916 35.1554 195.131 33.1378C195.131 33.1378 195.111 33.1378 195.15 33.1378Z" fill="#263238"/>
    <path d="M198.117 26.3579C203.264 27.4577 207.953 30.1014 211.558 33.9361C211.637 34.0346 211.617 34.1529 211.509 34.0839C207.366 30.9941 202.862 28.4196 198.097 26.417C198.097 26.417 198.077 26.3579 198.117 26.3579Z" fill="#263238"/>
    <path d="M193.209 39.3658C195.761 39.9965 202.423 43.1007 206.178 47.7324C206.257 47.8408 206.178 47.959 206.128 47.8802C202.146 44.5854 197.806 41.7491 193.189 39.425L193.209 39.3658Z" fill="#263238"/>
    <path d="M197.703 49.5753C195.542 48.1482 192.988 47.4347 190.401 47.5354C190.38 47.5354 190.36 47.5437 190.345 47.5584C190.33 47.5732 190.322 47.5933 190.322 47.6142C190.322 47.6351 190.33 47.6552 190.345 47.6699C190.36 47.6847 190.38 47.693 190.401 47.693C192.49 48.1562 194.195 48.6785 194.224 48.6785C191.563 51.8911 186.853 53.2017 184.833 53.6058C184.705 53.6058 184.754 53.8226 184.833 53.8226C188.538 53.8226 192.638 52.1374 194.451 48.7869C195.49 49.1711 196.55 49.5001 197.624 49.7723C197.703 49.6738 197.742 49.6147 197.703 49.5753Z" fill="#263238"/>
    <path d="M122.414 181.272C123.113 178.996 161.832 125.308 164.572 124.224C164.887 124.086 183.029 136.394 183.029 136.394C183.788 137.38 217.57 129.417 217.57 129.417L218.841 170.363L156.974 170.442C156.974 170.442 148.725 175.546 141.206 179.715C137.998 181.61 134.681 183.314 131.273 184.82C128.139 185.687 121.704 183.529 122.414 181.272Z" fill="#EB9481"/>
    <path d="M131.214 184.829C134.625 183.33 137.942 181.626 141.147 179.725C141.147 179.725 141.147 179.725 141.147 179.725C148.696 175.556 156.915 170.452 156.915 170.452H170.711L191.494 135.172C186.784 136.158 183.266 136.7 183.029 136.384C183.029 136.384 164.887 124.086 164.572 124.224C161.871 125.308 123.113 178.996 122.414 181.272C121.714 183.548 128.129 185.697 131.214 184.829Z" fill="#EBEBEB"/>
    <path d="M122.049 181.351C122.788 179.015 161.724 125.347 164.503 124.194C165.557 123.77 174.416 128.964 183.029 136.345L157.88 170.915C157.88 170.915 134.229 184.12 131.086 185.007C127.942 185.894 121.32 183.677 122.049 181.351Z" fill="#455A64"/>
    <path d="M124.759 182.139C131.509 173.27 157.89 137.025 163.892 127.781C163.892 127.702 163.892 127.663 163.833 127.781C156.934 136.384 130.859 172.876 124.611 182.07C124.483 182.228 124.611 182.326 124.759 182.139Z" fill="#263238"/>
    <path d="M135.52 183.006C136.272 182.025 136.811 180.898 137.104 179.697C137.398 178.496 137.439 177.247 137.225 176.029C136.862 173.834 135.665 171.864 133.884 170.531C133.825 170.531 133.756 170.59 133.806 170.639C135.367 172.238 136.366 174.301 136.654 176.517C136.942 178.733 136.503 180.983 135.402 182.928C135.323 182.997 135.461 183.075 135.52 183.006Z" fill="#263238"/>
    <path d="M154.934 173.132C157.595 169.565 159.359 164.47 158.038 160.094C157.979 159.927 157.742 159.996 157.723 160.094C157.084 164.44 155.984 168.705 154.441 172.817C154.42 172.849 154.406 172.885 154.4 172.923C154.393 172.961 154.394 173 154.402 173.037C154.41 173.075 154.426 173.11 154.448 173.142C154.47 173.173 154.497 173.2 154.53 173.221C154.562 173.241 154.598 173.256 154.636 173.262C154.674 173.269 154.713 173.268 154.75 173.26C154.788 173.252 154.823 173.236 154.855 173.214C154.886 173.192 154.913 173.164 154.934 173.132V173.132Z" fill="#263238"/>
    <path d="M151.83 175.123C154.5 171.555 156.254 166.461 154.934 162.085C154.885 161.918 154.638 161.987 154.619 162.134C153.988 166.48 152.891 170.746 151.347 174.857C151.315 174.92 151.309 174.994 151.331 175.062C151.352 175.13 151.399 175.187 151.461 175.221C151.523 175.255 151.596 175.264 151.665 175.246C151.734 175.228 151.793 175.184 151.83 175.123Z" fill="#263238"/>
    <path d="M148.735 177.113C151.396 173.546 153.15 168.451 151.83 164.076C151.78 163.908 151.544 163.987 151.514 164.135C150.883 168.481 149.786 172.746 148.243 176.857C148.227 176.919 148.233 176.985 148.26 177.043C148.286 177.102 148.331 177.149 148.388 177.179C148.445 177.209 148.51 177.218 148.573 177.206C148.636 177.194 148.693 177.162 148.735 177.113V177.113Z" fill="#263238"/>
    <path d="M145.631 179.104C148.292 175.546 150.056 170.442 148.735 166.076C148.676 165.899 148.44 165.978 148.42 166.076C147.793 170.436 146.707 174.717 145.178 178.848C145.168 178.904 145.175 178.962 145.2 179.014C145.224 179.065 145.264 179.108 145.314 179.137C145.363 179.165 145.421 179.177 145.478 179.171C145.534 179.165 145.588 179.142 145.631 179.104V179.104Z" fill="#263238"/>
    <path d="M170.8 136.266C173.756 132.226 167.429 127.673 164.513 131.733C161.596 135.793 167.843 140.326 170.8 136.266Z" fill="#263238"/>
    <path d="M161.714 183.992C164.552 183.263 164.739 179.892 163.99 177.636C162.622 173.776 160.263 170.344 157.151 167.683C157.141 167.668 157.128 167.657 157.112 167.649C157.097 167.641 157.08 167.636 157.062 167.636C157.045 167.636 157.028 167.641 157.012 167.649C156.997 167.657 156.984 167.668 156.974 167.683C156.896 167.646 156.81 167.629 156.723 167.632C156.637 167.635 156.553 167.659 156.478 167.701C156.403 167.744 156.339 167.804 156.291 167.876C156.244 167.948 156.214 168.03 156.205 168.116C156.126 171.969 155.555 176.069 156.649 179.833C157.289 182.07 159.043 184.672 161.714 183.992ZM157.269 174.058C157.269 172.166 157.358 170.284 157.269 168.382C158.6 170.353 160.009 172.206 161.142 174.295C161.701 175.289 162.191 176.319 162.611 177.379C163.231 179.015 163.675 184.741 159.506 182.307C157.21 180.838 157.279 176.276 157.269 174.058Z" fill="#263238"/>
    <path d="M162.315 157.769C159.556 160.548 158.097 164.43 156.343 167.86C156.31 167.939 156.296 168.026 156.303 168.111C156.31 168.197 156.337 168.28 156.382 168.353C156.428 168.426 156.49 168.488 156.563 168.532C156.637 168.577 156.72 168.603 156.806 168.609C156.804 168.627 156.806 168.645 156.812 168.662C156.819 168.679 156.829 168.694 156.843 168.705C156.857 168.717 156.873 168.725 156.891 168.729C156.909 168.733 156.927 168.732 156.944 168.727C160.95 167.867 164.658 165.967 167.696 163.218C169.44 161.592 170.879 158.537 168.73 156.547C166.582 154.556 163.902 156.143 162.315 157.769ZM165.941 157.079C170.79 156.882 167.676 161.701 166.345 162.854C165.473 163.575 164.551 164.234 163.586 164.825C161.575 166.046 159.503 167.164 157.378 168.175C158.363 166.539 159.161 164.844 160.068 163.179C161.152 161.247 163.261 157.187 165.941 157.079Z" fill="#263238"/>
    <path d="M219.156 119.592L246.917 116.182C246.917 116.182 286.64 102.78 310.154 107.875C337.106 113.709 342.22 144.692 315.672 158.35C289.4 171.861 171.174 172.442 171.174 172.442L194.825 133.871C194.825 133.871 233.258 123.031 267.385 123.426L219.462 131.063L219.156 119.592Z" fill="#263238"/>
    <path d="M219.787 127.505C223.896 126.648 228.075 126.126 232.243 125.534C236.412 124.943 240.649 124.47 244.867 124.017C253.275 123.095 261.725 122.602 270.183 122.539C270.972 122.539 271.76 122.539 272.558 122.539C272.726 122.479 272.903 122.44 273.071 122.391L274.283 122.095C275.042 121.928 275.81 121.8 276.579 121.662C278.165 121.386 279.772 121.179 281.349 120.844C281.447 120.844 281.486 120.972 281.398 120.991C279.801 121.386 278.244 121.878 276.648 122.263C276.185 122.381 275.731 122.489 275.268 122.588C278.372 122.686 281.467 122.854 284.571 123.061C284.67 123.061 284.67 123.219 284.571 123.219C280.363 123.061 276.116 123.13 271.908 123.297C267.7 123.465 263.541 123.652 259.363 123.987C250.927 124.657 242.492 125.613 234.096 126.678C229.385 127.279 224.655 127.978 219.915 128.284C219.452 128.353 219.324 127.604 219.787 127.505Z" fill="#455A64"/>
    <path d="M180.822 171.102C182.28 168.648 183.512 166.037 184.833 163.514L188.834 155.916C191.504 150.861 201.103 133.871 202.059 132.669C202.118 132.6 202.246 132.669 202.216 132.768C201.783 134.078 195.801 145.322 194.431 147.825C191.672 152.841 188.775 157.769 185.917 162.726C185.099 164.135 184.251 165.534 183.423 166.943C182.596 168.353 181.709 169.732 180.95 171.181C180.911 171.22 180.773 171.102 180.822 171.102Z" fill="#455A64"/>
    <path d="M317.988 181.844C317.239 179.587 277.279 126.786 274.549 125.771C274.234 125.633 256.377 138.345 256.377 138.345C255.638 139.331 221.679 132.157 221.679 132.157L221.344 173.122L283.201 171.802C283.201 171.802 291.548 176.729 299.195 180.671C302.443 182.516 305.799 184.162 309.247 185.598C312.371 186.387 318.747 184.09 317.988 181.844Z" fill="#EB9481"/>
    <path d="M309.276 185.598C308.084 185.293 303.925 183.204 299.225 180.671C291.587 176.67 283.231 171.802 283.231 171.802L269.434 172.097L247.882 137.321C252.613 138.158 256.14 138.661 256.377 138.306C256.377 138.306 274.234 125.594 274.549 125.732C277.279 126.717 317.239 179.547 317.988 181.804C318.737 184.061 312.371 186.396 309.276 185.598Z" fill="#EBEBEB"/>
    <path d="M318.353 181.942C317.564 179.626 277.426 126.855 274.618 125.771C273.563 125.367 264.822 130.767 256.377 138.336L282.295 172.324C282.295 172.324 306.212 184.997 309.405 185.815C312.597 186.633 319.141 184.228 318.353 181.942Z" fill="#455A64"/>
    <path d="M315.662 182.76C308.764 174.078 281.526 138.415 275.318 129.299C275.268 129.23 275.317 129.191 275.367 129.299C282.442 137.754 309.355 173.645 315.771 182.691C315.948 182.839 315.81 182.928 315.662 182.76Z" fill="#263238"/>
    <path d="M304.931 183.913C304.161 182.954 303.597 181.846 303.275 180.659C302.953 179.472 302.879 178.232 303.058 177.015C303.376 174.813 304.53 172.819 306.281 171.447C306.281 171.447 306.409 171.506 306.359 171.555C304.836 173.187 303.884 175.27 303.646 177.489C303.408 179.709 303.897 181.946 305.039 183.864C305.088 183.913 304.98 183.913 304.931 183.913Z" fill="#263238"/>
    <path d="M285.29 174.443C282.551 170.935 280.678 165.879 281.9 161.474C281.95 161.307 282.186 161.376 282.216 161.523C282.951 165.852 284.143 170.09 285.773 174.167C285.791 174.229 285.788 174.295 285.764 174.354C285.74 174.414 285.697 174.464 285.641 174.496C285.585 174.528 285.52 174.54 285.456 174.53C285.393 174.521 285.334 174.49 285.29 174.443V174.443Z" fill="#263238"/>
    <path d="M288.434 176.364C285.694 172.856 283.822 167.801 285.044 163.396C285.093 163.228 285.33 163.297 285.359 163.396C286.094 167.724 287.287 171.963 288.917 176.039C288.938 176.071 288.953 176.106 288.961 176.144C288.968 176.181 288.968 176.22 288.961 176.258C288.954 176.295 288.939 176.331 288.918 176.363C288.897 176.394 288.87 176.422 288.838 176.443C288.806 176.465 288.771 176.479 288.733 176.487C288.696 176.495 288.657 176.495 288.62 176.487C288.582 176.48 288.546 176.466 288.515 176.444C288.483 176.423 288.455 176.396 288.434 176.364V176.364Z" fill="#263238"/>
    <path d="M291.587 178.286C288.838 174.778 286.966 169.722 288.188 165.317C288.237 165.15 288.483 165.219 288.503 165.367C289.239 169.692 290.431 173.927 292.06 178C292.079 178.031 292.092 178.066 292.097 178.102C292.103 178.137 292.101 178.174 292.092 178.209C292.084 178.245 292.068 178.278 292.046 178.307C292.025 178.336 291.998 178.361 291.967 178.38C291.936 178.398 291.901 178.411 291.865 178.416C291.83 178.422 291.793 178.42 291.758 178.411C291.723 178.403 291.689 178.387 291.66 178.366C291.631 178.344 291.606 178.317 291.587 178.286Z" fill="#263238"/>
    <path d="M294.731 180.208C291.982 176.699 290.109 171.644 291.331 167.249C291.381 167.071 291.627 167.14 291.647 167.249C292.375 171.606 293.571 175.871 295.214 179.971C295.22 180.03 295.209 180.089 295.18 180.14C295.152 180.192 295.108 180.233 295.056 180.259C295.003 180.285 294.943 180.294 294.885 180.285C294.827 180.275 294.773 180.249 294.731 180.208Z" fill="#263238"/>
    <path d="M268.626 137.951C265.67 134.009 271.799 129.279 274.815 133.27C277.83 137.262 271.642 141.933 268.626 137.951Z" fill="#263238"/>
    <path d="M283.733 181.223C284.719 177.439 284.078 173.339 283.901 169.496C283.901 169.102 283.448 168.964 283.132 169.082C283.122 169.068 283.109 169.056 283.093 169.048C283.078 169.04 283.061 169.036 283.044 169.036C283.026 169.036 283.009 169.04 282.994 169.048C282.978 169.056 282.965 169.068 282.955 169.082C279.902 171.814 277.622 175.301 276.342 179.193C275.643 181.469 275.909 184.829 278.757 185.49C281.447 186.081 283.142 183.43 283.733 181.223ZM280.925 183.617C276.806 186.199 277.121 180.474 277.702 178.808C278.098 177.743 278.566 176.706 279.102 175.704C280.244 173.645 281.49 171.645 282.837 169.713C282.837 171.605 282.935 173.487 282.975 175.379C283.024 177.645 283.191 182.198 280.925 183.617V183.617Z" fill="#263238"/>
    <path d="M271.129 158.192C269.03 160.223 270.528 163.238 272.312 164.834C275.398 167.512 279.132 169.333 283.142 170.117C283.231 170.117 283.28 170.067 283.28 169.988C283.605 169.929 283.921 169.584 283.723 169.24C281.89 165.85 280.353 161.996 277.535 159.277C275.928 157.66 273.11 156.261 271.129 158.192ZM279.929 164.637C280.915 166.283 281.733 167.968 282.738 169.565C280.619 168.579 278.471 167.594 276.451 166.352C275.474 165.76 274.539 165.102 273.652 164.381C272.292 163.268 269.07 158.518 273.928 158.606C276.608 158.695 278.806 162.676 279.929 164.637Z" fill="#263238"/>
    <path d="M219.807 119.592H192.046C192.046 119.592 163.005 105.638 139.61 111.255C112.796 117.71 109.366 151.393 129.41 163.297C154.806 178.385 267.818 175.468 267.818 175.468L243.389 134.078C243.389 134.078 205.803 126.195 171.726 127.318L219.807 133.871V119.592Z" fill="#263238"/>
    <path d="M245.015 136.729C244.989 136.663 244.972 136.593 244.965 136.522C244.965 136.463 244.965 136.404 244.965 136.345L244.857 135.941C244.776 135.666 244.681 135.397 244.571 135.133C244.463 134.867 244.354 134.61 244.226 134.344C244.073 134.104 243.905 133.874 243.724 133.655C243.724 133.655 243.674 133.655 243.655 133.605H243.596C243.596 133.605 243.596 133.605 243.527 133.605C239.398 132.837 211.312 128.816 207.134 128.343C202.955 127.87 198.708 127.466 194.48 127.111C186.052 126.385 177.593 126.083 169.134 126.204C168.346 126.204 167.558 126.204 166.759 126.273L166.247 126.145C165.833 126.047 165.439 125.948 165.025 125.869C164.266 125.722 163.497 125.613 162.729 125.495C161.123 125.249 159.526 125.081 157.93 124.785C157.831 124.785 157.792 124.914 157.93 124.933C159.536 125.288 161.103 125.751 162.709 126.096C163.172 126.204 163.626 126.303 164.089 126.392C160.994 126.559 157.9 126.796 154.806 127.072C154.707 127.072 154.707 127.239 154.806 127.229C159.014 126.983 163.251 126.953 167.469 127.022C171.687 127.091 175.845 127.19 180.024 127.426C188.479 127.909 196.924 128.668 205.35 129.545C210.07 130.048 238.708 134.226 243.458 134.423H243.517C243.517 134.532 243.596 134.64 243.645 134.748C243.773 135.005 243.911 135.261 244.049 135.507C244.187 135.754 244.315 135.99 244.473 136.227L244.699 136.571L244.818 136.739C244.867 136.793 244.91 136.853 244.946 136.916C244.906 136.897 245.074 136.828 245.015 136.729Z" fill="#455A64"/>
    <path d="M259.008 172.955C257.5 170.531 256.209 167.949 254.82 165.455L250.622 157.946C247.843 152.96 237.86 136.187 236.875 135.015C236.816 134.936 236.688 135.015 236.717 135.103C237.19 136.404 243.418 147.51 244.847 149.994C247.715 154.921 250.76 159.799 253.716 164.687C254.564 166.086 255.441 167.466 256.308 168.855C257.175 170.245 258.082 171.605 258.87 173.034C258.929 173.122 259.057 173.073 259.008 172.955Z" fill="#455A64"/>
    <path d="M197.91 89.0824L192.243 122.282C192.243 122.282 221.886 133.852 257.757 122.135C257.757 122.135 247.133 63.894 233.12 48.6884C226.114 41.0807 217.885 41.6522 212.642 46.9639C211.312 48.3139 197.456 67.2643 195.791 75.2564C194.332 82.3123 197.91 89.0824 197.91 89.0824Z" fill="#FFC727"/>
    <path d="M237.072 48.5799C265.571 67.481 290.848 94.5417 289.114 103.687C287.281 113.354 267.739 126.352 252.869 130.412C249.548 131.319 236.737 106.84 240.166 105.49C242.837 104.436 253.401 98.8777 254.781 97.094C255.766 95.8524 235.416 69.7475 228.331 56.0103C220.91 41.6225 229.435 43.5245 237.072 48.5799Z" fill="#EB9481"/>
    <path d="M246.463 104.436C246.463 104.436 236.116 106.091 229.395 107.501C225.641 108.289 219.343 110.201 216.85 112.034C213.125 114.783 199.299 128.649 202.591 132.068C205.547 135.172 209.489 129.752 209.489 129.752C209.489 129.752 204.68 135.271 208.572 137.439C212.465 139.607 216.899 132.078 216.899 132.078C216.899 132.078 211.381 137.577 215.766 139.498C219.56 141.164 225.562 133.024 225.562 133.024C225.562 133.024 219.136 138.158 222.871 140.247C226.991 142.553 237.515 131.477 237.515 131.477C246.493 131.94 251.942 131.014 258.121 128.875C259.225 128.491 246.463 104.436 246.463 104.436Z" fill="#EB9481"/>
    <path d="M215.402 133.911C215.776 133.339 216.16 132.768 216.535 132.186C217.242 131.053 218.011 129.961 218.841 128.914C219.669 127.929 220.546 126.944 221.443 126.007C222.339 125.071 223.413 124.115 224.399 123.051C224.478 122.972 224.596 123.051 224.517 123.159C223.586 124.152 222.714 125.198 221.906 126.293C221.078 127.338 220.26 128.392 219.452 129.437C218.644 130.481 217.786 131.408 216.959 132.393C216.555 132.896 216.16 133.379 215.776 133.94C215.434 134.456 215.052 134.943 214.633 135.399C214.623 135.406 214.61 135.409 214.598 135.409C214.585 135.408 214.573 135.404 214.564 135.396C214.554 135.389 214.547 135.378 214.543 135.366C214.54 135.354 214.54 135.342 214.544 135.33C214.782 134.829 215.069 134.354 215.402 133.911V133.911Z" fill="#263238"/>
    <path d="M208.484 130.925C209.72 128.774 211.106 126.712 212.632 124.756C214.182 122.811 215.922 121.025 217.826 119.425C217.895 119.365 217.993 119.425 217.944 119.523C216.397 121.494 214.81 123.406 213.243 125.337C212.465 126.274 209.105 130.669 208.691 131.083C208.592 131.181 208.434 131.043 208.484 130.925Z" fill="#263238"/>
    <path d="M221.837 136.897C223.045 134.898 224.385 132.982 225.847 131.161C227.502 129.443 229.281 127.849 231.169 126.392C231.248 126.392 231.346 126.441 231.287 126.5C229.632 128.215 227.966 129.9 226.36 131.703C225.591 132.571 222.753 136.236 221.955 137.005C221.925 137.084 221.797 136.985 221.837 136.897Z" fill="#263238"/>
    <path d="M236.224 72.645C236.224 72.645 237.594 74.9904 239.181 74.1133C240.767 73.2363 240.038 70.4277 240.038 70.4277C240.038 70.4277 241.94 72.1818 243.418 71.088C244.896 69.9941 243.605 67.3334 243.605 67.3334C243.605 67.3334 245.576 69.0678 247.045 68.0035C248.513 66.9392 247.114 64.3277 247.114 64.3277C247.114 64.3277 249.173 65.9833 250.514 65.0865C251.854 64.1898 250.336 61.7458 250.336 61.7458C250.336 61.7458 252.376 63.3718 253.559 62.3568C254.741 61.3418 252.918 58.8289 252.918 58.8289L236.224 72.645Z" fill="white"/>
    <path d="M236.441 73.6698L253.864 59.154C253.864 59.154 239.437 48.038 232.884 45.663C226.33 43.2881 222.556 44.3524 227.198 55.6556C229.699 61.9404 232.794 67.9724 236.441 73.6698V73.6698Z" fill="#FFC727"/>
    <path d="M228.617 59.7452C228.604 59.7342 228.588 59.7276 228.571 59.7262C228.555 59.7248 228.538 59.7288 228.524 59.7376C228.509 59.7464 228.498 59.7596 228.492 59.7751C228.486 59.7907 228.484 59.8078 228.488 59.8241C228.745 60.4646 230.716 64.1995 231.139 65.0174C230.992 64.8696 228.853 62.9776 228.528 62.6129C228.459 62.5341 228.351 62.6129 228.42 62.7213C228.764 63.0859 231.711 66.2394 231.869 66.3577C232.214 66.9982 235.544 72.7434 236.224 73.6205C236.412 73.857 236.5 73.6205 236.431 73.3544C236.165 72.3493 229.208 60.4745 228.617 59.7452Z" fill="#263238"/>
    <path d="M219.541 41.5931C212.79 42.3914 208.898 53.4186 210.524 55.0249C212.15 56.6312 216.032 53.054 216.032 53.054C216.032 53.054 218.545 57.7448 221.896 56.3849C227.572 54.0789 228.636 40.5091 219.541 41.5931Z" fill="white"/>
    <path d="M224.271 43.6921C224.054 45.2491 220.634 52.3937 215.914 52.4036C213.49 52.4036 213.145 43.9188 213.145 43.9188L212.997 43.2979L211.026 34.616L222.684 27.1462C222.684 27.1462 224.34 43.2486 224.271 43.6921Z" fill="#EB9481"/>
    <path d="M223.285 33.1379C222.37 35.4506 220.982 37.5469 219.21 39.2929C217.439 41.0389 215.323 42.3963 212.997 43.2783L211.026 34.5964L222.684 27.1266C222.684 27.1266 222.96 29.8957 223.285 33.1379Z" fill="#263238"/>
    <path d="M197.18 25.1163C199.94 40.4993 209.469 40.5781 212.78 39.977C215.796 39.435 225.976 37.198 224.813 21.6179C223.65 6.03777 215.628 2.4507 208.681 3.33761C201.733 4.22452 194.451 9.73324 197.18 25.1163Z" fill="#EB9481"/>
    <path d="M201.576 20.6028C201.921 20.4747 202.226 20.2973 202.561 20.1397C202.929 20.0274 203.248 19.7949 203.468 19.4794C203.517 19.3672 203.528 19.242 203.5 19.1228C203.471 19.0036 203.405 18.8969 203.31 18.8191C203.098 18.6954 202.856 18.6301 202.61 18.6301C202.365 18.6301 202.123 18.6954 201.911 18.8191C201.444 19.0004 201.063 19.3528 200.846 19.8046C200.8 19.9094 200.786 20.0254 200.804 20.1384C200.823 20.2513 200.874 20.3564 200.951 20.441C201.029 20.5255 201.129 20.5858 201.239 20.6145C201.35 20.6432 201.467 20.6392 201.576 20.6028V20.6028Z" fill="#263238"/>
    <path d="M211.972 18.1194C211.615 18.144 211.256 18.144 210.898 18.1194C210.521 18.186 210.132 18.1235 209.794 17.942C209.697 17.8664 209.628 17.7597 209.599 17.6396C209.571 17.5196 209.584 17.3933 209.637 17.2818C209.768 17.0752 209.953 16.9078 210.171 16.7969C210.39 16.6859 210.634 16.6356 210.878 16.6511C211.379 16.6071 211.878 16.7511 212.278 17.0551C212.374 17.1268 212.447 17.2263 212.485 17.3403C212.524 17.4544 212.527 17.5774 212.494 17.6931C212.461 17.8088 212.393 17.9116 212.3 17.9878C212.206 18.064 212.092 18.1099 211.972 18.1194V18.1194Z" fill="#263238"/>
    <path d="M210.878 22.4456C210.878 22.4456 210.967 22.4456 210.977 22.5145C211.164 23.569 211.558 24.7318 212.583 24.8698V24.9289C211.401 25.0176 210.888 23.4606 210.878 22.4456Z" fill="#263238"/>
    <path d="M211.568 21.1547C213.214 20.6718 214.071 23.9928 212.554 24.4461C211.036 24.8994 210.218 21.5685 211.568 21.1547Z" fill="#263238"/>
    <path d="M212.268 21.1646C212.603 21.273 212.977 21.539 213.332 21.4799C213.687 21.4208 213.973 20.9872 214.15 20.5831C214.15 20.5831 214.15 20.5831 214.209 20.5831C214.341 20.8732 214.356 21.2026 214.251 21.5034C214.147 21.8042 213.931 22.0533 213.648 22.1993C213.046 22.4457 212.455 22.0022 212.13 21.4011C212.071 21.3124 212.13 21.1153 212.268 21.1646Z" fill="#263238"/>
    <path d="M204.493 23.9041C204.493 23.9041 204.424 23.973 204.443 24.0223C204.749 25.0078 204.926 26.2593 204.089 26.8506C204.089 26.8506 204.089 26.9196 204.089 26.8506C205.202 26.4367 204.946 24.8205 204.493 23.9041Z" fill="#263238"/>
    <path d="M203.32 23.0763C201.635 23.3916 202.384 26.7422 203.951 26.4564C205.517 26.1706 204.7 22.8102 203.32 23.0763Z" fill="#263238"/>
    <path d="M202.64 23.4507C202.413 23.6872 202.226 24.0715 201.911 24.1701C201.595 24.2686 201.201 23.973 200.925 23.6773C200.925 23.6773 200.876 23.6773 200.925 23.7266C201.053 24.3671 201.408 24.988 202.058 24.9683C202.709 24.9486 202.926 24.3179 202.936 23.6478C202.867 23.5197 202.729 23.362 202.64 23.4507Z" fill="#263238"/>
    <path d="M206.868 28.2105C206.868 28.2105 207.035 29.8069 207.212 30.5362C207.935 30.5324 208.644 30.3348 209.265 29.9639C209.885 29.5929 210.395 29.0623 210.74 28.4273C210.74 28.3485 210.662 28.2893 210.602 28.3485C209.829 29.2198 208.79 29.812 207.646 30.0336C207.548 29.8463 207.459 27.294 207.341 27.3137C206.785 27.5007 206.258 27.7626 205.774 28.0922C205.34 24.7712 205.429 21.4207 204.946 18.1194C204.946 18.011 204.749 18.011 204.749 18.1194C204.532 21.7152 204.677 25.3237 205.182 28.8905C205.291 29.3142 206.611 28.3977 206.868 28.2105Z" fill="#263238"/>
    <path d="M208.188 30.1815C208.715 30.5842 209.335 30.8454 209.991 30.9403C210.353 30.9839 210.719 30.9114 211.036 30.7333C211.726 30.349 211.558 29.6592 211.273 29.1172C211.118 28.8292 210.93 28.5612 210.711 28.319C210.087 29.1901 209.204 29.8419 208.188 30.1815Z" fill="#263238"/>
    <path d="M209.991 30.9698C210.353 31.0135 210.719 30.941 211.036 30.7629C211.726 30.3786 211.558 29.6887 211.273 29.1467C210.887 29.2647 210.551 29.5081 210.319 29.8383C210.087 30.1685 209.972 30.5667 209.991 30.9698Z" fill="#FF9BBC"/>
    <path d="M222.586 23.2833C222.586 23.2833 224.557 17.6859 227.06 18.287C229.563 18.8881 228.883 26.3776 226.626 27.9839C226.351 28.2117 226.033 28.3815 225.69 28.4828C225.348 28.5842 224.989 28.6151 224.634 28.5736C224.28 28.5322 223.937 28.4192 223.627 28.2417C223.317 28.0641 223.047 27.8255 222.832 27.5405L222.586 23.2833Z" fill="#EB9481"/>
    <path d="M226.823 20.3761C226.823 20.3761 226.882 20.3761 226.823 20.4451C225.256 21.6276 224.773 23.5099 224.586 25.3724C224.636 25.1691 224.73 24.9791 224.861 24.8156C224.992 24.6521 225.157 24.5189 225.344 24.4252C225.532 24.3315 225.737 24.2796 225.946 24.273C226.156 24.2664 226.364 24.3052 226.557 24.3869C226.57 24.3869 226.583 24.3921 226.592 24.4013C226.601 24.4106 226.606 24.4231 226.606 24.4362C226.606 24.4493 226.601 24.4618 226.592 24.471C226.583 24.4803 226.57 24.4855 226.557 24.4855C226.224 24.4682 225.893 24.5533 225.609 24.7295C225.326 24.9057 225.103 25.1644 224.97 25.4709C224.768 25.9964 224.619 26.5412 224.527 27.0969C224.527 27.2743 224.182 27.2645 224.192 27.0969C223.581 24.8599 224.478 21.2532 226.823 20.3761Z" fill="#263238"/>
    <path d="M226.192 27.4517C226.194 27.5866 226.156 27.719 226.083 27.8321C226.009 27.9452 225.904 28.0339 225.78 28.0869C225.655 28.1398 225.518 28.1547 225.386 28.1296C225.253 28.1045 225.131 28.0405 225.035 27.9458C224.939 27.8511 224.873 27.73 224.846 27.5979C224.819 27.4657 224.832 27.3285 224.883 27.2036C224.934 27.0788 225.022 26.972 225.134 26.8969C225.246 26.8217 225.378 26.7816 225.512 26.7816C225.601 26.7803 225.689 26.7966 225.772 26.8297C225.854 26.8628 225.929 26.912 225.993 26.9743C226.056 27.0367 226.106 27.111 226.14 27.1929C226.175 27.2749 226.192 27.3628 226.192 27.4517V27.4517Z" fill="#455A64"/>
    <path d="M225.838 27.4517C225.84 27.5164 225.822 27.5802 225.788 27.635C225.753 27.6898 225.703 27.733 225.644 27.7591C225.585 27.7852 225.519 27.7931 225.455 27.7817C225.391 27.7703 225.333 27.7401 225.286 27.695C225.24 27.65 225.208 27.5921 225.194 27.5287C225.181 27.4654 225.187 27.3995 225.211 27.3395C225.235 27.2795 225.277 27.2281 225.331 27.1919C225.384 27.1558 225.448 27.1364 225.512 27.1364C225.555 27.1351 225.597 27.1422 225.636 27.1575C225.676 27.1728 225.711 27.1958 225.742 27.2252C225.772 27.2546 225.796 27.2898 225.813 27.3287C225.829 27.3676 225.838 27.4095 225.838 27.4517Z" fill="#263238"/>
    <path d="M226.636 26.8309C226.897 26.8309 227.109 26.6192 227.109 26.3579C227.109 26.0967 226.897 25.8849 226.636 25.8849C226.375 25.8849 226.163 26.0967 226.163 26.3579C226.163 26.6192 226.375 26.8309 226.636 26.8309Z" fill="#455A64"/>
    <path d="M211.578 40.1148C209.634 40.2097 207.698 39.807 205.953 38.9448C204.207 38.0825 202.711 36.7894 201.605 35.1875C199.398 32.0242 198.284 28.0922 197.486 24.3475C197.23 23.1649 197.023 21.9627 196.855 20.7604C196.657 19.6186 196.571 18.46 196.599 17.3014C196.599 17.2029 196.441 17.2029 196.451 17.3014C196.55 18.415 196.501 19.5384 196.55 20.652C196.599 21.7656 196.717 22.8693 196.885 23.973C197.196 26.0843 197.701 28.1625 198.393 30.1814C199.644 33.7783 201.625 37.2668 205.074 39.1491C207.072 40.1919 209.361 40.5387 211.578 40.1345C211.637 40.1838 211.627 40.105 211.578 40.1148Z" fill="#263238"/>
    <path d="M224.724 21.7164C222.96 22.0613 217.235 18.425 214.978 10.088C214.978 10.088 217.53 17.4395 218.368 18.3954C219.205 19.3513 215.145 16.3851 213.253 9.65437C211.523 11.7133 209.505 13.5122 207.262 14.9956C204.305 16.7004 202.334 17.1636 202.058 16.9665C201.783 16.7694 206.089 14.1185 206.986 12.3348C206.986 12.3348 199.506 18.425 195.663 19.7159C195.219 19.8637 192.332 10.699 197.378 5.2198C202.423 -0.259349 213.076 1.58346 216.279 3.41642C216.279 3.41642 219.412 3.08136 223.827 6.72756C228.242 10.3738 226.616 21.3616 224.724 21.7164Z" fill="#263238"/>
</svg>
