<svg width="300" height="220" viewBox="0 0 300 220" fill="none" xmlns="http://www.w3.org/2000/svg">
    <path d="M299.629 96.9504H175.752V185.261H299.629V96.9504Z" fill="white"/>
    <path d="M300 185.628H175.388V96.5701H300V185.628ZM176.116 184.909H299.272V97.2883H176.116V184.909Z" fill="#EBEBEB"/>
    <path d="M182.454 169.374L196.257 169.202L210.076 169.101L237.69 169.015L265.32 169.101L279.123 169.202L292.942 169.374L279.123 169.554L265.32 169.654L237.69 169.733L210.076 169.654L196.257 169.554L182.454 169.374Z" fill="#EBEBEB"/>
    <path d="M182.454 161.834L196.257 161.662L210.076 161.561L237.69 161.475L265.32 161.561L279.123 161.662L292.942 161.834L279.123 162.014L265.32 162.114L237.69 162.193L210.076 162.114L196.257 162.014L182.454 161.834Z" fill="#EBEBEB"/>
    <path d="M182.454 154.292L196.257 154.12L210.076 154.019L237.69 153.94L265.32 154.019L279.123 154.12L292.942 154.292L279.123 154.472L265.32 154.572L237.69 154.651L210.076 154.572L196.257 154.472L182.454 154.292Z" fill="#EBEBEB"/>
    <path d="M182.454 146.758L196.257 146.578L210.076 146.478L237.69 146.399L265.32 146.478L279.123 146.578L292.942 146.758L279.123 146.93L265.32 147.031L237.69 147.11L210.076 147.031L196.257 146.93L182.454 146.758Z" fill="#EBEBEB"/>
    <path d="M182.454 139.217L196.257 139.037L210.076 138.936L237.69 138.857L265.32 138.936L279.123 139.037L292.942 139.217L279.123 139.389L265.32 139.489L237.69 139.576L210.076 139.489L196.257 139.389L182.454 139.217Z" fill="#EBEBEB"/>
    <path d="M182.454 131.676L196.257 131.496L210.076 131.396L237.69 131.317L265.32 131.396L279.123 131.496L292.942 131.676L279.123 131.848L265.32 131.949L237.69 132.035L210.076 131.949L196.257 131.848L182.454 131.676Z" fill="#EBEBEB"/>
    <path d="M182.454 124.135L196.257 123.962L210.076 123.855L237.69 123.776L265.32 123.855L279.123 123.955L292.942 124.135L279.123 124.307L265.32 124.408L237.69 124.494L210.076 124.408L196.257 124.307L182.454 124.135Z" fill="#EBEBEB"/>
    <path d="M182.454 116.593L196.257 116.421L210.076 116.313L237.69 116.234L265.32 116.313L279.123 116.414L292.942 116.593L279.123 116.766L265.32 116.866L237.69 116.953L210.076 116.866L196.257 116.766L182.454 116.593Z" fill="#EBEBEB"/>
    <path d="M182.454 109.052L196.257 108.88L210.076 108.78L237.69 108.693L265.32 108.772L279.123 108.873L292.942 109.052L279.123 109.225L265.32 109.325L237.69 109.412L210.076 109.325L196.257 109.225L182.454 109.052Z" fill="#EBEBEB"/>
    <path d="M187.606 166.329L187.445 165.633L201.78 162.415L215.489 149.136L221.005 152.762L231.949 141.975L237.96 145.523L241.86 142.305L252.768 153.66L267.088 136.667L278.985 149.164L292.789 142.937L293.087 143.591L278.81 150.033L267.117 137.752L252.804 154.745L241.802 143.289L238.032 146.399L232.058 142.88L221.1 153.689L215.577 150.062L202.137 163.069L187.606 166.329Z" fill="#455A64"/>
    <path d="M201.977 164.045C202.777 164.045 203.425 163.405 203.425 162.616C203.425 161.826 202.777 161.187 201.977 161.187C201.177 161.187 200.529 161.826 200.529 162.616C200.529 163.405 201.177 164.045 201.977 164.045Z" fill="#455A64"/>
    <path d="M216.836 149.71C216.836 149.994 216.75 150.272 216.59 150.508C216.43 150.744 216.203 150.928 215.937 151.037C215.671 151.146 215.379 151.174 215.096 151.119C214.814 151.063 214.555 150.927 214.351 150.726C214.148 150.525 214.009 150.269 213.953 149.99C213.897 149.712 213.926 149.423 214.036 149.16C214.146 148.898 214.332 148.674 214.572 148.516C214.811 148.358 215.092 148.274 215.38 148.274C215.766 148.274 216.136 148.425 216.409 148.694C216.682 148.964 216.836 149.329 216.836 149.71Z" fill="#455A64"/>
    <path d="M232.124 143.965C232.924 143.965 233.572 143.325 233.572 142.535C233.572 141.746 232.924 141.106 232.124 141.106C231.324 141.106 230.676 141.746 230.676 142.535C230.676 143.325 231.324 143.965 232.124 143.965Z" fill="#455A64"/>
    <path d="M239.451 146.026C239.451 146.31 239.366 146.588 239.206 146.824C239.046 147.06 238.819 147.244 238.553 147.353C238.287 147.462 237.994 147.49 237.712 147.435C237.43 147.379 237.17 147.242 236.967 147.041C236.763 146.841 236.625 146.585 236.569 146.306C236.512 146.027 236.541 145.739 236.651 145.476C236.762 145.214 236.948 144.989 237.187 144.831C237.427 144.674 237.708 144.589 237.996 144.589C238.382 144.589 238.752 144.741 239.025 145.01C239.298 145.279 239.451 145.645 239.451 146.026Z" fill="#455A64"/>
    <path d="M241.845 144.338C242.645 144.338 243.294 143.698 243.294 142.908C243.294 142.119 242.645 141.479 241.845 141.479C241.046 141.479 240.397 142.119 240.397 142.908C240.397 143.698 241.046 144.338 241.845 144.338Z" fill="#455A64"/>
    <path d="M266.972 138.643C267.771 138.643 268.42 138.003 268.42 137.214C268.42 136.424 267.771 135.784 266.972 135.784C266.172 135.784 265.524 136.424 265.524 137.214C265.524 138.003 266.172 138.643 266.972 138.643Z" fill="#455A64"/>
    <path d="M279.109 150.824C279.909 150.824 280.557 150.184 280.557 149.394C280.557 148.605 279.909 147.965 279.109 147.965C278.309 147.965 277.661 148.605 277.661 149.394C277.661 150.184 278.309 150.824 279.109 150.824Z" fill="#455A64"/>
    <path d="M294.382 143.462C294.382 143.746 294.297 144.023 294.137 144.26C293.977 144.496 293.75 144.68 293.484 144.789C293.218 144.897 292.926 144.926 292.643 144.87C292.361 144.815 292.102 144.678 291.898 144.477C291.695 144.276 291.556 144.02 291.5 143.742C291.444 143.463 291.472 143.174 291.583 142.912C291.693 142.649 291.879 142.425 292.119 142.267C292.358 142.109 292.639 142.025 292.927 142.025C293.313 142.025 293.683 142.177 293.956 142.446C294.229 142.715 294.382 143.081 294.382 143.462Z" fill="#455A64"/>
    <path d="M254.194 154.091C254.194 154.375 254.108 154.653 253.949 154.889C253.789 155.125 253.561 155.309 253.295 155.418C253.029 155.526 252.737 155.555 252.455 155.5C252.172 155.444 251.913 155.307 251.709 155.106C251.506 154.906 251.367 154.65 251.311 154.371C251.255 154.092 251.284 153.803 251.394 153.541C251.504 153.279 251.691 153.054 251.93 152.896C252.169 152.739 252.451 152.654 252.738 152.654C253.124 152.654 253.495 152.806 253.768 153.075C254.04 153.344 254.194 153.71 254.194 154.091Z" fill="#455A64"/>
    <path d="M187.795 166.128L187.256 165.64L202.537 149.15L208.722 152.367L225.051 135.985L229.563 139.626L237.276 133.076L251.982 143.526L255.234 139.863L263.552 147.433L275.754 136.739L283.577 143.332L292.847 140.869L293.029 141.566L283.395 144.13L275.769 137.687L263.544 148.403L255.293 140.89L252.091 144.489L237.312 133.996L229.577 140.567L225.102 136.955L208.861 153.251L202.69 150.048L187.795 166.128Z" fill="#263238"/>
    <path d="M203.949 149.846C203.949 150.13 203.863 150.408 203.703 150.644C203.544 150.881 203.316 151.065 203.05 151.173C202.784 151.282 202.492 151.311 202.209 151.255C201.927 151.2 201.668 151.063 201.464 150.862C201.261 150.661 201.122 150.405 201.066 150.127C201.01 149.848 201.039 149.559 201.149 149.297C201.259 149.034 201.446 148.81 201.685 148.652C201.924 148.494 202.206 148.41 202.493 148.41C202.879 148.41 203.25 148.561 203.522 148.831C203.795 149.1 203.949 149.465 203.949 149.846Z" fill="#263238"/>
    <path d="M208.708 154.156C209.507 154.156 210.156 153.516 210.156 152.726C210.156 151.937 209.507 151.297 208.708 151.297C207.908 151.297 207.26 151.937 207.26 152.726C207.26 153.516 207.908 154.156 208.708 154.156Z" fill="#263238"/>
    <path d="M226.332 136.567C226.332 136.851 226.246 137.128 226.086 137.365C225.927 137.601 225.699 137.785 225.433 137.894C225.167 138.002 224.875 138.031 224.592 137.975C224.31 137.92 224.051 137.783 223.847 137.582C223.644 137.381 223.505 137.125 223.449 136.847C223.393 136.568 223.422 136.279 223.532 136.017C223.642 135.754 223.829 135.53 224.068 135.372C224.307 135.214 224.589 135.13 224.876 135.13C225.262 135.13 225.633 135.281 225.905 135.551C226.178 135.82 226.332 136.186 226.332 136.567Z" fill="#263238"/>
    <path d="M231.192 140.05C231.192 140.334 231.107 140.612 230.947 140.848C230.787 141.084 230.56 141.269 230.294 141.377C230.028 141.486 229.736 141.514 229.453 141.459C229.171 141.404 228.912 141.267 228.708 141.066C228.505 140.865 228.366 140.609 228.31 140.33C228.254 140.052 228.282 139.763 228.393 139.501C228.503 139.238 228.689 139.014 228.929 138.856C229.168 138.698 229.449 138.614 229.737 138.614C230.123 138.614 230.493 138.765 230.766 139.035C231.039 139.304 231.192 139.669 231.192 140.05Z" fill="#263238"/>
    <path d="M237.305 134.965C238.104 134.965 238.753 134.325 238.753 133.536C238.753 132.746 238.104 132.106 237.305 132.106C236.505 132.106 235.857 132.746 235.857 133.536C235.857 134.325 236.505 134.965 237.305 134.965Z" fill="#263238"/>
    <path d="M251.945 145.394C252.745 145.394 253.393 144.754 253.393 143.964C253.393 143.175 252.745 142.535 251.945 142.535C251.145 142.535 250.497 143.175 250.497 143.964C250.497 144.754 251.145 145.394 251.945 145.394Z" fill="#263238"/>
    <path d="M256.537 140.423C256.537 140.708 256.452 140.985 256.292 141.222C256.132 141.458 255.905 141.642 255.639 141.751C255.373 141.859 255.08 141.888 254.798 141.832C254.515 141.777 254.256 141.64 254.053 141.439C253.849 141.238 253.71 140.982 253.654 140.704C253.598 140.425 253.627 140.136 253.737 139.874C253.847 139.611 254.034 139.387 254.273 139.229C254.512 139.071 254.794 138.987 255.082 138.987C255.468 138.987 255.838 139.138 256.111 139.408C256.384 139.677 256.537 140.043 256.537 140.423Z" fill="#263238"/>
    <path d="M263.37 149.394C264.169 149.394 264.818 148.754 264.818 147.964C264.818 147.175 264.169 146.535 263.37 146.535C262.57 146.535 261.922 147.175 261.922 147.964C261.922 148.754 262.57 149.394 263.37 149.394Z" fill="#263238"/>
    <path d="M275.856 138.994C276.656 138.994 277.304 138.355 277.304 137.565C277.304 136.776 276.656 136.136 275.856 136.136C275.057 136.136 274.408 136.776 274.408 137.565C274.408 138.355 275.057 138.994 275.856 138.994Z" fill="#263238"/>
    <path d="M285.003 143.756C285.003 144.041 284.918 144.318 284.758 144.555C284.598 144.791 284.37 144.975 284.104 145.084C283.839 145.192 283.546 145.221 283.264 145.165C282.981 145.11 282.722 144.973 282.518 144.772C282.315 144.571 282.176 144.315 282.12 144.037C282.064 143.758 282.093 143.469 282.203 143.207C282.313 142.944 282.5 142.72 282.739 142.562C282.978 142.404 283.26 142.32 283.548 142.32C283.934 142.32 284.304 142.471 284.577 142.741C284.85 143.01 285.003 143.376 285.003 143.756Z" fill="#263238"/>
    <path d="M294.382 141.113C294.382 141.397 294.297 141.675 294.137 141.911C293.977 142.147 293.75 142.331 293.484 142.44C293.218 142.549 292.926 142.577 292.643 142.522C292.361 142.466 292.102 142.33 291.898 142.129C291.695 141.928 291.556 141.672 291.5 141.393C291.444 141.115 291.472 140.826 291.583 140.563C291.693 140.301 291.879 140.076 292.119 139.919C292.358 139.761 292.639 139.677 292.927 139.677C293.313 139.677 293.683 139.828 293.956 140.097C294.229 140.367 294.382 140.732 294.382 141.113Z" fill="#263238"/>
    <path d="M188.042 165.877L187.678 165.259L206.248 154.737L216.203 159.169L221.66 157.352L227.401 160.857L239.24 152.267L243.97 156.045L248.991 154.565L257.199 159.147L270.144 153.05L278.345 159.104L292.723 148.898L293.153 149.48L278.33 159.995L270.057 153.883L257.17 159.952L248.904 155.341L243.81 156.842L239.218 153.172L227.438 161.718L221.565 158.142L216.166 159.937L206.285 155.542L188.042 165.877Z" fill="#DD6A57"/>
    <path d="M207.711 155.14C207.711 155.424 207.625 155.702 207.466 155.938C207.306 156.174 207.078 156.358 206.812 156.467C206.547 156.576 206.254 156.604 205.972 156.549C205.689 156.493 205.43 156.357 205.226 156.156C205.023 155.955 204.884 155.699 204.828 155.42C204.772 155.142 204.801 154.853 204.911 154.59C205.021 154.328 205.208 154.104 205.447 153.946C205.686 153.788 205.968 153.704 206.255 153.704C206.641 153.704 207.012 153.855 207.285 154.124C207.557 154.394 207.711 154.759 207.711 155.14Z" fill="#DD6A57"/>
    <path d="M216.188 160.928C216.988 160.928 217.636 160.288 217.636 159.499C217.636 158.71 216.988 158.07 216.188 158.07C215.388 158.07 214.74 158.71 214.74 159.499C214.74 160.288 215.388 160.928 216.188 160.928Z" fill="#DD6A57"/>
    <path d="M221.631 159.427C222.431 159.427 223.079 158.787 223.079 157.998C223.079 157.208 222.431 156.568 221.631 156.568C220.831 156.568 220.183 157.208 220.183 157.998C220.183 158.787 220.831 159.427 221.631 159.427Z" fill="#DD6A57"/>
    <path d="M228.944 161.187C228.944 161.471 228.859 161.749 228.699 161.985C228.539 162.221 228.311 162.405 228.046 162.514C227.78 162.623 227.487 162.651 227.205 162.596C226.922 162.541 226.663 162.404 226.46 162.203C226.256 162.002 226.117 161.746 226.061 161.467C226.005 161.189 226.034 160.9 226.144 160.637C226.254 160.375 226.441 160.151 226.68 159.993C226.919 159.835 227.201 159.751 227.489 159.751C227.875 159.751 228.245 159.902 228.518 160.171C228.791 160.441 228.944 160.806 228.944 161.187Z" fill="#DD6A57"/>
    <path d="M245.28 156.246C245.28 156.53 245.195 156.808 245.035 157.044C244.875 157.28 244.647 157.464 244.382 157.573C244.116 157.682 243.823 157.71 243.541 157.655C243.258 157.599 242.999 157.463 242.796 157.262C242.592 157.061 242.453 156.805 242.397 156.526C242.341 156.248 242.37 155.959 242.48 155.696C242.59 155.434 242.777 155.209 243.016 155.052C243.255 154.894 243.537 154.81 243.825 154.81C244.211 154.81 244.581 154.961 244.854 155.23C245.127 155.5 245.28 155.865 245.28 156.246Z" fill="#DD6A57"/>
    <path d="M258.567 159.427C258.567 159.711 258.482 159.989 258.322 160.225C258.162 160.461 257.935 160.645 257.669 160.754C257.403 160.863 257.11 160.891 256.828 160.836C256.545 160.781 256.286 160.644 256.083 160.443C255.879 160.242 255.74 159.986 255.684 159.707C255.628 159.429 255.657 159.14 255.767 158.877C255.877 158.615 256.064 158.391 256.303 158.233C256.542 158.075 256.824 157.991 257.112 157.991C257.498 157.991 257.868 158.142 258.141 158.411C258.414 158.681 258.567 159.046 258.567 159.427Z" fill="#DD6A57"/>
    <path d="M279.997 159.427C279.997 159.711 279.911 159.989 279.751 160.225C279.591 160.461 279.364 160.645 279.098 160.754C278.832 160.863 278.54 160.891 278.257 160.836C277.975 160.781 277.716 160.644 277.512 160.443C277.309 160.242 277.17 159.986 277.114 159.707C277.058 159.429 277.087 159.14 277.197 158.877C277.307 158.615 277.493 158.391 277.733 158.233C277.972 158.075 278.253 157.991 278.541 157.991C278.927 157.991 279.297 158.142 279.57 158.411C279.843 158.681 279.997 159.046 279.997 159.427Z" fill="#DD6A57"/>
    <path d="M239.138 154.091C239.938 154.091 240.586 153.451 240.586 152.661C240.586 151.872 239.938 151.232 239.138 151.232C238.339 151.232 237.69 151.872 237.69 152.661C237.69 153.451 238.339 154.091 239.138 154.091Z" fill="#DD6A57"/>
    <path d="M249.049 156.569C249.849 156.569 250.497 155.929 250.497 155.14C250.497 154.351 249.849 153.711 249.049 153.711C248.25 153.711 247.601 154.351 247.601 155.14C247.601 155.929 248.25 156.569 249.049 156.569Z" fill="#DD6A57"/>
    <path d="M269.977 154.816C270.776 154.816 271.425 154.177 271.425 153.387C271.425 152.598 270.776 151.958 269.977 151.958C269.177 151.958 268.529 152.598 268.529 153.387C268.529 154.177 269.177 154.816 269.977 154.816Z" fill="#DD6A57"/>
    <path d="M294.382 149.186C294.382 149.47 294.297 149.747 294.137 149.984C293.977 150.22 293.75 150.404 293.484 150.513C293.218 150.621 292.926 150.65 292.643 150.594C292.361 150.539 292.102 150.402 291.898 150.201C291.695 150 291.556 149.745 291.5 149.466C291.444 149.187 291.472 148.898 291.583 148.636C291.693 148.374 291.879 148.149 292.119 147.991C292.358 147.834 292.639 147.749 292.927 147.749C293.313 147.749 293.683 147.901 293.956 148.17C294.229 148.439 294.382 148.805 294.382 149.186Z" fill="#DD6A57"/>
    <path d="M186.318 105.519L186.463 123.316L186.558 141.106L186.66 176.7L186.318 176.37L212.608 176.355L238.906 176.398L265.196 176.506L291.494 176.7L265.196 176.901L238.906 177.009L212.608 177.045L186.318 177.037H185.976V176.7L186.078 141.106L186.172 123.316L186.318 105.519Z" fill="#EBEBEB"/>
    <path d="M199.394 193.578C199.394 196.43 198.343 199.185 196.438 201.329C194.532 203.472 191.901 204.859 189.036 205.23C186.171 205.6 183.267 204.93 180.866 203.343C178.465 201.756 176.731 199.362 175.986 196.606C175.242 193.85 175.539 190.921 176.821 188.366C178.103 185.81 180.283 183.801 182.955 182.715C185.627 181.629 188.608 181.539 191.342 182.462C194.076 183.385 196.377 185.258 197.815 187.732C198.849 189.511 199.393 191.527 199.394 193.578V193.578Z" fill="#263238"/>
    <path d="M197.844 187.732L187.511 193.578V181.828C189.608 181.826 191.667 182.371 193.482 183.408C195.296 184.445 196.801 185.936 197.844 187.732V187.732Z" fill="#DD6A57"/>
    <path d="M195.593 194.959C196.37 190.534 193.367 186.326 188.884 185.559C184.402 184.791 180.138 187.756 179.361 192.18C178.583 196.604 181.587 200.812 186.069 201.58C190.551 202.347 194.815 199.383 195.593 194.959Z" fill="white"/>
    <path d="M190.909 191.776H184.055V192.731H190.909V191.776Z" fill="#263238"/>
    <path d="M192.605 194.425H182.352V195.38H192.605V194.425Z" fill="#A6A6A6"/>
    <path d="M232.713 193.578C232.714 194.155 232.67 194.731 232.582 195.302C232.126 198.308 230.508 201.022 228.066 202.874C225.624 204.727 222.55 205.572 219.49 205.233C216.429 204.895 213.621 203.398 211.656 201.058C209.691 198.718 208.722 195.717 208.952 192.686C209.182 189.655 210.594 186.83 212.891 184.805C215.188 182.781 218.191 181.714 221.268 181.83C224.345 181.945 227.257 183.234 229.392 185.425C231.526 187.616 232.717 190.539 232.713 193.578V193.578Z" fill="#263238"/>
    <path d="M232.713 193.578C232.714 194.155 232.67 194.731 232.582 195.301L220.801 193.578V181.828C222.366 181.825 223.915 182.127 225.361 182.716C226.807 183.306 228.121 184.171 229.228 185.263C230.335 186.354 231.212 187.65 231.81 189.077C232.408 190.504 232.715 192.034 232.713 193.578V193.578Z" fill="#DD6A57"/>
    <path d="M223.963 201.111C228.161 199.381 230.143 194.619 228.39 190.476C226.638 186.332 221.814 184.376 217.616 186.106C213.418 187.835 211.435 192.597 213.188 196.74C214.941 200.884 219.765 202.84 223.963 201.111Z" fill="white"/>
    <path d="M224.229 191.776H217.374V192.731H224.229V191.776Z" fill="#263238"/>
    <path d="M225.931 194.425H215.679V195.38H225.931V194.425Z" fill="#A6A6A6"/>
    <path d="M266.244 193.578C266.24 196.426 265.187 199.176 263.281 201.315C261.375 203.453 258.746 204.834 255.884 205.201C253.022 205.568 250.123 204.894 247.727 203.307C245.331 201.719 243.602 199.326 242.862 196.573C242.121 193.82 242.421 190.895 243.704 188.344C244.988 185.793 247.167 183.79 249.837 182.708C252.506 181.625 255.483 181.538 258.213 182.463C260.942 183.387 263.238 185.26 264.672 187.732C265.704 189.512 266.246 191.527 266.244 193.578V193.578Z" fill="#263238"/>
    <path d="M266.244 193.578C266.245 195.955 265.515 198.277 264.151 200.236C262.786 202.196 260.852 203.7 258.603 204.552L254.332 193.578V181.828C255.897 181.825 257.446 182.127 258.892 182.716C260.338 183.306 261.652 184.171 262.759 185.263C263.865 186.354 264.743 187.65 265.341 189.077C265.939 190.504 266.246 192.034 266.244 193.578V193.578Z" fill="#DD6A57"/>
    <path d="M254.354 201.708C258.903 201.708 262.591 198.068 262.591 193.578C262.591 189.088 258.903 185.448 254.354 185.448C249.804 185.448 246.117 189.088 246.117 193.578C246.117 198.068 249.804 201.708 254.354 201.708Z" fill="white"/>
    <path d="M257.781 191.776H250.927V192.731H257.781V191.776Z" fill="#263238"/>
    <path d="M259.484 194.425H249.231V195.38H259.484V194.425Z" fill="#A6A6A6"/>
    <path d="M299.636 193.578C299.636 196.43 298.586 199.185 296.68 201.329C294.774 203.472 292.144 204.859 289.279 205.23C286.414 205.6 283.51 204.93 281.109 203.343C278.708 201.756 276.973 199.362 276.229 196.606C275.484 193.85 275.781 190.921 277.063 188.366C278.346 185.81 280.526 183.801 283.198 182.715C285.869 181.629 288.85 181.539 291.584 182.462C294.318 183.385 296.619 185.258 298.057 187.732C299.095 189.51 299.64 191.526 299.636 193.578Z" fill="#263238"/>
    <path d="M299.636 193.578C299.639 195.826 298.989 198.027 297.763 199.921C296.536 201.816 294.785 203.323 292.717 204.264C290.648 205.205 288.35 205.541 286.094 205.232C283.838 204.923 281.719 203.981 279.989 202.519L287.717 193.578V181.828C289.281 181.827 290.83 182.13 292.275 182.72C293.72 183.31 295.033 184.176 296.14 185.267C297.246 186.358 298.123 187.654 298.722 189.08C299.321 190.506 299.629 192.034 299.629 193.578H299.636Z" fill="#DD6A57"/>
    <path d="M287.724 201.708C292.274 201.708 295.962 198.068 295.962 193.578C295.962 189.088 292.274 185.448 287.724 185.448C283.175 185.448 279.487 189.088 279.487 193.578C279.487 198.068 283.175 201.708 287.724 201.708Z" fill="white"/>
    <path d="M291.152 191.776H284.297V192.731H291.152V191.776Z" fill="#263238"/>
    <path d="M292.847 194.425H282.594V195.38H292.847V194.425Z" fill="#A6A6A6"/>
    <path d="M280.091 0.380615H156.214V88.6912H280.091V0.380615Z" fill="white"/>
    <path d="M280.455 89.0575H155.85V0H280.455V89.0575ZM156.578 88.3393H279.727V0.718206H156.578V88.3393Z" fill="#EBEBEB"/>
    <path d="M182.337 15.032H172.71V82.6438H182.337V15.032Z" fill="#DD6A57"/>
    <path opacity="0.1" d="M182.337 15.032H179.485V82.6438H182.337V15.032Z" fill="#263238"/>
    <path d="M198.884 31.4001H189.257V82.6441H198.884V31.4001Z" fill="#DD6A57"/>
    <path opacity="0.1" d="M198.884 31.4001H196.032V82.6441H198.884V31.4001Z" fill="#263238"/>
    <path d="M215.431 57.0186H205.804V82.6441H215.431V57.0186Z" fill="#DD6A57"/>
    <path opacity="0.1" d="M215.431 57.0186H212.579V82.6441H215.431V57.0186Z" fill="#263238"/>
    <path d="M231.978 42.3887H222.351V82.6441H231.978V42.3887Z" fill="#DD6A57"/>
    <path opacity="0.1" d="M231.971 42.3887H229.118V82.6441H231.971V42.3887Z" fill="#263238"/>
    <path d="M248.518 27.0193H238.891V82.6443H248.518V27.0193Z" fill="#DD6A57"/>
    <path opacity="0.1" d="M248.518 27.0193H245.665V82.6443H248.518V27.0193Z" fill="#263238"/>
    <path d="M265.065 17.9768H255.438V82.6368H265.065V17.9768Z" fill="#DD6A57"/>
    <path opacity="0.1" d="M265.065 17.9768H262.212V82.6368H265.065V17.9768Z" fill="#263238"/>
    <path d="M167.129 6.4353L167.282 25.4893L167.355 44.5433L167.457 82.6441L167.129 82.3209L180.402 82.2922L193.674 82.3137L220.212 82.3855L246.75 82.4574L273.295 82.6441L246.75 82.8308L220.212 82.9026L193.674 82.9745L180.402 82.996L167.129 82.9673L166.809 82.9601V82.6441L166.911 44.5433L166.984 25.4893L167.129 6.4353Z" fill="#EBEBEB"/>
    <path d="M165.004 10.2564C166.379 9.77781 167.879 9.77781 169.254 10.2564C167.879 10.735 166.379 10.735 165.004 10.2564V10.2564Z" fill="#EBEBEB"/>
    <path d="M165.004 16.0521C166.379 15.5735 167.879 15.5735 169.254 16.0521C167.879 16.5307 166.379 16.5307 165.004 16.0521V16.0521Z" fill="#EBEBEB"/>
    <path d="M165.004 21.841C165.684 21.5937 166.404 21.472 167.129 21.4819C167.854 21.4672 168.575 21.5891 169.254 21.841C168.576 22.0962 167.854 22.2182 167.129 22.2001C166.404 22.21 165.684 22.0883 165.004 21.841V21.841Z" fill="#EBEBEB"/>
    <path d="M165.004 27.6297C166.379 27.1511 167.879 27.1511 169.254 27.6297C167.879 28.1083 166.379 28.1083 165.004 27.6297V27.6297Z" fill="#EBEBEB"/>
    <path d="M165.004 33.4256C165.683 33.1748 166.404 33.053 167.129 33.0665C167.854 33.0484 168.576 33.1703 169.254 33.4256C168.575 33.6774 167.854 33.7993 167.129 33.7847C166.404 33.7946 165.684 33.6728 165.004 33.4256V33.4256Z" fill="#EBEBEB"/>
    <path d="M165.004 39.2427C166.379 38.7641 167.879 38.7641 169.254 39.2427C167.879 39.7213 166.379 39.7213 165.004 39.2427V39.2427Z" fill="#EBEBEB"/>
    <path d="M165.004 44.9886C166.379 44.51 167.879 44.51 169.254 44.9886C167.879 45.4672 166.379 45.4672 165.004 44.9886V44.9886Z" fill="#EBEBEB"/>
    <path d="M165.004 50.7988C165.684 50.5515 166.404 50.4297 167.129 50.4397C167.854 50.425 168.575 50.5469 169.254 50.7988C168.576 51.054 167.854 51.176 167.129 51.1579C166.404 51.1713 165.683 51.0495 165.004 50.7988V50.7988Z" fill="#EBEBEB"/>
    <path d="M165.004 56.5948C166.379 56.1162 167.879 56.1162 169.254 56.5948C167.877 57.0638 166.381 57.0638 165.004 56.5948Z" fill="#EBEBEB"/>
    <path d="M165.004 62.3833C165.684 62.136 166.404 62.0143 167.129 62.0242C167.854 62.0061 168.576 62.1281 169.254 62.3833C168.575 62.6352 167.854 62.7571 167.129 62.7424C166.404 62.7523 165.684 62.6306 165.004 62.3833Z" fill="#EBEBEB"/>
    <path d="M165.004 68.1722C166.379 67.6936 167.879 67.6936 169.254 68.1722C167.879 68.6508 166.379 68.6508 165.004 68.1722V68.1722Z" fill="#EBEBEB"/>
    <path d="M165.004 73.9681C166.379 73.4895 167.879 73.4895 169.254 73.9681C167.879 74.4467 166.379 74.4467 165.004 73.9681V73.9681Z" fill="#EBEBEB"/>
    <path d="M210.614 62.7427C201.591 62.7427 197.159 51.1724 192.874 39.99C190.501 33.7919 188.049 27.3855 184.869 23.1265C178.124 14.0987 167.318 16.3754 167.209 16.3969L167.049 15.6787C167.165 15.6787 178.422 13.2656 185.451 22.6812C188.689 26.9905 191.163 33.4543 193.558 39.7099C197.756 50.6697 202.093 61.9743 210.614 61.9743C216.937 61.9743 223.595 53.0685 230.654 43.6385C239.487 31.824 249.493 18.4366 261.623 18.4366V19.1549C249.864 19.1549 239.968 32.3842 231.236 44.0622C223.763 54.1099 217.301 62.7427 210.614 62.7427Z" fill="#37474F"/>
    <path d="M167.129 20.1099C169.4 20.1099 171.24 18.2931 171.24 16.052C171.24 13.8109 169.4 11.9941 167.129 11.9941C164.858 11.9941 163.018 13.8109 163.018 16.052C163.018 18.2931 164.858 20.1099 167.129 20.1099Z" fill="white"/>
    <path d="M171.247 16.0518C171.243 17.1449 170.813 18.1943 170.046 18.9831C169.28 19.7719 168.235 20.2395 167.129 20.2893C166.55 20.3145 165.971 20.2235 165.429 20.0218C164.886 19.8201 164.391 19.5119 163.973 19.1158C163.554 18.7197 163.222 18.2439 162.995 17.7172C162.768 17.1906 162.652 16.624 162.654 16.0518C162.656 15.4731 162.776 14.9007 163.008 14.3689C163.239 13.8371 163.576 13.3567 164 12.9564C164.847 12.1793 165.973 11.766 167.129 11.8073C168.236 11.8571 169.282 12.3257 170.049 13.116C170.816 13.9063 171.245 14.9576 171.247 16.0518V16.0518ZM171.247 16.0518C171.248 15.5261 171.14 15.0058 170.931 14.5223C170.722 14.0387 170.416 13.6022 170.031 13.2389C169.646 12.8757 169.19 12.5933 168.691 12.4089C168.192 12.2246 167.661 12.1421 167.129 12.1664C166.495 12.1951 165.878 12.3747 165.33 12.6897C164.781 13.0047 164.318 13.4458 163.98 13.9755C163.641 14.5051 163.438 15.1077 163.386 15.7318C163.335 16.3558 163.437 16.983 163.684 17.5598C163.93 18.1366 164.315 18.646 164.804 19.0445C165.293 19.4431 165.873 19.719 166.494 19.8488C167.114 19.9786 167.758 19.9585 168.369 19.7901C168.98 19.6216 169.54 19.31 170.003 18.8816C170.394 18.5174 170.705 18.0789 170.919 17.5925C171.133 17.1062 171.245 16.582 171.247 16.0518V16.0518Z" fill="#37474F"/>
    <path d="M261.623 23.1553C263.894 23.1553 265.734 21.3385 265.734 19.0974C265.734 16.8563 263.894 15.0396 261.623 15.0396C259.352 15.0396 257.512 16.8563 257.512 19.0974C257.512 21.3385 259.352 23.1553 261.623 23.1553Z" fill="white"/>
    <path d="M265.734 19.1333C265.732 20.2025 265.316 21.2304 264.57 22.0061C263.802 22.8146 262.745 23.2941 261.623 23.342C260.467 23.3832 259.342 22.9699 258.494 22.1929C258.068 21.7949 257.729 21.3155 257.498 20.7839C257.266 20.2523 257.147 19.6797 257.147 19.101C257.147 18.5223 257.266 17.9497 257.498 17.4181C257.729 16.8865 258.068 16.4071 258.494 16.0091C259.342 15.2321 260.467 14.8188 261.623 14.86C262.736 14.9083 263.786 15.3807 264.552 16.1777C265.319 16.9747 265.743 18.0342 265.734 19.1333V19.1333ZM265.734 19.1333C265.736 18.6079 265.629 18.0877 265.421 17.6042C265.213 17.1208 264.907 16.6841 264.523 16.3207C264.138 15.9574 263.683 15.6749 263.184 15.4905C262.686 15.306 262.155 15.2235 261.623 15.2478C260.873 15.2835 260.148 15.5304 259.535 15.9594C258.922 16.3884 258.447 16.9815 258.164 17.6687C257.882 18.3559 257.805 19.1086 257.942 19.8377C258.079 20.5668 258.425 21.242 258.938 21.7835C259.634 22.5264 260.599 22.9678 261.623 23.0116C262.154 23.0359 262.685 22.9536 263.183 22.7696C263.681 22.5856 264.136 22.3038 264.52 21.9412C264.904 21.5786 265.21 21.1428 265.419 20.6601C265.628 20.1775 265.735 19.6581 265.734 19.1333V19.1333Z" fill="#37474F"/>
    <path d="M214.732 62.5129C214.734 63.3172 214.494 64.1039 214.042 64.7733C213.59 65.4427 212.948 65.9649 212.195 66.2737C211.443 66.5824 210.614 66.664 209.815 66.5079C209.015 66.3519 208.281 65.9653 207.704 65.3971C207.128 64.8289 206.735 64.1046 206.575 63.3158C206.416 62.5271 206.497 61.7094 206.808 60.9662C207.12 60.2229 207.648 59.5876 208.325 59.1407C209.002 58.6937 209.799 58.4551 210.614 58.4551C211.705 58.4551 212.751 58.8824 213.524 59.6432C214.296 60.404 214.731 61.4361 214.732 62.5129V62.5129Z" fill="white"/>
    <path d="M214.733 62.513C214.73 63.6072 214.301 64.6585 213.534 65.4488C212.767 66.2391 211.722 66.7077 210.614 66.7576C210.035 66.7811 209.457 66.6888 208.915 66.4863C208.373 66.2838 207.878 65.9752 207.459 65.579C207.041 65.1829 206.709 64.7074 206.481 64.1811C206.254 63.6549 206.137 63.0887 206.137 62.5166C206.137 61.9445 206.254 61.3783 206.481 60.852C206.709 60.3257 207.041 59.8502 207.459 59.4541C207.878 59.058 208.373 58.7494 208.915 58.5468C209.457 58.3443 210.035 58.252 210.614 58.2756C211.72 58.3253 212.765 58.793 213.531 59.5817C214.298 60.3705 214.728 61.42 214.733 62.513V62.513ZM214.733 62.513C214.732 61.9879 214.624 61.4683 214.414 60.9856C214.205 60.503 213.898 60.0672 213.513 59.7047C213.128 59.3423 212.673 59.0605 212.175 58.8766C211.676 58.6927 211.146 58.6104 210.614 58.6347C209.6 58.6777 208.642 59.1055 207.94 59.8288C207.238 60.5521 206.847 61.515 206.847 62.5166C206.847 63.5181 207.238 64.481 207.94 65.2043C208.642 65.9276 209.6 66.3554 210.614 66.3985C211.146 66.4228 211.678 66.3402 212.176 66.1559C212.675 65.9715 213.131 65.6892 213.516 65.3259C213.901 64.9627 214.207 64.5261 214.417 64.0426C214.626 63.5591 214.733 63.0387 214.733 62.513V62.513Z" fill="#37474F"/>
    <path d="M125.165 138.189L121.352 137.586L64.478 140.409L95.6146 187.724L99.4276 188.32C107.754 182.885 114.505 175.406 119.018 166.617C123.53 157.827 125.648 148.031 125.165 138.189V138.189Z" fill="#DD6A57"/>
    <g opacity="0.1">
        <path opacity="0.1" d="M121.352 137.586L125.165 138.189C125.649 148.03 123.532 157.826 119.021 166.615C114.51 175.404 107.76 182.884 99.4349 188.32L95.6147 187.724C103.942 182.288 110.694 174.808 115.207 166.017C119.719 157.227 121.837 147.429 121.352 137.586V137.586Z" fill="#263238"/>
    </g>
    <path d="M59.3625 81.0493L60.4104 81.1002H59.9811L59.3625 81.0493Z" fill="#455A64"/>
    <path d="M117.568 135.373C117.532 134.511 117.474 133.65 117.386 132.809V132.464V132.292C117.386 132.192 117.386 132.091 117.35 131.99V131.876V131.804C117.35 131.718 117.35 131.631 117.35 131.531C117.346 131.488 117.346 131.445 117.35 131.402C117.35 131.15 117.284 130.899 117.248 130.647C117.212 130.396 117.161 130.015 117.102 129.628C117.044 129.24 116.986 128.909 116.921 128.493C116.855 128.076 116.819 127.911 116.768 127.631V127.581C116.637 126.863 116.491 126.195 116.331 125.505C116.28 125.275 116.222 125.045 116.164 124.787C116.055 124.32 115.938 123.86 115.814 123.401C115.742 123.128 115.662 122.855 115.589 122.582C115.465 122.173 115.349 121.756 115.225 121.354C115.138 121.067 115.043 120.779 114.949 120.499C114.818 120.111 114.694 119.716 114.556 119.336L114.243 118.474C114.104 118.1 113.959 117.756 113.813 117.353C113.668 116.951 113.588 116.779 113.464 116.492C113.34 116.204 113.159 115.773 113.006 115.407C112.853 115.041 112.751 114.84 112.62 114.56C112.489 114.28 112.293 113.841 112.118 113.497C111.943 113.152 111.849 112.944 111.71 112.671C111.572 112.398 111.347 111.953 111.165 111.622L110.735 110.818C110.539 110.466 110.335 110.1 110.139 109.776L109.695 109.015C109.477 108.656 109.251 108.297 109.033 107.952C108.88 107.722 108.734 107.485 108.589 107.234L107.817 106.099L107.417 105.517C107.046 104.993 106.69 104.476 106.275 103.966L106.195 103.851C105.773 103.305 105.343 102.767 104.907 102.235L104.47 101.725C104.172 101.366 103.874 101.007 103.561 100.662L103.008 100.059C102.789 99.8149 102.564 99.5635 102.338 99.3409L102.171 99.1757C101.887 98.874 101.589 98.5796 101.298 98.2851L100.628 97.61C100.315 97.3084 99.9951 97.0211 99.6822 96.7266C99.3693 96.4321 99.2456 96.31 99.0201 96.1089L97.8558 95.2615C97.6448 95.0819 97.4483 94.9024 97.2373 94.73C96.808 94.3709 96.3641 94.0118 95.9202 93.6814L95.5346 93.3726L95.3599 93.2361C94.887 92.877 94.414 92.5179 93.9046 92.1804L93.3589 91.7997L92.2455 91.0815L91.6125 90.6721C91.2559 90.4423 90.8848 90.2197 90.5283 89.997C90.3172 89.8606 90.0989 89.7313 89.8734 89.602L89.495 89.365L88.6072 88.8694L88.1998 88.6396C87.6322 88.3284 87.0573 88.0267 86.4752 87.7347L86.0823 87.5408L84.6997 86.88L84.1321 86.6215L83.6155 86.3916L82.7423 86.0253L82.3203 85.853C81.7236 85.6088 81.1269 85.3718 80.5156 85.1348L80.1082 84.9911C79.6206 84.8188 79.1331 84.6464 78.6528 84.4884L78.0925 84.3088L77.6559 84.1652L76.5208 83.8348L76.1861 83.7343C75.5603 83.5619 74.9199 83.3967 74.2869 83.2459L73.7775 83.1238L72.3222 82.8078L71.7328 82.6857L71.3326 82.6067L69.7899 82.3409L66.0789 81.7592H65.977C65.2493 81.6371 64.4707 81.5437 63.7067 81.4647C63.2192 81.4073 62.7316 81.3642 62.2514 81.3211H62.1859L60.9416 81.2205L60.4613 81.1775L60.8615 81.2134C60.2649 81.1775 59.6682 81.1415 59.0642 81.12C58.4603 81.0984 57.8126 81.0769 57.1796 81.0769C56.1972 81.0769 55.2222 81.0769 54.2325 81.1487C53.2429 81.2205 52.4498 81.2565 51.5693 81.3426L50.4342 81.4647C50.0194 81.5078 49.6046 81.5653 49.1826 81.6227C48.7605 81.6802 48.3603 81.7377 47.931 81.8095L46.7158 82.0178C20.1562 86.9375 0.145532 110.329 0 137.571C0 138.541 1.0843e-07 139.51 0.0654896 140.494C0.0654896 140.982 0.123703 141.464 0.160086 141.93C0.160086 142.297 0.211022 142.649 0.247405 143.022C0.283788 143.396 0.305618 143.633 0.342001 143.934C0.378384 144.236 0.422042 144.652 0.472978 145.033C0.523914 145.414 0.567575 145.751 0.647618 146.268C0.691277 146.577 0.742214 146.886 0.844086 147.489C0.887746 147.734 0.931405 147.971 0.982341 148.208C1.03328 148.445 1.09149 148.789 1.14243 149.077C3.45198 160.301 9.1646 170.566 17.5223 178.511C25.8801 186.456 36.4879 191.706 47.9383 193.562C48.7533 193.692 49.5755 193.799 50.7325 193.936L54.5454 194.532L60.7524 138.26L117.568 135.373ZM112.853 126.985C112.853 126.942 112.853 126.891 112.817 126.848C112.82 126.891 112.82 126.934 112.817 126.977L112.853 126.985Z" fill="#455A64"/>
    <path d="M59.3625 81.0493L60.4104 81.1002H59.9811L59.3625 81.0493Z" fill="#263238"/>
    <path d="M117.568 135.375C117.532 134.513 117.473 133.651 117.386 132.811V132.466V132.293C117.386 132.193 117.386 132.092 117.35 131.992V131.877V131.805C117.35 131.719 117.35 131.633 117.35 131.532C117.346 131.489 117.346 131.446 117.35 131.403C117.35 131.152 117.284 130.9 117.248 130.649C117.211 130.397 117.161 130.017 117.102 129.629C117.044 129.241 116.986 128.911 116.92 128.494C116.855 128.078 116.819 127.912 116.768 127.632V127.582C116.637 126.864 116.491 126.196 116.331 125.506C116.28 125.277 116.222 125.047 116.164 124.788C116.055 124.321 115.938 123.862 115.814 123.402C115.742 123.129 115.662 122.856 115.589 122.583C115.465 122.174 115.349 121.757 115.225 121.355C115.138 121.068 115.043 120.781 114.948 120.501C114.817 120.113 114.694 119.718 114.556 119.337L114.243 118.475C114.104 118.102 113.959 117.757 113.813 117.355C113.668 116.953 113.588 116.78 113.464 116.493C113.34 116.206 113.158 115.775 113.006 115.408C112.853 115.042 112.751 114.841 112.62 114.561C112.489 114.281 112.292 113.843 112.118 113.498C111.943 113.153 111.849 112.945 111.71 112.672C111.572 112.399 111.347 111.954 111.165 111.624L110.735 110.819C110.539 110.467 110.335 110.101 110.139 109.778L109.695 109.016C109.476 108.657 109.251 108.298 109.033 107.953C108.88 107.724 108.734 107.487 108.589 107.235L107.817 106.101L107.417 105.519C107.046 104.994 106.69 104.477 106.275 103.967L106.195 103.853C105.773 103.307 105.343 102.768 104.907 102.237L104.47 101.727C104.172 101.368 103.873 101.008 103.561 100.664L103.008 100.06C102.789 99.8162 102.564 99.5648 102.338 99.3422L102.171 99.177C101.887 98.8754 101.589 98.5809 101.298 98.2864L100.628 97.6113C100.315 97.3097 99.995 97.0224 99.6821 96.7279C99.3692 96.4335 99.2455 96.3114 99.02 96.1103L97.8557 95.2628C97.6447 95.0832 97.4482 94.9037 97.2372 94.7313C96.8079 94.3722 96.364 94.0131 95.9201 93.6827L95.5345 93.3739L95.3598 93.2374C94.8869 92.8783 94.4139 92.5192 93.9045 92.1817L93.3588 91.801L92.2454 91.0828L91.6124 90.6734C91.2558 90.4436 90.8847 90.221 90.5282 89.9983C90.3171 89.8619 90.0988 89.7326 89.8733 89.6033L89.4949 89.3663L88.6071 88.8708L88.1997 88.6409C87.6321 88.3297 87.0572 88.0281 86.4751 87.736L86.0822 87.5421L84.6996 86.8813L84.132 86.6228L83.6154 86.3929L82.7422 86.0267L82.3202 85.8543C81.7235 85.6101 81.1268 85.3731 80.5156 85.1361L80.1081 84.9924C79.6205 84.8201 79.133 84.6477 78.6527 84.4897L78.0924 84.3101L77.6559 84.1665L76.5207 83.8361L76.186 83.7356C75.5602 83.5632 74.9198 83.398 74.2868 83.2472L73.7774 83.1251L72.3221 82.8091L71.7327 82.687L71.3325 82.608L69.7898 82.3423L66.0788 81.7605H65.9769C64.7253 81.5594 63.4519 81.423 62.1785 81.3152L60.9269 81.2147L60.4467 81.1716L60.8469 81.2075C59.6317 81.1285 58.4019 81.0782 57.1649 81.071C60.8743 81.1428 64.5713 81.5176 68.2181 82.1914C68.7929 82.2992 69.3678 82.4356 69.9426 82.5649L70.2483 82.6367C70.9177 82.8019 71.5872 82.9743 72.2493 83.1538L72.424 83.2113C73.0061 83.3765 73.5882 83.5488 74.1631 83.7356L74.6142 83.8792C75.1672 84.0588 75.713 84.2455 76.2587 84.4466L76.5134 84.5328C77.1392 84.7626 77.765 85.0068 78.3835 85.251L78.7328 85.4018C79.2276 85.6029 79.7151 85.8184 80.1881 86.0338L80.6975 86.2637C81.1996 86.4935 81.7016 86.7377 82.1965 86.9819L82.4875 87.1255C83.0842 87.42 83.6736 87.736 84.2557 88.052L84.5905 88.2459C85.0489 88.4973 85.4928 88.7558 85.9439 89.0216C86.1476 89.1365 86.3441 89.2586 86.5479 89.3879C86.9335 89.6177 87.3192 89.8619 87.6976 90.1061L88.2797 90.4795L89.4658 91.2839L89.9533 91.6215C90.4627 91.9878 90.9648 92.3397 91.4596 92.7347L91.576 92.8209L92.3764 93.4601C92.6893 93.7043 93.0022 93.9485 93.3078 94.1783C93.6134 94.4081 93.8608 94.6451 94.1374 94.8965C94.4139 95.1479 94.7049 95.3849 94.9814 95.6147C95.258 95.8445 95.5345 96.1174 95.8037 96.3688L96.6041 97.087L97.4046 97.8914C97.6592 98.1428 97.9139 98.3942 98.1322 98.6599C98.3505 98.9256 98.758 99.3278 99.0709 99.6654L99.5221 100.154C99.8713 100.549 100.25 100.944 100.548 101.346L100.876 101.727C101.768 102.809 102.627 103.924 103.451 105.073V105.117C103.844 105.67 104.23 106.23 104.601 106.797L104.863 107.214C105.154 107.659 105.438 108.104 105.714 108.557L106.042 109.117C106.282 109.534 106.529 109.943 106.77 110.367L107.112 110.999C107.33 111.401 107.541 111.81 107.752 112.212C107.868 112.442 107.977 112.672 108.087 112.931C108.283 113.333 108.48 113.735 108.669 114.144C108.778 114.381 108.887 114.618 108.989 114.863C109.171 115.272 109.345 115.681 109.52 116.091L109.818 116.809C109.986 117.226 110.146 117.642 110.299 118.066C110.386 118.31 110.481 118.547 110.568 118.784C110.721 119.222 110.866 119.653 111.012 120.091C111.092 120.328 111.172 120.565 111.245 120.809C111.39 121.269 111.528 121.743 111.659 122.21C111.725 122.425 111.79 122.634 111.849 122.856C111.994 123.388 112.125 123.926 112.256 124.472C112.292 124.623 112.336 124.774 112.373 124.925C112.533 125.643 112.685 126.361 112.816 127.079C112.816 126.979 112.773 126.878 112.758 126.778C112.758 126.871 112.795 126.957 112.809 127.043C112.813 127.058 112.813 127.072 112.809 127.086V127.086C112.858 127.369 112.909 127.656 112.962 127.948C113.027 128.336 113.086 128.71 113.144 129.083C113.202 129.457 113.253 129.801 113.289 130.103C113.326 130.405 113.369 130.699 113.399 131.001C113.399 131.101 113.399 131.195 113.435 131.281V131.324C113.435 131.432 113.435 131.525 113.435 131.611C113.435 131.697 113.435 131.769 113.435 131.841V131.877C113.438 131.937 113.438 131.997 113.435 132.056V132.092C113.431 132.143 113.431 132.193 113.435 132.243V132.243C113.522 133.091 113.573 133.953 113.617 134.814L56.7502 137.63L50.5432 193.908L54.3562 194.504L60.5631 138.233L117.568 135.375Z" fill="#263238"/>
    <path d="M64.6818 144.617L60.8688 144.014L54.6619 200.293L58.453 200.889C59.4863 201.004 60.5268 201.083 61.5674 201.133C62.6079 201.183 63.4738 201.212 64.4343 201.212C65.3949 201.212 66.3845 201.212 67.345 201.14L68.7203 201.061H68.8876L65.0747 200.465H64.9146H65.082L68.8949 201.061L70.1829 200.961L71.2962 200.824L72.0238 200.745C72.7515 200.645 73.4792 200.53 74.2068 200.415L74.8908 200.293C82.3697 198.931 89.4913 196.087 95.8256 191.933L64.6818 144.617Z" fill="#37474F"/>
    <path d="M64.9802 200.458L63.5976 200.544C62.6153 200.594 61.6402 200.616 60.687 200.616C59.7337 200.616 58.7732 200.616 57.8273 200.537C57.3034 200.537 56.7867 200.479 56.2628 200.436L54.7129 200.292L58.5258 200.889C59.5591 201.004 60.5997 201.083 61.6402 201.133C62.6808 201.183 63.5467 201.212 64.5072 201.212C65.4677 201.212 66.4573 201.212 67.4178 201.14L68.7931 201.061H68.9605L65.1475 200.465L64.9802 200.458Z" fill="#263238"/>
    <path d="M64.6819 144.617L60.869 144.014L91.9983 191.337C85.6709 195.48 78.5597 198.316 71.0926 199.675L70.4086 199.79C69.6809 199.912 68.9533 200.027 68.2256 200.128L67.5343 200.207L66.4137 200.343L65.133 200.444L68.946 201.04L70.234 200.939L71.3473 200.803L72.0749 200.724C72.8026 200.623 73.5303 200.508 74.2579 200.393L74.9419 200.271C82.4014 198.909 89.5049 196.073 95.8258 191.933L64.6819 144.617Z" fill="#263238"/>
    <path d="M71.526 125.72L70.7542 126.481L71.2687 126.989L72.0405 126.228L71.526 125.72Z" fill="#263238"/>
    <path d="M73.5594 124.709L73.0427 124.199L74.5563 122.705L75.0729 123.215L73.5594 124.709ZM76.5864 121.714L76.0698 121.211L77.5833 119.717L78.1 120.22L76.5864 121.714ZM79.6135 118.726L79.0969 118.216L80.6104 116.722L81.127 117.232L79.6135 118.726ZM82.6406 115.738L82.1312 115.229L83.6447 113.735L84.1541 114.245L82.6406 115.738ZM85.6749 112.751L85.1583 112.241L86.6718 110.747L87.1884 111.257L85.6749 112.751ZM88.702 109.763L88.1853 109.253L89.6989 107.759L90.2155 108.262L88.702 109.763ZM91.729 106.768L91.2124 106.265L92.7259 104.764L93.2426 105.274L91.729 106.768ZM94.7561 103.78L94.2468 103.27L95.7603 101.777L96.2696 102.286L94.7561 103.78ZM97.7832 100.793L97.2738 100.283L98.7873 98.7888L99.304 99.2987L97.7832 100.793Z" fill="#263238"/>
    <path d="M100.817 97.8333L100.301 97.3234L101.181 96.4543H102.418V97.1726H101.479L100.817 97.8333Z" fill="#263238"/>
    <path d="M125.449 97.1726H123.142V96.4543H125.449V97.1726ZM120.843 97.1726H118.529V96.4543H120.835L120.843 97.1726ZM116.237 97.1726H113.93V96.4543H116.237V97.1726ZM111.63 97.1726H109.331V96.4543H111.63V97.1726ZM107.024 97.1726H104.703V96.4543H107.003L107.024 97.1726Z" fill="#263238"/>
    <path d="M128.84 96.4543H127.748V97.1726H128.84V96.4543Z" fill="#263238"/>
    <path d="M69.7756 131.065C69.2416 131.065 68.7197 130.909 68.2757 130.616C67.8318 130.323 67.4858 129.907 67.2814 129.42C67.0771 128.933 67.0236 128.397 67.1278 127.881C67.232 127.364 67.4891 126.889 67.8666 126.516C68.2442 126.144 68.7252 125.89 69.2489 125.787C69.7726 125.684 70.3154 125.737 70.8087 125.939C71.3019 126.14 71.7236 126.482 72.0202 126.92C72.3168 127.358 72.4752 127.873 72.4752 128.4C72.4752 129.107 72.1908 129.785 71.6845 130.285C71.1782 130.784 70.4915 131.065 69.7756 131.065V131.065ZM69.7756 126.461C69.3852 126.461 69.0037 126.576 68.6792 126.79C68.3548 127.004 68.1021 127.308 67.953 127.664C67.804 128.02 67.7653 128.412 67.842 128.79C67.9187 129.168 68.1073 129.514 68.3838 129.786C68.6603 130.058 69.0123 130.243 69.3953 130.317C69.7783 130.392 70.175 130.352 70.5352 130.204C70.8954 130.055 71.2029 129.805 71.4187 129.484C71.6345 129.163 71.749 128.786 71.7475 128.4C71.7475 128.145 71.6965 127.892 71.5973 127.657C71.4981 127.421 71.3527 127.207 71.1695 127.027C70.9863 126.846 70.7688 126.704 70.5296 126.607C70.2904 126.51 70.0342 126.46 69.7756 126.461V126.461Z" fill="#263238"/>
    <path d="M140.097 96.8137H132.827V103.989H140.097V96.8137Z" fill="#455A64"/>
    <path d="M169.021 108.492H132.507V109.641H169.021V108.492Z" fill="#263238"/>
    <path d="M158.674 111.508H132.507V112.657H158.674V111.508Z" fill="#A6A6A6"/>
    <path d="M163.411 114.518H132.507V115.667H163.411V114.518Z" fill="#A6A6A6"/>
    <path d="M128.046 153.02H125.863V152.302H128.046V153.02ZM123.681 153.02H121.498V152.302H123.681V153.02ZM119.315 153.02H117.132V152.302H119.315V153.02ZM114.949 153.02H112.766V152.302H114.949V153.02ZM110.583 153.02H108.4V152.302H110.583V153.02ZM106.217 153.02H104.034V152.302H106.217V153.02ZM101.851 153.02H99.6677V152.302H101.851V153.02ZM97.4847 153.02H95.3018V152.302H97.4847V153.02ZM93.1188 153.02H90.9358V152.302H93.1188V153.02ZM88.7528 153.02H86.5698V152.302H88.7528V153.02Z" fill="#263238"/>
    <path d="M84.2413 155.326C83.707 155.327 83.1844 155.172 82.7395 154.88C82.2945 154.588 81.9474 154.173 81.742 153.686C81.5365 153.199 81.482 152.663 81.5854 152.146C81.6887 151.629 81.9452 151.153 82.3225 150.78C82.6998 150.406 83.1808 150.152 83.7046 150.049C84.2285 149.945 84.7717 149.997 85.2654 150.199C85.7591 150.4 86.1812 150.742 86.4781 151.18C86.7751 151.619 86.9336 152.134 86.9336 152.661C86.9336 153.367 86.6502 154.043 86.1455 154.543C85.6408 155.042 84.956 155.324 84.2413 155.326V155.326ZM84.2413 150.722C83.8506 150.721 83.4684 150.834 83.143 151.047C82.8176 151.261 82.5637 151.564 82.4135 151.92C82.2634 152.276 82.2237 152.668 82.2996 153.046C82.3754 153.425 82.5634 153.772 82.8396 154.045C83.1158 154.317 83.4679 154.503 83.8511 154.578C84.2343 154.653 84.6314 154.614 84.992 154.465C85.3526 154.317 85.6605 154.067 85.8766 153.745C86.0928 153.424 86.2074 153.047 86.2059 152.661C86.2059 152.147 85.999 151.654 85.6305 151.29C85.2621 150.926 84.7623 150.722 84.2413 150.722V150.722Z" fill="#263238"/>
    <path d="M140.097 152.661H132.827V159.836H140.097V152.661Z" fill="#DD6A57"/>
    <path d="M157.975 164.411H132.507V165.56H157.975V164.411Z" fill="#263238"/>
    <path d="M166.234 167.42H132.507V168.569H166.234V167.42Z" fill="#A6A6A6"/>
    <path d="M149.17 170.437H132.507V171.586H149.17V170.437Z" fill="#A6A6A6"/>
    <path d="M128.374 201.018H126.191V200.3H128.374V201.018ZM124.008 201.018H121.825V200.3H124.008V201.018ZM119.642 201.018H117.459V200.3H119.642V201.018ZM115.276 201.018H113.093V200.3H115.276V201.018ZM110.91 201.018H108.727V200.3H110.91V201.018ZM106.544 201.018H104.361V200.3H106.544V201.018ZM102.178 201.018H99.995V200.3H102.178V201.018ZM97.8121 201.018H95.6291V200.3H97.8121V201.018ZM93.4461 201.018H91.2631V200.3H93.4461V201.018ZM89.0801 201.018H86.8971V200.3H89.0801V201.018ZM84.6487 200.465L83.106 198.942L83.6154 198.432L85.1653 199.955L84.6487 200.465ZM81.5634 197.42L80.0135 195.897L80.5301 195.387L82.0727 196.91L81.5634 197.42ZM78.5072 194.375L76.9646 192.852L77.4812 192.349L79.0239 193.872L78.5072 194.375ZM75.4219 191.329L73.8793 189.807L74.3959 189.297L75.9386 190.819L75.4219 191.329ZM72.3367 188.284L70.794 186.762L71.3034 186.252L72.8533 187.774L72.3367 188.284Z" fill="#263238"/>
    <path d="M69.7753 187.53C69.2432 187.529 68.7233 187.372 68.2815 187.079C67.8397 186.786 67.4958 186.37 67.2931 185.885C67.0905 185.399 67.0382 184.865 67.1429 184.35C67.2476 183.835 67.5046 183.362 67.8814 182.991C68.2582 182.62 68.738 182.368 69.26 182.266C69.7821 182.164 70.3231 182.217 70.8146 182.418C71.3061 182.62 71.7262 182.96 72.0217 183.397C72.3172 183.834 72.475 184.347 72.475 184.873C72.475 185.222 72.4051 185.568 72.2693 185.891C72.1336 186.214 71.9346 186.507 71.6838 186.754C71.433 187.001 71.1354 187.197 70.8079 187.33C70.4804 187.463 70.1295 187.531 69.7753 187.53V187.53ZM69.7753 182.934C69.3871 182.935 69.0079 183.05 68.6858 183.264C68.3637 183.478 68.113 183.781 67.9654 184.136C67.8178 184.49 67.7799 184.88 67.8566 185.255C67.9332 185.631 68.1209 185.976 68.3959 186.246C68.671 186.517 69.0211 186.701 69.402 186.775C69.7829 186.849 70.1776 186.811 70.5361 186.664C70.8947 186.517 71.2011 186.268 71.4167 185.949C71.6322 185.631 71.7473 185.256 71.7473 184.873C71.7473 184.617 71.6962 184.365 71.5971 184.129C71.4979 183.893 71.3525 183.679 71.1693 183.499C70.9861 183.319 70.7686 183.176 70.5294 183.079C70.2902 182.982 70.034 182.933 69.7753 182.934V182.934Z" fill="#263238"/>
    <path d="M140.097 200.659H132.827V207.834H140.097V200.659Z" fill="#263238"/>
    <path d="M170.491 212.825H132.507V213.974H170.491V212.825Z" fill="#263238"/>
    <path d="M157.975 215.834H132.507V216.983H157.975V215.834Z" fill="#A6A6A6"/>
    <path d="M165.841 218.851H132.507V220H165.841V218.851Z" fill="#A6A6A6"/>
</svg>
