<svg width="300" height="223" viewBox="0 0 300 223" fill="none" xmlns="http://www.w3.org/2000/svg">
    <path d="M299.629 98.2268H175.752V187.7H299.629V98.2268Z" fill="white"/>
    <path d="M300 188.071H175.388V97.8413H300V188.071ZM176.116 187.344H299.272V98.569H176.116V187.344Z" fill="#EBEBEB"/>
    <path d="M182.454 171.604L196.257 171.429L210.076 171.328L237.69 171.24L265.32 171.328L279.123 171.429L292.942 171.604L279.123 171.786L265.32 171.888L237.69 171.968L210.076 171.888L196.257 171.786L182.454 171.604Z" fill="#EBEBEB"/>
    <path d="M182.454 163.964L196.257 163.79L210.076 163.688L237.69 163.601L265.32 163.688L279.123 163.79L292.942 163.964L279.123 164.146L265.32 164.248L237.69 164.328L210.076 164.248L196.257 164.146L182.454 163.964Z" fill="#EBEBEB"/>
    <path d="M182.454 156.323L196.257 156.149L210.076 156.047L237.69 155.967L265.32 156.047L279.123 156.149L292.942 156.323L279.123 156.505L265.32 156.607L237.69 156.687L210.076 156.607L196.257 156.505L182.454 156.323Z" fill="#EBEBEB"/>
    <path d="M182.454 148.69L196.257 148.508L210.076 148.406L237.69 148.326L265.32 148.406L279.123 148.508L292.942 148.69L279.123 148.865L265.32 148.966L237.69 149.047L210.076 148.966L196.257 148.865L182.454 148.69Z" fill="#EBEBEB"/>
    <path d="M182.454 141.049L196.257 140.867L210.076 140.766L237.69 140.686L265.32 140.766L279.123 140.867L292.942 141.049L279.123 141.224L265.32 141.326L237.69 141.413L210.076 141.326L196.257 141.224L182.454 141.049Z" fill="#EBEBEB"/>
    <path d="M182.454 133.409L196.257 133.228L210.076 133.126L237.69 133.046L265.32 133.126L279.123 133.228L292.942 133.409L279.123 133.584L265.32 133.686L237.69 133.773L210.076 133.686L196.257 133.584L182.454 133.409Z" fill="#EBEBEB"/>
    <path d="M182.454 125.769L196.257 125.594L210.076 125.485L237.69 125.405L265.32 125.485L279.123 125.587L292.942 125.769L279.123 125.944L265.32 126.045L237.69 126.133L210.076 126.045L196.257 125.944L182.454 125.769Z" fill="#EBEBEB"/>
    <path d="M182.454 118.128L196.257 117.954L210.076 117.845L237.69 117.765L265.32 117.845L279.123 117.947L292.942 118.128L279.123 118.303L265.32 118.405L237.69 118.492L210.076 118.405L196.257 118.303L182.454 118.128Z" fill="#EBEBEB"/>
    <path d="M182.454 110.488L196.257 110.313L210.076 110.212L237.69 110.124L265.32 110.204L279.123 110.306L292.942 110.488L279.123 110.663L265.32 110.765L237.69 110.852L210.076 110.765L196.257 110.663L182.454 110.488Z" fill="#EBEBEB"/>
    <path d="M187.606 168.519L187.445 167.813L201.78 164.553L215.489 151.099L221.005 154.774L231.949 143.844L237.96 147.439L241.86 144.179L252.768 155.683L267.088 138.467L278.985 151.128L292.789 144.819L293.087 145.481L278.81 152.009L267.117 139.566L252.804 156.782L241.802 145.176L238.032 148.327L232.058 144.761L221.1 155.712L215.577 152.038L202.137 165.216L187.606 168.519Z" fill="#455A64"/>
    <path d="M201.977 166.205C202.777 166.205 203.425 165.556 203.425 164.757C203.425 163.957 202.777 163.309 201.977 163.309C201.177 163.309 200.529 163.957 200.529 164.757C200.529 165.556 201.177 166.205 201.977 166.205Z" fill="#455A64"/>
    <path d="M216.836 151.681C216.836 151.969 216.75 152.25 216.59 152.489C216.43 152.729 216.203 152.915 215.937 153.025C215.671 153.136 215.379 153.164 215.096 153.108C214.814 153.052 214.555 152.914 214.351 152.71C214.148 152.506 214.009 152.247 213.953 151.965C213.897 151.683 213.926 151.39 214.036 151.124C214.146 150.858 214.332 150.631 214.572 150.471C214.811 150.311 215.092 150.226 215.38 150.226C215.766 150.226 216.136 150.379 216.409 150.652C216.682 150.925 216.836 151.295 216.836 151.681Z" fill="#455A64"/>
    <path d="M232.124 145.86C232.924 145.86 233.572 145.212 233.572 144.412C233.572 143.612 232.924 142.964 232.124 142.964C231.324 142.964 230.676 143.612 230.676 144.412C230.676 145.212 231.324 145.86 232.124 145.86Z" fill="#455A64"/>
    <path d="M239.451 147.948C239.451 148.236 239.366 148.517 239.206 148.757C239.046 148.996 238.819 149.183 238.553 149.293C238.287 149.403 237.994 149.432 237.712 149.376C237.43 149.319 237.17 149.181 236.967 148.977C236.763 148.774 236.625 148.514 236.569 148.232C236.512 147.95 236.541 147.657 236.651 147.391C236.762 147.125 236.948 146.898 237.187 146.738C237.427 146.578 237.708 146.493 237.996 146.493C238.382 146.493 238.752 146.646 239.025 146.919C239.298 147.192 239.451 147.562 239.451 147.948Z" fill="#455A64"/>
    <path d="M241.845 146.238C242.645 146.238 243.294 145.59 243.294 144.79C243.294 143.99 242.645 143.342 241.845 143.342C241.046 143.342 240.397 143.99 240.397 144.79C240.397 145.59 241.046 146.238 241.845 146.238Z" fill="#455A64"/>
    <path d="M266.972 140.468C267.771 140.468 268.42 139.82 268.42 139.02C268.42 138.22 267.771 137.572 266.972 137.572C266.172 137.572 265.524 138.22 265.524 139.02C265.524 139.82 266.172 140.468 266.972 140.468Z" fill="#455A64"/>
    <path d="M279.109 152.809C279.909 152.809 280.557 152.161 280.557 151.361C280.557 150.561 279.909 149.913 279.109 149.913C278.309 149.913 277.661 150.561 277.661 151.361C277.661 152.161 278.309 152.809 279.109 152.809Z" fill="#455A64"/>
    <path d="M294.382 145.35C294.382 145.638 294.297 145.92 294.137 146.159C293.977 146.398 293.75 146.585 293.484 146.695C293.218 146.805 292.926 146.834 292.643 146.778C292.361 146.722 292.102 146.583 291.898 146.379C291.695 146.176 291.556 145.917 291.5 145.634C291.444 145.352 291.472 145.059 291.583 144.793C291.693 144.528 291.879 144.3 292.119 144.14C292.358 143.98 292.639 143.895 292.927 143.895C293.313 143.895 293.683 144.048 293.956 144.321C294.229 144.594 294.382 144.964 294.382 145.35Z" fill="#455A64"/>
    <path d="M254.194 156.119C254.194 156.407 254.108 156.689 253.949 156.928C253.789 157.167 253.561 157.354 253.295 157.464C253.029 157.574 252.737 157.603 252.455 157.547C252.172 157.491 251.913 157.352 251.709 157.148C251.506 156.945 251.367 156.686 251.311 156.403C251.255 156.121 251.284 155.828 251.394 155.562C251.504 155.297 251.691 155.069 251.93 154.909C252.169 154.749 252.451 154.664 252.738 154.664C253.124 154.664 253.495 154.817 253.768 155.09C254.04 155.363 254.194 155.733 254.194 156.119Z" fill="#455A64"/>
    <path d="M187.795 168.315L187.256 167.821L202.537 151.113L208.722 154.373L225.051 137.775L229.563 141.465L237.276 134.828L251.982 145.416L255.234 141.705L263.552 149.374L275.754 138.539L283.577 145.219L292.847 142.723L293.029 143.429L283.395 146.027L275.769 139.5L263.544 150.357L255.293 142.745L252.091 146.391L237.312 135.76L229.577 142.418L225.102 138.758L208.861 155.268L202.69 152.023L187.795 168.315Z" fill="#263238"/>
    <path d="M203.949 151.819C203.949 152.107 203.863 152.388 203.703 152.628C203.544 152.867 203.316 153.053 203.05 153.164C202.784 153.274 202.492 153.303 202.209 153.246C201.927 153.19 201.668 153.052 201.464 152.848C201.261 152.645 201.122 152.385 201.066 152.103C201.01 151.821 201.039 151.528 201.149 151.262C201.259 150.996 201.446 150.769 201.685 150.609C201.924 150.449 202.206 150.364 202.493 150.364C202.879 150.364 203.25 150.517 203.522 150.79C203.795 151.063 203.949 151.433 203.949 151.819Z" fill="#263238"/>
    <path d="M208.708 156.185C209.507 156.185 210.156 155.537 210.156 154.737C210.156 153.937 209.507 153.289 208.708 153.289C207.908 153.289 207.26 153.937 207.26 154.737C207.26 155.537 207.908 156.185 208.708 156.185Z" fill="#263238"/>
    <path d="M226.332 138.365C226.332 138.652 226.246 138.934 226.086 139.173C225.927 139.412 225.699 139.599 225.433 139.709C225.167 139.819 224.875 139.848 224.592 139.792C224.31 139.736 224.051 139.597 223.847 139.394C223.644 139.19 223.505 138.931 223.449 138.648C223.393 138.366 223.422 138.073 223.532 137.808C223.642 137.542 223.829 137.314 224.068 137.154C224.307 136.995 224.589 136.909 224.876 136.909C225.262 136.909 225.633 137.063 225.905 137.335C226.178 137.608 226.332 137.979 226.332 138.365Z" fill="#263238"/>
    <path d="M231.192 141.894C231.192 142.182 231.107 142.463 230.947 142.703C230.787 142.942 230.56 143.128 230.294 143.239C230.028 143.349 229.736 143.378 229.453 143.321C229.171 143.265 228.912 143.127 228.708 142.923C228.505 142.72 228.366 142.46 228.31 142.178C228.254 141.896 228.282 141.603 228.393 141.337C228.503 141.071 228.689 140.844 228.929 140.684C229.168 140.524 229.449 140.439 229.737 140.439C230.123 140.439 230.493 140.592 230.766 140.865C231.039 141.138 231.192 141.508 231.192 141.894Z" fill="#263238"/>
    <path d="M237.305 136.742C238.104 136.742 238.753 136.093 238.753 135.294C238.753 134.494 238.104 133.846 237.305 133.846C236.505 133.846 235.857 134.494 235.857 135.294C235.857 136.093 236.505 136.742 237.305 136.742Z" fill="#263238"/>
    <path d="M251.945 147.308C252.745 147.308 253.393 146.659 253.393 145.86C253.393 145.06 252.745 144.412 251.945 144.412C251.145 144.412 250.497 145.06 250.497 145.86C250.497 146.659 251.145 147.308 251.945 147.308Z" fill="#263238"/>
    <path d="M256.537 142.272C256.537 142.56 256.452 142.841 256.292 143.081C256.132 143.32 255.905 143.507 255.639 143.617C255.373 143.727 255.08 143.756 254.798 143.7C254.515 143.643 254.256 143.505 254.053 143.301C253.849 143.098 253.71 142.838 253.654 142.556C253.598 142.274 253.627 141.981 253.737 141.715C253.847 141.449 254.034 141.222 254.273 141.062C254.512 140.902 254.794 140.817 255.082 140.817C255.468 140.817 255.838 140.97 256.111 141.243C256.384 141.516 256.537 141.886 256.537 142.272Z" fill="#263238"/>
    <path d="M263.37 151.36C264.169 151.36 264.818 150.712 264.818 149.912C264.818 149.113 264.169 148.464 263.37 148.464C262.57 148.464 261.922 149.113 261.922 149.912C261.922 150.712 262.57 151.36 263.37 151.36Z" fill="#263238"/>
    <path d="M275.856 140.824C276.656 140.824 277.304 140.176 277.304 139.376C277.304 138.577 276.656 137.928 275.856 137.928C275.057 137.928 274.408 138.577 274.408 139.376C274.408 140.176 275.057 140.824 275.856 140.824Z" fill="#263238"/>
    <path d="M285.003 145.649C285.003 145.937 284.918 146.218 284.758 146.457C284.598 146.697 284.37 146.883 284.104 146.993C283.839 147.104 283.546 147.132 283.264 147.076C282.981 147.02 282.722 146.882 282.518 146.678C282.315 146.474 282.176 146.215 282.12 145.933C282.064 145.651 282.093 145.358 282.203 145.092C282.313 144.826 282.5 144.599 282.739 144.439C282.978 144.279 283.26 144.194 283.548 144.194C283.934 144.194 284.304 144.347 284.577 144.62C284.85 144.893 285.003 145.263 285.003 145.649Z" fill="#263238"/>
    <path d="M294.382 142.971C294.382 143.259 294.297 143.54 294.137 143.779C293.977 144.019 293.75 144.205 293.484 144.315C293.218 144.425 292.926 144.454 292.643 144.398C292.361 144.342 292.102 144.203 291.898 144C291.695 143.796 291.556 143.537 291.5 143.255C291.444 142.972 291.472 142.68 291.583 142.414C291.693 142.148 291.879 141.921 292.119 141.761C292.358 141.601 292.639 141.515 292.927 141.515C293.313 141.515 293.683 141.669 293.956 141.942C294.229 142.215 294.382 142.585 294.382 142.971Z" fill="#263238"/>
    <path d="M188.042 168.061L187.678 167.435L206.248 156.775L216.203 161.264L221.66 159.423L227.401 162.974L239.24 154.271L243.97 158.099L248.991 156.6L257.199 161.242L270.144 155.065L278.345 161.199L292.723 150.859L293.153 151.448L278.33 162.101L270.057 155.909L257.17 162.057L248.904 157.386L243.81 158.907L239.218 155.188L227.438 163.847L221.565 160.224L216.166 162.043L206.285 157.59L188.042 168.061Z" fill="#DD6A57"/>
    <path d="M207.711 157.182C207.711 157.47 207.625 157.752 207.466 157.991C207.306 158.23 207.078 158.417 206.812 158.527C206.547 158.637 206.254 158.666 205.972 158.61C205.689 158.554 205.43 158.415 205.226 158.211C205.023 158.008 204.884 157.749 204.828 157.466C204.772 157.184 204.801 156.891 204.911 156.625C205.021 156.36 205.208 156.132 205.447 155.972C205.686 155.812 205.968 155.727 206.255 155.727C206.641 155.727 207.012 155.88 207.285 156.153C207.557 156.426 207.711 156.796 207.711 157.182Z" fill="#DD6A57"/>
    <path d="M216.188 163.047C216.988 163.047 217.636 162.399 217.636 161.599C217.636 160.799 216.988 160.151 216.188 160.151C215.388 160.151 214.74 160.799 214.74 161.599C214.74 162.399 215.388 163.047 216.188 163.047Z" fill="#DD6A57"/>
    <path d="M221.631 161.526C222.431 161.526 223.079 160.877 223.079 160.078C223.079 159.278 222.431 158.63 221.631 158.63C220.831 158.63 220.183 159.278 220.183 160.078C220.183 160.877 220.831 161.526 221.631 161.526Z" fill="#DD6A57"/>
    <path d="M228.944 163.309C228.944 163.597 228.859 163.878 228.699 164.118C228.539 164.357 228.311 164.543 228.046 164.654C227.78 164.764 227.487 164.793 227.205 164.736C226.922 164.68 226.663 164.542 226.46 164.338C226.256 164.135 226.117 163.875 226.061 163.593C226.005 163.311 226.034 163.018 226.144 162.752C226.254 162.486 226.441 162.259 226.68 162.099C226.919 161.939 227.201 161.854 227.489 161.854C227.875 161.854 228.245 162.007 228.518 162.28C228.791 162.553 228.944 162.923 228.944 163.309Z" fill="#DD6A57"/>
    <path d="M245.28 158.303C245.28 158.591 245.195 158.872 245.035 159.112C244.875 159.351 244.647 159.537 244.382 159.648C244.116 159.758 243.823 159.786 243.541 159.73C243.258 159.674 242.999 159.536 242.796 159.332C242.592 159.129 242.453 158.869 242.397 158.587C242.341 158.305 242.37 158.012 242.48 157.746C242.59 157.48 242.777 157.253 243.016 157.093C243.255 156.933 243.537 156.848 243.825 156.848C244.211 156.848 244.581 157.001 244.854 157.274C245.127 157.547 245.28 157.917 245.28 158.303Z" fill="#DD6A57"/>
    <path d="M258.567 161.526C258.567 161.814 258.482 162.095 258.322 162.334C258.162 162.574 257.935 162.76 257.669 162.87C257.403 162.981 257.11 163.009 256.828 162.953C256.545 162.897 256.286 162.758 256.083 162.555C255.879 162.351 255.74 162.092 255.684 161.81C255.628 161.528 255.657 161.235 255.767 160.969C255.877 160.703 256.064 160.476 256.303 160.316C256.542 160.156 256.824 160.071 257.112 160.071C257.498 160.071 257.868 160.224 258.141 160.497C258.414 160.77 258.567 161.14 258.567 161.526Z" fill="#DD6A57"/>
    <path d="M279.997 161.526C279.997 161.814 279.911 162.095 279.751 162.334C279.591 162.574 279.364 162.76 279.098 162.87C278.832 162.981 278.54 163.009 278.257 162.953C277.975 162.897 277.716 162.758 277.512 162.555C277.309 162.351 277.17 162.092 277.114 161.81C277.058 161.528 277.087 161.235 277.197 160.969C277.307 160.703 277.493 160.476 277.733 160.316C277.972 160.156 278.253 160.071 278.541 160.071C278.927 160.071 279.297 160.224 279.57 160.497C279.843 160.77 279.997 161.14 279.997 161.526Z" fill="#DD6A57"/>
    <path d="M239.138 156.119C239.938 156.119 240.586 155.471 240.586 154.671C240.586 153.871 239.938 153.223 239.138 153.223C238.339 153.223 237.69 153.871 237.69 154.671C237.69 155.471 238.339 156.119 239.138 156.119Z" fill="#DD6A57"/>
    <path d="M249.049 158.63C249.849 158.63 250.497 157.982 250.497 157.182C250.497 156.383 249.849 155.734 249.049 155.734C248.25 155.734 247.601 156.383 247.601 157.182C247.601 157.982 248.25 158.63 249.049 158.63Z" fill="#DD6A57"/>
    <path d="M269.977 156.855C270.776 156.855 271.425 156.206 271.425 155.407C271.425 154.607 270.776 153.958 269.977 153.958C269.177 153.958 268.529 154.607 268.529 155.407C268.529 156.206 269.177 156.855 269.977 156.855Z" fill="#DD6A57"/>
    <path d="M294.382 151.15C294.382 151.437 294.297 151.719 294.137 151.958C293.977 152.198 293.75 152.384 293.484 152.494C293.218 152.604 292.926 152.633 292.643 152.577C292.361 152.521 292.102 152.382 291.898 152.179C291.695 151.975 291.556 151.716 291.5 151.434C291.444 151.151 291.472 150.859 291.583 150.593C291.693 150.327 291.879 150.1 292.119 149.94C292.358 149.78 292.639 149.694 292.927 149.694C293.313 149.694 293.683 149.848 293.956 150.121C294.229 150.394 294.382 150.764 294.382 151.15Z" fill="#DD6A57"/>
    <path d="M186.318 106.908L186.463 124.939L186.558 142.963L186.66 179.026L186.318 178.691L212.608 178.677L238.906 178.721L265.196 178.83L291.494 179.026L265.196 179.23L238.906 179.339L212.608 179.375L186.318 179.368H185.976V179.026L186.078 142.963L186.172 124.939L186.318 106.908Z" fill="#EBEBEB"/>
    <path d="M199.394 196.126C199.394 199.016 198.343 201.807 196.438 203.979C194.532 206.151 191.901 207.556 189.036 207.931C186.171 208.307 183.267 207.628 180.866 206.02C178.465 204.412 176.731 201.986 175.986 199.194C175.242 196.402 175.539 193.435 176.821 190.845C178.103 188.256 180.283 186.221 182.955 185.121C185.627 184.02 188.608 183.929 191.342 184.864C194.076 185.799 196.377 187.697 197.815 190.203C198.849 192.006 199.393 194.048 199.394 196.126V196.126Z" fill="#263238"/>
    <path d="M197.844 190.203L187.511 196.126V184.222C189.608 184.22 191.667 184.772 193.482 185.822C195.296 186.873 196.801 188.384 197.844 190.203V190.203Z" fill="#DD6A57"/>
    <path d="M195.593 197.525C196.37 193.043 193.367 188.779 188.884 188.002C184.402 187.224 180.138 190.227 179.361 194.71C178.583 199.192 181.587 203.456 186.069 204.233C190.551 205.011 194.815 202.007 195.593 197.525Z" fill="white"/>
    <path d="M190.909 194.3H184.055V195.268H190.909V194.3Z" fill="#263238"/>
    <path d="M192.605 196.985H182.352V197.953H192.605V196.985Z" fill="#A6A6A6"/>
    <path d="M232.713 196.126C232.714 196.711 232.67 197.295 232.582 197.873C232.126 200.918 230.508 203.668 228.066 205.545C225.624 207.422 222.55 208.278 219.49 207.935C216.429 207.592 213.621 206.075 211.656 203.705C209.691 201.334 208.722 198.293 208.952 195.222C209.182 192.151 210.594 189.29 212.891 187.238C215.188 185.187 218.191 184.106 221.268 184.223C224.345 184.341 227.257 185.646 229.392 187.866C231.526 190.086 232.717 193.047 232.713 196.126V196.126Z" fill="#263238"/>
    <path d="M232.713 196.126C232.714 196.711 232.67 197.295 232.582 197.873L220.801 196.126V184.222C222.366 184.219 223.915 184.525 225.361 185.122C226.807 185.719 228.121 186.596 229.228 187.702C230.335 188.808 231.212 190.121 231.81 191.567C232.408 193.012 232.715 194.562 232.713 196.126V196.126Z" fill="#DD6A57"/>
    <path d="M223.963 203.758C228.161 202.005 230.143 197.181 228.39 192.983C226.638 188.785 221.814 186.803 217.616 188.556C213.418 190.308 211.435 195.132 213.188 199.33C214.941 203.528 219.765 205.511 223.963 203.758Z" fill="white"/>
    <path d="M224.229 194.3H217.374V195.268H224.229V194.3Z" fill="#263238"/>
    <path d="M225.931 196.985H215.679V197.953H225.931V196.985Z" fill="#A6A6A6"/>
    <path d="M266.244 196.126C266.24 199.012 265.187 201.798 263.281 203.965C261.375 206.132 258.746 207.531 255.884 207.903C253.022 208.274 250.123 207.592 247.727 205.983C245.331 204.375 243.602 201.95 242.862 199.161C242.121 196.372 242.421 193.408 243.704 190.824C244.988 188.239 247.167 186.209 249.837 185.113C252.506 184.017 255.483 183.928 258.213 184.865C260.942 185.802 263.238 187.699 264.672 190.203C265.704 192.007 266.246 194.049 266.244 196.126V196.126Z" fill="#263238"/>
    <path d="M266.244 196.126C266.245 198.535 265.515 200.887 264.151 202.872C262.786 204.857 260.852 206.382 258.603 207.245L254.332 196.126V184.222C255.897 184.219 257.446 184.525 258.892 185.122C260.338 185.719 261.652 186.596 262.759 187.702C263.865 188.808 264.743 190.121 265.341 191.567C265.939 193.012 266.246 194.562 266.244 196.126V196.126Z" fill="#DD6A57"/>
    <path d="M254.354 204.364C258.903 204.364 262.591 200.676 262.591 196.127C262.591 191.578 258.903 187.89 254.354 187.89C249.804 187.89 246.117 191.578 246.117 196.127C246.117 200.676 249.804 204.364 254.354 204.364Z" fill="white"/>
    <path d="M257.781 194.3H250.927V195.268H257.781V194.3Z" fill="#263238"/>
    <path d="M259.484 196.985H249.231V197.953H259.484V196.985Z" fill="#A6A6A6"/>
    <path d="M299.636 196.126C299.636 199.016 298.586 201.807 296.68 203.979C294.774 206.151 292.144 207.556 289.279 207.931C286.414 208.307 283.51 207.628 281.109 206.02C278.708 204.412 276.973 201.986 276.229 199.194C275.484 196.402 275.781 193.435 277.063 190.845C278.346 188.256 280.526 186.221 283.198 185.121C285.869 184.02 288.85 183.929 291.584 184.864C294.318 185.799 296.619 187.697 298.057 190.203C299.095 192.005 299.64 194.048 299.636 196.126Z" fill="#263238"/>
    <path d="M299.636 196.126C299.639 198.404 298.989 200.634 297.763 202.553C296.536 204.473 294.785 206 292.717 206.953C290.648 207.907 288.35 208.247 286.094 207.934C283.838 207.621 281.719 206.667 279.989 205.186L287.717 196.126V184.222C289.281 184.221 290.83 184.528 292.275 185.126C293.72 185.724 295.033 186.6 296.14 187.706C297.246 188.811 298.123 190.124 298.722 191.569C299.321 193.014 299.629 194.562 299.629 196.126H299.636Z" fill="#DD6A57"/>
    <path d="M287.724 204.364C292.274 204.364 295.962 200.676 295.962 196.127C295.962 191.578 292.274 187.89 287.724 187.89C283.175 187.89 279.487 191.578 279.487 196.127C279.487 200.676 283.175 204.364 287.724 204.364Z" fill="white"/>
    <path d="M291.152 194.3H284.297V195.268H291.152V194.3Z" fill="#263238"/>
    <path d="M292.847 196.985H282.594V197.953H292.847V196.985Z" fill="#A6A6A6"/>
    <path d="M280.091 0.385742H156.214V89.8589H280.091V0.385742Z" fill="white"/>
    <path d="M280.455 90.2299H155.85V0H280.455V90.2299ZM156.578 89.5023H279.727V0.727661H156.578V89.5023Z" fill="#EBEBEB"/>
    <path d="M182.337 15.23H172.71V83.7319H182.337V15.23Z" fill="#DD6A57"/>
    <path opacity="0.1" d="M182.337 15.23H179.485V83.7319H182.337V15.23Z" fill="#263238"/>
    <path d="M198.884 31.8135H189.257V83.7321H198.884V31.8135Z" fill="#DD6A57"/>
    <path opacity="0.1" d="M198.884 31.8135H196.032V83.7321H198.884V31.8135Z" fill="#263238"/>
    <path d="M215.431 57.7693H205.804V83.7322H215.431V57.7693Z" fill="#DD6A57"/>
    <path opacity="0.1" d="M215.431 57.7693H212.579V83.7322H215.431V57.7693Z" fill="#263238"/>
    <path d="M231.978 42.9468H222.351V83.7322H231.978V42.9468Z" fill="#DD6A57"/>
    <path opacity="0.1" d="M231.971 42.9468H229.118V83.7322H231.971V42.9468Z" fill="#263238"/>
    <path d="M248.518 27.375H238.891V83.7323H248.518V27.375Z" fill="#DD6A57"/>
    <path opacity="0.1" d="M248.518 27.375H245.665V83.7323H248.518V27.375Z" fill="#263238"/>
    <path d="M265.065 18.2134H255.438V83.7247H265.065V18.2134Z" fill="#DD6A57"/>
    <path opacity="0.1" d="M265.065 18.2134H262.212V83.7247H265.065V18.2134Z" fill="#263238"/>
    <path d="M167.129 6.52002L167.282 25.8249L167.355 45.1297L167.457 83.7321L167.129 83.4046L180.402 83.3755L193.674 83.3974L220.212 83.4701L246.75 83.5429L273.295 83.7321L246.75 83.9213L220.212 83.994L193.674 84.0668L180.402 84.0886L167.129 84.0595L166.809 84.0523V83.7321L166.911 45.1297L166.984 25.8249L167.129 6.52002Z" fill="#EBEBEB"/>
    <path d="M165.004 10.3915C166.379 9.90661 167.879 9.90661 169.254 10.3915C167.879 10.8764 166.379 10.8764 165.004 10.3915V10.3915Z" fill="#EBEBEB"/>
    <path d="M165.004 16.2633C166.379 15.7784 167.879 15.7784 169.254 16.2633C167.879 16.7482 166.379 16.7482 165.004 16.2633V16.2633Z" fill="#EBEBEB"/>
    <path d="M165.004 22.1285C165.684 21.8779 166.404 21.7546 167.129 21.7646C167.854 21.7498 168.575 21.8733 169.254 22.1285C168.576 22.387 167.854 22.5106 167.129 22.4923C166.404 22.5023 165.684 22.379 165.004 22.1285V22.1285Z" fill="#EBEBEB"/>
    <path d="M165.004 27.9936C166.379 27.5087 167.879 27.5087 169.254 27.9936C167.879 28.4785 166.379 28.4785 165.004 27.9936V27.9936Z" fill="#EBEBEB"/>
    <path d="M165.004 33.8656C165.683 33.6116 166.404 33.4882 167.129 33.5018C167.854 33.4834 168.576 33.607 169.254 33.8656C168.575 34.1208 167.854 34.2443 167.129 34.2294C166.404 34.2395 165.684 34.1162 165.004 33.8656V33.8656Z" fill="#EBEBEB"/>
    <path d="M165.004 39.7594C166.379 39.2745 167.879 39.2745 169.254 39.7594C167.879 40.2443 166.379 40.2443 165.004 39.7594V39.7594Z" fill="#EBEBEB"/>
    <path d="M165.004 45.581C166.379 45.0961 167.879 45.0961 169.254 45.581C167.879 46.0659 166.379 46.0659 165.004 45.581V45.581Z" fill="#EBEBEB"/>
    <path d="M165.004 51.4676C165.684 51.217 166.404 51.0937 167.129 51.1037C167.854 51.0889 168.575 51.2124 169.254 51.4676C168.576 51.7261 167.854 51.8497 167.129 51.8314C166.404 51.845 165.683 51.7216 165.004 51.4676V51.4676Z" fill="#EBEBEB"/>
    <path d="M165.004 57.3397C166.379 56.8549 167.879 56.8549 169.254 57.3397C167.877 57.8149 166.381 57.8149 165.004 57.3397Z" fill="#EBEBEB"/>
    <path d="M165.004 63.2047C165.684 62.9542 166.404 62.8308 167.129 62.8409C167.854 62.8226 168.576 62.9462 169.254 63.2047C168.575 63.4599 167.854 63.5834 167.129 63.5685C166.404 63.5786 165.684 63.4553 165.004 63.2047Z" fill="#EBEBEB"/>
    <path d="M165.004 69.0697C166.379 68.5848 167.879 68.5848 169.254 69.0697C167.879 69.5546 166.379 69.5546 165.004 69.0697V69.0697Z" fill="#EBEBEB"/>
    <path d="M165.004 74.9418C166.379 74.4569 167.879 74.4569 169.254 74.9418C167.879 75.4267 166.379 75.4267 165.004 74.9418V74.9418Z" fill="#EBEBEB"/>
    <path d="M210.614 63.5689C201.591 63.5689 197.159 51.8463 192.874 40.5166C190.501 34.2369 188.049 27.7461 184.869 23.4311C178.124 14.2844 167.318 16.5911 167.209 16.6129L167.049 15.8853C167.165 15.8853 178.422 13.4403 185.451 22.98C188.689 27.3459 191.163 33.8949 193.558 40.2328C197.756 51.3369 202.093 62.7903 210.614 62.7903C216.937 62.7903 223.595 53.7673 230.654 44.2131C239.487 32.2431 249.493 18.6795 261.623 18.6795V19.4071C249.864 19.4071 239.968 32.8107 231.236 44.6424C223.763 54.8224 217.301 63.5689 210.614 63.5689Z" fill="#37474F"/>
    <path d="M167.129 20.3747C169.4 20.3747 171.24 18.534 171.24 16.2634C171.24 13.9928 169.4 12.1521 167.129 12.1521C164.858 12.1521 163.018 13.9928 163.018 16.2634C163.018 18.534 164.858 20.3747 167.129 20.3747Z" fill="white"/>
    <path d="M171.247 16.2633C171.243 17.3707 170.813 18.434 170.046 19.2331C169.28 20.0323 168.235 20.5061 167.129 20.5565C166.55 20.5821 165.971 20.4899 165.429 20.2855C164.886 20.0812 164.391 19.7689 163.973 19.3676C163.554 18.9662 163.222 18.4842 162.995 17.9506C162.768 17.417 162.652 16.843 162.654 16.2633C162.656 15.6769 162.776 15.097 163.008 14.5582C163.239 14.0194 163.576 13.5326 164 13.1271C164.847 12.3398 165.973 11.9211 167.129 11.9628C168.236 12.0133 169.282 12.4881 170.049 13.2888C170.816 14.0895 171.245 15.1546 171.247 16.2633V16.2633ZM171.247 16.2633C171.248 15.7306 171.14 15.2034 170.931 14.7136C170.722 14.2237 170.416 13.7813 170.031 13.4133C169.646 13.0453 169.19 12.7592 168.691 12.5724C168.192 12.3856 167.661 12.302 167.129 12.3266C166.495 12.3558 165.878 12.5377 165.33 12.8568C164.781 13.176 164.318 13.6229 163.98 14.1596C163.641 14.6962 163.438 15.3067 163.386 15.939C163.335 16.5713 163.437 17.2067 163.684 17.7911C163.93 18.3755 164.315 18.8916 164.804 19.2954C165.293 19.6992 165.873 19.9787 166.494 20.1102C167.114 20.2418 167.758 20.2213 168.369 20.0507C168.98 19.8801 169.54 19.5643 170.003 19.1303C170.394 18.7613 170.705 18.317 170.919 17.8243C171.133 17.3315 171.245 16.8005 171.247 16.2633V16.2633Z" fill="#37474F"/>
    <path d="M261.623 23.4601C263.894 23.4601 265.734 21.6194 265.734 19.3488C265.734 17.0782 263.894 15.2375 261.623 15.2375C259.352 15.2375 257.512 17.0782 257.512 19.3488C257.512 21.6194 259.352 23.4601 261.623 23.4601Z" fill="white"/>
    <path d="M265.734 19.3852C265.732 20.4684 265.316 21.5098 264.57 22.2958C263.802 23.1149 262.745 23.6007 261.623 23.6493C260.467 23.691 259.342 23.2723 258.494 22.485C258.068 22.0818 257.729 21.5961 257.498 21.0575C257.266 20.5189 257.147 19.9387 257.147 19.3524C257.147 18.7661 257.266 18.186 257.498 17.6474C257.729 17.1088 258.068 16.6231 258.494 16.2198C259.342 15.4326 260.467 15.0138 261.623 15.0556C262.736 15.1045 263.786 15.5831 264.552 16.3906C265.319 17.1981 265.743 18.2716 265.734 19.3852V19.3852ZM265.734 19.3852C265.736 18.8529 265.629 18.3258 265.421 17.836C265.213 17.3461 264.907 16.9037 264.523 16.5356C264.138 16.1674 263.683 15.8812 263.184 15.6944C262.686 15.5075 262.155 15.4239 261.623 15.4485C260.873 15.4847 260.148 15.7348 259.535 16.1695C258.922 16.6041 258.447 17.205 258.164 17.9013C257.882 18.5976 257.805 19.3601 257.942 20.0988C258.079 20.8375 258.425 21.5216 258.938 22.0702C259.634 22.8229 260.599 23.2702 261.623 23.3145C262.154 23.3391 262.685 23.2557 263.183 23.0693C263.681 22.8829 264.136 22.5973 264.52 22.23C264.904 21.8626 265.21 21.4211 265.419 20.9321C265.628 20.4431 265.735 19.9168 265.734 19.3852V19.3852Z" fill="#37474F"/>
    <path d="M214.732 63.3359C214.734 64.1508 214.494 64.9478 214.042 65.626C213.59 66.3043 212.948 66.8333 212.195 67.1461C211.443 67.459 210.614 67.5416 209.815 67.3835C209.015 67.2254 208.281 66.8337 207.704 66.258C207.128 65.6823 206.735 64.9485 206.575 64.1493C206.416 63.3502 206.497 62.5217 206.808 61.7687C207.12 61.0158 207.648 60.3721 208.325 59.9192C209.002 59.4663 209.799 59.2246 210.614 59.2246C211.705 59.2246 212.751 59.6575 213.524 60.4283C214.296 61.1991 214.731 62.2448 214.732 63.3359V63.3359Z" fill="white"/>
    <path d="M214.733 63.3359C214.73 64.4446 214.301 65.5097 213.534 66.3104C212.767 67.1111 211.722 67.5859 210.614 67.6364C210.035 67.6602 209.457 67.5667 208.915 67.3615C208.373 67.1563 207.878 66.8437 207.459 66.4423C207.041 66.041 206.709 65.5592 206.481 65.026C206.254 64.4928 206.137 63.9192 206.137 63.3395C206.137 62.7599 206.254 62.1863 206.481 61.653C206.709 61.1198 207.041 60.6381 207.459 60.2367C207.878 59.8354 208.373 59.5227 208.915 59.3175C209.457 59.1123 210.035 59.0189 210.614 59.0427C211.72 59.0931 212.765 59.5669 213.531 60.3661C214.298 61.1652 214.728 62.2285 214.733 63.3359V63.3359ZM214.733 63.3359C214.732 62.8039 214.624 62.2775 214.414 61.7884C214.205 61.2994 213.898 60.8579 213.513 60.4907C213.128 60.1234 212.673 59.838 212.175 59.6517C211.676 59.4653 211.146 59.3819 210.614 59.4065C209.6 59.4501 208.642 59.8836 207.94 60.6164C207.238 61.3492 206.847 62.3248 206.847 63.3395C206.847 64.3543 207.238 65.3299 207.94 66.0627C208.642 66.7955 209.6 67.2289 210.614 67.2725C211.146 67.2972 211.678 67.2135 212.176 67.0268C212.675 66.84 213.131 66.5539 213.516 66.1859C213.901 65.8178 214.207 65.3755 214.417 64.8856C214.626 64.3958 214.733 63.8685 214.733 63.3359V63.3359Z" fill="#37474F"/>
    <path d="M125.165 140.009L121.352 139.397L64.478 142.257L95.6146 190.195L99.4276 190.799C107.754 185.293 114.505 177.715 119.018 168.81C123.53 159.905 125.648 149.98 125.165 140.009V140.009Z" fill="#DD6A57"/>
    <g opacity="0.1">
        <path opacity="0.1" d="M121.352 139.397L125.165 140.009C125.649 149.979 123.532 159.904 119.021 168.809C114.51 177.714 107.76 185.292 99.4349 190.799L95.6147 190.195C103.942 184.688 110.694 177.109 115.207 168.203C119.719 159.297 121.837 149.37 121.352 139.397V139.397Z" fill="#263238"/>
    </g>
    <path d="M59.3625 82.1162L60.4104 82.1671H59.9811L59.3625 82.1162Z" fill="#455A64"/>
    <path d="M117.568 137.155C117.532 136.282 117.474 135.409 117.386 134.557V134.208V134.033C117.386 133.931 117.386 133.83 117.35 133.728V133.611V133.538C117.35 133.451 117.35 133.364 117.35 133.262C117.346 133.218 117.346 133.175 117.35 133.131C117.35 132.876 117.284 132.622 117.248 132.367C117.212 132.112 117.161 131.727 117.102 131.334C117.044 130.941 116.986 130.606 116.921 130.184C116.855 129.762 116.819 129.595 116.768 129.311V129.26C116.637 128.532 116.491 127.855 116.331 127.157C116.28 126.924 116.222 126.691 116.164 126.429C116.055 125.956 115.938 125.491 115.814 125.025C115.742 124.748 115.662 124.472 115.589 124.195C115.465 123.781 115.349 123.358 115.225 122.951C115.138 122.66 115.043 122.369 114.949 122.085C114.818 121.692 114.694 121.292 114.556 120.906L114.243 120.033C114.104 119.655 113.959 119.305 113.813 118.898C113.668 118.49 113.588 118.316 113.464 118.025C113.34 117.734 113.159 117.297 113.006 116.926C112.853 116.555 112.751 116.351 112.62 116.067C112.489 115.784 112.293 115.34 112.118 114.99C111.943 114.641 111.849 114.43 111.71 114.154C111.572 113.877 111.347 113.426 111.165 113.091L110.735 112.276C110.539 111.92 110.335 111.549 110.139 111.221L109.695 110.45C109.477 110.086 109.251 109.722 109.033 109.373C108.88 109.14 108.734 108.9 108.589 108.645L107.817 107.495L107.417 106.906C107.046 106.375 106.69 105.851 106.275 105.334L106.195 105.218C105.773 104.665 105.343 104.119 104.907 103.581L104.47 103.064C104.172 102.7 103.874 102.336 103.561 101.987L103.008 101.376C102.789 101.128 102.564 100.874 102.338 100.648L102.171 100.481C101.887 100.175 101.589 99.8769 101.298 99.5786L100.628 98.8946C100.315 98.5889 99.9951 98.2979 99.6822 97.9995C99.3693 97.7012 99.2456 97.5775 99.0201 97.3737L97.8558 96.5151C97.6448 96.3332 97.4483 96.1513 97.2373 95.9766C96.808 95.6128 96.3641 95.249 95.9202 94.9142L95.5346 94.6013L95.3599 94.4631C94.887 94.0993 94.414 93.7354 93.9046 93.3934L93.3589 93.0078L92.2455 92.2801L91.6125 91.8653C91.2559 91.6325 90.8848 91.4069 90.5283 91.1813C90.3172 91.0431 90.0989 90.9121 89.8734 90.7811L89.495 90.541L88.6072 90.0389L88.1998 89.8061C87.6322 89.4907 87.0573 89.1851 86.4752 88.8892L86.0823 88.6927L84.6997 88.0233L84.1321 87.7613L83.6155 87.5285L82.7423 87.1574L82.3203 86.9827C81.7236 86.7353 81.1269 86.4952 80.5156 86.2551L80.1082 86.1095C79.6206 85.9349 79.1331 85.7603 78.6528 85.6002L78.0925 85.4183L77.6559 85.2727L76.5208 84.938L76.1861 84.8361C75.5603 84.6615 74.9199 84.4941 74.2869 84.3413L73.7775 84.2176L72.3222 83.8975L71.7328 83.7738L71.3326 83.6937L69.7899 83.4245L66.0789 82.8351H65.977C65.2493 82.7114 64.4707 82.6168 63.7067 82.5367C63.2192 82.4785 62.7316 82.4349 62.2514 82.3912H62.1859L60.9416 82.2893L60.4613 82.2457L60.8615 82.2821C60.2649 82.2457 59.6682 82.2093 59.0642 82.1875C58.4603 82.1656 57.8126 82.1438 57.1796 82.1438C56.1972 82.1438 55.2222 82.1438 54.2325 82.2166C53.2429 82.2893 52.4498 82.3257 51.5693 82.413L50.4342 82.5367C50.0194 82.5804 49.6046 82.6386 49.1826 82.6968C48.7605 82.755 48.3603 82.8132 47.931 82.886L46.7158 83.097C20.1562 88.0815 0.145532 111.781 0 139.382C0 140.364 1.0843e-07 141.346 0.0654896 142.343C0.0654896 142.838 0.123703 143.326 0.160086 143.798C0.160086 144.17 0.211022 144.526 0.247405 144.905C0.283788 145.283 0.305618 145.523 0.342001 145.829C0.378384 146.134 0.422042 146.556 0.472978 146.942C0.523914 147.328 0.567575 147.67 0.647618 148.194C0.691277 148.506 0.742214 148.819 0.844086 149.431C0.887746 149.678 0.931405 149.918 0.982341 150.158C1.03328 150.398 1.09149 150.748 1.14243 151.039C3.45198 162.41 9.1646 172.811 17.5223 180.861C25.8801 188.911 36.4879 194.229 47.9383 196.11C48.7533 196.241 49.5755 196.35 50.7325 196.488L54.5454 197.092L60.7524 140.08L117.568 137.155ZM112.853 128.656C112.853 128.612 112.853 128.561 112.817 128.518C112.82 128.561 112.82 128.605 112.817 128.649L112.853 128.656Z" fill="#455A64"/>
    <path d="M59.3625 82.1162L60.4104 82.1671H59.9811L59.3625 82.1162Z" fill="#263238"/>
    <path d="M117.568 137.156C117.532 136.283 117.473 135.41 117.386 134.559V134.209V134.035C117.386 133.933 117.386 133.831 117.35 133.729V133.613V133.54C117.35 133.453 117.35 133.365 117.35 133.263C117.346 133.22 117.346 133.176 117.35 133.132C117.35 132.878 117.284 132.623 117.248 132.368C117.211 132.114 117.161 131.728 117.102 131.335C117.044 130.942 116.986 130.607 116.92 130.185C116.855 129.763 116.819 129.596 116.768 129.312V129.261C116.637 128.534 116.491 127.857 116.331 127.158C116.28 126.925 116.222 126.693 116.164 126.431C116.055 125.958 115.938 125.492 115.814 125.026C115.742 124.75 115.662 124.473 115.589 124.197C115.465 123.782 115.349 123.36 115.225 122.952C115.138 122.661 115.043 122.37 114.948 122.087C114.817 121.694 114.694 121.293 114.556 120.908L114.243 120.035C114.104 119.656 113.959 119.307 113.813 118.899C113.668 118.492 113.588 118.317 113.464 118.026C113.34 117.735 113.158 117.299 113.006 116.927C112.853 116.556 112.751 116.353 112.62 116.069C112.489 115.785 112.292 115.341 112.118 114.992C111.943 114.643 111.849 114.432 111.71 114.155C111.572 113.878 111.347 113.427 111.165 113.093L110.735 112.278C110.539 111.921 110.335 111.55 110.139 111.223L109.695 110.451C109.476 110.087 109.251 109.724 109.033 109.374C108.88 109.141 108.734 108.901 108.589 108.647L107.817 107.497L107.417 106.908C107.046 106.376 106.69 105.852 106.275 105.336L106.195 105.219C105.773 104.666 105.343 104.121 104.907 103.582L104.47 103.065C104.172 102.702 103.873 102.338 103.561 101.989L103.008 101.377C102.789 101.13 102.564 100.875 102.338 100.65L102.171 100.482C101.887 100.177 101.589 99.8783 101.298 99.58L100.628 98.896C100.315 98.5903 99.995 98.2993 99.6821 98.0009C99.3692 97.7026 99.2455 97.5789 99.02 97.3751L97.8557 96.5165C97.6447 96.3346 97.4482 96.1527 97.2372 95.978C96.8079 95.6142 96.364 95.2504 95.9201 94.9157L95.5345 94.6028L95.3598 94.4645C94.8869 94.1007 94.4139 93.7369 93.9045 93.3949L93.3588 93.0092L92.2454 92.2815L91.6124 91.8668C91.2558 91.6339 90.8847 91.4083 90.5282 91.1828C90.3171 91.0445 90.0988 90.9135 89.8733 90.7825L89.4949 90.5424L88.6071 90.0403L88.1997 89.8075C87.6321 89.4922 87.0572 89.1865 86.4751 88.8906L86.0822 88.6942L84.6996 88.0247L84.132 87.7628L83.6154 87.5299L82.7422 87.1588L82.3202 86.9842C81.7235 86.7367 81.1268 86.4966 80.5156 86.2565L80.1081 86.111C79.6205 85.9363 79.133 85.7617 78.6527 85.6016L78.0924 85.4197L77.6559 85.2742L76.5207 84.9394L76.186 84.8376C75.5602 84.6629 74.9198 84.4956 74.2868 84.3428L73.7774 84.219L72.3221 83.8989L71.7327 83.7752L71.3325 83.6951L69.7898 83.4259L66.0788 82.8365H65.9769C64.7253 82.6327 63.4519 82.4945 62.1785 82.3853L60.9269 82.2835L60.4467 82.2398L60.8469 82.2762C59.6317 82.1961 58.4019 82.1452 57.1649 82.1379C60.8743 82.2106 64.5713 82.5903 68.2181 83.2731C68.7929 83.3822 69.3678 83.5205 69.9426 83.6515L70.2483 83.7242C70.9177 83.8916 71.5872 84.0662 72.2493 84.2482L72.424 84.3064C73.0061 84.4737 73.5882 84.6484 74.1631 84.8376L74.6142 84.9831C75.1672 85.165 75.713 85.3542 76.2587 85.5579L76.5134 85.6453C77.1392 85.8781 77.765 86.1255 78.3835 86.3729L78.7328 86.5257C79.2276 86.7295 79.7151 86.9478 80.1881 87.1661L80.6975 87.3989C81.1996 87.6318 81.7016 87.8792 82.1965 88.1266L82.4875 88.2721C83.0842 88.5705 83.6736 88.8906 84.2557 89.2108L84.5905 89.4073C85.0489 89.6619 85.4928 89.9239 85.9439 90.1931C86.1476 90.3096 86.3441 90.4333 86.5479 90.5643C86.9335 90.7971 87.3192 91.0445 87.6976 91.2919L88.2797 91.6703L89.4658 92.4853L89.9533 92.8273C90.4627 93.1984 90.9648 93.5549 91.4596 93.9551L91.576 94.0425L92.3764 94.6901C92.6893 94.9375 93.0022 95.1849 93.3078 95.4177C93.6134 95.6506 93.8608 95.8907 94.1374 96.1454C94.4139 96.4001 94.7049 96.6402 94.9814 96.8731C95.258 97.1059 95.5345 97.3824 95.8037 97.6371L96.6041 98.3648L97.4046 99.1798C97.6592 99.4344 97.9139 99.6891 98.1322 99.9583C98.3505 100.228 98.758 100.635 99.0709 100.977L99.5221 101.472C99.8713 101.872 100.25 102.272 100.548 102.68L100.876 103.065C101.768 104.162 102.627 105.292 103.451 106.456V106.5C103.844 107.06 104.23 107.628 104.601 108.203L104.863 108.625C105.154 109.076 105.438 109.527 105.714 109.986L106.042 110.553C106.282 110.975 106.529 111.39 106.77 111.819L107.112 112.46C107.33 112.867 107.541 113.282 107.752 113.689C107.868 113.922 107.977 114.155 108.087 114.417C108.283 114.824 108.48 115.232 108.669 115.647C108.778 115.887 108.887 116.127 108.989 116.374C109.171 116.789 109.345 117.204 109.52 117.619L109.818 118.346C109.986 118.768 110.146 119.19 110.299 119.62C110.386 119.867 110.481 120.107 110.568 120.347C110.721 120.791 110.866 121.228 111.012 121.672C111.092 121.912 111.172 122.152 111.245 122.399C111.39 122.865 111.528 123.345 111.659 123.818C111.725 124.037 111.79 124.248 111.849 124.473C111.994 125.012 112.125 125.557 112.256 126.11C112.292 126.263 112.336 126.416 112.373 126.569C112.533 127.297 112.685 128.024 112.816 128.752C112.816 128.65 112.773 128.548 112.758 128.446C112.758 128.541 112.795 128.628 112.809 128.715C112.813 128.73 112.813 128.745 112.809 128.759V128.759C112.858 129.045 112.909 129.336 112.962 129.632C113.027 130.025 113.086 130.404 113.144 130.782C113.202 131.16 113.253 131.51 113.289 131.815C113.326 132.121 113.369 132.419 113.399 132.725C113.399 132.827 113.399 132.921 113.435 133.009V133.052C113.435 133.161 113.435 133.256 113.435 133.343C113.435 133.431 113.435 133.503 113.435 133.576V133.613C113.438 133.673 113.438 133.734 113.435 133.795V133.831C113.431 133.882 113.431 133.933 113.435 133.984V133.984C113.522 134.842 113.573 135.716 113.617 136.589L56.7502 139.441L50.5432 196.461L54.3562 197.065L60.5631 140.052L117.568 137.156Z" fill="#263238"/>
    <path d="M64.6818 146.521L60.8688 145.91L54.6619 202.93L58.453 203.534C59.4863 203.65 60.5268 203.73 61.5674 203.781C62.6079 203.832 63.4738 203.861 64.4343 203.861C65.3949 203.861 66.3845 203.861 67.345 203.788L68.7203 203.708H68.8876L65.0747 203.104H64.9146H65.082L68.8949 203.708L70.1829 203.606L71.2962 203.468L72.0238 203.388C72.7515 203.286 73.4792 203.17 74.2068 203.053L74.8908 202.93C82.3697 201.55 89.4913 198.668 95.8256 194.46L64.6818 146.521Z" fill="#37474F"/>
    <path d="M64.9802 203.097L63.5976 203.184C62.6153 203.235 61.6402 203.257 60.687 203.257C59.7337 203.257 58.7732 203.257 57.8273 203.177C57.3034 203.177 56.7867 203.119 56.2628 203.075L54.7129 202.929L58.5258 203.533C59.5591 203.65 60.5997 203.73 61.6402 203.781C62.6808 203.832 63.5467 203.861 64.5072 203.861C65.4677 203.861 66.4573 203.861 67.4178 203.788L68.7931 203.708H68.9605L65.1475 203.104L64.9802 203.097Z" fill="#263238"/>
    <path d="M64.6819 146.521L60.869 145.91L91.9983 193.856C85.6709 198.053 78.5597 200.927 71.0926 202.304L70.4086 202.42C69.6809 202.544 68.9533 202.66 68.2256 202.762L67.5343 202.842L66.4137 202.981L65.133 203.082L68.946 203.686L70.234 203.585L71.3473 203.446L72.0749 203.366C72.8026 203.264 73.5303 203.148 74.2579 203.032L74.9419 202.908C82.4014 201.528 89.5049 198.654 95.8258 194.46L64.6819 146.521Z" fill="#263238"/>
    <path d="M71.526 127.375L70.7542 128.146L71.2687 128.661L72.0405 127.889L71.526 127.375Z" fill="#263238"/>
    <path d="M73.5594 126.351L73.0427 125.834L74.5563 124.32L75.0729 124.837L73.5594 126.351ZM76.5864 123.316L76.0698 122.807L77.5833 121.293L78.1 121.803L76.5864 123.316ZM79.6135 120.289L79.0969 119.773L80.6104 118.259L81.127 118.776L79.6135 120.289ZM82.6406 117.262L82.1312 116.746L83.6447 115.232L84.1541 115.749L82.6406 117.262ZM85.6749 114.235L85.1583 113.718L86.6718 112.205L87.1884 112.722L85.6749 114.235ZM88.702 111.208L88.1853 110.691L89.6989 109.178L90.2155 109.687L88.702 111.208ZM91.729 108.174L91.2124 107.664L92.7259 106.143L93.2426 106.66L91.729 108.174ZM94.7561 105.147L94.2468 104.63L95.7603 103.116L96.2696 103.633L94.7561 105.147ZM97.7832 102.12L97.2738 101.603L98.7873 100.089L99.304 100.606L97.7832 102.12Z" fill="#263238"/>
    <path d="M100.817 99.1212L100.301 98.6046L101.181 97.7241H102.418V98.4518H101.479L100.817 99.1212Z" fill="#263238"/>
    <path d="M125.449 98.4518H123.142V97.7241H125.449V98.4518ZM120.843 98.4518H118.529V97.7241H120.835L120.843 98.4518ZM116.237 98.4518H113.93V97.7241H116.237V98.4518ZM111.63 98.4518H109.331V97.7241H111.63V98.4518ZM107.024 98.4518H104.703V97.7241H107.003L107.024 98.4518Z" fill="#263238"/>
    <path d="M128.84 97.7241H127.748V98.4518H128.84V97.7241Z" fill="#263238"/>
    <path d="M69.7756 132.79C69.2416 132.79 68.7197 132.632 68.2757 132.335C67.8318 132.039 67.4858 131.617 67.2814 131.124C67.0771 130.631 67.0236 130.088 67.1278 129.564C67.232 129.04 67.4891 128.559 67.8666 128.182C68.2442 127.804 68.7252 127.547 69.2489 127.443C69.7726 127.339 70.3154 127.392 70.8087 127.597C71.3019 127.801 71.7236 128.147 72.0202 128.591C72.3168 129.035 72.4752 129.557 72.4752 130.091C72.4752 130.807 72.1908 131.493 71.6845 132C71.1782 132.506 70.4915 132.79 69.7756 132.79V132.79ZM69.7756 128.126C69.3852 128.126 69.0037 128.242 68.6792 128.459C68.3548 128.676 68.1021 128.984 67.953 129.345C67.804 129.706 67.7653 130.103 67.842 130.485C67.9187 130.868 68.1073 131.219 68.3838 131.495C68.6603 131.77 69.0123 131.958 69.3953 132.033C69.7783 132.108 70.175 132.068 70.5352 131.918C70.8954 131.767 71.2029 131.514 71.4187 131.188C71.6345 130.863 71.749 130.481 71.7475 130.091C71.7475 129.832 71.6965 129.576 71.5973 129.337C71.4981 129.098 71.3527 128.881 71.1695 128.699C70.9863 128.516 70.7688 128.372 70.5296 128.274C70.2904 128.175 70.0342 128.125 69.7756 128.126V128.126Z" fill="#263238"/>
    <path d="M140.097 98.0884H132.827V105.358H140.097V98.0884Z" fill="#455A64"/>
    <path d="M169.021 109.92H132.507V111.084H169.021V109.92Z" fill="#263238"/>
    <path d="M158.674 112.976H132.507V114.14H158.674V112.976Z" fill="#A6A6A6"/>
    <path d="M163.411 116.025H132.507V117.19H163.411V116.025Z" fill="#A6A6A6"/>
    <path d="M128.046 155.035H125.863V154.307H128.046V155.035ZM123.681 155.035H121.498V154.307H123.681V155.035ZM119.315 155.035H117.132V154.307H119.315V155.035ZM114.949 155.035H112.766V154.307H114.949V155.035ZM110.583 155.035H108.4V154.307H110.583V155.035ZM106.217 155.035H104.034V154.307H106.217V155.035ZM101.851 155.035H99.6677V154.307H101.851V155.035ZM97.4847 155.035H95.3018V154.307H97.4847V155.035ZM93.1188 155.035H90.9358V154.307H93.1188V155.035ZM88.7528 155.035H86.5698V154.307H88.7528V155.035Z" fill="#263238"/>
    <path d="M84.2413 157.371C83.707 157.372 83.1844 157.215 82.7395 156.919C82.2945 156.623 81.9474 156.202 81.742 155.709C81.5365 155.216 81.482 154.673 81.5854 154.149C81.6887 153.625 81.9452 153.143 82.3225 152.765C82.6998 152.386 83.1808 152.129 83.7046 152.024C84.2285 151.919 84.7717 151.972 85.2654 152.176C85.7591 152.38 86.1812 152.726 86.4781 153.17C86.7751 153.615 86.9336 154.137 86.9336 154.671C86.9336 155.386 86.6502 156.071 86.1455 156.577C85.6408 157.083 84.956 157.369 84.2413 157.371V157.371ZM84.2413 152.706C83.8506 152.705 83.4684 152.82 83.143 153.036C82.8176 153.252 82.5637 153.56 82.4135 153.92C82.2634 154.281 82.2237 154.678 82.2996 155.061C82.3754 155.444 82.5634 155.796 82.8396 156.073C83.1158 156.349 83.4679 156.537 83.8511 156.613C84.2343 156.689 84.6314 156.649 84.992 156.499C85.3526 156.349 85.6605 156.095 85.8766 155.769C86.0928 155.444 86.2074 155.062 86.2059 154.671C86.2059 154.15 85.999 153.65 85.6305 153.282C85.2621 152.913 84.7623 152.706 84.2413 152.706V152.706Z" fill="#263238"/>
    <path d="M140.097 154.671H132.827V161.94H140.097V154.671Z" fill="#DD6A57"/>
    <path d="M157.975 166.576H132.507V167.74H157.975V166.576Z" fill="#263238"/>
    <path d="M166.234 169.624H132.507V170.789H166.234V169.624Z" fill="#A6A6A6"/>
    <path d="M149.17 172.681H132.507V173.845H149.17V172.681Z" fill="#A6A6A6"/>
    <path d="M128.374 203.664H126.191V202.937H128.374V203.664ZM124.008 203.664H121.825V202.937H124.008V203.664ZM119.642 203.664H117.459V202.937H119.642V203.664ZM115.276 203.664H113.093V202.937H115.276V203.664ZM110.91 203.664H108.727V202.937H110.91V203.664ZM106.544 203.664H104.361V202.937H106.544V203.664ZM102.178 203.664H99.995V202.937H102.178V203.664ZM97.8121 203.664H95.6291V202.937H97.8121V203.664ZM93.4461 203.664H91.2631V202.937H93.4461V203.664ZM89.0801 203.664H86.8971V202.937H89.0801V203.664ZM84.6487 203.104L83.106 201.561L83.6154 201.045L85.1653 202.587L84.6487 203.104ZM81.5634 200.019L80.0135 198.476L80.5301 197.959L82.0727 199.502L81.5634 200.019ZM78.5072 196.933L76.9646 195.391L77.4812 194.881L79.0239 196.424L78.5072 196.933ZM75.4219 193.848L73.8793 192.306L74.3959 191.789L75.9386 193.332L75.4219 193.848ZM72.3367 190.763L70.794 189.22L71.3034 188.704L72.8533 190.246L72.3367 190.763Z" fill="#263238"/>
    <path d="M69.7753 189.999C69.2432 189.998 68.7233 189.838 68.2815 189.542C67.8397 189.245 67.4958 188.824 67.2931 188.332C67.0905 187.84 67.0382 187.299 67.1429 186.777C67.2476 186.255 67.5046 185.776 67.8814 185.4C68.2582 185.024 68.738 184.769 69.26 184.665C69.7821 184.562 70.3231 184.616 70.8146 184.82C71.3061 185.024 71.7262 185.369 72.0217 185.812C72.3172 186.254 72.475 186.774 72.475 187.307C72.475 187.661 72.4051 188.011 72.2693 188.339C72.1336 188.666 71.9346 188.963 71.6838 189.213C71.433 189.463 71.1354 189.661 70.8079 189.796C70.4804 189.931 70.1295 190 69.7753 189.999V189.999ZM69.7753 185.342C69.3871 185.343 69.0079 185.46 68.6858 185.677C68.3637 185.893 68.113 186.201 67.9654 186.56C67.8178 186.919 67.7799 187.314 67.8566 187.694C67.9332 188.075 68.1209 188.424 68.3959 188.698C68.671 188.972 69.0211 189.159 69.402 189.234C69.7829 189.309 70.1776 189.27 70.5361 189.121C70.8947 188.972 71.2011 188.72 71.4167 188.397C71.6322 188.074 71.7473 187.695 71.7473 187.307C71.7473 187.048 71.6962 186.792 71.5971 186.553C71.4979 186.314 71.3525 186.097 71.1693 185.915C70.9861 185.732 70.7686 185.588 70.5294 185.489C70.2902 185.391 70.034 185.341 69.7753 185.342V185.342Z" fill="#263238"/>
    <path d="M140.097 203.3H132.827V210.57H140.097V203.3Z" fill="#263238"/>
    <path d="M170.491 215.627H132.507V216.791H170.491V215.627Z" fill="#263238"/>
    <path d="M157.975 218.675H132.507V219.84H157.975V218.675Z" fill="#A6A6A6"/>
    <path d="M165.841 221.732H132.507V222.896H165.841V221.732Z" fill="#A6A6A6"/>
</svg>
