<svg width="222" height="117" viewBox="0 0 222 117" fill="none" xmlns="http://www.w3.org/2000/svg">
    <path d="M112.52 132.143C50.377 132.143 6.10352e-05 126.014 6.10352e-05 118.454C6.10352e-05 110.893 50.377 104.764 112.52 104.764C174.663 104.764 225.04 110.893 225.04 118.454C225.04 126.014 174.663 132.143 112.52 132.143Z" fill="#EBEBEB"/>
    <path d="M216.68 83.7728L190.639 83.6508L164.598 83.605L112.52 83.5186L60.4376 83.605L34.4014 83.6508L8.36018 83.7728L34.4014 83.8999L60.4376 83.9406L112.52 84.0271L164.598 83.9406L190.639 83.8949L216.68 83.7728Z" fill="#263238"/>
    <path d="M194.041 40.2893C190.39 32.7886 184.003 28.934 176.807 31.0647C169.612 33.1954 168.493 43.2285 173.868 45.766C179.243 48.3035 184.613 40.8995 187.45 39.379C190.288 37.8586 194.041 40.2893 194.041 40.2893Z" fill="#23CE6B"/>
    <path d="M197.575 60.2589C197.575 59.3537 197.519 58.4485 197.488 57.5484C197.422 55.7432 197.361 53.9329 197.295 52.1276C197.173 48.8273 196.817 45.583 195.449 42.5421C194.241 39.7828 192.223 37.456 189.662 35.8703C188.71 35.2948 187.684 34.8533 186.611 34.5583C185.639 33.5757 184.402 32.8972 183.052 32.6056C181.377 32.2635 179.656 32.2205 177.966 32.4785C177.905 32.4785 177.905 32.5802 177.966 32.5751C179.57 32.367 181.199 32.4828 182.757 32.9158C183.425 33.0983 184.072 33.3488 184.689 33.6633C185.076 33.8731 185.448 34.1093 185.803 34.3702C184.35 34.0727 182.85 34.0883 181.404 34.4159C180.883 34.5447 180.373 34.7147 179.878 34.9244C179.485 34.8352 179.081 34.8009 178.678 34.8227C178.153 34.8387 177.631 34.9138 177.122 35.0465C176.079 35.3391 175.082 35.7737 174.158 36.3381C174.107 36.3686 174.158 36.45 174.208 36.4195C175.117 35.9237 176.091 35.5574 177.102 35.3313C177.59 35.22 178.087 35.1469 178.587 35.1126C178.861 35.0973 179.136 35.0973 179.411 35.1126C177.36 36.0596 175.711 37.7028 174.758 39.7503C174.758 39.8062 174.819 39.852 174.839 39.7961C175.407 38.6084 176.236 37.5641 177.263 36.7409C178.291 35.9178 179.49 35.3368 180.773 35.0414C180.931 35.0007 181.094 34.9804 181.251 34.9499C181.214 35.1908 181.188 35.4335 181.175 35.677C181.129 36.0381 181.068 36.4042 180.992 36.7653C180.846 37.5096 180.65 38.2435 180.407 38.9621C180.164 39.6888 179.874 40.3989 179.538 41.0877C179.213 41.8119 178.804 42.4948 178.317 43.1218C178.277 43.1777 178.358 43.2387 178.394 43.1777C178.826 42.5014 179.329 41.8759 179.726 41.1741C180.104 40.5018 180.431 39.8014 180.702 39.079C180.979 38.3493 181.193 37.5974 181.343 36.8314C181.424 36.4246 181.485 36.0178 181.531 35.6109C181.582 35.3652 181.597 35.1135 181.577 34.8634C182.419 34.7385 183.273 34.7214 184.119 34.8126C183.799 36.6026 183.458 38.4688 182.452 40.0249C182.421 40.0757 182.507 40.1215 182.538 40.0707C183.007 39.2521 183.42 38.4026 183.774 37.5281C184.105 36.6737 184.312 35.7764 184.389 34.8634C185.875 35.0622 187.31 35.5438 188.615 36.2822C191.074 37.7122 193.038 39.8589 194.244 42.4353C195.511 45.211 196.219 48.2089 196.329 51.2581C196.568 55.0923 196.619 58.952 197 62.7709C197 63.0252 197.422 63.1066 197.468 62.8269C197.585 61.9762 197.621 61.1163 197.575 60.2589Z" fill="#263238"/>
    <path d="M189.139 35.2652C188.896 34.9763 188.618 34.72 188.31 34.5024C188.01 34.2532 187.705 33.9939 187.384 33.7956C186.75 33.3628 186.049 33.038 185.309 32.8345C185.248 32.8345 185.228 32.9158 185.309 32.926C186.05 33.1212 186.743 33.4675 187.343 33.943C187.649 34.1668 187.938 34.4058 188.223 34.655C188.477 34.9209 188.759 35.1595 189.062 35.3669C189.076 35.372 189.09 35.3726 189.104 35.3687C189.118 35.3647 189.13 35.3563 189.139 35.3448C189.147 35.3333 189.152 35.3193 189.152 35.305C189.152 35.2906 189.147 35.2766 189.139 35.2652Z" fill="#263238"/>
    <path d="M177.488 38.0061C176.885 38.7095 176.326 39.45 175.815 40.2232C175.317 41.0006 174.899 41.827 174.569 42.6895C174.569 42.7149 174.6 42.7302 174.615 42.6895C175.451 41.0571 176.436 39.5062 177.56 38.0569C177.61 38.0061 177.529 37.9399 177.488 38.0061Z" fill="#263238"/>
    <path d="M185.34 37.2432C185.264 37.7122 185.126 38.1689 184.928 38.601C184.729 39.0201 184.498 39.4231 184.236 39.8062C184.236 39.8062 184.236 39.857 184.277 39.8367C184.902 39.1193 185.304 38.236 185.437 37.2941C185.442 37.2076 185.35 37.1822 185.34 37.2432Z" fill="#263238"/>
    <path d="M197.066 40.4724C197.066 40.4724 202.233 33.9787 212.19 36.2823C221.674 38.4689 226.047 55.8551 216.466 57.935C206.886 60.0148 208.574 43.9253 205.086 41.1945C202.528 39.191 198.856 39.6232 197.066 40.4724Z" fill="#23CE6B"/>
    <path d="M219.909 45.7762C219.267 45.2061 218.587 44.6794 217.875 44.1998C217.193 43.7283 216.449 43.3552 215.663 43.0912C214.568 41.413 213.09 40.0187 211.351 39.023H211.646C212.154 39.023 212.703 39.023 213.232 39.023C214.295 39.0933 215.337 39.3534 216.309 39.7909C216.32 39.7963 216.333 39.7969 216.345 39.7926C216.357 39.7883 216.367 39.7795 216.372 39.768C216.378 39.7566 216.378 39.7434 216.374 39.7315C216.37 39.7196 216.361 39.7098 216.349 39.7045C215.371 39.2814 214.347 38.9709 213.298 38.779C212.785 38.6868 212.264 38.6425 211.742 38.6467C211.463 38.6467 211.178 38.6467 210.903 38.6925H210.74C209.827 38.2308 208.862 37.8759 207.867 37.6348C207.959 37.6094 208.05 37.5788 208.147 37.5585C208.634 37.4516 209.126 37.3702 209.622 37.3144C210.615 37.2025 211.618 37.2179 212.607 37.3602C212.668 37.3602 212.683 37.2737 212.607 37.2686C211.605 37.1467 210.595 37.1059 209.586 37.1466C208.742 37.1694 207.902 37.2785 207.079 37.4721C206.478 37.3591 205.87 37.2894 205.259 37.2636C201.78 37.1161 197.992 38.4179 195.851 41.2758C193.71 44.1336 193.308 47.9526 192.912 51.4055C192.328 56.2152 192.2 61.0695 192.53 65.9033C192.53 66.1881 192.952 66.1373 192.963 65.8627C193.09 61.764 193.237 57.6653 193.629 53.5819C193.812 51.6902 194.01 49.7884 194.325 47.917C194.553 46.3032 195.017 44.7319 195.704 43.2539C196.443 41.7404 197.614 40.4803 199.07 39.6333C200.53 38.7975 202.157 38.2956 203.835 38.1636C205.34 38.0405 206.854 38.1834 208.31 38.5857C208.266 38.8774 208.266 39.1738 208.31 39.4654C208.342 39.8369 208.415 40.2036 208.528 40.5588C208.64 40.892 208.779 41.2152 208.945 41.525C209.134 41.8657 209.362 42.1708 209.571 42.5013C209.601 42.5522 209.688 42.5013 209.647 42.4454C209.236 41.8604 208.971 41.1856 208.874 40.4774C208.813 40.1411 208.772 39.8015 208.752 39.4604C208.752 39.2061 208.752 38.9518 208.752 38.6925C210.335 39.1784 211.811 39.9582 213.105 40.991C213.349 41.1842 213.583 41.3877 213.812 41.6012C213.486 41.9006 213.202 42.2427 212.968 42.6183C212.626 43.1188 212.328 43.6479 212.078 44.1998C211.617 45.3093 211.307 46.4758 211.157 47.6679C211.157 47.7289 211.244 47.7492 211.249 47.6679C211.433 46.5128 211.818 45.3991 212.388 44.3777C212.648 43.8718 212.942 43.3842 213.268 42.9183C213.436 42.6793 213.614 42.4403 213.776 42.2114C213.878 42.0843 213.985 41.9623 214.076 41.825C215.247 42.976 216.205 44.3259 216.904 45.8118C216.434 46.3119 216.042 46.8792 215.739 47.495C215.38 48.1363 215.068 48.8025 214.804 49.4884C214.321 50.8179 213.924 52.1767 213.614 53.5565C213.614 53.6175 213.695 53.6328 213.705 53.5565C214.009 52.1667 214.485 50.8205 215.124 49.5494C215.419 48.9239 215.734 48.3086 216.065 47.6984C216.414 47.138 216.727 46.5554 217 45.9542C217.668 47.4095 218.054 48.9778 218.139 50.5766C218.139 50.6376 218.241 50.6274 218.236 50.5766C218.052 48.0717 217.286 45.6443 215.999 43.4878C216.609 43.7472 217.219 43.9964 217.804 44.3167C218.553 44.7131 219.25 45.2017 219.879 45.7711C219.894 45.888 219.955 45.8169 219.909 45.7762Z" fill="#263238"/>
    <path d="M212.596 46.1423C212.296 47.1289 211.92 48.0849 211.651 49.0816C211.374 50.0341 211.226 51.019 211.208 52.0106C211.208 52.0412 211.254 52.0412 211.254 52.0106C211.53 50.0196 212.014 48.063 212.698 46.1728C212.7 46.1662 212.701 46.1592 212.7 46.1522C212.699 46.1453 212.697 46.1386 212.694 46.1324C212.691 46.1263 212.686 46.1209 212.681 46.1164C212.675 46.112 212.669 46.1087 212.663 46.1067C212.656 46.1047 212.649 46.1041 212.642 46.1048C212.635 46.1055 212.628 46.1075 212.622 46.1108C212.616 46.1142 212.611 46.1186 212.606 46.124C212.602 46.1294 212.598 46.1357 212.596 46.1423Z" fill="#263238"/>
    <path d="M218.912 43.7014C218.523 43.3226 218.079 43.0038 217.595 42.7556C217.103 42.5333 216.593 42.3529 216.07 42.2166C216.009 42.2166 215.993 42.2979 216.07 42.3081C216.586 42.4444 217.081 42.6479 217.544 42.9132C218.014 43.1597 218.466 43.4383 218.897 43.7472C218.9 43.7519 218.905 43.7557 218.91 43.758C218.915 43.7604 218.921 43.7612 218.927 43.7605C218.932 43.7597 218.938 43.7574 218.942 43.7537C218.946 43.7501 218.95 43.7453 218.951 43.7399C218.953 43.7345 218.953 43.7286 218.952 43.7231C218.951 43.7176 218.948 43.7125 218.944 43.7085C218.94 43.7045 218.935 43.7017 218.929 43.7004C218.924 43.6992 218.918 43.6995 218.912 43.7014Z" fill="#263238"/>
    <path d="M201.974 31.8021C201.974 31.8021 202.93 20.1062 211.605 16.3482C218.846 13.1903 222.996 21.3317 217.875 26.3152C213.715 30.3427 207.105 28.5273 201.974 31.8021Z" fill="#23CE6B"/>
    <path d="M216.258 18.6112C214.938 19.1431 213.651 19.7527 212.403 20.4368C211.363 21.0348 210.363 21.699 209.408 22.4251C209.55 22.1302 209.678 21.82 209.82 21.5301C210.049 21.0826 210.288 20.6402 210.557 20.213C211.093 19.3307 211.735 18.5177 212.469 17.7925C212.515 17.7518 212.469 17.6857 212.398 17.7264C211.658 18.4515 210.978 19.2355 210.364 20.0706C210.063 20.4924 209.788 20.9322 209.54 21.3877C209.295 21.8142 209.11 22.2729 208.991 22.7505L208.894 22.8167C207.379 24.029 205.99 25.392 204.75 26.8848C204.75 26.7678 204.801 26.656 204.831 26.5492C204.994 25.9796 205.167 25.4152 205.34 24.8507C205.714 23.6544 206.241 22.511 206.906 21.4487C206.942 21.3979 206.855 21.3521 206.825 21.403C206.144 22.4671 205.538 23.5766 205.009 24.7236C204.769 25.2835 204.569 25.8596 204.409 26.4475C204.285 26.8291 204.191 27.2203 204.13 27.6171C203.748 28.1002 203.377 28.5833 203.026 29.0816C199.304 34.3804 197.432 40.7775 196.985 47.2103C196.856 49.1229 196.824 51.0407 196.888 52.9566C196.905 54.8909 197.075 56.8209 197.397 58.7283C197.397 58.8452 197.61 58.8096 197.605 58.6927C197.565 57.0095 197.392 55.3263 197.356 53.6431C197.321 51.9599 197.356 50.2614 197.519 48.5579C197.794 45.1912 198.429 41.8636 199.411 38.6316C200.42 35.3214 201.907 32.1762 203.824 29.2952C204.191 29.224 204.552 29.1274 204.908 29.0358C205.345 28.924 205.777 28.8121 206.209 28.69C207.044 28.4714 207.854 28.1716 208.63 27.7951C208.686 27.7645 208.63 27.6832 208.579 27.7137C207.816 28.1314 206.987 28.4168 206.128 28.5578C205.452 28.6951 204.745 28.7816 204.063 28.9392C204.694 28.0239 205.365 27.134 206.098 26.2847C207.751 26.4356 209.417 26.3119 211.03 25.9186C211.894 25.7129 212.744 25.4495 213.573 25.1304C214.442 24.7948 215.266 24.3676 216.115 24.0066C216.182 23.9812 216.115 23.8845 216.08 23.9201C214.526 24.7677 212.83 25.3227 211.076 25.5576C209.527 25.8049 207.961 25.9358 206.393 25.9491C207.013 25.2423 207.649 24.5507 208.325 23.9151C210.593 21.7335 213.298 19.7401 216.298 18.6824C216.354 18.6824 216.324 18.5858 216.258 18.6112Z" fill="#263238"/>
    <path d="M209.21 18.6467C208.81 19.14 208.446 19.6618 208.122 20.2078C207.798 20.7777 207.542 21.3836 207.359 22.0131C207.359 22.0131 207.384 22.0486 207.389 22.0131C207.679 21.4435 207.898 20.8485 208.218 20.279C208.498 19.7177 208.839 19.1891 209.235 18.7026C209.317 18.6822 209.251 18.5958 209.21 18.6467Z" fill="#263238"/>
    <path d="M217.275 22.5318C216.71 22.8352 216.115 23.0789 215.5 23.259C214.904 23.4533 214.298 23.6145 213.685 23.742C213.685 23.742 213.685 23.798 213.685 23.7929C214.323 23.7247 214.953 23.5866 215.561 23.381C216.162 23.1565 216.748 22.895 217.316 22.5979C217.324 22.5979 217.332 22.5958 217.339 22.5917C217.346 22.5876 217.352 22.5817 217.356 22.5746C217.36 22.5675 217.362 22.5594 217.362 22.5512C217.362 22.5431 217.359 22.5351 217.355 22.5281C217.351 22.5212 217.345 22.5155 217.337 22.5117C217.33 22.5078 217.322 22.506 217.314 22.5064C217.306 22.5068 217.298 22.5093 217.291 22.5138C217.284 22.5182 217.279 22.5245 217.275 22.5318Z" fill="#263238"/>
    <path d="M195.231 29.7019C195.18 30.2104 193.919 25.466 186.586 21.2554C179.924 17.4314 171.976 7.4949 178.505 1.2147C183.779 -3.85524 197.666 7.19488 195.231 29.7019Z" fill="#23CE6B"/>
    <path d="M200.28 56.8772C200.175 51.9433 199.786 47.0195 199.116 42.1301C198.538 37.6287 197.5 33.1984 196.019 28.9086C195.475 27.3831 194.849 25.8575 194.173 24.332C194.211 23.7507 194.201 23.1673 194.142 22.5878C194.107 21.8402 194.041 21.0978 193.97 20.3503C193.898 19.6027 193.827 18.8603 193.736 18.1179C193.644 17.3754 193.491 16.6381 193.461 15.8956C193.461 15.8295 193.349 15.8397 193.369 15.8956C193.514 16.6746 193.601 17.4633 193.629 18.2552C193.685 18.9773 193.725 19.6943 193.751 20.4164C193.776 21.1385 193.751 21.8606 193.751 22.5827C193.751 22.842 193.751 23.1217 193.751 23.3963C193.059 21.9419 192.322 20.5028 191.524 19.1095C192.032 16.0584 191.371 12.8852 190.751 9.91546C190.751 9.85444 190.649 9.87987 190.659 9.91546C190.965 11.4686 191.126 13.0466 191.142 14.6294C191.173 15.8804 191.112 17.1263 191.107 18.3772C190.934 18.0772 190.756 17.7772 190.598 17.4822C189.649 15.9262 188.632 14.4006 187.547 12.9056C187.633 12.184 187.609 11.4536 187.476 10.7393C187.365 9.93794 187.195 9.14589 186.967 8.36957C186.733 7.58984 186.464 6.82537 186.159 6.07615C185.838 5.30829 185.416 4.57602 185.111 3.80307C185.106 3.7916 185.096 3.78275 185.084 3.77846C185.072 3.77416 185.059 3.77479 185.048 3.78019C185.036 3.78558 185.027 3.79531 185.023 3.80723C185.019 3.81915 185.019 3.83229 185.025 3.84375C185.414 4.57386 185.72 5.3447 185.94 6.14225C186.183 6.89145 186.383 7.65374 186.54 8.4255C186.698 9.19845 186.825 9.95106 186.932 10.7494C187.003 11.258 187.049 11.8021 187.14 12.3258C185.55 10.2594 183.818 8.30537 181.958 6.47788C181.913 6.43719 181.851 6.5033 181.892 6.54907C184.686 9.67636 187.182 13.0574 189.347 16.6483C189.428 16.7805 189.505 16.9178 189.581 17.0551C189.179 16.8008 188.717 16.6025 188.335 16.3889C187.623 15.9923 186.91 15.6007 186.194 15.2142L184.119 14.1057C183.764 13.9073 183.413 13.6988 183.052 13.5158C182.618 13.3213 182.202 13.0917 181.806 12.8293C181.75 12.7835 181.694 12.87 181.75 12.9005C182.457 13.292 183.082 13.8667 183.784 14.304C184.486 14.7413 185.167 15.1634 185.879 15.56C187.181 16.2872 188.6 16.811 189.881 17.5636C190.771 19.1197 191.59 20.7215 192.347 22.3488C191.568 21.8504 190.774 21.3741 189.967 20.9198C189.449 20.6317 188.925 20.3469 188.396 20.0655C187.873 19.8255 187.378 19.527 186.921 19.1756C186.876 19.1349 186.81 19.1756 186.855 19.2417C187.702 20.0156 188.642 20.6817 189.652 21.2249C190.598 21.7741 191.549 22.3081 192.525 22.7861C193.315 24.5049 194.024 26.2542 194.651 28.034C197.738 36.7754 198.872 46.0559 199.416 55.2754C199.573 58.0214 199.66 60.7674 199.695 63.5185C199.731 66.2695 199.584 69.0105 199.589 71.7565C199.589 71.8378 199.721 71.8582 199.731 71.7565C200.062 69.3156 200.123 66.8391 200.24 64.388C200.357 61.937 200.336 59.3638 200.28 56.8772Z" fill="#263238"/>
    <path d="M186.957 17.3043C185.616 16.7079 184.313 16.0285 183.057 15.2703C181.782 14.5532 180.546 13.769 179.355 12.9209C179.355 12.9209 179.314 12.9209 179.355 12.9565C180.481 13.8685 181.67 14.6995 182.914 15.4432C184.216 16.167 185.561 16.8107 186.942 17.3704C186.967 17.4111 187.013 17.3247 186.957 17.3043Z" fill="#263238"/>
    <path d="M189.083 7.41875C188.971 6.99668 188.839 6.57461 188.691 6.15762C188.691 6.15762 188.722 6.1322 188.691 6.11186C188.6 5.87285 188.503 5.63893 188.406 5.40502C188.406 5.3745 188.406 5.34399 188.371 5.31857C188.335 5.29314 188.335 5.23212 188.315 5.18636C188.294 5.14059 188.315 5.18636 188.315 5.18636C188.315 5.18636 188.361 5.34908 188.386 5.43044C188.395 5.4768 188.407 5.52263 188.422 5.56775C188.909 7.1976 189.272 8.86175 189.51 10.5461C189.51 10.597 189.601 10.6021 189.596 10.5461C189.524 9.48976 189.353 8.44259 189.083 7.41875Z" fill="#263238"/>
    <path d="M208.03 58.6519L207.506 64.8558L205.904 83.7727H188.742L187.14 64.8558L186.616 58.6519H208.03Z" fill="#455A64"/>
    <path d="M208.03 58.6519L207.506 64.8558H187.14L186.616 58.6519H208.03Z" fill="#263238"/>
    <path d="M209.713 62.1099H184.933V56.1602H209.713V62.1099Z" fill="#455A64"/>
    <path d="M136.619 56.0685C137.031 56.0939 138.953 56.2058 141.755 56.3838C142.807 54.6294 144.079 51.5071 143.748 47.0016C143.692 46.2592 145.274 50.5867 144.363 56.5465C149.789 56.877 157.163 57.3245 163.611 57.6551C163.83 55.143 164.145 52.8242 164.145 52.8242C164.29 54.4823 164.581 56.1244 165.014 57.7314C165.894 57.7873 166.759 57.8178 167.587 57.8585C167.547 53.9429 168.457 47.1592 168.457 47.1592C168.785 50.9113 169.726 54.5842 171.244 58.0314C175.312 58.1992 178.038 58.2348 177.854 58.0314C171.925 50.6935 176.614 46.7728 175.083 40.4519C173.247 32.8749 166.83 31.446 167.232 25.8218C167.547 21.2451 168.427 12.9563 162.706 10.9629C161.197 9.3728 159.253 8.26245 157.117 7.77047C154.981 7.27849 152.747 7.42667 150.694 8.19652C141.419 11.3595 144.511 25.6235 143.779 28.4712C142.762 32.5393 140.727 33.9174 139.1 38.5449C137.473 43.1725 139.471 46.4524 139.609 49.6713C139.746 52.8903 135.591 56.0227 136.619 56.0685Z" fill="#263238"/>
    <path d="M178.119 57.0244C177.32 55.7609 176.702 54.3915 176.283 52.9563C175.866 51.5426 176.12 50.1238 176.461 48.6542C176.846 47.1727 177.153 45.6723 177.382 44.1589C177.608 42.5783 177.514 40.9684 177.107 39.4246C176.663 37.8801 175.87 36.4586 174.788 35.27C173.742 34.1387 172.604 33.0961 171.386 32.1528C170.206 31.2488 169.149 30.194 168.243 29.0152C167.378 27.7919 166.863 26.3553 166.753 24.8606C166.635 26.4141 166.99 27.967 167.771 29.3152C168.593 30.6301 169.61 31.813 170.786 32.824C171.904 33.8112 172.959 34.8676 173.944 35.987C174.871 37.0823 175.553 38.3638 175.942 39.7449C176.297 41.1431 176.389 42.5951 176.212 44.0267C176.075 45.4912 175.744 46.9558 175.495 48.4661C175.355 49.2351 175.276 50.0137 175.256 50.7951C175.26 51.5976 175.406 52.3931 175.688 53.1444C176.266 54.5697 177.088 55.8829 178.119 57.0244Z" fill="#263238"/>
    <path d="M145.35 13.2563C144.651 14.9998 144.166 16.8218 143.906 18.6822C143.601 20.5333 143.397 22.3944 143.199 24.2454L142.899 27.0118C142.816 27.9043 142.645 28.7866 142.39 29.6459C141.882 31.3444 140.865 32.8038 139.716 34.2887C139.134 35.049 138.604 35.8475 138.129 36.6787C137.657 37.5329 137.282 38.4368 137.01 39.3739C136.772 40.3077 136.602 41.2578 136.502 42.2165C136.399 43.1828 136.416 44.158 136.553 45.1201C136.685 46.0812 136.919 46.9915 137.112 47.8865C137.308 48.7757 137.419 49.6816 137.443 50.5918C137.435 51.5026 137.212 52.3987 136.79 53.206C136.368 54.0133 135.76 54.7086 135.017 55.2346C135.861 54.7716 136.577 54.1066 137.102 53.2991C137.626 52.4915 137.943 51.5666 138.022 50.6071C138.073 49.6522 138.027 48.6947 137.885 47.7492C137.758 46.8084 137.559 45.9084 137.488 45.0134C137.373 43.2188 137.585 41.4182 138.114 39.6993C138.379 38.8514 138.732 38.0334 139.166 37.2584C139.624 36.4761 140.134 35.7252 140.692 35.0108C141.271 34.256 141.811 33.4718 142.309 32.6614C142.813 31.8203 143.211 30.9202 143.494 29.9815C143.742 29.046 143.9 28.0891 143.967 27.1237C144.053 26.1829 144.104 25.2523 144.155 24.3217C144.262 22.4605 144.348 20.6044 144.506 18.7585C144.598 16.9004 144.881 15.0566 145.35 13.2563Z" fill="#263238"/>
    <path d="M2.22219 113.999C3.80877 114.604 49.8348 116.658 51.635 115.631C51.8333 115.514 51.7774 113.48 52.4537 108.227C52.4893 107.978 53.5419 107.002 55.1793 105.629C61.3324 100.467 75.7998 89.59 75.7998 89.59L52.83 69.6357L30.567 91.5021L24.7801 97.1924C24.7801 97.1924 5.96489 106.132 4.11388 107.475C2.26287 108.817 0.645782 113.389 2.22219 113.999Z" fill="#DD6A57"/>
    <path d="M2.22227 113.999C3.80885 114.604 49.8349 116.658 51.6401 115.631C51.8334 115.514 51.7825 113.48 52.4589 108.227C45.8735 109.244 10.7603 111.05 9.56019 106.915C9.08218 105.288 14.2996 102.339 15.2404 101.8C10.2772 104.21 5.06997 106.808 4.10887 107.48C2.26294 108.827 0.645859 113.389 2.22227 113.999Z" fill="#263238"/>
    <path d="M38.6881 81.3011L42.2477 85.3438L59.9187 105.522C59.9187 105.522 84.2412 87.8406 91.3859 82.0028C91.6147 81.8096 119.71 101.688 140.255 105.522C156.019 108.466 166.698 102.522 172.886 87.8356L146.855 76.3176C125.04 65.5624 100.458 48.4457 85.5939 50.2458C69.4484 52.2036 38.6881 81.3011 38.6881 81.3011Z" fill="#37474F"/>
    <path d="M44.2463 79.8265C47.8771 83.7523 46.8855 82.5776 50.4705 86.544C52.23 88.4866 61.0732 98.24 62.4055 100.299C62.436 100.345 62.375 100.401 62.3292 100.371C60.4222 98.7943 51.7876 88.873 50.0688 86.9C46.5549 82.8725 47.6076 83.9913 44.1344 79.9282C44.1239 79.913 44.1193 79.8945 44.1214 79.8762C44.1235 79.8578 44.1322 79.8408 44.1459 79.8284C44.1595 79.816 44.1772 79.809 44.1957 79.8086C44.2142 79.8083 44.2321 79.8146 44.2463 79.8265Z" fill="#263238"/>
    <path d="M45.0445 88.5526L59.9035 105.527C59.9035 105.527 84.2412 87.8407 91.3859 82.0029C91.6147 81.8096 119.71 101.688 140.249 105.527C156.014 108.466 166.718 102.522 172.886 87.8356L146.855 76.3126C143.967 74.8887 141.033 73.3581 138.073 71.7715C115.215 75.9363 65.1209 84.9472 45.0445 88.5526Z" fill="#263238"/>
    <path d="M6.01064 122.547C7.59214 123.157 53.6233 125.207 55.4234 124.18C55.6218 124.063 55.5658 122.034 56.2421 116.776C56.2777 116.526 57.3253 115.55 58.9678 114.177C65.1209 109.016 79.5883 98.1434 79.5883 98.1434L56.6185 78.179L34.3555 100.045L28.5686 105.731C28.5686 105.731 9.75336 114.67 7.89726 116.013C6.04117 117.355 4.42406 121.937 6.01064 122.547Z" fill="#DD6A57"/>
    <path d="M6.00565 122.547C7.59222 123.152 53.6234 125.212 55.4235 124.179C55.6218 124.062 55.5659 122.033 56.2473 116.78C49.662 117.772 14.5488 119.603 13.3436 115.463C12.8656 113.841 18.088 110.887 19.0288 110.348C14.0657 112.758 8.85844 115.357 7.89734 116.033C6.05141 117.38 4.42415 121.937 6.00565 122.547Z" fill="#263238"/>
    <path d="M20.2391 109.875C22.1104 108.858 23.9716 107.841 25.8734 106.925C26.7763 106.53 27.6173 106.006 28.3703 105.369C29.1483 104.662 29.8958 103.905 30.6433 103.178C33.7301 100.233 36.8066 97.2737 39.9187 94.3497C41.6019 92.7682 43.2648 91.1715 44.9327 89.5747C44.9734 89.534 45.0446 89.5747 45.009 89.6357C44.9073 89.7934 42.1003 92.7937 40.7527 94.1514C39.2272 95.677 37.7016 97.1771 36.176 98.6772L31.5994 103.152C30.8315 103.905 30.0738 104.647 29.2856 105.39C28.6027 106.074 27.8104 106.639 26.9413 107.063C24.7598 108.08 22.5426 109.041 20.3306 109.992C20.2238 110.022 20.1628 109.915 20.2391 109.875Z" fill="#263238"/>
    <path d="M177.102 83.2642C177.102 83.2642 180.478 101.749 170.817 109.646C163.88 115.347 154.727 115.906 146.83 114.792C124.963 111.685 106.443 85.2983 99.1713 83.8694C95.4439 83.1473 66.1176 112.153 66.1176 112.153L43.3309 90.0987C49.128 85.0644 83.6869 50.124 101.129 50.124C113.069 50.124 143.336 74.9296 144.074 74.6397C145.263 74.1617 150.562 71.6191 150.562 71.6191L177.102 83.2642Z" fill="#37474F"/>
    <path d="M47.9381 87.7492C50.7909 90.1494 53.4556 92.7683 56.1507 95.3211C58.8459 97.8738 61.5003 100.432 64.1294 103.03C65.6244 104.505 67.1093 105.985 68.5433 107.505C68.584 107.541 68.5433 107.597 68.4874 107.561C65.6702 105.12 62.97 102.557 60.2697 99.9943C57.5695 97.4314 54.9201 94.9092 52.2809 92.2954C50.7859 90.8308 49.2755 89.3612 47.8619 87.8255C47.8161 87.7746 47.8873 87.7085 47.9381 87.7492Z" fill="#263238"/>
    <path d="M159.009 80.4163C159.05 80.3146 159.202 80.3858 159.177 80.4824C158.523 83.2551 158.865 86.1694 160.143 88.7153C161.623 91.5376 164.308 93.5615 166.693 95.5702C166.921 95.7685 166.632 96.1295 166.377 95.9821C164.831 95.0771 163.389 94.0063 162.075 92.7886C160.859 91.7155 159.874 90.4057 159.182 88.9391C158.562 87.6084 158.227 86.1633 158.197 84.6959C158.168 83.2285 158.444 81.7709 159.009 80.4163Z" fill="#263238"/>
    <path d="M143.646 76.4856C144.318 75.9771 145.03 75.5347 145.716 75.0567C147.343 73.9328 148.981 72.809 150.654 71.7513C150.811 71.6547 151 71.9038 150.847 72.0208C149.667 72.9158 148.452 73.7599 147.247 74.6142C146.626 75.0567 146.011 75.494 145.386 75.9262C144.761 76.2976 144.175 76.7303 143.636 77.2179C143.128 77.7518 143.418 78.4129 144.053 78.657C144.625 78.832 145.242 78.7811 145.777 78.5146C147.003 78.0061 148.111 77.1213 149.215 76.4042C149.893 75.9601 150.571 75.5228 151.249 75.0923C151.976 74.6346 152.729 74.2227 153.451 73.765C153.496 73.7345 153.552 73.8108 153.507 73.8464C152.84 74.3549 152.2 74.9499 151.529 75.4838C150.857 76.0178 150.181 76.5415 149.494 77.0602C148.808 77.5789 148.188 78.0213 147.521 78.479C146.954 78.8889 146.324 79.2032 145.655 79.4096C144.572 79.6994 142.924 79.374 142.757 78.0315C142.754 77.7179 142.835 77.4092 142.991 77.1374C143.148 76.8656 143.374 76.6406 143.646 76.4856Z" fill="#263238"/>
    <path d="M44.8361 88.3492C46.2752 86.8694 47.7906 85.4608 49.2908 84.0472C50.7909 82.6335 52.2808 81.2452 53.7962 79.8671C56.8473 77.0957 59.9239 74.3548 63.0716 71.7003C66.2194 69.0458 69.4637 66.488 72.7843 64.0471C76.105 61.6062 79.4408 59.3382 82.9547 57.2584C84.7091 56.2159 86.5143 55.2243 88.3298 54.2886C90.1104 53.3475 91.9385 52.4989 93.8065 51.746C94.315 51.5579 94.8236 51.3697 95.3321 51.1612C95.4084 51.1307 95.4745 51.2426 95.3982 51.2731C94.4625 51.6952 93.5624 52.1935 92.6471 52.6512C91.7318 53.1089 90.852 53.5716 89.9621 54.0394C88.1721 54.9904 86.4025 55.982 84.6532 57.0194C81.1478 59.1043 77.7322 61.335 74.4065 63.7115C71.0757 66.0913 67.8466 68.6034 64.6989 71.2121C61.5512 73.8208 58.3983 76.5211 55.3269 79.2671C52.2554 82.0131 49.2501 84.7692 46.1735 87.5C45.7871 87.8407 45.4006 88.1814 45.004 88.517C44.9805 88.5275 44.9544 88.5305 44.9291 88.5259C44.9038 88.5212 44.8806 88.5089 44.8624 88.4908C44.8442 88.4726 44.832 88.4493 44.8273 88.4241C44.8226 88.3988 44.8257 88.3727 44.8361 88.3492Z" fill="#263238"/>
    <path d="M67.2923 104.566C74.3149 97.8839 93.3335 80.8638 97.6407 78.0161C98.0747 77.733 98.5621 77.5418 99.0729 77.4543C99.5837 77.3669 100.107 77.385 100.61 77.5075C101.719 77.7821 102.609 78.6059 103.484 79.2975L106.611 81.774L113.034 86.8592C117.046 90.0476 121.033 93.2665 125.085 96.399C128.664 99.2522 132.453 101.831 136.42 104.113C144.048 108.354 153.71 111.065 162.106 107.403C165.93 105.699 169.003 102.66 170.75 98.8552C172.566 95.0667 173.334 90.8562 173.802 86.7117C173.913 85.6947 174.005 84.7031 174.086 83.6962C174.084 83.6901 174.083 83.6835 174.084 83.6769C174.085 83.6704 174.087 83.6642 174.091 83.6588C174.095 83.6534 174.1 83.649 174.106 83.646C174.111 83.643 174.118 83.6414 174.124 83.6414C174.131 83.6414 174.138 83.643 174.143 83.646C174.149 83.649 174.154 83.6534 174.158 83.6588C174.162 83.6642 174.164 83.6704 174.165 83.6769C174.166 83.6835 174.165 83.6901 174.163 83.6962C173.771 91.5122 172.535 100.579 165.92 105.72C158.887 111.182 148.996 110.231 141.226 107.042C132.515 103.483 125.213 97.2177 117.92 91.4206L105.172 81.2909C104.155 80.4722 103.138 79.6179 102.075 78.8348C101.012 78.0517 99.7663 77.4669 98.5509 78.1737C94.5235 80.518 68.411 103.895 67.4855 104.708C67.3431 104.83 67.1804 104.668 67.2923 104.566Z" fill="#263238"/>
    <path d="M153.425 43.5488C148.742 46.3914 125.086 59.44 117.361 55.5346C107.999 50.7952 98.1137 41.6469 94.7778 36.1396C92.9115 33.0529 108.355 24.1996 110.384 26.7575C113.578 30.8256 121.872 38.3212 123.377 39.4704C124.882 40.6197 141.216 37.1109 150.354 36.4905C158.587 35.9159 156.726 41.5655 153.425 43.5488Z" fill="#DD6A57"/>
    <path d="M89.4027 28.8524C90.8062 32.3815 96.5219 38.4736 98.4492 39.4144C100.377 40.3551 111.071 31.0085 110.933 28.8016C110.796 26.5946 105.146 15.0716 101.78 13.1595C98.4136 11.2475 87.9432 25.1758 89.4027 28.8524Z" fill="#DD6A57"/>
    <path d="M110.318 26.6507C110.318 26.6507 110.262 21.7079 111.671 17.5889C112.851 14.1208 115.002 9.11188 113.161 8.40503C109.387 6.95576 104.033 19.4552 104.033 19.4552C104.033 19.4552 102.558 25.3489 106.169 27.1135C106.836 27.4263 107.576 27.5486 108.309 27.467C109.041 27.3853 109.736 27.1028 110.318 26.6507Z" fill="#DD6A57"/>
    <path d="M106.367 17.1261C106.036 19.1144 103.885 17.5889 103.885 17.5889C103.885 17.5889 106.453 20.5281 105.324 22.4452C104.226 24.2861 101.694 22.3537 101.511 22.2164C101.643 22.374 103.931 25.1404 102.599 26.9456C101.266 28.7509 98.9985 26.4371 98.8561 26.2947C98.9374 26.4829 99.9596 28.9848 98.6323 30.1289C96.3491 32.0867 93.5471 25.7608 91.2537 24.9776C91.2537 24.9776 89.4739 28.7305 89.4027 28.8322C89.4027 28.8322 86.6262 22.8673 87.8772 19.8111C88.05 19.3649 88.3701 18.991 88.7844 18.7515C89.1987 18.512 89.6824 18.4212 90.1553 18.494C90.1553 18.494 89.0468 16.6684 90.0536 15.209C90.5621 14.4666 92.2301 14.6293 92.2301 14.6293C92.2301 14.6293 91.4012 13.1342 92.3776 11.8934C93.1556 10.8764 94.6913 11.2222 94.6913 11.2222C94.6913 11.2222 94.5693 9.41696 95.7084 8.67961C97.9306 7.12863 107.074 12.8749 106.367 17.1261Z" fill="#DD6A57"/>
    <path d="M94.9253 11.2323C94.9185 11.2323 94.9121 11.2296 94.9073 11.2248C94.9025 11.22 94.8998 11.2136 94.8998 11.2068C94.8998 11.2001 94.9025 11.1936 94.9073 11.1888C94.9121 11.1841 94.9185 11.1814 94.9253 11.1814C98.5425 12.3695 101.712 14.631 104.012 17.665C104.084 17.7667 103.957 17.9244 103.855 17.8277C101.213 15.2092 98.2049 12.9876 94.9253 11.2323Z" fill="#263238"/>
    <path d="M92.1792 14.5836C92.1436 14.5836 92.1792 14.5023 92.2148 14.5175C95.7744 15.7278 99.6036 18.4586 101.668 22.1962C101.739 22.3233 101.668 22.5115 101.582 22.3691C100.015 19.9892 95.2761 16.1804 92.1792 14.5836Z" fill="#263238"/>
    <path d="M98.912 26.6049C96.7915 23.0962 93.7607 20.6248 90.2672 18.5347C90.2214 18.5042 90.2672 18.4432 90.3079 18.4585C92.286 19.0178 94.376 20.5841 95.8761 21.9367C97.3031 23.1627 98.3847 24.7404 99.0137 26.5134C99.0595 26.5998 98.9527 26.6761 98.912 26.6049Z" fill="#263238"/>
    <path d="M103.957 17.5889C104.038 17.7058 103.773 17.7007 103.855 17.8177C104.196 18.3262 105.97 21.5451 105.06 22.491C104.333 23.2487 102.807 22.791 102.294 22.3893L100.992 21.3722L101.856 22.7808C102.25 23.4074 102.537 24.0947 102.706 24.8149C102.803 25.1411 102.83 25.4841 102.785 25.8215C102.74 26.1589 102.625 26.4831 102.446 26.7727C102.279 27.0354 102.027 27.2334 101.732 27.3341C101.438 27.4349 101.117 27.4323 100.824 27.327C100.164 27.0703 99.5809 26.6483 99.1307 26.1015L97.834 24.6369L98.5764 26.4371C98.7833 26.9373 98.9251 27.462 98.9985 27.9983C99.0936 28.5127 99.0334 29.0437 98.8256 29.5238C98.7244 29.7323 98.567 29.9085 98.3712 30.0324C98.1753 30.1564 97.9488 30.2233 97.717 30.2256C97.2012 30.1501 96.7167 29.9316 96.3186 29.595C95.4476 28.8718 94.6333 28.083 93.8828 27.2355C93.4861 26.8185 93.0946 26.4015 92.6776 25.9998C92.2847 25.5767 91.8063 25.2422 91.2741 25.0183C91.7718 25.2951 92.2106 25.6665 92.5657 26.1116C92.942 26.5388 93.3031 26.9812 93.6641 27.4236C94.3707 28.342 95.1605 29.1931 96.0237 29.9662C96.4864 30.3904 97.0623 30.6713 97.6814 30.7748C98.0252 30.7931 98.3669 30.711 98.6648 30.5385C98.9628 30.3661 99.2042 30.1107 99.3595 29.8035C99.6298 29.2265 99.7219 28.582 99.624 27.9525C99.5513 27.3524 99.4009 26.7644 99.1765 26.2032L98.6222 26.5388C99.1444 27.1947 99.8302 27.7016 100.61 28.0084C101.047 28.1687 101.527 28.1687 101.963 28.0084C102.388 27.8416 102.753 27.5511 103.011 27.1744C103.237 26.808 103.382 26.3979 103.438 25.971C103.495 25.5442 103.46 25.1103 103.336 24.698C103.136 23.9147 102.81 23.1693 102.37 22.491L101.938 22.8825C102.609 23.3911 104.257 24.0725 105.538 23.0402C106.987 21.4078 104.46 18.1737 103.957 17.5889Z" fill="#263238"/>
    <path d="M103.875 17.5888C104.255 17.7568 104.658 17.8665 105.07 17.9142C105.235 17.9389 105.402 17.9188 105.556 17.8562C105.71 17.7936 105.844 17.6906 105.945 17.5583C106.122 17.2348 106.204 16.8685 106.184 16.5005C106.184 16.0937 106.148 15.6717 106.103 15.2292C106.356 15.5997 106.529 16.0188 106.611 16.4599C106.67 16.6999 106.681 16.9493 106.644 17.1936C106.606 17.438 106.521 17.6725 106.392 17.8837C106.227 18.1014 106 18.2644 105.741 18.3516C105.494 18.4202 105.232 18.4202 104.984 18.3516C104.543 18.2201 104.155 17.9532 103.875 17.5888Z" fill="#263238"/>
    <path d="M125.157 39.1754L131.259 54.8378C131.259 54.8378 145.574 49.4373 152.459 45.0945C159.344 40.7518 159.848 36.2412 149.662 36.2412C143.214 36.2412 125.157 39.1754 125.157 39.1754Z" fill="#23CE6B"/>
    <path d="M156.548 39.3177L156.919 39.7754L156.888 40.3653L157.341 40.1924C157.508 39.7329 157.522 39.2317 157.382 38.7634L157.117 39.1702L156.548 39.3177Z" fill="#23CE6B"/>
    <path d="M146.692 39.3179L147.064 39.7756L147.033 40.3655L147.587 40.157L148.137 40.3655L148.106 39.7756L148.477 39.3179L147.908 39.1705L147.587 38.6721L147.262 39.1705L146.692 39.3179Z" fill="#23CE6B"/>
    <path d="M141.77 46.4422L142.141 46.8999L142.111 47.4897L142.66 47.2813L143.209 47.4897L143.179 46.8999L143.55 46.4422L142.98 46.2947L142.66 45.7964L142.34 46.2947L141.77 46.4422Z" fill="#23CE6B"/>
    <path d="M136.842 39.3179L137.214 39.7756L137.183 40.3655L137.732 40.157L138.282 40.3655L138.251 39.7756L138.622 39.3179L138.053 39.1705L137.732 38.6721L137.412 39.1705L136.842 39.3179Z" fill="#23CE6B"/>
    <path d="M131.915 46.4422L132.286 46.8999L132.256 47.4897L132.805 47.2813L133.359 47.4897L133.323 46.8999L133.695 46.4422L133.125 46.2947L132.805 45.7964L132.484 46.2947L131.915 46.4422Z" fill="#23CE6B"/>
    <path d="M127.364 39.7755L127.328 40.3654L127.882 40.1569L128.432 40.3654L128.401 39.7755L128.772 39.3179L128.203 39.1704L127.933 38.7534H127.816L127.557 39.1551L126.987 39.3026L127.364 39.7755Z" fill="#23CE6B"/>
    <g opacity="0.2">
        <path opacity="0.2" d="M156.919 39.7751L156.888 40.365L157.341 40.1921C157.506 39.7304 157.52 39.2283 157.382 38.7581L157.117 39.1649L156.548 39.3123L156.919 39.7751Z" fill="black"/>
        <path opacity="0.2" d="M147.064 39.7756L147.033 40.3655L147.588 40.157L148.137 40.3655L148.106 39.7756L148.477 39.3179L147.908 39.1705L147.588 38.6721L147.262 39.1705L146.693 39.3179L147.064 39.7756Z" fill="black"/>
        <path opacity="0.2" d="M137.214 39.7756L137.183 40.3655L137.732 40.157L138.282 40.3655L138.251 39.7756L138.622 39.3179L138.053 39.1705L137.732 38.6721L137.412 39.1705L136.842 39.3179L137.214 39.7756Z" fill="black"/>
        <path opacity="0.2" d="M127.364 39.7755L127.328 40.3654L127.882 40.1569L128.432 40.3654L128.401 39.7755L128.772 39.3179L128.203 39.1704L127.933 38.7534H127.832L127.572 39.1551L127.003 39.3026L127.364 39.7755Z" fill="black"/>
        <path opacity="0.2" d="M142.141 46.8999L142.111 47.4897L142.66 47.2813L143.209 47.4897L143.179 46.8999L143.55 46.4422L142.98 46.2947L142.66 45.7964L142.34 46.2947L141.77 46.4422L142.141 46.8999Z" fill="black"/>
        <path opacity="0.2" d="M132.286 46.8999L132.256 47.4897L132.805 47.2813L133.359 47.4897L133.324 46.8999L133.695 46.4422L133.125 46.2947L132.805 45.7964L132.485 46.2947L131.915 46.4422L132.286 46.8999Z" fill="black"/>
    </g>
    <path d="M133.796 52.6614C132.779 50.551 131.925 48.3339 131.091 46.1371C130.257 43.9403 129.494 41.7587 128.838 39.5263C128.838 39.4856 128.894 39.4551 128.91 39.5009C129.835 41.6621 130.684 43.8589 131.508 46.0608C132.332 48.2627 133.181 50.4137 133.878 52.6359C133.878 52.6817 133.817 52.7071 133.796 52.6614Z" fill="#263238"/>
    <path opacity="0.1" d="M129.54 50.3934L131.279 54.8379C131.279 54.8379 145.574 49.4374 152.459 45.0946C156.883 42.2927 158.673 39.4247 156.654 37.7415L129.54 50.3934Z" fill="black"/>
    <path d="M141.363 67.4237L139.909 72.7479C139.909 72.7479 178.556 102.267 180.311 101.322C180.311 101.322 174.585 49.7527 164.684 39.5162C159.731 34.3954 154.076 34.9395 150.557 38.6721C149.642 39.623 139.98 51.7359 138.963 57.2737C138.088 62.1555 141.363 67.4237 141.363 67.4237Z" fill="#23CE6B"/>
    <path d="M142.08 50.3171C142.67 49.2288 143.296 48.1762 143.967 47.1338C144.123 46.7432 144.303 46.3628 144.506 45.9947C144.78 45.4506 145.05 44.9115 145.289 44.3522C145.289 44.3458 145.292 44.3396 145.295 44.3342C145.298 44.3288 145.303 44.3243 145.309 44.321C145.314 44.3177 145.32 44.3158 145.327 44.3154C145.333 44.3149 145.34 44.316 145.345 44.3186C145.351 44.3211 145.357 44.325 145.361 44.3299C145.365 44.3348 145.368 44.3406 145.369 44.3469C145.37 44.3531 145.37 44.3596 145.369 44.3659C145.367 44.3721 145.364 44.3778 145.36 44.3827C145.106 44.937 144.852 45.4963 144.658 46.0608C144.644 46.0904 144.632 46.121 144.623 46.1523C144.872 45.8014 145.131 45.4506 145.38 45.1048C145.767 44.5486 146.181 44.0123 146.621 43.4978C146.647 43.4724 146.682 43.4978 146.667 43.5334C146.342 44.1182 145.935 44.6624 145.574 45.2217C145.213 45.7811 144.826 46.3913 144.445 46.9659C143.687 48.105 142.919 49.2289 142.146 50.3578C142.145 50.364 142.142 50.3697 142.137 50.3745C142.133 50.3793 142.128 50.3831 142.122 50.3855C142.116 50.3879 142.11 50.3889 142.103 50.3884C142.097 50.3878 142.091 50.3858 142.085 50.3825C142.08 50.3791 142.075 50.3745 142.072 50.3691C142.069 50.3636 142.067 50.3575 142.066 50.3511C142.066 50.3448 142.067 50.3384 142.069 50.3324C142.072 50.3265 142.075 50.3213 142.08 50.3171Z" fill="#263238"/>
    <g opacity="0.2">
        <path opacity="0.2" d="M157.437 38.6721L157.117 39.1654L156.548 39.3179L156.919 39.7807L156.888 40.3655L157.437 40.157L157.987 40.3655L157.956 39.7807L158.327 39.3179L157.758 39.1654L157.437 38.6721Z" fill="black"/>
        <path opacity="0.2" d="M167.292 52.7124L166.967 53.2107L166.397 53.3633L166.774 53.821L166.738 54.4058L167.292 54.1973L167.842 54.4058L167.811 53.821L168.182 53.3633L167.613 53.2107L167.292 52.7124Z" fill="black"/>
        <path opacity="0.2" d="M157.437 52.7124L157.117 53.2107L156.548 53.3633L156.919 53.821L156.888 54.4058L157.437 54.1973L157.987 54.4058L157.956 53.821L158.327 53.3633L157.758 53.2107L157.437 52.7124Z" fill="black"/>
        <path opacity="0.2" d="M147.587 52.7124L147.262 53.2107L146.692 53.3633L147.069 53.821L147.033 54.4058L147.587 54.1973L148.137 54.4058L148.106 53.821L148.477 53.3633L147.908 53.2107L147.587 52.7124Z" fill="black"/>
        <path opacity="0.2" d="M162.365 45.7964L162.045 46.2947L161.475 46.4422L161.846 46.905L161.816 47.4897L162.365 47.2813L162.914 47.4897L162.884 46.905L163.255 46.4422L162.685 46.2947L162.365 45.7964Z" fill="black"/>
        <path opacity="0.2" d="M152.51 45.7964L152.189 46.2947L151.62 46.4422L151.991 46.905L151.961 47.4897L152.51 47.2813L153.064 47.4897L153.028 46.905L153.405 46.4422L152.83 46.2947L152.51 45.7964Z" fill="black"/>
        <path opacity="0.2" d="M167.292 66.7576L166.967 67.2508L166.397 67.4034L166.774 67.861L166.738 68.4509L167.292 68.2374L167.842 68.4509L167.811 67.861L168.182 67.4034L167.613 67.2508L167.292 66.7576Z" fill="black"/>
        <path opacity="0.2" d="M157.437 66.7576L157.117 67.2508L156.548 67.4034L156.919 67.861L156.888 68.4509L157.437 68.2374L157.987 68.4509L157.956 67.861L158.327 67.4034L157.758 67.2508L157.437 66.7576Z" fill="black"/>
        <path opacity="0.2" d="M147.587 66.7576L147.262 67.2508L146.692 67.4034L147.069 67.861L147.033 68.4509L147.587 68.2374L148.137 68.4509L148.106 67.861L148.477 67.4034L147.908 67.2508L147.587 66.7576Z" fill="black"/>
        <path opacity="0.2" d="M172.215 59.8367L171.895 60.335L171.325 60.4876L171.696 60.9452L171.666 61.53L172.215 61.3216L172.764 61.53L172.734 60.9452L173.105 60.4876L172.535 60.335L172.215 59.8367Z" fill="black"/>
        <path opacity="0.2" d="M162.365 59.8367L162.045 60.335L161.475 60.4876L161.846 60.9452L161.816 61.53L162.365 61.3216L162.914 61.53L162.884 60.9452L163.255 60.4876L162.685 60.335L162.365 59.8367Z" fill="black"/>
        <path opacity="0.2" d="M152.51 59.8367L152.189 60.335L151.62 60.4876L151.991 60.9452L151.961 61.53L152.51 61.3216L153.064 61.53L153.028 60.9452L153.405 60.4876L152.83 60.335L152.51 59.8367Z" fill="black"/>
        <path opacity="0.2" d="M142.66 59.8367L142.34 60.335L141.77 60.4876L142.141 60.9452L142.111 61.53L142.66 61.3216L143.209 61.53L143.179 60.9452L143.55 60.4876L142.98 60.335L142.66 59.8367Z" fill="black"/>
        <path opacity="0.2" d="M176.624 81.9015L176.593 82.4913L177.143 82.2778L177.651 82.4761C177.59 82.0845 177.524 81.6879 177.458 81.2912L177.143 80.7827L176.822 81.2912L176.253 81.4438L176.624 81.9015Z" fill="black"/>
        <path opacity="0.2" d="M167.292 80.7979L166.967 81.2911L166.397 81.4437L166.774 81.9013L166.738 82.4912L167.292 82.2776L167.842 82.4912L167.811 81.9013L168.182 81.4437L167.613 81.2911L167.292 80.7979Z" fill="black"/>
        <path opacity="0.2" d="M157.437 80.7979L157.117 81.2911L156.548 81.4437L156.919 81.9013L156.888 82.4912L157.437 82.2776L157.987 82.4912L157.956 81.9013L158.327 81.4437L157.758 81.2911L157.437 80.7979Z" fill="black"/>
        <path opacity="0.2" d="M172.215 73.8818L171.895 74.3751L171.325 74.5277L171.696 74.9853L171.666 75.5752L172.215 75.3616L172.764 75.5752L172.734 74.9853L173.105 74.5277L172.535 74.3751L172.215 73.8818Z" fill="black"/>
        <path opacity="0.2" d="M162.365 73.8818L162.045 74.3751L161.475 74.5277L161.846 74.9853L161.816 75.5752L162.365 75.3616L162.914 75.5752L162.884 74.9853L163.255 74.5277L162.685 74.3751L162.365 73.8818Z" fill="black"/>
        <path opacity="0.2" d="M152.51 73.8818L152.189 74.3751L151.62 74.5277L151.991 74.9853L151.961 75.5752L152.51 75.3616L153.064 75.5752L153.028 74.9853L153.405 74.5277L152.83 74.3751L152.51 73.8818Z" fill="black"/>
        <path opacity="0.2" d="M143.194 75.2397V74.9854L143.565 74.5278L142.996 74.3752L142.675 73.8667L142.355 74.3752L142.136 74.4312L143.194 75.2397Z" fill="black"/>
        <path opacity="0.2" d="M177.143 94.8379L176.822 95.3312L176.253 95.4837L176.624 95.9414L176.593 96.5313L177.143 96.3177L177.692 96.5313L177.661 95.9414L178.032 95.4837L177.463 95.3312L177.143 94.8379Z" fill="black"/>
        <path opacity="0.2" d="M172.215 87.9221L171.895 88.4154L171.325 88.5679L171.696 89.0256L171.666 89.6155L172.215 89.4019L172.764 89.6155L172.734 89.0256L173.105 88.5679L172.535 88.4154L172.215 87.9221Z" fill="black"/>
        <path opacity="0.2" d="M161.846 89.0257V89.1376L162.263 89.4427L162.37 89.402L162.919 89.6156L162.889 89.0257L163.26 88.5681L162.69 88.4155L162.37 87.907L162.05 88.4155L161.48 88.5681L161.846 89.0257Z" fill="black"/>
    </g>
    <path d="M165.406 40.5027C179.039 54.6954 198.917 90.6325 201.373 95.7838C203.041 99.2824 184.755 108.497 183.977 105.954C182.96 102.7 167.054 62.4809 162.823 47.3067C160.478 38.9415 162.584 37.5736 165.406 40.5027Z" fill="#DD6A57"/>
    <path d="M183.108 103.559C183.743 105.298 185.915 112.712 187.435 113.623C188.956 114.533 196.934 114.345 200.941 114.345C204.948 114.345 205.747 113.226 205.681 111.843C205.615 110.46 197.188 110.215 197.188 110.215C197.188 110.215 208.442 113.445 211.274 113.968C214.107 114.492 220.631 116.145 221.572 113.795C221.999 112.738 220.214 111.665 220.214 111.665C220.214 111.665 222.95 112.463 223.387 111.105C223.896 109.58 221.704 108.7 221.704 108.7C221.704 108.7 223.418 109.046 223.453 107.785C223.545 104.962 212.836 103.579 212.836 103.579C212.836 103.579 221.033 107.566 221.297 105.268C221.663 102.079 204.862 98.5856 203.113 97.1974C201.97 96.2289 201.019 95.0541 200.311 93.7344L183.108 103.559Z" fill="#DD6A57"/>
    <path d="M205.62 112.545C205.648 112.347 205.628 112.146 205.561 111.959C205.495 111.771 205.384 111.602 205.238 111.466C204.951 111.201 204.621 110.986 204.262 110.831C203.518 110.514 202.747 110.266 201.958 110.088C200.377 109.682 198.755 109.402 197.138 108.98C198.807 108.957 200.473 109.145 202.096 109.539C202.924 109.73 203.721 110.035 204.465 110.444C204.848 110.659 205.183 110.948 205.452 111.294C205.585 111.47 205.67 111.678 205.7 111.897C205.729 112.116 205.702 112.339 205.62 112.545Z" fill="#263238"/>
    <path d="M220.214 111.645C219.055 111.36 217.916 111.034 216.771 110.704C215.627 110.373 214.503 110.027 213.364 109.687L209.978 108.624C208.844 108.268 207.715 107.917 206.576 107.576C207.759 107.702 208.933 107.904 210.089 108.182C211.254 108.446 212.393 108.782 213.532 109.127C214.671 109.473 215.795 109.855 216.909 110.277C218.022 110.699 219.131 111.141 220.214 111.645Z" fill="#263238"/>
    <path d="M209.291 104.764C210.384 104.834 211.47 104.984 212.541 105.212C213.614 105.429 214.674 105.702 215.719 106.03C216.767 106.349 217.796 106.728 218.8 107.164C219.807 107.602 220.781 108.112 221.714 108.69C220.697 108.334 219.68 107.937 218.663 107.592C217.646 107.246 216.629 106.895 215.576 106.574C214.524 106.254 213.507 105.944 212.469 105.639C211.432 105.334 210.349 105.049 209.291 104.764Z" fill="#263238"/>
    <path d="M210.949 102.079C212.712 102.212 214.449 102.578 216.116 103.168C217.797 103.722 219.397 104.497 220.875 105.471C219.207 104.876 217.59 104.251 215.938 103.702C214.285 103.152 212.627 102.618 210.949 102.079Z" fill="#263238"/>
    <path d="M184.221 63.259L169.067 68.5577C169.067 68.5577 163.133 53.5971 161.826 45.5828C160.519 37.5686 162.035 35.8396 168.945 43.3098C175.856 50.7799 184.221 63.259 184.221 63.259Z" fill="#23CE6B"/>
    <g opacity="0.2">
        <path opacity="0.2" d="M176.624 53.8208L176.593 54.4056L177.143 54.1971L177.692 54.4056V54.0649C177.448 53.7344 177.183 53.3987 176.944 53.0479L176.843 53.2106L176.273 53.3631L176.624 53.8208Z" fill="black"/>
        <path opacity="0.2" d="M167.292 52.7122L166.967 53.2105L166.397 53.3631L166.774 53.8207L166.738 54.4055L167.292 54.197L167.842 54.4055L167.811 53.8207L168.182 53.3631L167.613 53.2105L167.292 52.7122Z" fill="black"/>
        <path opacity="0.2" d="M171.696 46.8999L171.666 47.4898L172.215 47.2813L172.474 47.3779L171.63 46.3608L171.325 46.4422L171.696 46.8999Z" fill="black"/>
        <path opacity="0.2" d="M161.943 46.3201C162.004 46.6557 162.075 47.0066 162.151 47.3372L162.365 47.2558L162.914 47.4643L162.884 46.8744L163.255 46.4167L162.685 46.2693L162.365 45.7607L162.045 46.2693L161.943 46.3201Z" fill="black"/>
        <path opacity="0.2" d="M181.551 60.9451L181.521 61.5299L182.07 61.3214L182.619 61.5299L182.589 60.9451V60.9197C182.385 60.6349 182.172 60.3247 181.943 59.9993L181.729 60.3349L181.16 60.4874L181.551 60.9451Z" fill="black"/>
        <path opacity="0.2" d="M172.215 59.8364L171.895 60.3348L171.325 60.4873L171.696 60.945L171.666 61.5298L172.215 61.3213L172.764 61.5298L172.734 60.945L173.105 60.4873L172.535 60.3348L172.215 59.8364Z" fill="black"/>
    </g>
    <path d="M162.98 53.897C163.617 54.9436 164.197 56.0232 164.719 57.1312C164.562 56.6227 164.404 56.0837 164.252 55.565C163.875 54.2784 163.489 52.9817 163.189 51.6748C163.191 51.6694 163.195 51.6647 163.2 51.6615C163.205 51.6582 163.211 51.6565 163.217 51.6565C163.223 51.6565 163.229 51.6582 163.233 51.6615C163.238 51.6647 163.242 51.6694 163.245 51.6748C164.069 53.8665 164.77 56.104 165.564 58.3161C166.357 60.5281 167.125 62.7249 167.893 64.9268C168.315 66.132 168.706 67.3423 169.077 68.5627L169.84 68.2932C169.891 68.2627 169.906 68.3491 169.84 68.3593L168.925 68.756C168.894 68.756 166.133 61.7435 165.03 58.1584C164.262 56.7854 163.56 55.3717 162.909 53.9428C162.906 53.9381 162.904 53.9329 162.903 53.9274C162.902 53.922 162.902 53.9164 162.903 53.9109C162.905 53.9055 162.907 53.9004 162.91 53.8958C162.913 53.8912 162.917 53.8873 162.922 53.8843C162.927 53.8813 162.932 53.8793 162.937 53.8783C162.943 53.8773 162.948 53.8774 162.954 53.8786C162.959 53.8797 162.964 53.882 162.969 53.8851C162.973 53.8883 162.977 53.8924 162.98 53.897Z" fill="#263238"/>
    <path d="M168.457 65.8881C170.583 64.871 172.81 64.0828 175.017 63.2794C177.224 62.4759 179.421 61.7538 181.663 61.1182C181.709 61.1182 181.73 61.1792 181.663 61.1944C179.487 62.0894 177.28 62.9031 175.053 63.6963C172.825 64.4896 170.679 65.3083 168.442 65.9694C168.435 65.9643 168.429 65.9574 168.426 65.9493C168.423 65.9413 168.422 65.9324 168.424 65.9239C168.425 65.9154 168.429 65.9075 168.435 65.9011C168.441 65.8948 168.449 65.8903 168.457 65.8881Z" fill="#263238"/>
    <path d="M157.87 35.9717C162.645 36.4497 161.368 41.2603 159.263 43.4622C157.86 44.9369 155.017 46.4217 153.385 45.8369C151.752 45.2521 153.039 41.601 153.039 41.601C153.039 41.601 150.349 44.2148 149.352 43.0859C148.355 41.9569 152.927 35.4632 157.87 35.9717Z" fill="#263238"/>
    <path d="M160.351 38.4687C160.082 39.1501 156.441 41.8961 153.232 41.2808C152.215 41.0774 152.673 36.6787 152.673 36.6787L152.637 36.2414L152.174 30.1392L159.802 26.6863L160.895 26.2439C160.895 26.2439 160.895 27.9271 160.895 30.0171V30.3171C160.895 30.4341 160.895 30.546 160.895 30.6578C160.895 30.968 160.895 31.2884 160.895 31.6088C160.895 31.8478 160.895 32.0868 160.895 32.341C160.895 32.5953 160.895 32.8496 160.895 33.0987C160.834 34.8988 160.652 36.6928 160.351 38.4687Z" fill="#DD6A57"/>
    <path d="M160.906 30.0069C160.066 31.5839 158.893 32.9587 157.467 34.0354C156.042 35.1122 154.399 35.865 152.652 36.2414L152.19 30.1392L159.817 26.6863L160.911 26.2439C160.911 26.2439 160.906 27.9169 160.906 30.0069Z" fill="#263238"/>
    <path d="M144.643 20.0703C142.701 30.6577 148.823 33.0121 151.106 33.4291C153.181 33.8054 160.285 34.8326 163.311 24.4995C166.337 14.1664 162.029 9.92534 157.336 8.81168C152.642 7.69803 146.591 9.48293 144.643 20.0703Z" fill="#DD6A57"/>
    <path d="M148.071 17.5584C148.325 17.5584 148.579 17.5178 148.813 17.4974C149.077 17.51 149.337 17.4368 149.555 17.2889C149.614 17.2284 149.651 17.1505 149.661 17.0669C149.671 16.9834 149.654 16.8989 149.611 16.8262C149.506 16.6937 149.367 16.5924 149.208 16.5333C149.049 16.4741 148.878 16.4594 148.711 16.4906C148.365 16.495 148.033 16.6293 147.781 16.8669C147.727 16.9249 147.691 16.9971 147.677 17.075C147.664 17.1529 147.672 17.233 147.703 17.3059C147.734 17.3789 147.785 17.4415 147.85 17.4862C147.915 17.531 147.992 17.5561 148.071 17.5584Z" fill="#263238"/>
    <path d="M155.348 18.8296C155.108 18.7612 154.872 18.6797 154.641 18.5855C154.382 18.5362 154.148 18.402 153.975 18.2041C153.931 18.1319 153.912 18.047 153.922 17.963C153.932 17.8791 153.971 17.801 154.03 17.7414C154.166 17.6397 154.326 17.5761 154.494 17.5574C154.662 17.5386 154.832 17.5652 154.986 17.6346C155.321 17.7273 155.609 17.9412 155.795 18.2346C155.834 18.3035 155.851 18.382 155.846 18.4607C155.841 18.5395 155.813 18.6149 155.765 18.678C155.718 18.741 155.653 18.7889 155.579 18.8159C155.505 18.8428 155.424 18.8476 155.348 18.8296Z" fill="#263238"/>
    <path d="M153.354 21.3875C153.354 21.3875 153.405 21.4281 153.4 21.4586C153.268 22.1807 153.242 23.03 153.863 23.3656C153.863 23.3656 153.863 23.4113 153.863 23.4063C153.064 23.1723 153.115 22.0485 153.354 21.3875Z" fill="#263238"/>
    <path d="M154.112 20.7163C155.292 20.8027 155.037 23.1521 153.944 23.0758C152.851 22.9995 153.125 20.6552 154.112 20.7163Z" fill="#263238"/>
    <path d="M154.564 20.8993C154.753 21.0569 154.931 21.3112 155.175 21.362C155.419 21.4129 155.683 21.1993 155.912 20.9857C155.912 20.9603 155.953 20.9857 155.953 21.0162C155.907 21.4688 155.683 21.9112 155.195 21.9265C154.707 21.9417 154.473 21.5044 154.412 21.0417C154.397 20.9552 154.483 20.8382 154.564 20.8993Z" fill="#263238"/>
    <path d="M149.133 20.5484C149.133 20.5179 149.072 20.5738 149.067 20.6043C149.016 21.3366 148.838 22.1655 148.152 22.3384V22.3841C148.986 22.3485 149.215 21.2247 149.133 20.5484Z" fill="#263238"/>
    <path d="M148.574 19.6991C147.41 19.4907 147.079 21.8349 148.157 22.0282C149.235 22.2214 149.55 19.8924 148.574 19.6991Z" fill="#263238"/>
    <path d="M148.065 19.8059C147.862 19.9025 147.643 20.1008 147.425 20.0856C147.206 20.0703 147.008 19.7856 146.881 19.5211C146.881 19.4906 146.845 19.5211 146.84 19.5211C146.764 19.9635 146.84 20.4517 147.267 20.5992C147.694 20.7467 147.989 20.3907 148.157 19.9585C148.193 19.8974 148.147 19.7652 148.065 19.8059Z" fill="#263238"/>
    <path d="M149.774 23.9555C149.774 23.9555 149.494 25.0234 149.433 25.537C149.433 25.5827 149.55 25.6234 149.723 25.6539C150.153 25.7886 150.612 25.8019 151.049 25.6925C151.486 25.583 151.884 25.355 152.2 25.0335C152.246 24.9878 152.2 24.9267 152.134 24.9522C151.425 25.3196 150.617 25.448 149.83 25.3183C149.83 25.1759 150.374 23.508 150.298 23.4927C149.894 23.476 149.49 23.5171 149.098 23.6148C149.606 21.3722 150.501 19.2313 150.984 17.004C150.984 16.9227 150.888 16.8871 150.857 16.9532C149.779 19.1347 149.118 21.7027 148.523 24.0012C148.457 24.2758 149.561 24.0165 149.774 23.9555Z" fill="#263238"/>
    <path d="M149.774 25.2929C149.986 25.7605 150.315 26.1653 150.73 26.4676C150.962 26.6221 151.235 26.7036 151.513 26.7015C152.123 26.7015 152.261 26.1574 152.261 25.6845C152.258 25.4307 152.225 25.1782 152.164 24.9319C151.426 25.3043 150.589 25.4309 149.774 25.2929Z" fill="#263238"/>
    <path d="M150.73 26.4827C150.962 26.6372 151.235 26.7187 151.513 26.7167C152.123 26.7167 152.261 26.1725 152.261 25.6996C151.955 25.6392 151.637 25.6836 151.36 25.8257C151.082 25.9678 150.86 26.1992 150.73 26.4827Z" fill="#FF9ABB"/>
    <path d="M162.553 23.9402C159.98 23.6504 159.827 15.6565 159.822 14.675C159.797 15.2954 159.639 18.5703 159.38 18.6822C159.103 18.6552 158.833 18.5812 158.582 18.4635C158.615 18.0726 158.615 17.6797 158.582 17.2888C158.582 17.1058 158.485 17.6753 158.332 18.3771L157.865 18.2042C157.958 17.3715 157.94 16.5299 157.809 15.7022C157.758 15.387 157.57 16.7701 157.178 17.9601C155.025 17.1497 152.789 16.5784 150.511 16.2565C149.871 16.1853 149.311 16.1497 148.818 16.1396C148.889 15.1734 149.077 14.1513 148.991 14.3699C148.752 14.9367 148.572 15.5262 148.452 16.1294H147.715C147.75 14.7615 148.564 12.6359 148.32 12.9562C147.594 13.9312 147.06 15.0358 146.748 16.2108C145.808 16.3176 145.533 16.4803 145.528 16.2362C145.528 15.7989 146.336 12.0257 149.52 9.45763C152.978 6.66078 159.471 6.40652 162.741 11.3442C162.741 11.3442 165.584 13.5207 165.792 16.6989C166.001 19.8772 164.043 24.103 162.553 23.9402Z" fill="#263238"/>
    <path d="M161.475 25.0081C161.475 25.0081 164.135 21.8858 165.543 22.8622C166.952 23.8385 164.765 28.522 162.919 29.0153C162.687 29.0946 162.441 29.1262 162.197 29.1081C161.952 29.0901 161.713 29.0228 161.495 28.9102C161.277 28.7976 161.084 28.6421 160.928 28.4531C160.772 28.264 160.655 28.0453 160.585 27.8101L161.475 25.0081Z" fill="#DD6A57"/>
    <path d="M164.897 24.1895V24.2352C163.601 24.6268 162.833 25.7201 162.258 26.8795C162.344 26.7625 162.454 26.6652 162.58 26.5941C162.706 26.5229 162.847 26.4797 162.991 26.4671C163.135 26.4546 163.281 26.4731 163.418 26.5215C163.554 26.5698 163.679 26.6468 163.784 26.7473C163.814 26.7473 163.784 26.8185 163.743 26.8083C163.53 26.7182 163.295 26.6963 163.069 26.7454C162.843 26.7946 162.638 26.9125 162.482 27.0829C162.219 27.3671 161.99 27.6812 161.801 28.0186C161.729 28.1254 161.536 28.0186 161.587 27.922V27.8915C161.724 26.31 163.179 24.1844 164.897 24.1895Z" fill="#263238"/>
</svg>
