<svg width="250" height="250" viewBox="0 0 250 250" fill="none" xmlns="http://www.w3.org/2000/svg">
<path d="M97.6012 211.199C49.7904 196.235 14.8742 159.409 0.387703 115.153C-4.17581 172.781 31.9078 227.755 89.5884 244.736C146.367 261.504 205.533 236.033 233.551 186.684C196.247 215.551 145.996 226.323 97.6012 211.199Z" fill="#5BC4F1"/>
<path d="M249.947 121.627C249.576 108.043 246.975 94.7237 242.412 82.2536L150.24 109.104L177.355 11.5191C171.678 8.91898 165.787 6.69034 159.632 4.93923C93.3549 -14.2169 24.0532 24.0423 4.95015 90.3724C2.5092 98.9158 0.970424 107.512 0.386719 116.002C15.1916 160.152 50.2669 196.766 98.1838 211.412C146.684 226.27 196.883 215.126 233.975 186.1C238.591 177.875 242.306 169.066 245.065 159.621C248.727 146.886 250.319 134.097 249.947 121.627Z" fill="#37A9E0"/>
<path d="M150.295 109.21L177.994 11.7846C172.37 9.13142 166.479 6.90268 160.324 5.0985C149.127 1.80853 137.825 0.163587 126.734 0.00439453C102.325 5.52306 81.6299 23.8302 74.3071 49.6194C63.6943 87.0826 85.5037 126.032 122.967 136.644C158.838 146.78 195.983 127.252 208.4 92.7074L150.295 109.21Z" fill="#C3E6FA"/>
</svg>
