<svg width="380" height="436" viewBox="0 0 380 436" fill="none" xmlns="http://www.w3.org/2000/svg">
    <path d="M227.145 79.0128L224.769 74.025C227.554 72.3382 230.06 70.2281 232.196 67.7707C229.688 69.6863 226.938 71.2634 224.018 72.4614L221.939 68.0834C225.144 66.082 230.789 62.1261 233.869 57.3885C233.462 57.7324 226.192 63.893 220.844 65.8005L202.488 27.2425C209.805 21.6762 219.281 18.7835 217.029 19.0181C211.438 19.8225 205.986 21.4012 200.83 23.7088L198.782 19.4246C200.762 18.331 202.861 17.4655 205.036 16.8447C208.007 16.1254 201.612 16.4538 197.984 17.8454L196.687 15.1091C196.687 15.1091 208.007 9.0424 218.28 9.35511C231.946 9.74601 234.447 4.52363 247.581 1.09938C262.514 -2.79395 287.64 7.35372 278.853 33.5281C277.645 37.8745 275.527 41.9147 272.641 45.3812C269.754 48.8476 266.163 51.6613 262.107 53.6359C252.366 58.3266 246.143 58.6237 242.703 64.3777C239.106 70.7087 233.684 75.8088 227.145 79.0128Z" fill="#263238"/>
    <path d="M197.531 12.6386C201.488 10.2212 205.891 8.62582 210.478 7.94788C212.773 7.57481 215.094 7.38138 217.42 7.36935C218.561 7.36935 219.75 7.44753 220.875 7.4788C221.992 7.52045 223.11 7.48388 224.221 7.36935C228.716 6.7078 233.125 5.55963 237.371 3.9451C239.56 3.21021 241.749 2.5066 244.001 1.95935C246.241 1.39014 248.538 1.07543 250.849 1.02119C246.334 1.80189 241.926 3.10856 237.715 4.91453C235.573 5.74323 233.415 6.47811 231.195 7.22863C228.968 7.92537 226.68 8.4122 224.362 8.68277C223.183 8.80016 221.997 8.83151 220.813 8.77658C219.656 8.77658 218.546 8.65149 217.404 8.63585C215.137 8.58632 212.869 8.70129 210.618 8.97985C208.362 9.24551 206.13 9.68461 203.942 10.2933C202.832 10.5903 201.753 10.95 200.674 11.3409C199.595 11.7318 198.579 12.1227 197.531 12.6386Z" fill="#263238"/>
    <path d="M262.201 53.6984C260.637 54.574 258.871 55.262 257.229 56.0594C255.587 56.8568 253.945 57.623 252.382 58.5768C250.831 59.5 249.356 60.5457 247.972 61.7039C247.628 61.9854 247.316 62.2981 246.972 62.5952L246.721 62.8297L246.534 63.033C246.395 63.1929 246.265 63.3599 246.143 63.5334C245.627 64.2526 245.142 65.0969 244.579 65.8005C243.563 67.3641 242.5 68.9277 241.343 70.3193C240.172 71.7709 238.892 73.1301 237.512 74.3846C236.134 75.6364 234.642 76.7566 233.056 77.7307C231.469 78.6899 229.787 79.4812 228.037 80.0917C231.276 78.4117 234.231 76.2325 236.793 73.6341C239.312 71.0198 241.55 68.1478 243.469 65.0657C243.97 64.3151 244.47 63.5021 245.033 62.7672C245.176 62.5638 245.332 62.3705 245.502 62.1887C245.588 62.0822 245.682 61.9829 245.783 61.8916L246.049 61.657C246.393 61.3443 246.737 61.016 247.112 60.7345C248.574 59.5735 250.145 58.5576 251.803 57.7012C253.448 56.8425 255.151 56.1006 256.9 55.4809C258.714 54.8398 260.465 54.2926 262.201 53.6984Z" fill="#263238"/>
    <path d="M230.491 62.4545C243.938 86.8464 257.197 104.671 266.094 107.048C273.256 109.002 282.434 109.018 291.581 108.142C301.324 107.1 310.987 105.412 320.507 103.092C323.447 102.404 325.87 101.779 327.606 101.341C331.874 100.246 329.732 70.4131 325.667 68.0052C324.729 67.4579 321.789 67.755 317.755 68.5212C304.215 71.1324 278.04 79.7477 276.039 78.7939C274.037 77.8401 262.561 68.8964 246.69 58.1702C235.714 50.7589 222.111 47.319 230.491 62.4545Z" fill="#AD6359"/>
    <path d="M320.538 103.092C325.535 103.609 330.559 103.803 335.58 103.671C339.536 103.389 350.888 102.295 351.013 97.9166C351.106 94.9301 344.352 94.7894 339.583 94.5862C337.065 94.4767 333.547 93.1789 333.672 91.459C333.891 88.5976 340.412 89.0042 344.899 89.786C353.546 91.3495 365.804 95.2898 368.838 90.0674C369.979 88.0973 367.149 86.2992 363.443 84.8919C369.041 86.0646 374.748 86.6275 376.093 84.4854C376.443 83.9367 376.571 83.2745 376.449 82.6348C376.326 81.9951 375.964 81.4264 375.436 81.0455C376.107 81.102 376.78 80.9566 377.368 80.6278C377.956 80.299 378.432 79.8019 378.735 79.2005C379.658 77.1209 378.094 75.1039 375.608 73.3527C375.876 73.2224 376.108 73.0292 376.285 72.7896C376.462 72.55 376.578 72.2711 376.624 71.9767C378 66.0664 357.33 58.1233 351.435 58.827C339.798 60.4879 328.445 63.7393 317.693 68.4899C313.252 75.87 320.538 103.092 320.538 103.092Z" fill="#AD6359"/>
    <path d="M338.473 79.6539C342.481 78.8165 346.626 78.8806 350.606 79.8416C355.297 81.0299 359.487 83.4378 363.975 85.0639C364.1 85.0639 363.975 85.2985 363.975 85.2516C361.801 84.3447 359.534 83.688 357.345 82.8436C355.156 81.9993 353.061 81.1862 350.856 80.5452C346.87 79.342 342.663 79.0587 338.551 79.7165C338.551 79.7165 338.441 79.6539 338.473 79.6539Z" fill="#263238"/>
    <path d="M338.957 71.8047C343.58 71.2448 348.249 71.161 352.889 71.5545C357.939 72.1487 362.567 74.4628 367.086 76.6675C369.796 77.9809 372.481 79.362 375.139 80.811C375.248 80.811 375.139 81.0455 375.061 80.983C370.453 78.7001 365.762 76.5476 360.988 74.5254C356.602 72.6445 351.891 71.6406 347.119 71.5702C344.399 71.5702 341.662 71.7109 338.942 71.8829C338.926 71.8829 338.91 71.8047 338.957 71.8047Z" fill="#263238"/>
    <path d="M341.271 64.2526C345.384 63.3727 349.621 63.2403 353.78 63.8617C358.809 65.0666 363.667 66.8945 368.243 69.303C370.729 70.5538 373.169 71.8829 375.592 73.2432C375.686 73.2432 375.592 73.4777 375.483 73.4308C370.026 70.4582 364.379 67.8466 358.58 65.6129C355.832 64.5197 352.931 63.8603 349.981 63.6584C347.046 63.5832 344.111 63.7663 341.209 64.2057C341.209 64.2057 341.24 64.2526 341.271 64.2526Z" fill="#263238"/>
    <path d="M267.689 71.6953L240.248 81.2019C240.248 81.2019 231.117 67.5518 228.881 61.5945C225.472 52.5413 225.457 47.6942 237.809 52.4632C250.787 57.4823 267.689 71.6953 267.689 71.6953Z" fill="#FFC727"/>
    <path d="M244.955 74.8068C246.987 74.2439 249.036 73.681 251.053 73.0556C253.07 72.4301 254.977 71.836 256.916 71.1636C257.948 70.804 258.98 70.4131 260.043 70.0222C260.418 69.8659 262.185 69.1466 262.373 69.0372C262.561 68.9277 262.373 69.0372 262.373 69.0372C258.37 70.1942 254.352 71.2574 250.365 72.477C248.41 73.0712 246.456 73.6966 244.501 74.3221C242.586 74.8485 240.706 75.4961 238.872 76.2609C238.763 76.2609 238.872 76.4642 238.95 76.4486C240.983 76.0244 242.989 75.4762 244.955 74.8068Z" fill="#263238"/>
    <path d="M250.849 77.5274L240.248 81.2019C240.248 81.2019 231.117 67.5518 228.881 61.5945C225.472 52.5413 225.457 47.6942 237.809 52.4632C239.107 52.9635 240.451 53.5577 241.812 54.23C244.579 61.016 248.113 70.2724 250.849 77.5274Z" fill="#263238"/>
    <path d="M39.7809 353.782C38.4519 350.842 29.7427 263.75 31.5096 260.232C32.1663 258.888 44.7844 256.871 60.0919 254.885C63.3911 254.447 112.753 240.422 112.753 240.422L118.742 298.665L65.8615 311.002C65.8615 311.002 54.291 345.839 51.93 349.498C49.569 353.156 41.0943 356.721 39.7809 353.782Z" fill="#AD6359"/>
    <path d="M57.4494 335.488C55.893 340.285 54.0499 344.984 51.93 349.56C49.569 353.219 41.0943 356.784 39.7809 353.844C38.4675 350.905 29.7114 263.75 31.5096 260.232C32.0412 259.138 40.4376 257.606 51.8362 256.011C51.3358 276.103 50.1788 338.99 55.3855 337.755C55.8077 337.646 56.5582 336.786 57.4494 335.488Z" fill="#263238"/>
    <path d="M74.1798 249.928L85.3907 310.205C85.3907 310.205 174.515 288.846 197.39 264.407C216.841 243.658 215.888 167.23 220.844 121.292L186.758 107.595C175.453 137.053 166.65 208.228 159.161 219.736C154.188 227.413 74.1798 249.928 74.1798 249.928Z" fill="#37474F"/>
    <path d="M95.0693 302.355C93.3494 292.348 93.9748 295.194 92.1454 285.156C91.2385 280.278 86.7823 255.698 85.1875 251.273C85.1793 251.253 85.1653 251.235 85.1472 251.223C85.1291 251.211 85.1077 251.204 85.0858 251.204C85.0639 251.204 85.0426 251.211 85.0245 251.223C85.0063 251.235 84.9923 251.253 84.9842 251.273C85.1562 255.964 90.144 280.434 91.1291 285.312C93.1461 295.257 92.6927 292.38 94.8035 302.309C94.7938 302.328 94.7887 302.35 94.7888 302.372C94.7888 302.393 94.794 302.415 94.8038 302.435C94.8137 302.454 94.828 302.471 94.8455 302.484C94.8631 302.497 94.8835 302.506 94.905 302.51C94.9266 302.514 94.9487 302.512 94.9697 302.506C94.9907 302.5 95.0099 302.489 95.0259 302.474C95.0418 302.459 95.054 302.44 95.0616 302.42C95.0691 302.399 95.0718 302.377 95.0693 302.355Z" fill="#263238"/>
    <path d="M185.491 115.335C178.311 139.7 173.051 164.59 169.762 189.777C168.98 195.922 168.386 202.067 167.776 208.243C167.276 213.45 166.494 218.985 162.991 223.129C159.114 227.819 153.078 229.821 147.653 231.994C141.664 234.402 135.676 236.779 129.64 239.046C123.136 241.501 116.584 243.737 109.923 245.816C106.515 246.859 103.08 247.797 99.6193 248.631C97.8994 249.053 96.1638 249.459 94.4282 249.835L86.6103 251.398C86.3132 251.398 85.8285 251.398 86.6103 251.226C88.1739 250.882 95.0537 249.428 96.6798 249.037C103.2 247.458 109.454 245.582 115.709 243.471C121.963 241.36 128.374 238.999 134.628 236.544C140.882 234.089 147.137 231.853 153.11 229.086C156.294 227.821 159.203 225.952 161.678 223.582C163.917 221.133 165.437 218.114 166.072 214.857C167.463 208.775 167.542 202.348 168.261 196.094C169.762 183.262 171.805 170.503 174.39 157.818C177.301 143.446 180.954 129.235 185.335 115.241C185.35 115.226 185.369 115.217 185.39 115.214C185.411 115.211 185.432 115.216 185.45 115.227C185.468 115.237 185.482 115.254 185.49 115.274C185.497 115.293 185.498 115.315 185.491 115.335Z" fill="#263238"/>
    <path d="M59.9512 435.166C57.1836 433.525 0.581845 366.759 0.00331857 362.851C-0.199948 361.365 9.02521 352.546 20.5019 342.227C22.9724 339.991 25.5523 337.708 28.1635 335.394C45.1753 320.384 63.5787 304.841 63.5787 304.841L101.636 349.372L65.1423 378.705L57.1367 385.147C57.1367 385.147 67.3782 420.39 67.5346 424.737C67.6909 429.084 62.7031 436.839 59.9512 435.166Z" fill="#AD6359"/>
    <path d="M67.5346 424.737C67.6597 429.084 62.7031 436.839 59.9512 435.166C57.1993 433.493 0.581843 366.759 0.0033167 362.85C-0.168678 361.6 6.36711 355.126 15.3108 346.933C23.7542 361.005 59.7479 420.218 63.6569 416.184C64.1572 415.653 64.298 413.433 64.2354 410.618C65.6186 415.254 66.7203 419.969 67.5346 424.737Z" fill="#263238"/>
    <path d="M74.5238 378.127L31.8223 329.781C31.8223 329.781 108.016 250.554 116.256 237.279C122.995 226.334 139.334 151.391 138.506 147.185C134.347 125.999 138.506 110.394 158.832 94.1171L204.442 116.445C204.442 116.445 190.714 137.475 190.667 138.57C189.666 166.621 187.79 243.33 170.121 269.332C130.141 327.983 74.5238 378.127 74.5238 378.127Z" fill="#37474F"/>
    <path d="M82.6388 366.728C74.258 356.362 46.0353 325.887 42.5641 323.104C42.5641 323.104 42.3608 323.104 42.4078 323.229C44.8 326.997 59.4196 343.259 82.4355 366.916C82.4619 366.935 82.4942 366.945 82.527 366.944C82.5598 366.942 82.5909 366.929 82.615 366.906C82.6392 366.884 82.6547 366.854 82.6591 366.822C82.6634 366.789 82.6562 366.756 82.6388 366.728Z" fill="#263238"/>
    <path d="M205.146 117.868C201.549 123.356 196.421 133.285 193.012 131.627C189.604 129.97 196.749 118.29 198.172 115.476C199.454 112.927 198.407 112.802 196.702 115.695C192.012 123.512 188.415 130.721 192.856 132.722C197.297 134.723 204.02 122.309 205.458 119.416C206.209 117.93 206.287 116.117 205.146 117.868Z" fill="#263238"/>
    <path d="M193.028 132.128C191.738 134.03 190.688 136.083 189.901 138.241C189.901 138.445 190.589 138.664 190.714 138.57C191.574 137.944 193.403 133.879 194.091 132.847C194.187 132.706 194.222 132.533 194.19 132.366C194.158 132.199 194.06 132.051 193.919 131.956C193.778 131.861 193.605 131.825 193.438 131.857C193.271 131.89 193.123 131.987 193.028 132.128Z" fill="#263238"/>
    <path d="M190.37 138.335C189.432 149.28 188.963 160.225 188.29 171.092C187.618 181.959 186.977 192.576 186.039 203.302C184.319 223.175 181.348 243.283 173.061 261.64C171.045 266.342 168.655 270.875 165.915 275.196C163.367 279.089 159.864 283.796 156.987 287.595C156.893 287.72 157.128 287.595 157.237 287.423C160.233 284.331 163.022 281.046 165.587 277.588C168.317 273.795 170.758 269.802 172.889 265.642C177.107 257.354 180.309 248.586 182.427 239.531C187.587 218.641 188.368 196.892 189.604 175.424C190.323 163.04 191.167 150.625 191.402 138.226C191.402 137.632 190.432 137.694 190.37 138.335Z" fill="#263238"/>
    <path d="M116.506 236.935C114.004 239.687 111.643 242.58 109.173 245.363C106.702 248.146 104.357 251.085 101.949 253.947C97.1489 259.67 92.2549 265.283 87.2983 270.912C84.4995 274.164 81.6538 277.401 78.6204 280.418C78.6057 280.442 78.5996 280.47 78.6029 280.498C78.6062 280.526 78.6188 280.552 78.6386 280.572C78.6585 280.592 78.6845 280.605 78.7123 280.608C78.7402 280.611 78.7684 280.605 78.7924 280.59C84.0617 275.196 89.6437 270.114 94.7253 264.532C99.807 258.95 104.764 253.321 109.454 247.458C110.705 245.894 111.831 244.206 112.988 242.564C114.145 240.922 115.584 239.015 116.772 237.17C116.819 236.966 116.616 236.81 116.506 236.935Z" fill="#263238"/>
    <path d="M182.286 109.862C179.216 113.496 175.09 116.081 170.481 117.258C168.173 117.818 165.78 117.935 163.429 117.602C160.943 117.243 157.628 116.555 155.94 114.475C155.846 114.35 155.658 114.475 155.768 114.647C156.824 115.701 158.012 116.616 159.301 117.368C160.424 117.957 161.617 118.404 162.851 118.697C165.38 119.264 167.999 119.301 170.544 118.806C173.109 118.401 175.546 117.408 177.664 115.905C179.782 114.403 181.525 112.431 182.755 110.144C182.943 109.987 182.521 109.659 182.286 109.862Z" fill="#263238"/>
    <path d="M157.816 100.809C152.751 105.493 148.851 111.295 146.427 117.753C144.002 124.212 143.121 131.147 143.853 138.007C144.26 141.916 145.589 145.59 146.12 149.468C146.761 153.955 145.432 158.38 144.228 162.665C141.867 171.155 127.029 230.071 123.026 237.717C119.023 245.363 113.379 251.461 108.031 257.856C102.34 264.663 96.6068 271.438 90.832 278.182C79.1572 291.64 67.2792 304.941 55.1979 318.085C53.6343 319.649 52.2271 321.369 50.6635 322.963C50.554 323.073 50.6635 323.245 50.8511 323.135C56.8553 316.6 63.094 310.283 69.1294 303.763C75.1649 297.242 81.2003 290.55 87.1107 283.827C93.021 277.103 98.775 270.427 104.498 263.641C109.923 257.199 115.646 250.835 120.415 243.862C122.683 240.597 124.557 237.075 125.997 233.37C127.561 229.414 145.276 162.461 146.324 158.208C146.857 156.113 147.135 153.96 147.152 151.798C147.082 149.836 146.783 147.889 146.261 145.997C145.248 142.311 144.645 138.525 144.463 134.708C144.371 131.146 144.713 127.586 145.479 124.107C147.016 117.114 150.182 110.584 154.72 105.047C155.832 103.711 157.012 102.432 158.254 101.216C158.254 100.903 157.925 100.653 157.816 100.809Z" fill="#263238"/>
    <path d="M156.362 94.4767C157.925 96.7752 173.405 112.583 179.691 116.648C198.782 129.048 220.015 134.176 222.924 132.284L232.305 106.626C232.305 106.626 241.171 102.983 244.345 95.3679C247.8 87.0653 244.548 59.2648 243.985 57.4823C241.702 50.3523 233.15 43.3162 223.33 45.5834C196.624 51.7595 156.362 94.4767 156.362 94.4767Z" fill="#FFC727"/>
    <path d="M220.86 42.0653C210.556 38.7818 160.63 25.4913 144.776 31.8864C129.374 38.1407 111.831 49.5549 104.451 55.2463C98.8219 59.6087 104.451 91.7248 110.705 89.7859C121.947 86.221 156.206 62.4545 159.176 60.0778C162.147 57.7012 201.393 58.2015 219.343 56.3878C235.417 54.8085 238.2 47.616 220.86 42.0653Z" fill="#AD6359"/>
    <path d="M122.948 83.5941C122.948 83.5941 113.567 93.3196 107.218 99.402C103.653 102.779 97.0082 108.049 93.2555 109.346C87.6266 111.27 62.8594 115.757 61.6398 109.769C60.5453 104.359 82.3104 103.202 82.3104 103.202C82.3104 103.202 60.4203 106.329 60.3264 99.5427C60.2326 92.7568 84.9529 94.7581 84.9529 94.7581C84.9529 94.7581 62.4216 97.4319 63.4067 90.4427C64.1416 85.1577 86.6572 85.7519 86.6572 85.7519C86.6572 85.7519 67.2375 87.8471 67.8004 82.3902C68.3789 76.3391 89.2059 75.526 89.2059 75.526C92.8803 61.8447 100.151 56.763 105.858 53.886C107.218 53.1824 122.948 83.5941 122.948 83.5941Z" fill="#AD6359"/>
    <path d="M89.9408 102.623C87.3765 103.076 84.7966 103.561 82.2166 103.78C79.6367 103.999 77.0255 104.155 74.3987 104.14C71.0089 104.195 67.6241 103.854 64.3136 103.123C70.2419 103.687 76.2102 103.687 82.1385 103.123C84.7184 102.889 87.3139 102.795 89.9564 102.576C90.0033 102.514 90.0033 102.607 89.9408 102.623Z" fill="#263238"/>
    <path d="M89.284 93.2727C86.0005 93.7105 82.7483 94.2734 79.4335 94.5705C76.1187 94.8676 73.0071 94.852 69.6923 94.9301C69.4421 94.9301 69.5203 94.7894 69.7861 94.7738C73.0697 94.5705 76.0405 94.1327 79.4022 93.8982C82.7639 93.6636 86.0005 93.5385 89.284 93.1946C89.331 93.1789 89.331 93.2571 89.284 93.2727Z" fill="#263238"/>
    <path d="M90.1596 85.1421C85.1349 85.9337 80.0426 86.2114 74.9616 85.9708C74.7114 85.9708 74.8365 85.7988 75.0867 85.7988C80.1527 85.6112 84.1242 85.5017 90.1284 84.9701C90.2222 84.9545 90.2691 85.1265 90.1596 85.1421Z" fill="#263238"/>
    <path d="M195.936 32.5744L205.568 59.984C205.568 59.984 221.923 58.6393 227.99 56.6848C237.184 53.714 240.999 50.7276 229.553 44.0198C217.576 36.9837 195.936 32.5744 195.936 32.5744Z" fill="#FFC727"/>
    <path d="M221.767 58.0139C219.03 58.2484 216.325 58.6862 213.605 58.952C212.229 59.0928 207.038 59.7964 205.787 59.984C205.787 59.984 204.896 57.8575 204.645 57.4197C204.645 57.2946 204.442 57.4197 204.473 57.4197C204.614 57.9044 205.302 60.5469 205.365 60.5469C205.427 60.5469 208.195 60.3749 209.492 60.2967C210.896 60.2265 212.294 60.0856 213.683 59.8746L214.215 59.8277C215.262 59.9371 216.278 60.1247 217.342 60.1404C218.392 60.1305 219.439 60.0206 220.469 59.812C220.547 59.812 220.469 59.7026 220.469 59.7026C219.39 59.7026 218.327 59.5618 217.248 59.5462C216.763 59.5462 216.263 59.5462 215.778 59.5462C217.798 59.2079 219.79 58.7166 221.735 58.0764C221.735 58.0764 221.86 57.9983 221.767 58.0139Z" fill="#263238"/>
    <path d="M208.789 52.4319C208.101 50.4305 207.413 48.4291 206.678 46.459C205.943 44.4889 205.224 42.6126 204.427 40.7206C204.004 39.7043 203.567 38.7036 203.097 37.7029C202.925 37.3433 202.112 35.6234 201.972 35.4357C203.379 39.3447 204.692 43.2536 206.131 47.2095C206.85 49.1327 207.601 51.0403 208.351 52.9479C208.984 54.8284 209.736 56.6668 210.603 58.4517C210.612 58.4679 210.626 58.4813 210.643 58.4906C210.659 58.4999 210.678 58.5048 210.696 58.5048C210.715 58.5048 210.734 58.4999 210.75 58.4906C210.767 58.4813 210.781 58.4679 210.79 58.4517C210.251 56.4049 209.582 54.3943 208.789 52.4319Z" fill="#263238"/>
    <path d="M232.133 48.3822C231.602 49.6643 231.883 60.5156 237.09 63.7992C238.794 64.878 245.033 55.8561 245.033 55.8561L245.643 55.2932L254.211 47.4753L246.612 30.2759C246.612 30.2759 232.868 46.5997 232.133 48.3822Z" fill="#AD6359"/>
    <path d="M254.211 47.4441L245.643 55.262C242.19 49.2956 240.961 42.2999 242.171 35.5139C244.642 32.4962 246.612 30.1508 246.612 30.1508L254.211 47.4441Z" fill="#263238"/>
    <path d="M278.118 36.671C271.864 56.0751 259.512 54.5115 255.321 53.1511C251.522 51.9159 238.747 47.2252 243 27.2738C247.253 7.32245 258.261 4.1171 267.095 6.47812C275.929 8.83913 284.404 17.2669 278.118 36.671Z" fill="#AD6359"/>
    <path d="M275.491 32.5587C275.069 32.3242 274.725 32.0427 274.334 31.7769C273.944 31.5111 273.49 31.2766 273.287 30.745C273.247 30.5921 273.257 30.4305 273.316 30.2841C273.376 30.1376 273.48 30.0141 273.615 29.9319C273.914 29.8127 274.239 29.7745 274.558 29.8212C274.876 29.8679 275.177 29.9978 275.429 30.1977C276.006 30.5528 276.43 31.1103 276.617 31.7613C276.635 31.9018 276.614 32.0446 276.557 32.1743C276.5 32.304 276.409 32.4158 276.294 32.4977C276.178 32.5796 276.042 32.6285 275.901 32.6393C275.76 32.65 275.618 32.6222 275.491 32.5587Z" fill="#263238"/>
    <path d="M262.248 27.6803C262.7 27.7953 263.16 27.8788 263.624 27.9305C264.1 28.0949 264.617 28.0949 265.094 27.9305C265.232 27.8474 265.338 27.7213 265.398 27.5716C265.457 27.4219 265.466 27.2568 265.422 27.1018C265.291 26.81 265.084 26.5588 264.823 26.3744C264.561 26.1901 264.255 26.0795 263.937 26.0542C263.297 25.9005 262.623 25.9897 262.045 26.3044C261.922 26.3845 261.825 26.498 261.765 26.6314C261.705 26.7648 261.685 26.9126 261.706 27.0573C261.728 27.202 261.79 27.3376 261.886 27.448C261.982 27.5584 262.108 27.639 262.248 27.6803Z" fill="#263238"/>
    <path d="M262.842 33.4812C262.842 33.4812 262.717 33.4812 262.701 33.4812C262.248 34.7947 261.513 36.2175 260.184 36.2019C261.669 36.7022 262.686 34.8103 262.842 33.4812Z" fill="#263238"/>
    <path d="M262.185 31.6831C260.153 30.7293 258.417 34.8103 260.293 35.7484C262.17 36.6866 263.89 32.4805 262.185 31.6831Z" fill="#263238"/>
    <path d="M261.294 31.558C260.825 31.558 260.293 31.902 259.84 31.7613C259.387 31.6206 259.121 31.0108 258.964 30.4479C258.964 30.4479 258.964 30.4479 258.886 30.4479C258.542 31.2453 258.495 32.1835 259.293 32.6525C259.673 32.8155 260.1 32.8304 260.491 32.6944C260.881 32.5585 261.207 32.2814 261.404 31.9177C261.513 31.7926 261.466 31.5267 261.294 31.558Z" fill="#263238"/>
    <path d="M271.098 36.2644C271.098 36.2644 271.176 36.3739 271.098 36.4208C270.504 37.6873 270.035 39.2196 271.004 40.1421C271.004 40.1421 271.004 40.2359 271.004 40.1421C269.706 39.4072 270.347 37.3746 271.098 36.2644Z" fill="#263238"/>
    <path d="M272.818 35.4357C274.929 36.155 273.318 40.3454 271.364 39.673C269.409 39.0007 271.035 34.8103 272.818 35.4357Z" fill="#263238"/>
    <path d="M273.631 36.0455C273.881 36.3895 274.053 36.9211 274.428 37.0931C274.803 37.2651 275.398 36.9837 275.851 36.6553C275.57 37.4527 274.975 38.2189 274.147 38.0469C273.318 37.8749 273.146 37.0306 273.256 36.1706C273.287 36.0768 273.49 35.9048 273.631 36.0455Z" fill="#263238"/>
    <path d="M259.34 43.5664C259.496 43.9885 259.605 44.5358 260.043 44.8016C260.512 45.0061 261.017 45.1176 261.529 45.1299C261.529 45.1299 261.607 45.1299 261.529 45.2081C261.232 45.3734 260.895 45.4535 260.556 45.4397C260.217 45.4259 259.888 45.3187 259.605 45.1299C259.384 44.943 259.223 44.6949 259.142 44.4167C259.062 44.1385 259.065 43.8427 259.152 43.5664C259.152 43.5664 259.308 43.4882 259.34 43.5664Z" fill="#263238"/>
    <path d="M266.61 41.0646C266.61 41.0646 266.079 43.0973 265.719 44.0042C265.719 44.098 265.453 44.0042 265.125 44.0042C264.293 43.823 263.526 43.4188 262.906 42.8348C262.286 42.2508 261.837 41.5092 261.607 40.6894C261.614 40.6726 261.626 40.6584 261.641 40.6484C261.657 40.6384 261.675 40.633 261.693 40.633C261.711 40.633 261.729 40.6384 261.744 40.6484C261.759 40.6584 261.772 40.6726 261.779 40.6894C262.622 41.9472 263.843 42.9052 265.266 43.4256C265.422 43.1911 266.032 39.9232 266.172 39.9701C266.854 40.316 267.485 40.7526 268.049 41.2679C269.253 37.0775 269.769 32.7151 271.02 28.5559C271.02 28.4152 271.301 28.4621 271.285 28.5559C270.871 33.2391 269.991 37.8694 268.659 42.378C268.487 42.8471 266.907 41.4086 266.61 41.0646Z" fill="#263238"/>
    <path d="M243.829 29.2752C248.598 31.042 255.868 17.1418 256.744 15.4375C256.244 16.532 253.617 22.4267 254.008 22.8489C254.51 23.0337 255.037 23.1392 255.571 23.1616C255.87 22.4492 256.22 21.7595 256.619 21.0976C256.791 20.7849 256.447 21.8638 256.103 23.2241L257.072 23.3336C257.641 21.7935 258.414 20.3368 259.371 19.0024C259.731 18.4864 258.855 21.082 258.495 23.5056C262.98 23.9749 267.4 24.9344 271.676 26.3669C272.865 26.8047 273.881 27.2425 274.803 27.6491C275.164 26.5439 275.581 25.4584 276.054 24.3968C275.97 25.6013 275.771 26.795 275.46 27.9618C275.929 28.1807 276.367 28.3996 276.742 28.6028C277.884 26.1637 278.306 21.7231 278.478 22.5049C278.887 24.8517 278.85 27.2548 278.368 29.5879C279.932 30.6042 280.26 31.1515 280.495 30.7137C281.971 25.6155 281.594 20.1594 279.432 15.3124C275.82 7.38499 264.671 1.2401 254.571 7.02537C254.571 7.02537 247.691 8.33878 244.486 13.7175C241.28 19.0962 241.077 28.2589 243.829 29.2752Z" fill="#263238"/>
    <path d="M245.596 29.7599C245.596 29.7599 244.032 22.1609 240.702 22.5049C237.371 22.8489 236.918 32.6525 239.545 35.123C239.859 35.465 240.24 35.7396 240.664 35.9303C241.088 36.121 241.546 36.2239 242.011 36.2327C242.475 36.2414 242.937 36.1559 243.368 35.9813C243.799 35.8067 244.189 35.5467 244.517 35.2168L245.596 29.7599Z" fill="#AD6359"/>
    <path d="M240.624 25.3193C240.624 25.3193 240.53 25.3193 240.624 25.3193C241.417 26.2428 242.006 27.323 242.354 28.4895C242.701 29.6561 242.799 30.8828 242.641 32.0896C242.605 31.8176 242.51 31.5566 242.363 31.3248C242.217 31.093 242.021 30.8959 241.79 30.7471C241.56 30.5984 241.3 30.5016 241.028 30.4634C240.756 30.4252 240.48 30.4466 240.217 30.5261C240.217 30.5261 240.217 30.6511 240.217 30.6668C240.651 30.7016 241.064 30.871 241.397 31.1512C241.731 31.4315 241.969 31.8087 242.078 32.2304C242.257 32.973 242.351 33.7336 242.359 34.4976C242.359 34.7321 242.781 34.779 242.797 34.4976C244.016 31.6831 243.501 26.8673 240.624 25.3193Z" fill="#263238"/>
    <path d="M265.344 43.238C264.558 43.8201 263.639 44.1964 262.67 44.3325C262.127 44.3881 261.581 44.2733 261.106 44.0042C260.09 43.41 260.356 42.4406 260.778 41.6119C261.015 41.1916 261.304 40.8028 261.638 40.4548C262.537 41.7619 263.838 42.7393 265.344 43.238Z" fill="#263238"/>
    <path d="M262.686 44.3325C262.143 44.3881 261.597 44.2733 261.122 44.0042C260.106 43.41 260.372 42.4406 260.794 41.6119C261.371 41.7841 261.872 42.147 262.216 42.6413C262.559 43.1355 262.725 43.7318 262.686 44.3325Z" fill="#FF99BA"/>
</svg>
