<svg width="419" height="376" viewBox="0 0 419 376" fill="none" xmlns="http://www.w3.org/2000/svg">
    <path d="M418.256 197.139C417.553 200.266 373.35 272.848 369.91 274.552C368.612 275.209 357.652 269.392 344.611 262.043C341.797 260.48 338.904 258.775 335.965 257.055L293.748 239.231L323.159 190.572L364.641 209.71L373.022 215.12C373.022 215.12 402.401 194.872 406.357 193.402C410.313 191.932 418.944 194.105 418.256 197.139Z" fill="#DD6A57"/>
    <path d="M418.256 197.139C417.553 200.266 373.35 272.848 369.91 274.552C368.347 275.349 352.476 266.593 335.965 256.993L364.594 209.648L372.975 215.058C372.975 215.058 402.355 194.809 406.31 193.339C410.266 191.87 418.944 194.106 418.256 197.139Z" fill="white"/>
    <path d="M418.256 197.139C417.553 200.266 373.35 272.848 369.91 274.552C368.612 275.209 357.652 269.392 344.611 262.043L372.975 215.136C372.975 215.136 402.355 194.887 406.31 193.418C410.266 191.948 418.944 194.106 418.256 197.139Z" fill="#A6A6A6"/>
    <path d="M414.707 196.42C406.998 208.412 377.04 257.525 370.332 269.908C370.332 270.018 370.332 270.049 370.41 269.908C378.228 258.181 407.937 208.835 414.91 196.42C415.004 196.279 414.879 196.169 414.707 196.42Z" fill="#263238"/>
    <path d="M400.932 196.42C400.075 197.754 399.504 199.252 399.254 200.818C399.004 202.384 399.08 203.985 399.478 205.52C400.176 208.285 401.911 210.676 404.325 212.196C404.403 212.196 404.481 212.102 404.418 212.056C402.256 210.174 400.763 207.642 400.162 204.84C399.562 202.037 399.887 199.116 401.088 196.513C401.072 196.42 400.932 196.326 400.932 196.42Z" fill="#263238"/>
    <path d="M377.071 211.07C374.038 215.902 372.381 222.594 374.46 228.051C374.538 228.27 374.835 228.145 374.851 227.957C375.206 222.32 376.165 216.737 377.712 211.305C377.715 211.229 377.693 211.155 377.651 211.093C377.608 211.03 377.547 210.982 377.476 210.956C377.405 210.93 377.328 210.928 377.255 210.948C377.183 210.968 377.118 211.011 377.071 211.07Z" fill="#263238"/>
    <path d="M380.824 208.178C377.791 213.009 376.133 219.717 378.213 225.174C378.213 225.377 378.604 225.252 378.604 225.065C378.967 219.443 379.932 213.876 381.481 208.459C381.506 208.375 381.499 208.284 381.462 208.204C381.424 208.124 381.359 208.061 381.278 208.026C381.197 207.991 381.106 207.988 381.022 208.016C380.938 208.044 380.868 208.101 380.824 208.178Z" fill="#263238"/>
    <path d="M384.577 205.332C381.543 210.164 379.886 216.856 381.965 222.313C382.059 222.532 382.356 222.406 382.372 222.219C382.751 216.595 383.731 211.028 385.296 205.613C385.333 205.518 385.331 205.412 385.29 205.318C385.249 205.224 385.172 205.15 385.077 205.113C384.981 205.076 384.875 205.078 384.781 205.119C384.687 205.16 384.614 205.237 384.577 205.332Z" fill="#263238"/>
    <path d="M388.329 202.455C385.296 207.287 383.638 213.994 385.734 219.451C385.812 219.655 386.109 219.529 386.125 219.342C386.483 213.72 387.442 208.154 388.986 202.737C389.011 202.652 389.004 202.561 388.967 202.481C388.929 202.401 388.864 202.338 388.783 202.303C388.702 202.269 388.611 202.265 388.527 202.293C388.443 202.321 388.373 202.379 388.329 202.455Z" fill="#263238"/>
    <path d="M360.654 259.776C357.339 265.249 365.845 270.409 369.16 264.92C372.474 259.432 363.968 254.35 360.654 259.776Z" fill="#263238"/>
    <path d="M367.268 197.889C363.718 199.109 363.828 203.44 365.016 206.255C367.171 211.041 370.54 215.18 374.789 218.263C374.803 218.28 374.821 218.293 374.841 218.302C374.862 218.311 374.884 218.316 374.906 218.316C374.928 218.316 374.95 218.311 374.97 218.302C374.99 218.293 375.008 218.28 375.023 218.263C375.13 218.296 375.243 218.303 375.353 218.283C375.463 218.262 375.566 218.215 375.654 218.146C375.742 218.077 375.812 217.987 375.857 217.885C375.902 217.783 375.922 217.671 375.914 217.559C375.633 212.618 375.914 207.318 374.147 202.627C373.131 199.875 370.614 196.732 367.268 197.889ZM373.991 210.164C374.179 212.587 374.273 215.011 374.554 217.419C372.662 215.073 370.661 212.822 369.003 210.289C368.19 209.074 367.454 207.811 366.799 206.505C365.829 204.456 364.672 197.201 370.27 199.938C373.366 201.454 373.741 207.287 373.991 210.164Z" fill="#263238"/>
    <path d="M369.238 231.475C372.459 227.629 373.929 222.516 375.805 217.95C375.84 217.846 375.849 217.736 375.833 217.628C375.816 217.519 375.774 217.417 375.71 217.328C375.646 217.239 375.561 217.167 375.463 217.118C375.366 217.068 375.258 217.043 375.148 217.043C375.147 217.02 375.14 216.996 375.128 216.975C375.117 216.955 375.101 216.937 375.081 216.923C375.061 216.91 375.039 216.901 375.015 216.897C374.992 216.894 374.968 216.895 374.945 216.903C369.917 218.414 365.376 221.223 361.779 225.049C359.716 227.316 358.199 231.303 361.154 233.68C364.109 236.057 367.346 233.711 369.238 231.475ZM364.672 232.726C358.418 233.477 361.951 227.003 363.546 225.393C364.585 224.37 365.692 223.419 366.861 222.547C369.303 220.777 371.834 219.133 374.444 217.622C373.381 219.795 372.521 222.062 371.536 224.283C370.364 226.941 368.096 232.304 364.672 232.726Z" fill="#263238"/>
    <path d="M71.2809 200.751C71.2809 200.751 201.543 203.19 209.189 205.817C220.932 209.835 330.477 260.12 330.477 260.12L365.344 200.907C365.344 200.907 269.215 155.845 233.722 147.198C208.142 140.944 106.899 147.198 106.899 147.198L71.2809 200.751Z" fill="#455A64"/>
    <path d="M353.102 200.735C347.879 209.1 329.257 238.699 323.393 250.535C323.393 250.629 323.487 250.707 323.565 250.629C326.474 247.111 348.395 209.444 353.274 200.876C353.299 200.87 353.323 200.857 353.341 200.838C353.36 200.82 353.373 200.796 353.379 200.771C353.385 200.745 353.384 200.718 353.376 200.693C353.367 200.668 353.352 200.646 353.331 200.63C353.311 200.613 353.286 200.602 353.26 200.599C353.234 200.596 353.208 200.6 353.184 200.611C353.16 200.622 353.139 200.639 353.125 200.661C353.11 200.683 353.102 200.709 353.102 200.735Z" fill="#263238"/>
    <path d="M85.963 196.545C93.9998 196.404 102.052 195.982 110.105 195.732C118.157 195.481 126.21 195.231 134.262 195.075C150.351 194.731 166.441 194.668 182.53 194.778C190.05 194.672 197.565 195.242 204.983 196.482C212.298 197.931 219.463 200.051 226.389 202.815C233.378 205.52 240.179 208.647 246.965 211.821L268.621 222L312.917 242.796C314.731 243.64 316.545 244.5 318.343 245.376C318.609 245.501 318.343 245.97 318.109 245.86C303.317 239.152 288.666 232.132 273.953 225.268L251.984 215.011C245.167 211.883 238.381 208.6 231.439 205.707C224.639 202.794 217.63 200.395 210.471 198.53C202.975 196.734 195.303 195.774 187.596 195.669C171.726 195.278 155.808 195.403 139.938 195.544C124.068 195.685 107.9 195.919 91.8733 196.529C89.9032 196.607 87.9175 196.685 85.9473 196.811C85.791 196.795 85.8066 196.545 85.963 196.545Z" fill="#263238"/>
    <path d="M358.574 317.926C356.885 320.584 289.104 375.528 285.289 375.997C285.082 375.991 284.882 375.926 284.71 375.81C282.287 374.449 276.47 364.865 267.511 354.576C266.932 353.92 264.634 350.261 261.554 345.195C253.126 331.435 238.882 307.465 238.882 307.465L282.834 271.362L303.755 311.812L309.868 319.63C309.868 319.63 344.267 310.327 348.536 310.249C352.804 310.17 360.278 315.283 358.574 317.926Z" fill="#DD6A57"/>
    <path d="M358.574 317.926C356.885 320.584 289.104 375.528 285.289 375.997C285.082 375.991 284.882 375.926 284.71 375.81C282.287 374.449 276.47 364.865 267.511 354.576C266.932 353.92 264.634 350.261 261.554 345.195L303.77 311.812L309.884 319.63C309.884 319.63 344.283 310.327 348.552 310.249C352.82 310.17 360.278 315.283 358.574 317.926Z" fill="white"/>
    <path d="M358.574 317.941C356.901 320.584 289.104 375.528 285.289 375.997C283.85 376.169 275.907 367.663 267.558 354.576L309.915 319.771C309.915 319.771 344.314 310.389 348.583 310.389C352.851 310.389 360.278 315.283 358.574 317.941Z" fill="#A6A6A6"/>
    <path d="M355.463 316.065C344.205 324.821 299.611 361.175 289.151 370.666C289.057 370.744 289.151 370.806 289.151 370.744C300.503 362.316 344.815 325.603 355.572 316.253C355.853 316.065 355.713 315.893 355.463 316.065Z" fill="#263238"/>
    <path d="M342.407 311.468C341.152 312.439 340.113 313.66 339.356 315.055C338.6 316.449 338.142 317.986 338.013 319.568C337.744 322.409 338.585 325.244 340.358 327.479C340.358 327.479 340.53 327.479 340.483 327.37C339.074 324.876 338.511 321.992 338.877 319.151C339.243 316.31 340.52 313.664 342.516 311.609C342.527 311.593 342.533 311.573 342.532 311.553C342.531 311.534 342.525 311.515 342.512 311.499C342.5 311.483 342.484 311.472 342.465 311.466C342.446 311.461 342.425 311.462 342.407 311.468Z" fill="#263238"/>
    <path d="M315.091 317.363C310.635 320.912 306.773 326.651 306.991 332.514C306.991 332.749 307.32 332.733 307.398 332.514C309.607 327.335 312.364 322.408 315.622 317.816C315.659 317.744 315.67 317.662 315.654 317.584C315.638 317.505 315.596 317.433 315.535 317.381C315.473 317.329 315.396 317.299 315.316 317.295C315.235 317.292 315.156 317.316 315.091 317.363Z" fill="#263238"/>
    <path d="M319.625 315.909C315.153 319.458 311.307 325.197 311.51 331.06C311.51 331.279 311.839 331.263 311.917 331.06C314.128 325.882 316.885 320.955 320.141 316.362C320.172 316.292 320.18 316.214 320.164 316.139C320.148 316.064 320.108 315.996 320.05 315.946C319.993 315.895 319.92 315.864 319.844 315.857C319.767 315.851 319.691 315.869 319.625 315.909Z" fill="#263238"/>
    <path d="M324.097 314.502C319.625 318.051 315.779 323.789 315.982 329.653C315.982 329.872 316.31 329.856 316.389 329.653C318.594 324.472 321.351 319.545 324.613 314.955C324.644 314.885 324.652 314.807 324.636 314.732C324.62 314.657 324.58 314.589 324.522 314.538C324.464 314.488 324.392 314.457 324.316 314.45C324.239 314.444 324.163 314.462 324.097 314.502Z" fill="#263238"/>
    <path d="M328.585 312.938C324.128 316.472 320.266 322.226 320.485 328.089C320.485 328.308 320.814 328.292 320.892 328.089C323.094 322.902 325.852 317.969 329.116 313.376C329.146 313.305 329.152 313.226 329.134 313.151C329.115 313.076 329.073 313.009 329.013 312.959C328.953 312.91 328.88 312.882 328.802 312.878C328.725 312.874 328.649 312.895 328.585 312.938Z" fill="#263238"/>
    <path d="M283.397 357.891C278.44 361.956 284.757 369.649 289.651 365.568C294.545 361.487 288.353 353.81 283.397 357.891Z" fill="#263238"/>
    <path d="M310.244 301.665C306.491 301.665 305.146 305.761 305.35 308.81C305.779 314.045 307.575 319.075 310.556 323.398C310.571 323.418 310.59 323.434 310.612 323.444C310.633 323.455 310.657 323.461 310.681 323.461C310.706 323.461 310.73 323.455 310.751 323.444C310.773 323.434 310.792 323.418 310.807 323.398C310.89 323.468 310.99 323.516 311.096 323.539C311.202 323.563 311.313 323.561 311.418 323.533C311.523 323.506 311.62 323.454 311.702 323.381C311.783 323.309 311.846 323.218 311.885 323.117C313.261 318.426 315.31 313.454 315.185 308.435C315.106 305.495 313.793 301.696 310.244 301.665ZM312.495 315.487C311.87 317.848 311.151 320.177 310.619 322.523C309.516 319.713 308.561 316.848 307.758 313.939C307.386 312.526 307.114 311.09 306.945 309.639C306.71 307.403 308.023 300.164 312.386 304.604C314.794 307.059 313.23 312.688 312.495 315.487Z" fill="#263238"/>
    <path d="M300.862 334C305.193 331.451 308.258 327.104 311.557 323.43C311.622 323.341 311.665 323.239 311.684 323.131C311.702 323.023 311.695 322.913 311.663 322.808C311.632 322.703 311.576 322.607 311.5 322.528C311.425 322.449 311.332 322.388 311.229 322.351C311.236 322.33 311.239 322.308 311.236 322.286C311.233 322.265 311.225 322.244 311.213 322.226C311.201 322.207 311.185 322.192 311.166 322.181C311.147 322.171 311.126 322.164 311.104 322.163C305.856 321.909 300.634 323.047 295.968 325.462C293.279 326.917 290.496 330.231 292.497 333.39C294.498 336.548 298.392 335.485 300.862 334ZM296.171 333.656C290.073 332.311 295.515 327.401 297.547 326.369C298.87 325.754 300.233 325.232 301.628 324.806C304.52 323.95 307.453 323.24 310.416 322.679C308.696 324.383 307.117 326.229 305.443 327.995C303.489 330.137 299.549 334.406 296.171 333.656Z" fill="#263238"/>
    <path d="M305.021 303.431L258.942 347.587C258.942 347.587 190.692 236.401 183.593 232.617C177.339 229.255 101.708 233.164 90.4974 229.083C72.1722 222.391 62.4779 205.52 58.1781 192.292L106.978 147.276C111.143 153.856 113.812 161.27 114.796 168.994C114.796 168.994 192.881 169.823 212.207 180.471C231.533 191.119 305.021 303.431 305.021 303.431Z" fill="#455A64"/>
    <path d="M295.843 296.427C288.963 302.681 290.855 300.805 284.054 307.184C280.723 310.311 258.896 330.794 256.3 334.25C256.3 334.328 256.3 334.437 256.425 334.39C259.99 331.951 281.442 311.077 284.742 307.809C291.418 301.321 289.432 303.119 296.031 296.536C296.171 296.489 295.968 296.301 295.843 296.427Z" fill="#263238"/>
    <path d="M117.657 159.3C116.39 165.7 115.673 172.197 115.515 178.72C115.527 178.762 115.553 178.8 115.588 178.826C115.623 178.853 115.666 178.867 115.71 178.867C115.754 178.867 115.797 178.853 115.833 178.826C115.868 178.8 115.894 178.762 115.906 178.72C116.813 172.294 117.86 165.805 118.407 159.331C118.412 159.232 118.376 159.135 118.309 159.061C118.241 158.988 118.147 158.945 118.048 158.941C117.948 158.936 117.851 158.972 117.778 159.039C117.705 159.107 117.661 159.201 117.657 159.3Z" fill="#263238"/>
    <path d="M112.388 164.866C113.096 165.844 113.874 166.769 114.717 167.634C115.319 168.385 116.056 169.016 116.891 169.495C117.063 169.573 117.203 169.37 117.157 169.213C116.705 168.312 116.12 167.484 115.421 166.758C114.717 165.867 114.029 164.96 113.294 164.1C112.81 163.522 111.95 164.257 112.388 164.866Z" fill="#263238"/>
    <path d="M107.462 161.833C106.759 161.114 106.055 160.379 105.367 159.644C104.679 158.909 103.991 158.081 103.225 157.33C103.1 157.221 103.225 157.049 103.413 157.158C104.116 157.893 104.976 158.518 105.695 159.191L107.947 161.239C109.339 162.521 110.668 163.928 111.934 165.336C112.394 164.445 112.646 163.461 112.669 162.459C112.514 161.366 112.022 160.35 111.262 159.55C110.511 158.628 109.698 157.737 109.026 156.798C108.266 155.729 107.413 154.73 106.477 153.812C106.368 153.687 106.477 153.515 106.68 153.624C108.716 155.459 110.565 157.491 112.2 159.691C112.937 160.443 113.376 161.438 113.435 162.49C113.257 163.651 112.842 164.764 112.216 165.758C112.216 165.914 112.028 166.039 111.903 165.93C110.353 164.642 108.87 163.275 107.462 161.833Z" fill="#263238"/>
    <path d="M117.235 169.088C122.238 169.307 127.273 169.088 132.292 169.166C137.311 169.244 142.08 169.37 146.974 169.588C156.856 170.042 166.738 170.918 176.542 172.2C181.389 172.825 186.236 173.576 191.052 174.451C195.911 175.225 200.708 176.349 205.405 177.813C210.061 179.339 214.382 181.743 218.133 184.896C221.874 188.227 225.355 191.839 228.546 195.7C236.128 204.233 243.143 213.253 249.545 222.703C249.749 223.032 249.233 223.376 248.998 223.079C242.65 215.261 236.396 207.302 229.766 199.625C223.136 191.948 216.898 184.208 207.594 180.393C203.063 178.676 198.376 177.398 193.6 176.578C188.769 175.624 183.89 174.811 179.012 174.123C169.38 172.763 159.702 171.934 150.007 171.199C144.582 170.792 139.062 170.527 133.715 170.151C128.367 169.776 122.77 169.291 117.219 169.26C117.063 169.323 117.078 169.088 117.235 169.088Z" fill="#263238"/>
    <path d="M84.9467 203.815C85.0248 202.69 86.2132 201.611 86.823 200.688C87.6048 199.515 88.3099 198.293 88.9338 197.029C89.535 195.781 90.0572 194.497 90.4974 193.183C91.0305 191.897 91.2605 190.506 91.1697 189.118C90.6521 186.686 89.6929 184.37 88.3396 182.285C87.061 179.934 85.4844 177.759 83.6489 175.812C83.5394 175.702 83.6489 175.546 83.8365 175.655C84.9466 176.64 86.1194 177.531 87.1513 178.61C88.1041 179.653 88.9769 180.767 89.7625 181.941C91.4494 184.045 92.5787 186.54 93.046 189.196C93.3275 192.01 91.9515 194.856 90.685 197.295C89.9483 198.701 89.1068 200.05 88.1676 201.329C87.4953 202.252 86.604 203.894 85.3688 204.144C85.3187 204.159 85.2657 204.162 85.2143 204.152C85.1628 204.142 85.1144 204.12 85.0731 204.088C85.0318 204.056 84.9988 204.015 84.9768 203.967C84.9548 203.92 84.9445 203.868 84.9467 203.815Z" fill="#263238"/>
    <path d="M255.596 327.558C246.163 312.599 236.552 297.823 226.764 283.23C216.976 268.636 207.016 254.043 196.884 239.45C194.626 235.803 192.007 232.393 189.066 229.271C185.704 226.143 181.482 225.143 177.026 224.58C168.83 223.738 160.592 223.357 152.353 223.438C144.097 223.438 135.841 223.782 127.586 224.033C119.373 224.502 111.14 224.502 102.928 224.033C95.1778 223.641 87.7271 220.916 81.5537 216.215C75.4244 211.289 70.9526 204.582 66.9811 197.889L63.8539 192.573C63.8539 192.448 63.9946 192.323 64.0728 192.464C68.1225 199.688 72.5631 206.943 78.489 212.79C81.3925 215.716 84.7641 218.136 88.4647 219.952C92.2647 221.688 96.3192 222.802 100.473 223.251C108.51 224.236 116.734 223.798 124.818 223.579C132.902 223.36 141.33 223.016 149.585 222.922C157.897 222.771 166.211 223.058 174.493 223.782C178.245 223.885 181.95 224.647 185.438 226.034C189.16 227.801 191.693 231.1 194.054 234.384C204.17 248.643 213.989 263.138 223.762 277.695C233.534 292.252 243.01 306.918 252.391 321.741L255.94 327.354C256.128 327.589 255.737 327.776 255.596 327.558Z" fill="#263238"/>
    <path d="M59.5071 109.125C68.2944 113.425 108.307 121.242 133.402 109.125C141.924 104.997 164.674 58.2925 168.286 46.6751C171.663 35.6049 137.624 30.7109 135.232 37.0747C131.557 46.9253 119.94 79.4166 114.905 82.4186C106.727 87.2188 80.0057 91.3311 60.8205 97.1945C50.9074 100.29 52.7368 105.826 59.5071 109.125Z" fill="#DD6A57"/>
    <path d="M60.8518 111.642C71.9063 117.365 100.332 121.102 100.332 121.102L99.7538 113.284L97.8462 87.5003C97.8462 87.5003 75.956 91.7845 62.1808 95.8498C60.5713 96.3088 59.0024 96.8997 57.4901 97.6167C49.3594 101.494 51.3139 106.717 60.8518 111.642Z" fill="#FFC727"/>
    <path d="M80.3966 92.5975C81.1077 93.3183 81.7084 94.1403 82.1791 95.0368C82.6953 95.9105 83.07 96.8604 83.2892 97.8512C81.8912 96.3765 80.8951 94.5675 80.3966 92.5975Z" fill="white"/>
    <path d="M88.8087 101.854C89.5363 101.147 90.3569 100.542 91.2479 100.056C92.1255 99.5512 93.0744 99.1822 94.0624 98.9613C93.3375 99.6676 92.5162 100.268 91.6232 100.744C90.7431 101.247 89.7952 101.621 88.8087 101.854Z" fill="white"/>
    <path d="M54.1597 101.854C54.8876 101.151 55.7083 100.552 56.5989 100.071C57.4789 99.5684 58.4268 99.1945 59.4133 98.9613C58.6925 99.6725 57.8706 100.273 56.9741 100.744C56.0972 101.254 55.1484 101.628 54.1597 101.854Z" fill="white"/>
    <path d="M74.5332 104.481C74.4908 106.51 73.9195 108.494 72.8758 110.235C72.884 109.223 73.0367 108.217 73.3292 107.248C73.589 106.271 73.9949 105.337 74.5332 104.481Z" fill="white"/>
    <path d="M91.5293 111.407C91.5235 112.42 91.3708 113.426 91.0759 114.394C90.8192 115.378 90.4132 116.316 89.8719 117.177C89.8778 116.165 90.0306 115.159 90.3254 114.191C90.5986 113.213 91.0037 112.276 91.5293 111.407Z" fill="white"/>
    <path d="M60.8518 111.642C71.9063 117.365 100.332 121.102 100.332 121.102L99.7538 113.284C87.3546 108.593 68.3726 101.635 57.4432 97.6479C49.3594 101.494 51.3139 106.717 60.8518 111.642Z" fill="#263238"/>
    <path d="M94.4689 118.913C93.9529 114.222 92.4988 95.1618 92.4675 91.0027C92.4675 90.7056 92.6395 90.6431 92.6864 91.0027C93.8472 100.274 94.4996 109.602 94.6409 118.944C94.6438 118.959 94.643 118.974 94.6386 118.989C94.6342 119.004 94.6262 119.017 94.6155 119.028C94.6048 119.039 94.5916 119.047 94.577 119.051C94.5625 119.056 94.547 119.057 94.532 119.054C94.517 119.051 94.5029 119.045 94.4909 119.036C94.4789 119.026 94.4693 119.014 94.4631 119C94.4569 118.986 94.4542 118.971 94.4552 118.956C94.4562 118.94 94.4609 118.926 94.4689 118.913Z" fill="#263238"/>
    <path d="M168.239 46.8001C169.443 43.3603 173.586 27.0833 173.727 22.2988C173.868 17.5142 173.258 3.72337 169.615 3.2543C165.972 2.78522 165.815 6.81927 165.815 6.81927C165.815 6.81927 164.627 1.03399 160.906 0.893268C157.184 0.752545 157.169 7.0538 157.169 7.0538C157.169 7.0538 155.605 1.20599 151.806 1.31544C148.006 1.42489 149.132 7.78869 149.132 7.78869C149.132 7.78869 147.881 2.36304 144.848 3.75463C141.22 5.42767 144.644 15.1688 144.097 20.4381C143.972 21.6264 139.844 44.5017 139.844 44.5017L168.239 46.8001Z" fill="#DD6A57"/>
    <path d="M149.054 7.24142C151.555 14.4026 151.415 17.9832 149.742 25.2539C149.742 25.3946 149.914 25.4885 149.961 25.3321C152.243 18.3585 153.088 13.9023 149.382 7.10068C149.194 6.77233 148.929 6.89744 149.054 7.24142Z" fill="#263238"/>
    <path d="M157.012 6.47527C158.967 14.1368 158.842 18.0145 157.638 25.7699C157.638 25.8794 157.81 25.9263 157.841 25.7699C159.655 18.2491 160.374 13.7929 157.403 6.38146C157.231 6.11565 156.872 6.13128 157.012 6.47527Z" fill="#263238"/>
    <path d="M165.737 7.21017C167.097 14.7779 167.144 19.0309 165.018 26.411C165.012 26.4284 165.009 26.4469 165.01 26.4654C165.011 26.4839 165.016 26.502 165.024 26.5187C165.032 26.5354 165.043 26.5504 165.057 26.5627C165.07 26.5751 165.086 26.5847 165.104 26.5908C165.121 26.597 165.14 26.5996 165.158 26.5986C165.177 26.5977 165.195 26.593 165.212 26.585C165.228 26.5771 165.243 26.5659 165.256 26.5521C165.268 26.5383 165.278 26.5223 165.284 26.5048C168.034 20.4067 168.281 13.4729 165.972 7.19454C165.815 6.7411 165.643 6.74109 165.737 7.21017Z" fill="#263238"/>
    <path d="M135.122 48.4263C134.166 43.9494 133.544 39.4077 133.261 34.8387C133.261 30.5545 139.391 14.6997 142.893 15.8099C147.412 17.264 145.708 27.1146 144.238 31.821C144.238 31.821 154.698 35.1514 155.011 42.5003C155.324 49.8491 135.122 48.4263 135.122 48.4263Z" fill="#DD6A57"/>
    <path d="M144.019 16.6229C147.146 20.9072 144.879 26.9739 143.784 31.649C143.767 31.7183 143.766 31.7907 143.782 31.8603C143.798 31.9299 143.83 31.9948 143.876 32.0497C143.922 32.1046 143.98 32.1478 144.045 32.176C144.111 32.2042 144.182 32.2165 144.253 32.2119C148.538 33.9006 154.104 37.5281 155.199 42.2657C155.199 42.2948 155.21 42.3226 155.231 42.3431C155.251 42.3637 155.279 42.3752 155.308 42.3752C155.337 42.3752 155.365 42.3637 155.385 42.3431C155.406 42.3226 155.417 42.2948 155.417 42.2657C154.901 37.0277 149.726 33.0093 144.91 31.4614C146.098 26.6768 148.162 20.5163 144.035 16.6229C144.035 16.5604 144.003 16.5917 144.019 16.6229Z" fill="#263238"/>
    <path d="M121.269 148.652C121.065 152.467 121.269 157.627 107.916 172.716C107.087 173.654 106.196 174.561 105.258 175.452C91.1853 188.649 61.1645 196.873 59.21 197.17C59.21 197.17 32.8323 147.808 38.8834 107.78C39.6183 102.839 46.5762 97.9919 52.5648 96.5534C54.6913 96.0374 66.4494 99.0708 74.0016 104.934C81.5537 110.798 121.488 144.837 121.269 148.652Z" fill="#FFC727"/>
    <path d="M60.9456 118.475C61.8814 118.869 62.7556 119.395 63.5412 120.038C64.3475 120.65 65.0589 121.377 65.652 122.196C64.7162 121.802 63.8421 121.276 63.0565 120.633C62.2501 120.022 61.5388 119.294 60.9456 118.475Z" fill="white"/>
    <path d="M86.8073 146.447C88.6652 147.256 90.2814 148.533 91.4981 150.153C90.5623 149.759 89.6881 149.233 88.9025 148.59C88.1029 147.982 87.3969 147.26 86.8073 146.447Z" fill="white"/>
    <path d="M54.6443 152.921C55.5838 153.307 56.459 153.835 57.2399 154.484C58.051 155.095 58.7676 155.822 59.3664 156.642C58.427 156.255 57.5518 155.728 56.7708 155.078C55.9633 154.464 55.2474 153.737 54.6443 152.921Z" fill="white"/>
    <path d="M96.0325 127.293C96.9749 127.684 97.8548 128.21 98.6437 128.857C99.4463 129.472 100.157 130.199 100.755 131.015C99.8151 130.628 98.9399 130.101 98.1589 129.451C97.3515 128.836 96.6355 128.11 96.0325 127.293Z" fill="white"/>
    <path d="M58.5064 137.816C58.8931 136.877 59.4203 136.002 60.07 135.221C60.6807 134.41 61.4078 133.693 62.2278 133.094C61.8411 134.034 61.3139 134.909 60.6642 135.69C60.0493 136.497 59.3228 137.213 58.5064 137.816Z" fill="white"/>
    <path d="M66.3243 170.98C67.133 169.122 68.4098 167.506 70.03 166.289C69.6362 167.225 69.1096 168.099 68.4664 168.885C67.859 169.685 67.1372 170.39 66.3243 170.98Z" fill="white"/>
    <path d="M102.944 158.628C103.337 157.692 103.864 156.818 104.507 156.032C105.118 155.226 105.845 154.515 106.665 153.921C105.856 155.779 104.579 157.395 102.959 158.612L102.944 158.628Z" fill="white"/>
    <path d="M76.5033 185.709C76.8934 184.767 77.4202 183.887 78.0669 183.098C78.6821 182.295 79.4087 181.584 80.2246 180.987C79.838 181.926 79.3108 182.802 78.6611 183.583C78.0462 184.39 77.3197 185.106 76.5033 185.709Z" fill="white"/>
    <path d="M45.4192 107.717C46.2279 105.86 47.5047 104.243 49.1249 103.027C48.7311 103.962 48.2045 104.837 47.5613 105.622C46.9539 106.422 46.2321 107.128 45.4192 107.717Z" fill="white"/>
    <path d="M43.6523 118.756C44.0364 119.692 44.2889 120.676 44.4029 121.68C44.5511 122.686 44.5511 123.708 44.4029 124.714C44.0163 123.774 43.7636 122.784 43.6523 121.774C43.5197 120.773 43.5197 119.758 43.6523 118.756Z" fill="white"/>
    <path d="M49.0155 163.506C49.3995 164.441 49.6521 165.425 49.766 166.43C49.9143 167.43 49.9143 168.447 49.766 169.448C49.382 168.512 49.1294 167.528 49.0155 166.524C48.8826 165.522 48.8826 164.508 49.0155 163.506Z" fill="white"/>
    <path d="M82.6638 126.465C83.0478 127.4 83.3004 128.384 83.4143 129.389C83.5471 130.39 83.5471 131.405 83.4143 132.406C83.0132 131.477 82.76 130.49 82.6638 129.483C82.5155 128.482 82.5155 127.465 82.6638 126.465Z" fill="white"/>
    <path d="M83.946 163.897C84.33 164.832 84.5826 165.816 84.6965 166.821C84.8448 167.821 84.8448 168.838 84.6965 169.839C84.3125 168.903 84.0599 167.919 83.946 166.915C83.8131 165.913 83.8131 164.899 83.946 163.897Z" fill="white"/>
    <path d="M65.2142 102.245C65.9558 104.132 66.1981 106.178 65.9178 108.186C65.1763 106.299 64.9339 104.253 65.2142 102.245Z" fill="white"/>
    <path d="M84.8685 114.456C83.9286 114.843 82.9391 115.096 81.9289 115.207C80.9285 115.355 79.9116 115.355 78.9112 115.207C79.8465 114.823 80.8305 114.57 81.8351 114.456C82.8419 114.324 83.8617 114.324 84.8685 114.456Z" fill="white"/>
    <path d="M63.0721 183.52C62.1364 183.9 61.1523 184.147 60.1482 184.255C59.1425 184.403 58.1205 184.403 57.1148 184.255C58.0535 183.868 59.0439 183.62 60.0544 183.52C61.0548 183.372 62.0717 183.372 63.0721 183.52Z" fill="white"/>
    <path d="M110.699 139.38C109.759 139.765 108.769 140.018 107.759 140.131C106.758 140.271 105.743 140.271 104.742 140.131C105.677 139.747 106.661 139.494 107.666 139.38C108.671 139.232 109.693 139.232 110.699 139.38Z" fill="white"/>
    <path d="M46.9671 141.882C46.0319 142.266 45.0479 142.518 44.0432 142.632C43.0376 142.781 42.0156 142.781 41.0099 142.632C41.9498 142.246 42.9393 141.993 43.9494 141.882C44.951 141.749 45.9656 141.749 46.9671 141.882Z" fill="white"/>
    <path d="M104.632 171.277C102.745 172.019 100.699 172.261 98.6906 171.981C100.578 171.239 102.624 170.997 104.632 171.277Z" fill="white"/>
    <path d="M74.2517 147.448C73.3164 147.832 72.3324 148.085 71.3278 148.199C70.3274 148.347 69.3105 148.347 68.3101 148.199C69.2454 147.815 70.2294 147.562 71.234 147.448C72.2355 147.315 73.2502 147.315 74.2517 147.448Z" fill="white"/>
    <path d="M39.0241 108.968C26.6405 116.786 0.950827 160.848 0.919556 174.357C0.919556 194.481 11.0516 221.046 15.586 230.396C17.5561 234.477 49.9849 222.782 48.5933 218.153C45.4661 208.256 32.676 180.377 32.5822 176.75C32.4883 173.122 39.2118 144.415 44.5905 129.498C51.7986 109.484 45.2941 104.981 39.0241 108.968Z" fill="#DD6A57"/>
    <path d="M15.5391 230.475C21.168 244.297 42.12 259.37 45.5443 260.699C48.4526 261.84 49.9692 262.403 49.9692 262.403C55.1603 264.561 58.1624 263.107 58.1624 263.107C58.1624 263.107 63.4317 267.359 66.5276 264.592C70.0144 261.465 61.9307 256.149 59.2882 250.52C53.2371 237.526 48.2649 217.356 46.9046 213.431L15.5391 230.475Z" fill="#DD6A57"/>
    <path d="M43.3709 241.31C46.775 249.443 51.809 256.791 58.1624 262.903C58.2563 262.997 58.1624 263.154 58.0061 263.06C51.1336 257.344 45.9584 249.854 43.0426 241.404C42.98 241.263 43.2771 241.123 43.3709 241.31Z" fill="#263238"/>
    <path d="M35.0526 243.812C38.9329 250.823 44.0317 257.087 50.11 262.309C50.11 262.309 50.11 262.387 50.11 262.309C43.3895 257.734 38.0691 251.385 34.7399 243.968C34.5366 243.796 34.865 243.577 35.0526 243.812Z" fill="#263238"/>
    <path d="M52.9869 234.352C52.8775 232.351 53.9251 232.273 56.2861 234.946C58.6471 237.62 65.7614 250.191 69.9362 247.346C74.111 244.5 63.8382 226.894 59.5696 222.735C55.5234 219.215 51.2048 216.02 46.6544 213.181C47.9678 217.012 50.5165 226.8 52.9869 234.352Z" fill="#DD6A57"/>
    <path d="M47.7177 120.21C52.1583 100.572 43.0269 99.493 31.2844 113.159C23.3293 122.811 16.0169 132.975 9.39418 143.586L39.7434 155.876C39.7434 155.876 44.872 132.766 47.7177 120.21Z" fill="#FFC727"/>
    <path d="M13.4439 140.647C17.8688 142.132 35.8031 148.902 39.587 150.622C39.8528 150.732 39.8528 150.935 39.587 150.841C30.6879 147.975 21.9503 144.629 13.4126 140.819C13.3965 140.809 13.3838 140.794 13.3761 140.777C13.3684 140.76 13.3661 140.74 13.3695 140.722C13.3728 140.703 13.3818 140.686 13.395 140.673C13.4083 140.659 13.4253 140.65 13.4439 140.647Z" fill="#263238"/>
    <path d="M26.2653 128.576C28.1265 129.371 29.7447 130.644 30.956 132.266C30.023 131.867 29.1496 131.34 28.3605 130.702C27.5727 130.087 26.8684 129.372 26.2653 128.576Z" fill="white"/>
    <path d="M32.4258 114.832C32.825 113.899 33.3512 113.025 33.9894 112.236C34.6125 111.436 35.3379 110.721 36.1471 110.11C35.7577 111.052 35.2308 111.932 34.5836 112.721C33.9684 113.524 33.2418 114.234 32.4258 114.832Z" fill="white"/>
    <path d="M45.4192 107.717C46.2279 105.86 47.5047 104.243 49.1249 103.027C48.7311 103.962 48.2045 104.837 47.5613 105.622C46.9539 106.422 46.2321 107.128 45.4192 107.717Z" fill="white"/>
    <path d="M43.6523 118.756C44.0364 119.692 44.2889 120.676 44.4029 121.68C44.5511 122.686 44.5511 123.708 44.4029 124.714C44.0163 123.774 43.7636 122.784 43.6523 121.774C43.5197 120.773 43.5197 119.758 43.6523 118.756Z" fill="white"/>
    <path d="M19.4168 139.755C19.8034 140.695 20.056 141.685 20.1673 142.695C20.3156 143.695 20.3156 144.712 20.1673 145.713C19.7833 144.777 19.5307 143.793 19.4168 142.789C19.284 141.782 19.284 140.762 19.4168 139.755Z" fill="white"/>
    <path d="M46.9671 141.882C46.0319 142.266 45.0479 142.518 44.0432 142.632C43.0376 142.781 42.0156 142.781 41.0099 142.632C41.9498 142.246 42.9393 141.993 43.9494 141.882C44.951 141.749 45.9656 141.749 46.9671 141.882Z" fill="white"/>
    <path d="M46.6544 126.418C46.0915 129.013 45.6225 131.625 45.0908 134.236C45.6225 133.219 46.1854 132.234 46.7795 131.249C46.373 132.062 45.9977 132.813 45.5756 133.689L44.9658 134.846L44.8407 135.096C44.4654 137.128 44.0745 139.161 43.6211 141.178C43.1051 143.586 42.5109 145.994 41.9324 148.386C41.3539 150.779 40.3688 153.53 39.9154 156.032C38.8957 155.735 37.9062 155.342 36.9602 154.86C36.6788 154.766 36.7413 154.469 36.9602 154.609C37.1791 154.75 39.6183 155.469 39.6652 155.469C40.2594 153.061 40.5721 150.591 41.0881 148.167C41.6041 145.744 42.1044 143.32 42.6517 140.928C43.8087 136.034 45.2159 131.218 46.4043 126.34C46.5606 126.324 46.6701 126.355 46.6544 126.418Z" fill="#263238"/>
    <path d="M60.07 110.047C56.4738 113.315 45.8414 110.923 40.1812 107.342C39.8059 107.092 38.2893 103.074 36.2253 98.289C34.9588 95.3807 33.4734 92.191 31.9098 89.3609C31.5971 88.7824 34.1458 88.7668 34.1458 88.7668L38.2893 87.6253L51.9863 83.8727C52.9296 87.9622 54.3683 91.9212 56.2705 95.6622C56.4912 96.0501 56.7477 96.4165 57.0367 96.7567C57.0822 96.8111 57.124 96.8686 57.1617 96.9287C58.7722 98.9301 63.5881 106.873 60.07 110.047Z" fill="#DD6A57"/>
    <path d="M57.0679 96.7567C57.1135 96.8111 57.1553 96.8686 57.193 96.9287C56.6366 97.3482 56.0455 97.7195 55.4261 98.0388C43.3709 104.293 33.5359 90.0176 33.5359 90.0176L38.3518 87.6253L52.0488 83.8727C52.9921 87.9622 54.4308 91.9212 56.333 95.6622C56.5438 96.0488 56.7898 96.4152 57.0679 96.7567Z" fill="#263238"/>
    <path d="M21.4807 61.9825C20.8396 69.4565 28.8765 88.9231 34.8337 92.363C43.4647 97.3665 55.4418 95.4902 59.1475 85.577C62.7281 75.9923 51.7986 50.8186 45.3567 47.8947C35.8501 43.6104 22.4189 50.9436 21.4807 61.9825Z" fill="#DD6A57"/>
    <path d="M43.6367 70.5823C43.6367 70.5823 43.6367 70.6917 43.6367 70.7386C44.2622 72.0208 44.7469 73.5844 43.7774 74.5381V74.6163C45.1065 73.7094 44.4341 71.6455 43.6367 70.5823Z" fill="#263238"/>
    <path d="M41.8855 69.7066C39.7277 70.4728 41.432 74.7258 43.4491 74.0065C45.4661 73.2873 43.6836 69.0187 41.8855 69.7066Z" fill="#263238"/>
    <path d="M51.2045 67.1424C51.2045 67.1424 51.3295 67.1424 51.3608 67.2206C51.8455 68.5496 52.6273 69.9881 53.9876 69.9568C52.471 70.4103 51.4546 68.487 51.2045 67.1424Z" fill="#263238"/>
    <path d="M51.8299 65.2974C53.8938 64.281 55.7545 68.4245 53.8469 69.3939C51.9394 70.3634 50.1099 66.1417 51.8299 65.2974Z" fill="#263238"/>
    <path d="M39.4307 68.4402C39.9467 68.0493 40.3532 67.6271 40.8379 67.1893C41.3975 66.8117 41.8198 66.2632 42.0419 65.6257C42.0702 65.4142 42.0291 65.1993 41.9248 65.0132C41.8204 64.8271 41.6585 64.6799 41.4634 64.5938C41.0482 64.4834 40.6108 64.4876 40.1978 64.606C39.7848 64.7244 39.4116 64.9525 39.118 65.2661C38.4178 65.7954 37.9476 66.5734 37.8046 67.4395C37.7715 67.6414 37.7993 67.8487 37.8843 68.0349C37.9693 68.221 38.1078 68.3777 38.2821 68.485C38.4564 68.5923 38.6587 68.6453 38.8632 68.6373C39.0677 68.6293 39.2653 68.5607 39.4307 68.4402Z" fill="#263238"/>
    <path d="M52.6117 62.4985C51.9758 62.621 51.3338 62.7098 50.6885 62.7643C50.046 62.9363 49.3647 62.8924 48.7496 62.6393C48.5676 62.5266 48.4296 62.355 48.3585 62.1531C48.2874 61.9511 48.2875 61.731 48.3587 61.5291C48.5501 61.1459 48.8415 60.8216 49.2021 60.5904C49.5626 60.3592 49.979 60.2297 50.4071 60.2157C51.2684 60.0572 52.1579 60.2184 52.9088 60.6691C53.0663 60.7808 53.1893 60.9344 53.2639 61.1124C53.3384 61.2905 53.3616 61.4859 53.3306 61.6764C53.2997 61.867 53.2159 62.0451 53.0888 62.1904C52.9617 62.3357 52.7964 62.4424 52.6117 62.4985Z" fill="#263238"/>
    <path d="M51.2514 78.2438C50.9819 79.189 50.4761 80.05 49.7816 80.7456C49.3889 81.1124 48.8915 81.3474 48.3587 81.4179C47.2017 81.5586 46.7952 80.6048 46.6388 79.7136C46.5839 79.2304 46.5839 78.7426 46.6388 78.2595C48.1399 78.7386 49.7536 78.7331 51.2514 78.2438Z" fill="#263238"/>
    <path d="M49.7816 80.7456C49.3889 81.1124 48.8915 81.3475 48.3587 81.4179C47.2017 81.5586 46.7952 80.6049 46.6388 79.7136C47.2025 79.5081 47.8189 79.4981 48.3889 79.6853C48.959 79.8724 49.4495 80.2459 49.7816 80.7456Z" fill="#FF99BA"/>
    <path d="M27.4692 79.2445C30.9717 77.681 27.3754 69.0656 27.3754 69.0656C27.3754 69.0656 32.4727 66.0479 32.3633 57.5576C32.3633 57.5576 41.0412 59.3557 46.5606 56.0878C55.176 50.9749 50.4696 39.0447 46.0915 37.872C39.8372 36.2303 33.0356 44.5329 33.0356 44.5329C33.0356 44.5329 18.4317 45.7682 17.8219 56.1816C16.1523 56.9378 14.8316 58.2992 14.1264 59.991C13.4213 61.6829 13.3841 63.5792 14.0224 65.2973C16.0394 71.9582 24.8581 80.4016 27.4692 79.2445Z" fill="#263238"/>
    <path d="M26.4686 70.5823C28.9568 69.1313 30.8969 66.8999 31.988 64.2341C32.5544 62.7884 32.7676 61.2284 32.6099 59.6838C32.4522 58.1391 31.9281 56.6544 31.0811 55.353C31.0625 55.3239 31.0561 55.2887 31.0634 55.255C31.0708 55.2212 31.0912 55.1918 31.1202 55.1731C31.1492 55.1545 31.1845 55.1481 31.2182 55.1555C31.2519 55.1628 31.2814 55.1832 31.3 55.2123C32.2751 56.5456 32.9422 58.0787 33.2531 59.701C33.5641 61.3233 33.5112 62.9944 33.0982 64.5938C32.6542 66.1133 31.8201 67.4901 30.679 68.5873C29.5379 69.6846 28.1294 70.464 26.5936 70.8481C26.4373 70.8637 26.3278 70.6605 26.4686 70.5823Z" fill="#263238"/>
    <path d="M12.1461 61.6542C13.0999 58.6678 15.758 57.2762 18.5412 56.338C18.6975 56.338 18.7757 56.5569 18.5412 56.5882C17.1541 57.0479 15.9153 57.8703 14.9531 58.97C13.9908 60.0697 13.3402 61.4067 13.0686 62.8425C12.4901 65.5319 13.8191 68.1431 15.2733 70.3478C18.0577 74.5802 22.3056 77.6367 27.2034 78.9318C27.2034 78.9318 27.2034 79.0882 27.2034 79.0725C24.4693 78.4931 21.882 77.3624 19.5995 75.7493C17.3171 74.1363 15.3875 72.0749 13.9286 69.691C12.5683 67.4551 11.2549 64.4061 12.1461 61.6542Z" fill="#263238"/>
    <path d="M29.3455 77.5715C29.3455 77.5715 23.2476 72.1146 20.6677 74.4443C18.0877 76.7741 23.7948 85.3894 27.5318 85.8898C28.0121 85.9817 28.506 85.9759 28.984 85.8729C29.462 85.7698 29.9144 85.5715 30.3142 85.2899C30.714 85.0083 31.053 84.6491 31.311 84.2337C31.569 83.8183 31.7408 83.3552 31.816 82.872L29.3455 77.5715Z" fill="#DD6A57"/>
    <path d="M22.3563 76.8366C22.3563 76.8366 22.3563 76.9148 22.3563 76.9304C23.6064 77.2191 24.781 77.7698 25.8025 78.546C26.8241 79.3223 27.6693 80.3065 28.2823 81.4335C28.0858 81.2213 27.8454 81.0545 27.5778 80.9448C27.3102 80.8352 27.0218 80.7853 26.7329 80.7987C26.444 80.8121 26.1615 80.8885 25.9052 81.0224C25.6489 81.1564 25.4249 81.3447 25.249 81.5742C25.249 81.5742 25.2489 81.7306 25.3428 81.6993C25.7368 81.4607 26.1954 81.3506 26.6548 81.3842C27.1143 81.4178 27.5519 81.5935 27.907 81.887C28.49 82.3836 29.0145 82.9448 29.4706 83.56C29.6426 83.7476 30.0022 83.56 29.8615 83.3098C29.1892 80.1827 25.7649 76.3988 22.3563 76.8366Z" fill="#263238"/>
</svg>
