<svg width="481" height="466" viewBox="0 0 481 466" fill="none" xmlns="http://www.w3.org/2000/svg">
    <path d="M369.793 464.958C372.263 463.035 419.233 392.611 419.343 388.796C419.343 387.357 409.508 379.915 397.359 371.268C394.732 369.392 392.016 367.489 389.212 365.561C385.929 363.278 382.598 360.964 379.346 358.759C364.727 348.815 351.655 340.34 351.655 340.34L320.946 386.091L348.559 404.604L358.519 411.28L366.931 416.581C366.931 416.581 361.005 451.59 361.365 455.78C361.725 459.97 367.338 466.788 369.793 464.958Z" fill="#F7A9A0"/>
    <path d="M369.793 464.958C372.263 463.035 419.233 392.611 419.343 388.796C419.343 387.357 409.508 379.915 397.359 371.268C394.732 369.392 392.016 367.489 389.212 365.561C385.929 363.278 382.598 360.964 379.346 358.759L348.559 404.526L358.519 411.202L366.931 416.503C366.931 416.503 361.005 451.511 361.365 455.702C361.725 459.892 367.338 466.788 369.793 464.958Z" fill="white"/>
    <path d="M369.746 465.161C371.309 463.911 391.636 434.046 405.708 412C408.992 406.887 411.963 402.18 414.277 398.349C417.482 393.065 419.515 389.437 419.546 388.64C419.546 386.873 404.942 376.131 389.259 365.264L358.394 411.233L366.853 416.565C366.853 416.565 360.896 451.777 361.24 455.999C361.584 460.22 367.275 467.069 369.746 465.161Z" fill="#FFC727"/>
    <path d="M367.604 462.253C375.234 450.182 407.131 402.243 415.59 390.891C415.59 390.813 415.715 390.891 415.59 390.891C408.304 403.009 376.016 450.683 367.729 462.316C367.619 462.628 367.432 462.503 367.604 462.253Z" fill="#263238"/>
    <path d="M363.132 416.487C365.368 411.233 369.902 405.995 375.64 404.651C375.859 404.651 375.922 404.917 375.781 405.042C371.359 408.537 367.327 412.5 363.757 416.862C363.733 416.903 363.7 416.939 363.662 416.968C363.623 416.996 363.579 417.017 363.533 417.029C363.487 417.04 363.438 417.042 363.391 417.035C363.343 417.028 363.298 417.012 363.257 416.987C363.216 416.963 363.18 416.93 363.151 416.892C363.123 416.853 363.102 416.81 363.091 416.763C363.079 416.717 363.077 416.668 363.084 416.621C363.091 416.574 363.107 416.528 363.132 416.487Z" fill="#263238"/>
    <path d="M362.913 421.178C365.149 415.924 369.683 410.702 375.422 409.341C375.641 409.341 375.719 409.607 375.562 409.732C371.147 413.236 367.116 417.198 363.538 421.553C363.489 421.636 363.408 421.696 363.314 421.719C363.22 421.743 363.121 421.728 363.038 421.678C362.955 421.628 362.895 421.548 362.872 421.454C362.848 421.36 362.863 421.261 362.913 421.178Z" fill="#263238"/>
    <path d="M362.694 425.869C364.93 420.615 369.464 415.377 375.203 414.032C375.422 414.032 375.5 414.298 375.343 414.408C370.924 417.912 366.893 421.88 363.319 426.244C363.295 426.285 363.262 426.321 363.224 426.349C363.185 426.378 363.142 426.398 363.095 426.41C363.049 426.422 363 426.424 362.953 426.417C362.906 426.41 362.86 426.394 362.819 426.369C362.778 426.344 362.742 426.312 362.714 426.273C362.685 426.235 362.665 426.191 362.653 426.145C362.641 426.098 362.639 426.05 362.646 426.003C362.653 425.955 362.669 425.91 362.694 425.869Z" fill="#263238"/>
    <path d="M362.475 430.559C364.711 425.306 369.245 420.068 374.984 418.723C375.203 418.723 375.281 418.989 375.124 419.098C370.709 422.607 366.679 426.575 363.1 430.935C363.076 430.976 363.043 431.012 363.005 431.04C362.966 431.069 362.923 431.089 362.876 431.101C362.83 431.112 362.781 431.115 362.734 431.108C362.687 431.101 362.641 431.084 362.6 431.06C362.559 431.035 362.523 431.003 362.495 430.964C362.466 430.926 362.446 430.882 362.434 430.835C362.422 430.789 362.42 430.741 362.427 430.693C362.434 430.646 362.45 430.6 362.475 430.559Z" fill="#263238"/>
    <path d="M354.657 420.193C359.442 418.629 363.351 415.002 367.353 412.093C367.436 412.021 367.5 411.93 367.541 411.828C367.582 411.726 367.599 411.616 367.59 411.507C367.581 411.398 367.546 411.292 367.489 411.198C367.431 411.105 367.353 411.026 367.26 410.968C367.27 410.947 367.275 410.925 367.276 410.902C367.277 410.88 367.272 410.857 367.263 410.837C367.254 410.816 367.241 410.797 367.224 410.782C367.207 410.767 367.187 410.755 367.166 410.749C362.09 409.388 356.746 409.388 351.671 410.749C348.731 411.609 345.307 414.267 346.62 417.785C347.934 421.303 351.827 421.178 354.657 420.193ZM350.107 418.879C344.431 416.284 350.795 412.625 352.984 412.031C354.41 411.695 355.857 411.46 357.315 411.327C360.333 411.015 363.351 411.124 366.368 411.108C364.32 412.406 362.397 413.876 360.396 415.252C357.956 416.909 353.187 420.302 350.06 418.879H350.107Z" fill="#263238"/>
    <path d="M370.402 390.406C366.744 389.593 364.57 393.346 364.148 396.364C363.464 401.578 364.171 406.88 366.196 411.734C366.211 411.75 366.229 411.764 366.249 411.773C366.27 411.782 366.291 411.787 366.314 411.787C366.336 411.787 366.358 411.782 366.378 411.773C366.398 411.764 366.416 411.75 366.431 411.734C366.496 411.821 366.581 411.892 366.679 411.941C366.777 411.99 366.885 412.015 366.994 412.015C367.103 412.015 367.211 411.99 367.308 411.941C367.406 411.892 367.491 411.821 367.557 411.734C369.886 407.387 372.92 403.009 373.811 398.068C374.358 395.175 373.874 391.173 370.402 390.406ZM369.714 404.401C368.62 406.574 367.416 408.685 366.4 410.889C366.009 407.903 365.493 404.932 365.399 401.899C365.341 400.439 365.378 398.976 365.508 397.521C365.743 395.269 368.557 388.468 371.888 393.737C373.733 396.645 371.012 401.821 369.714 404.401Z" fill="#263238"/>
    <path d="M197.329 181.058C197.329 181.058 270.333 287.757 283.67 297.373C297.008 306.989 374.515 354.069 374.515 354.069L339.803 405.542C339.803 405.542 257.949 353.662 242.188 338.308C208.352 305.472 158.849 212.658 158.849 212.658L197.329 181.058Z" fill="#263238"/>
    <path d="M332.204 395.77C332.955 394.347 334.018 392.971 334.909 391.626C335.8 390.281 336.973 388.608 338.036 387.092C339.959 384.136 341.93 381.228 343.931 378.32C347.965 372.488 352.124 366.718 356.44 361.12L360.005 356.43C361.271 354.866 362.647 353.193 363.851 351.504C363.929 351.379 364.086 351.504 363.992 351.614C361.912 354.522 360.067 357.649 358.097 360.636C356.127 363.622 354.172 366.468 352.155 369.361C348.121 375.193 343.947 380.947 339.647 386.56C338.458 388.124 337.301 389.687 336.113 391.251C335.488 392.079 334.831 392.814 334.19 393.721C333.549 394.628 333.142 395.285 332.501 395.926C332.48 395.965 332.445 395.995 332.402 396.008C332.36 396.021 332.314 396.017 332.274 395.996C332.235 395.975 332.205 395.94 332.192 395.897C332.179 395.855 332.183 395.809 332.204 395.77Z" fill="#455A64"/>
    <path d="M357.784 354.475C351.686 351.442 325.965 334.962 319.242 330.912C312.518 326.862 305.92 322.891 299.244 318.904C292.864 315.073 286.203 311.492 280.481 306.708C274.758 301.923 270.739 296.263 266.612 290.431L253.024 271.23C243.955 258.44 234.871 245.665 225.771 232.906C216.624 220.116 207.492 207.326 198.236 194.63L194.796 189.939C194.702 189.814 194.499 189.939 194.593 190.064C203.474 203 212.428 215.889 221.455 228.732C230.482 241.574 239.582 254.494 248.755 267.493C253.269 273.904 257.819 280.309 262.406 286.709C266.353 292.706 270.732 298.408 275.508 303.768C280.481 308.944 286.547 312.681 292.708 316.355C299.473 320.431 306.249 324.501 313.034 328.567L333.22 340.653C339.647 344.515 355.799 353.881 357.3 355.007C357.565 355.32 358.175 354.694 357.784 354.475Z" fill="#455A64"/>
    <path d="M480.354 251.138C480.354 248.011 452.803 167.971 449.817 165.578C448.691 164.656 436.792 168.002 422.548 172.427C419.421 173.381 416.294 174.241 413.073 175.429C409.101 176.914 405.13 178.447 401.33 179.963C384.787 186.531 371.169 192.707 371.169 192.707L388.368 243.382L418.436 232.156L430.772 227.559L440.076 224.088C440.076 224.088 464.343 250.012 467.876 252.232C471.41 254.453 480.385 254.249 480.354 251.138Z" fill="#F7A9A0"/>
    <path d="M480.354 251.138C480.354 248.011 452.803 167.971 449.817 165.578C448.691 164.656 436.792 168.002 422.548 172.427C419.421 173.381 416.294 174.241 413.073 175.429C409.101 176.914 405.13 178.447 401.33 179.963C406.568 195.599 413.948 218.131 418.53 232.156L430.866 227.559L440.17 224.088C440.17 224.088 464.437 250.012 467.97 252.232C471.504 254.453 480.385 254.249 480.354 251.138Z" fill="white"/>
    <path d="M480.557 251.341C480.557 248.214 452.835 167.705 449.848 165.344C448.457 164.234 431.085 169.409 412.901 175.257L430.757 227.668L440.138 224.182C440.138 224.182 464.515 250.262 468.08 252.545C471.645 254.828 480.573 254.468 480.557 251.341Z" fill="#FFC727"/>
    <path d="M476.93 251.294C471.926 237.91 453.163 183.513 449.27 169.878C449.27 169.769 449.27 169.738 449.348 169.878C454.57 183.028 472.927 237.613 477.148 251.185C477.242 251.498 477.039 251.576 476.93 251.294Z" fill="#263238"/>
    <path d="M437.777 227.074C434.963 222.102 433.54 215.332 435.932 209.969C435.932 209.765 436.308 209.969 436.323 210.094C436.424 215.73 437.132 221.339 438.434 226.824C438.446 226.905 438.43 226.988 438.389 227.059C438.347 227.13 438.283 227.184 438.206 227.214C438.13 227.243 438.045 227.245 437.967 227.22C437.889 227.194 437.822 227.143 437.777 227.074Z" fill="#263238"/>
    <path d="M441.405 230.108C438.591 225.135 437.168 218.365 439.56 213.002C439.654 212.799 439.935 213.002 439.951 213.127C440.052 218.763 440.76 224.373 442.062 229.857C442.074 229.939 442.058 230.022 442.017 230.092C441.975 230.163 441.911 230.218 441.834 230.247C441.757 230.276 441.673 230.278 441.595 230.253C441.517 230.228 441.45 230.176 441.405 230.108Z" fill="#263238"/>
    <path d="M445.032 233.141C442.218 228.184 440.795 221.398 443.187 216.051C443.281 215.832 443.563 215.973 443.578 216.16C443.678 221.797 444.385 227.406 445.689 232.891C445.701 232.972 445.685 233.055 445.644 233.126C445.603 233.197 445.538 233.251 445.461 233.28C445.385 233.31 445.3 233.312 445.222 233.286C445.144 233.261 445.077 233.21 445.032 233.141Z" fill="#263238"/>
    <path d="M448.66 236.19C445.845 231.218 444.423 224.447 446.815 219.084C446.909 218.881 447.19 219.006 447.206 219.209C447.307 224.846 448.015 230.455 449.317 235.94C449.329 236.021 449.313 236.104 449.272 236.175C449.23 236.246 449.166 236.3 449.089 236.329C449.012 236.359 448.928 236.361 448.85 236.335C448.772 236.31 448.705 236.259 448.66 236.19Z" fill="#263238"/>
    <path d="M435.604 236.127C437.246 231.358 436.745 226.058 436.87 221.117C436.87 220.601 436.323 220.398 435.917 220.523C435.904 220.503 435.886 220.488 435.866 220.477C435.846 220.466 435.823 220.46 435.799 220.46C435.776 220.46 435.753 220.466 435.733 220.477C435.712 220.488 435.695 220.503 435.682 220.523C431.523 223.744 428.287 228.004 426.301 232.875C425.206 235.737 425.253 240.068 428.834 241.162C432.414 242.257 434.666 238.895 435.604 236.127ZM431.804 238.942C426.301 241.881 427.208 234.579 428.099 232.5C428.708 231.169 429.403 229.879 430.178 228.638C431.817 226.104 433.587 223.656 435.479 221.305C435.276 223.728 435.276 226.152 435.166 228.575C435.025 231.468 434.838 237.316 431.804 238.942Z" fill="#263238"/>
    <path d="M421.5 205.512C418.623 207.936 420.296 211.939 422.423 214.128C426.158 217.825 430.801 220.473 435.885 221.805C435.907 221.813 435.931 221.815 435.954 221.811C435.977 221.808 435.998 221.799 436.017 221.785C436.036 221.771 436.05 221.753 436.06 221.732C436.07 221.711 436.074 221.687 436.073 221.664C436.495 221.664 436.933 221.195 436.714 220.742C434.666 216.239 433.024 211.173 429.662 207.436C427.692 205.262 424.205 203.214 421.5 205.512ZM432.211 214.55C433.274 216.739 434.212 218.959 435.338 221.117C432.711 219.553 430.038 218.224 427.52 216.426C426.318 215.593 425.174 214.679 424.096 213.69C422.532 212.126 418.749 205.778 424.972 206.31C428.474 206.638 430.945 211.939 432.211 214.55Z" fill="#263238"/>
    <path d="M158.849 212.768C158.849 212.768 175.892 227.606 194.265 227.371C194.265 227.371 276.29 260.816 306.952 264.538C328.764 267.18 412.948 238.207 412.948 238.207L394.482 181.824C394.482 181.824 321.822 210.422 313.816 210.61C304.138 210.829 254.4 195.818 253.321 193.801C249.492 186.807 244.316 180.64 238.093 175.654C231.87 170.668 224.723 166.962 217.062 164.75L158.849 212.768Z" fill="#263238"/>
    <path d="M200.3 184.795C203.857 187.477 208.197 188.917 212.652 188.892C217.506 188.768 222.219 187.242 226.224 184.498C226.928 184.06 227.788 185.014 227.037 185.53C219.141 191.518 207.336 192.441 200.003 185.092C199.862 184.92 200.112 184.654 200.3 184.795Z" fill="#455A64"/>
    <path d="M182.663 227.668C186.405 226.676 190.241 226.079 194.108 225.886C198.095 225.526 202.082 225.62 206.085 225.464C206.226 225.464 206.273 225.698 206.085 225.714C202.129 226.183 198.267 226.965 194.28 227.371C190.439 227.918 186.556 228.122 182.678 227.981C182.506 227.966 182.459 227.715 182.663 227.668Z" fill="#455A64"/>
    <path d="M169.122 211.97C170.905 213.534 172.765 214.878 174.595 216.317C176.424 217.755 177.972 219.147 179.739 220.413C181.404 221.676 183.395 222.435 185.477 222.602C186.619 222.681 187.776 222.602 188.917 222.602C189.527 222.602 190.168 222.602 190.809 222.602L190.09 221.993L188.088 220.257C186.525 218.975 185.133 217.677 183.679 216.379C180.818 213.815 177.972 211.188 174.954 208.78C174.845 208.687 174.954 208.499 175.111 208.577C178.238 210.86 181.365 213.049 184.383 215.426C185.868 216.598 192.779 222.712 193.233 223.244C193.686 223.775 194.171 224.197 194.609 224.698C195.108 225.163 195.549 225.689 195.922 226.261C195.922 226.418 195.828 226.527 195.687 226.48C195.071 226.171 194.498 225.782 193.983 225.323C193.451 224.917 192.92 224.51 192.42 224.072L191.872 223.572C190.84 223.728 189.73 223.697 188.745 223.76C187.76 223.822 186.509 223.931 185.399 223.916C183.331 223.883 181.321 223.229 179.629 222.04C177.839 220.738 176.17 219.278 174.642 217.677C172.765 215.863 170.951 213.987 169.028 212.22C168.856 212.064 168.997 211.876 169.122 211.97Z" fill="#455A64"/>
    <path d="M401.283 239.583C400.595 238.129 400.126 236.456 399.579 234.892C399.032 233.329 398.391 231.437 397.781 229.717C396.577 226.418 395.42 223.087 394.294 219.757C392.011 213.033 389.895 206.258 387.946 199.43C387.399 197.554 386.883 195.662 386.382 193.786C385.882 191.909 385.366 189.736 384.725 187.766C384.725 187.609 384.85 187.563 384.913 187.766C385.976 191.174 387.383 194.52 388.603 197.882C389.822 201.244 390.932 204.527 392.042 207.873C394.31 214.597 396.421 221.383 398.297 228.2C398.813 230.076 399.391 231.953 399.86 233.829C400.157 234.83 400.408 235.83 400.689 236.831C400.971 237.832 401.283 238.598 401.455 239.505C401.565 239.677 401.346 239.802 401.283 239.583Z" fill="#455A64"/>
    <path d="M243.768 246.056C230.868 240.881 217.828 236.143 204.85 231.187C201.144 229.764 197.439 228.341 193.702 226.996C193.675 226.994 193.649 227 193.626 227.013C193.603 227.027 193.585 227.047 193.575 227.071C193.565 227.096 193.562 227.123 193.568 227.149C193.574 227.174 193.588 227.198 193.608 227.215C206.167 233.197 219.074 238.418 232.26 242.851C236.028 244.133 239.827 245.259 243.658 246.353C243.815 246.416 243.924 246.166 243.768 246.056Z" fill="#455A64"/>
    <path d="M383.021 196.022C370.825 200.618 358.587 205.116 346.308 209.515C340.147 211.72 333.955 213.893 327.779 216.035C324.777 217.067 321.791 218.209 318.695 218.944C315.456 219.678 312.104 219.774 308.828 219.225C302.661 218.018 296.589 216.366 290.66 214.284C284.593 212.377 278.578 210.323 272.616 208.124C266.653 205.924 260.644 203.548 254.588 200.994C253.253 200.494 251.962 199.888 250.726 199.18C249.475 198.274 248.443 197.098 247.708 195.74C240.743 184.937 230.494 176.655 218.469 172.114C217.281 171.656 216.077 171.233 214.857 170.848C214.716 170.848 214.654 171.035 214.857 171.082C225.027 174.378 234.14 180.313 241.266 188.282C243.07 190.25 244.736 192.34 246.254 194.536C247.817 196.725 248.881 198.945 251.32 200.181C254.119 201.619 257.105 202.761 260.013 203.98C262.922 205.2 265.705 206.31 268.582 207.42C274.513 209.703 280.496 211.84 286.532 213.831C292.614 215.817 298.759 217.787 304.982 219.272C307.948 220.041 311.003 220.41 314.066 220.367C317.102 220.173 320.093 219.541 322.948 218.49C329.202 216.411 335.378 214.159 341.586 211.939C353.928 207.54 366.222 203.011 378.471 198.351L383.161 196.553C383.443 196.412 383.318 196.022 383.021 196.022Z" fill="#455A64"/>
    <path d="M125.561 99.8454C146.622 120.375 182.162 124.081 212.762 100.017C240.594 78.1272 247.677 36.6452 234.042 17.1473C219.563 -3.5702 192.341 -3.72656 179.958 10.7679C168.012 24.8402 168.121 42.493 155.925 50.5768C150.093 54.4545 138.288 55.2675 129.423 60.5212C119.525 66.4784 112.036 86.6487 125.561 99.8454Z" fill="#263238"/>
    <path d="M242.532 39.6629C243.325 51.7543 241.016 63.8478 235.825 74.7967C230.576 85.745 222.877 95.3377 213.325 102.832C203.879 110.529 192.539 115.546 180.489 117.358C168.481 118.946 156.266 117.26 145.137 112.479C156.353 116.725 168.469 118.032 180.333 116.279C186.2 115.333 191.912 113.598 197.314 111.119C202.701 108.625 207.758 105.474 212.371 101.737C217.027 98.0397 221.292 93.8744 225.098 89.3068C228.878 84.709 232.11 79.6874 234.73 74.3433C237.366 68.9941 239.361 63.3521 240.672 57.5347C242.081 51.6861 242.706 45.6763 242.532 39.6629Z" fill="#263238"/>
    <path d="M182.428 6.26476C179.511 8.55978 176.978 11.3043 174.923 14.3954C172.851 17.4391 171.141 20.7133 169.826 24.1522C168.528 27.639 167.121 31.0789 165.588 34.5031C164.077 37.9575 162.173 41.2262 159.913 44.2442C158.756 45.7564 157.469 47.1638 156.066 48.4503C154.597 49.7036 152.967 50.7552 151.219 51.5775C147.786 53.0634 144.267 54.3426 140.68 55.4082C137.165 56.5068 133.802 58.0461 130.673 59.9896C127.554 61.9933 124.83 64.5532 122.637 67.5417C124.637 64.3637 127.233 61.6028 130.283 59.411C133.395 57.3116 136.763 55.6196 140.305 54.3763C143.792 53.0316 147.373 51.9996 150.64 50.3891C152.27 49.6191 153.789 48.6359 155.159 47.4652C156.479 46.2217 157.682 44.861 158.755 43.3999C163.274 37.6303 165.854 30.5785 168.794 23.7769C170.25 20.316 172.114 17.0408 174.344 14.0201C176.576 10.9923 179.31 8.3692 182.428 6.26476Z" fill="#263238"/>
    <path d="M149.108 129.1C143.354 137.012 109.284 159.465 83.8285 163.718C74.4469 165.281 38.3125 149.348 30.0567 143.938C20.3782 137.59 32.0894 112.667 38.7816 113.965C47.1311 115.528 81.4362 130.617 89.1447 131.821C98.5262 133.29 122.715 122.955 142.4 119.156C152.532 117.201 153.549 123.002 149.108 129.1Z" fill="#F7A9A0"/>
    <path d="M30.0568 143.938C26.9296 142.093 13.217 132.368 10.0116 128.819C6.80627 125.269 -1.66838 114.355 0.817726 111.619C3.30383 108.883 6.02447 111.885 6.02447 111.885C6.02447 111.885 3.17876 106.71 5.91503 104.192C8.6513 101.675 12.7635 106.459 12.7635 106.459C12.7635 106.459 10.2149 100.94 13.1388 98.6414C16.0627 96.3429 19.3931 101.769 19.3931 101.769C19.3931 101.769 16.8445 96.8277 20.0498 95.9364C23.8963 94.8419 27.5863 104.489 31.4171 108.148C32.2771 108.977 50.1801 123.784 50.1801 123.784L30.0568 143.938Z" fill="#F7A9A0"/>
    <path d="M19.0648 101.362C21.801 108.445 24.2246 111.088 30.2131 115.544C30.3226 115.638 30.2131 115.825 30.088 115.747C23.8337 111.901 20.3156 109.055 18.7208 101.487C18.6426 101.112 18.9397 101.034 19.0648 101.362Z" fill="#263238"/>
    <path d="M12.5446 105.912C16.0314 113.026 18.627 115.903 24.553 121.032C24.6468 121.11 24.5529 121.251 24.4435 121.188C18.1891 116.638 14.7649 113.714 12.2163 106.147C12.1068 105.803 12.3882 105.584 12.5446 105.912Z" fill="#263238"/>
    <path d="M6.33721 112.151C10.1993 118.796 12.9043 122.064 19.315 126.317C19.3304 126.327 19.3436 126.34 19.3539 126.356C19.3642 126.371 19.3714 126.388 19.375 126.406C19.3786 126.425 19.3786 126.443 19.375 126.461C19.3715 126.48 19.3643 126.497 19.3541 126.512C19.3438 126.528 19.3306 126.541 19.3152 126.551C19.2998 126.562 19.2826 126.569 19.2644 126.572C19.2463 126.576 19.2276 126.576 19.2094 126.572C19.1913 126.569 19.174 126.562 19.1586 126.551C13.1184 123.69 8.4457 118.568 6.14959 112.291C5.97759 111.838 6.08703 111.729 6.33721 112.151Z" fill="#263238"/>
    <path d="M56.3407 123.753C54.1693 119.719 51.7026 115.852 48.9606 112.182C46.1461 108.961 31.2451 100.815 29.2906 103.926C26.7889 107.96 34.4661 114.355 38.6722 116.998C38.6722 116.998 32.8556 126.379 37.3587 132.102C41.8619 137.825 56.3407 123.753 56.3407 123.753Z" fill="#F7A9A0"/>
    <path d="M28.9623 105.334C29.3219 110.665 35.029 113.777 38.8754 116.654C38.9335 116.694 38.9809 116.748 39.0137 116.811C39.0464 116.873 39.0635 116.943 39.0635 117.014C39.0635 117.084 39.0464 117.154 39.0137 117.216C38.9809 117.279 38.9335 117.333 38.8754 117.373C36.702 121.438 34.8101 127.802 37.0148 132.149C37.0148 132.274 36.9209 132.384 36.8271 132.258C33.825 127.927 35.1697 121.517 37.8435 117.217C33.8407 114.34 28.2743 110.962 28.8997 105.334H28.9623Z" fill="#263238"/>
    <path d="M40.7205 150.834C40.7205 150.834 70.8977 165.047 83.5158 164.265C86.9115 163.871 90.2556 163.116 93.4915 162.014C118.259 155.056 139.821 138.888 146.653 132.759C153.815 126.286 155.472 117.232 145.199 118.28C144.428 118.374 143.599 118.515 142.713 118.702C129.751 121.501 93.5696 131.836 90.0672 131.461C86.5648 131.086 57.5759 118.577 57.5759 118.577L40.7205 150.834Z" fill="#DBDBDB"/>
    <path d="M93.5384 162.014C118.306 155.056 139.867 138.888 146.7 132.759C153.861 126.286 155.519 117.232 145.246 118.28L93.5384 162.014Z" fill="#263238"/>
    <path d="M48.0537 152.241C50.8056 147.457 53.3855 142.563 55.9498 137.668C57.2319 135.214 58.5297 132.743 59.7493 130.257C60.9689 127.771 62.3136 125.191 63.3142 122.533C63.3215 122.505 63.319 122.476 63.3071 122.45C63.2953 122.424 63.2748 122.402 63.2491 122.39C63.2235 122.377 63.1942 122.373 63.1662 122.379C63.1382 122.386 63.1132 122.401 63.0953 122.424C61.5318 124.769 60.234 127.318 58.8893 129.788C57.5446 132.258 56.3719 134.479 55.1523 136.965C52.6193 141.968 50.0863 146.972 47.741 152.069C47.6471 152.319 47.9442 152.476 48.0537 152.241Z" fill="#263238"/>
    <path d="M145.371 181.199L157.239 215.019C157.239 215.019 209.4 196.444 234.12 171.004C234.12 171.004 188.057 123.94 161.586 113.433C160.976 113.183 160.382 112.979 159.803 112.792C159.693 112.739 159.578 112.697 159.459 112.667C147.654 108.789 139.789 116.122 136.427 124.644C135.599 126.755 130.283 158.23 133.3 167.58C135.974 175.82 145.371 181.199 145.371 181.199Z" fill="#DBDBDB"/>
    <path d="M230.618 167.517C209.932 190.299 172.046 205.184 155.753 210.797L154.19 206.372C169.294 201.088 207.352 186.249 227.241 164.156C228.538 165.469 229.664 166.579 230.618 167.517Z" fill="#C7C7C7"/>
    <path d="M224.536 161.623C214.576 172.568 199.518 182.809 179.582 192.347C170.958 196.46 162.134 200.139 153.142 203.37L152.095 200.4C168.637 194.427 203.271 180.073 222.268 159.465C223.066 160.184 223.816 160.919 224.536 161.623Z" fill="#C7C7C7"/>
    <path d="M172.468 126.958C180.724 145.924 193.889 190.58 191.591 199.696C188.464 211.986 157.098 239.333 148.67 245.415C144.996 248.058 125.951 224.666 126.983 219.929C128.015 215.191 157.989 195.38 159.819 192.238C161.648 189.095 158.662 154.618 156.973 137.153C154.8 115.106 169.216 119.406 172.468 126.958Z" fill="#F7A9A0"/>
    <path d="M106.266 238.77C101.575 241.897 92.694 241.897 93.8354 245.978C94.8518 249.606 100.95 248.933 100.95 248.933C100.95 248.933 94.3201 251.904 96.5248 255.485C98.7295 259.065 105.25 256.97 105.25 256.97C105.25 256.97 99.2923 260.097 101.747 263.428C104.202 266.758 110.394 265.241 110.394 265.241C110.394 265.241 109.221 266.977 111.957 268.619C115.991 270.949 125.326 267.227 129.751 264.131C134.176 261.035 148.045 246.416 150.078 244.133L130.423 215.613C130.423 215.613 120.025 217.505 114.866 219.1C109.706 220.695 94.195 230.702 96.4153 234.736C98.6356 238.77 109.471 231.515 112.52 230.311C115.569 229.107 116.351 229.623 115.397 231.233C112.58 234.008 109.524 236.529 106.266 238.77Z" fill="#F7A9A0"/>
    <path d="M101.216 248.761C109.643 247.198 113.052 245.118 119.275 239.38C119.384 239.27 119.588 239.38 119.463 239.552C113.896 245.681 109.987 248.933 101.262 249.121C100.84 249.183 100.809 248.839 101.216 248.761Z" fill="#263238"/>
    <path d="M104.874 257.001C113.49 254.656 117.211 252.311 124.153 246.901C124.263 246.822 124.403 246.979 124.31 247.073C117.946 253.03 113.974 256.204 105.062 257.423C104.655 257.423 104.483 257.001 104.874 257.001Z" fill="#263238"/>
    <path d="M110.456 265.148C118.634 262.271 122.84 259.972 128.891 253.78C128.903 253.762 128.919 253.746 128.938 253.735C128.957 253.723 128.978 253.715 129 253.712C129.022 253.71 129.044 253.711 129.066 253.718C129.087 253.724 129.106 253.735 129.123 253.749C129.14 253.764 129.153 253.782 129.163 253.802C129.172 253.822 129.177 253.844 129.177 253.866C129.177 253.888 129.173 253.91 129.164 253.93C129.155 253.951 129.142 253.969 129.126 253.984C124.68 260.072 118.02 264.171 110.581 265.398C110.05 265.492 109.94 265.335 110.456 265.148Z" fill="#263238"/>
    <path d="M132.628 211.657L157.192 241.709C157.192 241.709 191.294 213.565 193.154 203.026C195.859 187.672 182.678 146.44 174.313 128.631C165.948 110.822 153.861 117.576 155.425 135.433C156.989 152.788 159.021 187.797 158.552 189.626C158.114 191.987 132.628 211.657 132.628 211.657Z" fill="#DBDBDB"/>
    <path d="M159.037 186.437C159.037 185.42 158.802 180.73 158.771 179.932C158.662 176.445 158.552 172.959 158.38 169.472C158.208 165.985 158.068 162.514 157.802 159.043C157.536 155.572 157.208 152.695 157.004 148.238C157.004 148.082 156.77 148.098 156.77 148.238C156.77 150.334 156.848 152.491 156.91 154.649L156.723 154.102C156.284 153.187 155.913 152.241 155.613 151.272C155.613 151.115 155.331 151.272 155.394 151.365C155.753 152.304 156.77 156.353 156.957 156.635C156.957 157.198 156.957 157.776 156.957 158.323C156.957 161.623 157.129 164.922 157.239 168.221C157.348 171.52 157.505 174.788 157.645 178.087C157.645 179.651 158.63 188.876 157.739 190.189C155.599 192.615 153.255 194.854 150.734 196.881C150.715 196.887 150.697 196.898 150.683 196.912C150.668 196.926 150.657 196.943 150.651 196.962C150.645 196.981 150.643 197.002 150.646 197.022C150.65 197.041 150.658 197.06 150.67 197.076C150.682 197.093 150.698 197.106 150.716 197.114C150.734 197.123 150.754 197.127 150.774 197.126C150.794 197.126 150.814 197.12 150.832 197.11C150.849 197.1 150.864 197.086 150.875 197.069C152.235 195.881 153.783 194.911 155.191 193.801C156.403 192.944 157.46 191.886 158.318 190.674C158.978 189.366 159.229 187.889 159.037 186.437Z" fill="#263238"/>
    <path d="M193.78 193.676C193.623 191.8 193.436 189.939 193.201 188.063C192.748 184.342 192.044 180.62 191.262 176.946C189.783 170.174 187.92 163.492 185.68 156.932C185.593 155.358 185.405 153.791 185.118 152.241C184.805 150.412 184.477 148.582 184.148 146.753C184.148 146.597 183.898 146.659 183.914 146.753C184.289 148.614 184.539 150.474 184.758 152.351L185.039 155.024C183.688 151.039 182.122 147.13 180.349 143.313C180.349 143.219 180.161 143.313 180.208 143.313C182.725 150.365 185.211 157.385 187.182 164.64C189.143 171.852 190.739 179.158 191.966 186.531C192.867 190.788 193.55 195.088 194.014 199.414C194.014 199.571 194.28 199.555 194.265 199.414C193.967 197.585 193.936 195.615 193.78 193.676Z" fill="#263238"/>
    <path d="M161.492 235.111C158.146 230.717 154.659 226.433 151.156 222.165C149.39 220.022 147.623 217.88 145.793 215.785C143.964 213.69 142.135 211.438 140.086 209.531C140.064 209.513 140.036 209.504 140.007 209.505C139.979 209.505 139.952 209.515 139.93 209.534C139.908 209.552 139.893 209.577 139.887 209.605C139.882 209.633 139.886 209.662 139.899 209.687C141.462 212.048 143.276 214.222 145.043 216.442C146.81 218.662 148.451 220.617 150.187 222.696C153.799 226.98 157.426 231.265 161.132 235.408C161.351 235.424 161.617 235.221 161.492 235.111Z" fill="#263238"/>
    <path d="M153.658 113.323C153.658 114.715 149.046 124.644 142.916 125.598C140.931 125.91 138.413 114.324 138.413 114.324L133.613 103.645L147.451 90.714C147.451 90.714 153.674 112.745 153.658 113.323Z" fill="#F7A9A0"/>
    <path d="M133.613 103.645L138.413 114.324C144.079 110.661 148.095 104.935 149.609 98.3599C148.436 94.1539 147.466 90.714 147.466 90.714L133.613 103.645Z" fill="#263238"/>
    <path d="M117.352 82.7554C112.661 102.738 124.013 107.851 128.297 108.867C132.206 109.79 145.653 112.448 152.439 93.075C159.225 73.7022 151.454 65.165 142.619 62.5695C133.785 59.9739 122.105 62.7727 117.352 82.7554Z" fill="#F7A9A0"/>
    <path d="M121.761 80.5976C122.23 80.6213 122.7 80.6213 123.168 80.5976C123.673 80.6446 124.178 80.5237 124.607 80.2536C124.727 80.146 124.807 80.0002 124.832 79.8408C124.858 79.6813 124.828 79.5179 124.748 79.378C124.557 79.1178 124.299 78.9147 124.001 78.7906C123.704 78.6666 123.378 78.6264 123.059 78.6744C122.397 78.653 121.753 78.8883 121.261 79.3311C121.174 79.4387 121.116 79.5677 121.095 79.7046C121.074 79.8415 121.09 79.9816 121.141 80.1105C121.192 80.2393 121.276 80.3523 121.385 80.4379C121.494 80.5235 121.624 80.5786 121.761 80.5976Z" fill="#263238"/>
    <path d="M135.755 83.3495C135.286 83.2088 134.88 83.0055 134.442 82.8335C133.948 82.7219 133.507 82.4463 133.191 82.0517C133.116 81.9104 133.089 81.7484 133.114 81.5903C133.14 81.4323 133.216 81.2868 133.332 81.1761C133.595 80.989 133.905 80.8771 134.227 80.8523C134.549 80.8275 134.872 80.8908 135.161 81.0354C135.814 81.2283 136.371 81.6575 136.725 82.2394C136.804 82.3802 136.837 82.5421 136.821 82.7029C136.804 82.8636 136.738 83.0153 136.632 83.137C136.526 83.2587 136.384 83.3445 136.227 83.3825C136.07 83.4206 135.905 83.4091 135.755 83.3495Z" fill="#263238"/>
    <path d="M132.159 88.009C132.159 88.009 132.253 88.1028 132.253 88.1497C131.94 89.5257 131.831 91.1362 132.988 91.8242C132.988 91.8242 132.988 91.918 132.988 91.8242C131.487 91.402 131.659 89.2599 132.159 88.009Z" fill="#263238"/>
    <path d="M133.66 86.805C135.912 87.0552 135.224 91.4958 133.16 91.2925C131.096 91.0893 131.784 86.5705 133.66 86.805Z" fill="#263238"/>
    <path d="M134.504 87.1803C134.864 87.493 135.177 87.9934 135.63 88.1028C136.084 88.2123 136.646 87.837 137.069 87.4461C136.943 88.2904 136.49 89.1192 135.505 89.1192C134.52 89.1192 134.16 88.2592 134.082 87.3679C134.192 87.2585 134.364 87.0552 134.504 87.1803Z" fill="#263238"/>
    <path d="M123.59 86.0858C123.59 86.0858 123.481 86.0858 123.465 86.1952C123.325 87.5868 122.918 89.1504 121.589 89.4319C123.153 89.5101 123.669 87.4305 123.59 86.0858Z" fill="#263238"/>
    <path d="M122.559 84.4753C120.354 83.9906 119.556 88.4312 121.589 88.869C123.622 89.3068 124.404 84.8662 122.559 84.4753Z" fill="#263238"/>
    <path d="M121.589 84.5848C121.183 84.7567 120.76 85.132 120.338 85.0851C119.916 85.0382 119.572 84.4753 119.353 83.9593C119.165 84.8037 119.353 85.7418 120.072 86.0545C120.792 86.3672 121.48 85.7105 121.824 84.8975C121.824 84.788 121.683 84.5222 121.589 84.5848Z" fill="#263238"/>
    <path d="M124.935 92.606C124.935 92.606 124.31 94.623 124.153 95.5924C124.153 95.6862 124.372 95.7644 124.701 95.8269C125.511 96.1129 126.384 96.1709 127.225 95.9944C128.066 95.8179 128.843 95.4139 129.47 94.8262C129.563 94.7324 129.47 94.623 129.344 94.6699C127.971 95.3221 126.422 95.5035 124.935 95.1859C124.935 94.92 126.108 91.7772 125.951 91.746C125.188 91.6877 124.419 91.7351 123.669 91.8867C124.826 87.6494 126.671 83.631 127.765 79.378C127.765 79.2216 127.578 79.1435 127.515 79.2686C125.422 83.5197 123.752 87.966 122.527 92.5434C122.402 93.1063 124.513 92.6998 124.935 92.606Z" fill="#263238"/>
    <path d="M153.596 92.8249C150.078 92.8249 149.859 85.4447 149.859 85.4447C149.859 85.4447 142.76 84.8975 141.228 74.4996C141.19 77.571 142.048 80.5867 143.698 83.1775C143.698 83.1775 131.299 80.8634 126.858 69.9809C126.858 69.9809 128.531 75.4847 130.361 77.533C127.256 76.3148 124.659 74.0759 122.996 71.1848C122.996 71.1848 120.338 77.0639 118.509 78.5962C118.509 78.5962 120.76 56.706 140.868 60.6775C140.868 60.6775 153.486 62.5226 157.255 72.936C161.023 83.3495 153.596 92.8249 153.596 92.8249Z" fill="#263238"/>
    <path d="M148.936 93.8568C148.936 93.8568 154.315 88.1654 156.957 90.1824C159.6 92.1994 154.893 100.877 151.328 101.643C150.878 101.77 150.406 101.805 149.942 101.745C149.477 101.685 149.029 101.533 148.625 101.296C148.221 101.06 147.868 100.745 147.589 100.369C147.309 99.9935 147.108 99.5655 146.997 99.1105L148.936 93.8568Z" fill="#F7A9A0"/>
    <path d="M155.55 92.6372C155.55 92.6372 155.55 92.7154 155.55 92.731C154.382 93.1105 153.307 93.7311 152.393 94.5526C151.48 95.3741 150.75 96.3783 150.25 97.5C150.422 97.2818 150.64 97.1036 150.888 96.9777C151.136 96.8519 151.408 96.7813 151.686 96.7709C151.964 96.7605 152.241 96.8105 152.498 96.9175C152.755 97.0244 152.985 97.1858 153.174 97.3905C153.19 97.403 153.201 97.4215 153.204 97.442C153.207 97.4625 153.202 97.4834 153.189 97.5C153.177 97.5166 153.158 97.5275 153.138 97.5305C153.117 97.5334 153.096 97.5281 153.08 97.5156C152.685 97.3199 152.24 97.2524 151.805 97.3225C151.371 97.3926 150.969 97.5968 150.656 97.9065C150.129 98.4257 149.662 99.0027 149.265 99.6265C149.108 99.8141 148.749 99.6265 148.874 99.4232C149.28 96.3429 152.251 92.4652 155.55 92.6372Z" fill="#263238"/>
    <path d="M149.046 112.088C151.469 111.463 155.691 110.884 162.289 113.652C162.289 113.652 153.095 125.832 142.338 128.568C138.507 129.538 136.427 124.597 136.427 124.597C136.427 124.597 139.023 114.715 149.046 112.088Z" fill="#F7A9A0"/>
</svg>
