<svg width="630" height="500" viewBox="0 0 630 500" fill="none" xmlns="http://www.w3.org/2000/svg">
    <path d="M226.186 293.541L229.235 299.701L236.036 300.687L231.111 305.502L232.268 312.273L226.186 309.067L220.088 312.273L221.26 305.502L216.335 300.687L223.137 299.701L226.186 293.541Z" fill="#C7C7C7"/>
    <path d="M551.99 212.876L555.023 219.036L561.841 220.021L556.915 224.837L558.072 231.607L551.99 228.402L545.892 231.607L547.065 224.837L542.139 220.021L548.941 219.036L551.99 212.876Z" fill="#C7C7C7"/>
    <path d="M488.289 422.615L491.338 428.791L498.156 429.776L493.215 434.576L494.387 441.362L488.289 438.157L482.207 441.362L483.364 434.576L478.439 429.776L485.256 428.791L488.289 422.615Z" fill="#C7C7C7"/>
    <path d="M333.416 212.641L335.308 216.456L339.514 217.066L336.465 220.037L337.185 224.227L333.416 222.257L329.648 224.227L330.367 220.037L327.334 217.066L331.54 216.456L333.416 212.641Z" fill="#C7C7C7"/>
    <path d="M35.397 123.329L37.2889 127.144L41.495 127.754L38.446 130.725L39.1652 134.9L35.397 132.929L31.6444 134.9L32.3636 130.725L29.3146 127.754L33.5207 127.144L35.397 123.329Z" fill="#C7C7C7"/>
    <path d="M623.258 359.243L625.134 363.058L629.341 363.668L626.307 366.639L627.026 370.829L623.258 368.843L619.49 370.829L620.209 366.639L617.176 363.668L621.382 363.058L623.258 359.243Z" fill="#C7C7C7"/>
    <path d="M293.592 0.837738L295.484 4.65288L299.69 5.26268L296.641 8.2335L297.36 12.4239L293.592 10.4538L289.839 12.4239L290.558 8.2335L287.509 5.26268L291.716 4.65288L293.592 0.837738Z" fill="#C7C7C7"/>
    <path d="M199.167 260.909L200.324 263.27L202.935 263.645L201.043 265.49L201.497 268.07L199.167 266.851L196.837 268.07L197.291 265.49L195.399 263.645L198.01 263.27L199.167 260.909Z" fill="#C7C7C7"/>
    <path d="M494.857 174.646L496.014 177.007L498.609 177.382L496.733 179.212L497.171 181.807L494.857 180.588L492.527 181.807L492.965 179.212L491.088 177.382L493.684 177.007L494.857 174.646Z" fill="#C7C7C7"/>
    <path d="M587.859 42.9607C581.229 40.0994 572.817 36.7064 566.234 41.6473C560.058 46.2286 560.308 54.8127 561.543 61.583C563.107 70.3078 564.968 78.9857 566.828 87.648C568.689 96.3103 570.659 105.129 572.645 113.854C573.771 118.779 574.896 123.689 576.038 128.614C576.616 131.069 577.195 133.524 577.758 135.994C578.321 138.465 578.821 140.841 579.587 143.187C579.822 143.937 581.026 143.609 580.916 142.843C580.306 138.605 579.118 134.415 578.18 130.24L575.319 117.731C573.442 109.392 571.587 101.053 569.752 92.714C567.918 84.3749 566.114 76.0358 564.342 67.6967C562.779 60.598 560.136 52.0608 564.342 45.4156C565.524 43.6963 567.125 42.3071 568.994 41.3795C570.863 40.452 572.938 40.0167 575.022 40.115C579.438 40.3485 583.771 41.4092 587.796 43.2422C587.815 43.2463 587.834 43.2467 587.852 43.2434C587.871 43.2402 587.889 43.2332 587.905 43.2231C587.921 43.2129 587.934 43.1997 587.945 43.1842C587.956 43.1687 587.964 43.1512 587.968 43.1327C587.972 43.1143 587.973 43.0951 587.969 43.0765C587.966 43.0579 587.959 43.04 587.949 43.0241C587.939 43.0081 587.926 42.9943 587.91 42.9834C587.895 42.9726 587.877 42.9648 587.859 42.9607Z" fill="#A6A6A6"/>
    <path d="M579.415 40.6779C579.415 40.6779 568.22 40.9124 566.125 49.9656C564.03 59.0187 576.851 74.983 625.619 68.1188C618.917 54.6179 610.007 42.3311 599.257 31.7655C581.604 14.5191 567.548 29.0292 579.415 40.6779Z" fill="#EBEBEB"/>
    <path d="M621.898 66.1174C620.733 65.1246 619.511 64.2005 618.239 63.3499L614.643 60.7856L611.907 58.8937C611.907 58.6591 611.797 58.4402 611.735 58.2213L611.437 56.9548C611.219 56.0792 611.015 55.188 610.828 54.3124C610.64 53.4368 610.437 52.5455 610.28 51.6543C610.041 50.7124 609.899 49.7483 609.858 48.7773C609.858 48.6365 609.592 48.6522 609.639 48.7773C609.74 49.2927 609.798 49.8158 609.811 50.3409L609.952 51.5917C610.062 52.5299 610.171 53.4524 610.312 54.3905C610.452 55.3287 610.593 56.0949 610.765 56.9392C610.843 57.3457 610.937 57.7523 611.031 58.1588C609.796 57.3301 608.545 56.5952 607.278 55.7352C603.698 53.5149 600.023 51.4666 596.333 49.4809C596.333 49.4809 596.333 49.4809 596.333 49.3714C594.506 44.6937 593.094 39.8645 592.112 34.9395C592.112 34.7988 591.877 34.7988 591.893 34.9395C592.38 39.7722 593.554 44.5107 595.379 49.0118C594.035 48.3238 592.69 47.6515 591.345 46.9948C588.218 45.4833 585.091 44.0292 581.964 42.6324C581.839 42.6324 581.745 42.7731 581.87 42.8357C587.202 45.4468 592.424 48.2926 597.506 51.2634C594.792 52.3275 592.135 53.5331 589.547 54.8753C586.592 56.2668 583.731 57.8148 580.869 59.394C580.744 59.394 580.869 59.6442 580.979 59.5817C583.818 57.9925 586.741 56.5571 589.735 55.2818C592.596 54.0309 595.567 53.0459 598.475 51.9201C601.259 53.4837 604.042 55.1723 606.794 56.8454L606.371 56.9861L604.308 57.7679C602.963 58.3151 601.634 58.9406 600.32 59.5817C597.616 60.8692 595.004 62.3425 592.502 63.991C592.393 63.991 592.502 64.2411 592.612 64.1786C595.254 62.8026 597.912 61.4892 600.649 60.3322C601.947 59.7693 603.26 59.2689 604.589 58.7686L606.653 57.9868C607.049 57.883 607.421 57.7023 607.747 57.4552L613.157 60.7543C614.575 61.6404 615.998 62.5472 617.426 63.475C618.865 64.4131 620.256 65.5076 621.773 66.3207C621.799 66.3272 621.826 66.3253 621.851 66.3153C621.875 66.3053 621.896 66.2877 621.91 66.265C621.924 66.2423 621.93 66.2158 621.928 66.1892C621.926 66.1627 621.915 66.1375 621.898 66.1174Z" fill="#A6A6A6"/>
    <path d="M587.608 49.1369C585.944 49.5285 584.312 50.0513 582.73 50.7005C581.166 51.3103 579.603 51.9826 578.039 52.655C578.023 52.6579 578.007 52.6647 577.993 52.6749C577.979 52.6851 577.968 52.6983 577.96 52.7135C577.953 52.7287 577.949 52.7456 577.949 52.7626C577.949 52.7796 577.953 52.7965 577.96 52.8117C577.968 52.827 577.979 52.8402 577.993 52.8504C578.006 52.8606 578.022 52.8675 578.039 52.8705C578.056 52.8735 578.073 52.8725 578.089 52.8677C578.106 52.8628 578.121 52.8543 578.133 52.8426C579.697 52.1077 581.26 51.451 582.949 50.8568C584.638 50.2627 586.154 49.8249 587.64 49.1682L587.608 49.1369Z" fill="#A6A6A6"/>
    <path d="M603.057 47.4013C602.666 45.8377 602.259 44.2741 602.009 42.5542C602.009 42.5398 602.006 42.5256 602.001 42.5123C601.995 42.499 601.987 42.487 601.977 42.4768C601.967 42.4666 601.955 42.4586 601.941 42.4531C601.928 42.4476 601.914 42.4447 601.9 42.4447C601.885 42.4447 601.871 42.4476 601.858 42.4531C601.844 42.4586 601.832 42.4666 601.822 42.4768C601.812 42.487 601.804 42.499 601.798 42.5123C601.793 42.5256 601.79 42.5398 601.79 42.5542C602.15 44.1178 602.431 45.6814 602.775 47.3388C602.963 48.1362 603.15 48.9023 603.354 49.7311C603.483 50.4861 603.693 51.2252 603.979 51.9357C603.979 52.0608 604.276 51.9357 604.261 51.9357C604.125 51.1803 603.926 50.4375 603.666 49.7154L603.057 47.4013Z" fill="#A6A6A6"/>
    <path d="M555.414 143.859C554.382 141.013 553.335 138.167 552.287 135.337C550.14 129.729 547.914 124.147 545.611 118.591C543.312 113.041 541.045 107.49 538.606 102.017C537.562 99.4501 536.274 96.9892 534.759 94.6685C534.173 93.6564 533.362 92.7928 532.389 92.1448C531.415 91.4967 530.306 91.0816 529.146 90.9315C523.173 90.4937 521 97.1859 519.858 101.72C519.858 101.861 520.03 101.892 520.077 101.72C520.89 99.4844 523.126 93.1831 527.332 92.3388C530.162 91.7602 532.914 93.1362 536.088 99.7345C544.016 116.168 556.415 150.489 557.306 152.693C557.807 153.866 558.651 153.584 558.322 152.271C557.525 149.441 556.431 146.658 555.414 143.859Z" fill="#A6A6A6"/>
    <path d="M520.75 99.1716C520.75 99.1716 521.047 81.0653 512.728 92.2919C498.906 110.961 506.365 141.623 506.365 141.623C506.365 141.623 532.774 115.23 533.477 102.236C534.493 82.8947 520.75 99.1716 520.75 99.1716Z" fill="#EBEBEB"/>
    <path d="M528.818 105.879C526.503 107.021 524.127 108.006 521.719 109.007L518.342 110.429L516.027 111.352C517.497 107.521 518.998 103.722 520.359 99.8596C520.359 99.7033 520.187 99.6251 520.108 99.7502C518.776 102.156 517.571 104.63 516.497 107.162L514.073 103.612C513.106 102.273 512.208 100.884 511.384 99.4531C511.378 99.4388 511.368 99.426 511.357 99.4155C511.346 99.405 511.332 99.3971 511.317 99.3922C511.303 99.3873 511.287 99.3856 511.272 99.3873C511.256 99.3889 511.241 99.3937 511.228 99.4016C511.214 99.4094 511.203 99.42 511.194 99.4326C511.185 99.4452 511.179 99.4596 511.176 99.4749C511.173 99.4901 511.173 99.5058 511.176 99.5209C511.18 99.536 511.187 99.5502 511.196 99.5625C512.025 100.985 512.76 102.486 513.573 103.925C514.386 105.363 515.136 106.677 516.137 107.99C515.386 109.773 514.683 111.587 514.026 113.4C513.088 112.024 512.025 110.727 511.149 109.304C511.071 109.179 510.883 109.304 510.961 109.413C511.978 110.977 512.76 112.681 513.729 114.26C513.291 115.495 512.853 116.731 512.447 117.966C511.712 120.249 511.055 122.547 510.414 124.861C510.334 124.921 510.276 125.006 510.25 125.102C510.224 125.199 510.233 125.302 510.273 125.393C509.195 129.333 508.241 133.289 507.318 137.276C507.318 137.305 507.33 137.333 507.35 137.354C507.371 137.374 507.399 137.386 507.428 137.386C507.457 137.386 507.485 137.374 507.505 137.354C507.526 137.333 507.537 137.305 507.537 137.276C508.46 133.336 509.632 129.458 510.899 125.565C511.201 125.368 511.527 125.211 511.868 125.096L512.885 124.564C513.635 124.179 514.386 123.772 515.136 123.345C516.606 122.532 518.076 121.781 519.608 121.046C519.733 121.046 519.608 120.796 519.499 120.859C517.701 121.719 515.871 122.422 514.01 123.157C513.135 123.501 512.275 123.861 511.415 124.236H511.29C511.962 122.235 512.65 120.233 513.354 118.263C514.057 116.293 514.792 114.37 515.527 112.446C516.575 112.009 517.575 111.446 518.654 110.883L522.079 109.225C524.377 108.1 526.644 106.927 528.958 105.879C529.052 106.005 528.943 105.817 528.818 105.879Z" fill="#A6A6A6"/>
    <path d="M510.492 112.509L509.726 111.289C509.191 110.435 508.7 109.553 508.256 108.647C508.256 108.522 508.006 108.647 508.069 108.772C508.522 109.663 509.007 110.555 509.476 111.446C509.924 112.348 510.447 113.211 511.04 114.026C511.071 114.061 511.114 114.085 511.16 114.093C511.207 114.1 511.255 114.091 511.296 114.067C511.337 114.043 511.368 114.005 511.384 113.96C511.4 113.916 511.4 113.867 511.384 113.822C511.102 113.369 510.789 112.947 510.492 112.509Z" fill="#A6A6A6"/>
    <path d="M530.975 101.126C529.599 101.72 528.192 102.205 526.801 102.69C525.409 103.174 524.017 103.769 522.657 104.363C522.579 104.363 522.657 104.519 522.657 104.488C524.064 104.019 525.456 103.518 526.847 102.924C528.239 102.33 529.584 101.767 531.007 101.361C531.163 101.298 531.1 101.079 530.975 101.126Z" fill="#A6A6A6"/>
    <path d="M572.723 116.449C568.877 104.191 564.811 92.0104 560.214 79.9864C557.963 73.9979 555.633 68.0406 553.147 62.1459C550.777 56.3327 548.008 50.6903 544.86 45.2592C542.555 41.0117 539.399 37.2857 535.588 34.3141C533.732 32.8724 531.542 31.923 529.222 31.554C526.901 31.185 524.524 31.4083 522.313 32.2033C517.075 34.3141 513.604 38.8954 510.805 43.6174C507.678 48.918 505.004 54.5625 502.252 60.0038C501.564 61.3954 500.876 62.787 500.204 64.1942C500.192 64.2066 500.184 64.2216 500.179 64.238C500.174 64.2543 500.173 64.2716 500.176 64.2884C500.179 64.3051 500.186 64.321 500.196 64.3346C500.206 64.3483 500.22 64.3594 500.235 64.367C500.25 64.3746 500.267 64.3786 500.284 64.3785C500.301 64.3785 500.318 64.3745 500.333 64.3668C500.348 64.3592 500.362 64.348 500.372 64.3344C500.382 64.3207 500.389 64.3048 500.392 64.288C503.065 58.8624 505.911 53.5149 509.007 48.3082C511.853 43.4923 514.73 38.3012 519.655 35.3148C521.929 33.8654 524.573 33.1001 527.27 33.1101C529.427 33.2268 531.517 33.9002 533.336 35.0646C537.059 37.6095 540.124 41.0016 542.28 44.9621C548.644 55.485 553.006 67.1181 557.369 78.5636C561.731 90.009 565.828 102.017 569.627 113.807C573.427 125.596 577.117 137.698 581.464 149.425C582.011 150.864 582.589 152.302 583.168 153.725C583.559 154.695 585.107 154.288 584.731 153.272C580.463 141.06 576.585 128.755 572.723 116.449Z" fill="#A6A6A6"/>
    <path d="M510.446 45.1497C510.446 45.1497 514.042 30.155 504.566 28.1692C495.091 26.1835 475.406 64.8822 479.315 112.775C479.315 112.775 519.233 80.7526 529.349 56.7359C539.466 32.7193 520.75 32.9381 510.446 45.1497Z" fill="#EBEBEB"/>
    <path d="M519.921 54.0465C514.839 55.4069 509.664 56.345 504.582 57.7366L506.583 53.7026C507.626 51.8737 508.545 49.9776 509.335 48.0267C509.335 47.9017 509.179 47.7922 509.101 47.9017C508.045 49.4573 507.105 51.0877 506.286 52.78C505.364 54.4687 504.457 56.173 503.566 57.8617C502.174 60.4885 500.829 63.131 499.5 65.7734C499.5 65.5702 499.391 65.3669 499.328 65.1636C499.11 64.2724 498.859 63.3812 498.625 62.4899L497.296 57.2988C496.405 53.7964 495.466 50.2783 494.778 46.729C494.778 46.5882 494.544 46.729 494.575 46.729C495.247 50.2939 495.826 53.8902 496.577 57.4395C496.952 59.1907 497.374 60.9263 497.812 62.6619C498.031 63.5532 498.25 64.4444 498.5 65.3356C498.625 65.8203 498.75 66.3363 498.922 66.8992C498.703 67.3058 498.484 67.7123 498.281 68.1345C495.451 73.8415 492.871 79.6581 490.463 85.5372C490.39 85.2644 490.296 84.9978 490.181 84.7397C489.994 84.2237 489.791 83.7078 489.587 83.1761C489.149 82.0504 488.68 80.9246 488.196 79.8144C487.711 78.7043 487.273 77.7192 486.804 76.6873C486.335 75.6553 485.647 74.3575 485.241 73.1536C485.251 73.137 485.256 73.118 485.256 73.0986C485.256 73.0792 485.252 73.0602 485.242 73.0433C485.232 73.0264 485.219 73.0124 485.202 73.0026C485.185 72.9929 485.166 72.9877 485.147 72.9877C485.127 72.9877 485.108 72.9929 485.092 73.0026C485.075 73.0124 485.061 73.0264 485.051 73.0433C485.042 73.0602 485.037 73.0792 485.037 73.0986C485.038 73.118 485.043 73.137 485.053 73.1536C485.593 74.3285 486.063 75.5346 486.46 76.7654C486.867 77.86 487.258 78.9545 487.664 80.0333C488.071 81.1122 488.461 82.2224 488.868 83.3169C489.071 83.8329 489.259 84.3645 489.462 84.8805C489.556 85.1463 489.665 85.4121 489.775 85.6623C489.854 85.8852 489.988 86.0843 490.166 86.2408C489.744 87.2571 489.306 88.2734 488.899 89.368C487.226 93.4333 485.631 97.5455 484.021 101.642C484.021 101.767 484.146 101.877 484.209 101.736C485.772 97.9989 487.414 94.2932 489.087 90.6032C490.979 90.1966 492.84 89.5556 494.685 89.0396L500.564 87.476C500.58 87.4826 500.598 87.4851 500.616 87.4832C500.634 87.4813 500.651 87.475 500.666 87.465C500.68 87.455 500.693 87.4415 500.701 87.4257C500.709 87.4099 500.714 87.3923 500.714 87.3744C500.714 87.3565 500.709 87.3389 500.701 87.3231C500.693 87.3073 500.68 87.2938 500.666 87.2838C500.651 87.2737 500.634 87.2675 500.616 87.2656C500.598 87.2636 500.58 87.2661 500.564 87.2727C498.609 87.82 496.655 88.3829 494.7 88.8363C492.746 89.2898 491.057 89.7276 489.306 90.2905C490.776 87.0538 492.292 83.8329 493.809 80.5962L495.466 77.0782C496.248 76.9791 497.019 76.801 497.765 76.5465L500.439 75.8429C502.112 75.3895 503.769 74.9048 505.426 74.4357C508.866 73.4663 512.291 72.4343 515.746 71.5118C515.763 71.5184 515.781 71.5209 515.798 71.519C515.816 71.5171 515.833 71.5108 515.848 71.5008C515.863 71.4908 515.875 71.4773 515.883 71.4615C515.892 71.4457 515.896 71.4281 515.896 71.4102C515.896 71.3923 515.892 71.3747 515.883 71.3589C515.875 71.3431 515.863 71.3296 515.848 71.3195C515.833 71.3095 515.816 71.3033 515.798 71.3014C515.781 71.2994 515.763 71.3019 515.746 71.3085C512.275 72.1841 508.788 72.8721 505.301 73.779C503.613 74.1699 501.94 74.5608 500.251 74.983L497.577 75.6709C497.061 75.796 496.53 75.9055 496.014 76.0618C497.327 73.2943 498.609 70.5424 499.923 67.7905C499.964 67.7474 499.991 67.6929 500.001 67.6341C501.272 64.9656 502.555 62.2919 503.847 59.6129C504.019 59.2533 504.207 58.8937 504.379 58.5184C509.695 57.2832 514.87 55.5476 520.171 54.2498C520.108 54.2185 520.062 53.9996 519.921 54.0465Z" fill="#A6A6A6"/>
    <path d="M519.702 63.7252L518.482 64.0535C518.457 64.0535 518.434 64.0634 518.416 64.081C518.398 64.0986 518.388 64.1224 518.388 64.1473C518.388 64.1722 518.398 64.1961 518.416 64.2137C518.434 64.2312 518.457 64.2411 518.482 64.2411L519.718 63.9284C519.735 63.9336 519.753 63.9346 519.77 63.9312C519.788 63.9278 519.804 63.9203 519.818 63.9091C519.832 63.898 519.843 63.8836 519.85 63.8673C519.857 63.8509 519.86 63.8331 519.859 63.8153C519.857 63.7976 519.852 63.7804 519.842 63.7653C519.833 63.7503 519.819 63.7377 519.804 63.7289C519.789 63.72 519.771 63.715 519.753 63.7143C519.736 63.7137 519.718 63.7174 519.702 63.7252Z" fill="#A6A6A6"/>
    <path d="M516.966 64.46C515.402 64.8666 513.698 65.2731 512.056 65.6484L509.586 66.2269C508.813 66.3467 508.058 66.5566 507.334 66.8523C507.313 66.8523 507.293 66.8606 507.279 66.8752C507.264 66.8899 507.256 66.9098 507.256 66.9305C507.256 66.9512 507.264 66.9711 507.279 66.9858C507.293 67.0004 507.313 67.0087 507.334 67.0087C508.127 66.959 508.91 66.8066 509.664 66.5552L512.119 65.9454C513.682 65.5389 515.371 65.1011 516.997 64.6633C517.169 64.632 517.106 64.4288 516.966 64.46Z" fill="#A6A6A6"/>
    <path d="M506.802 83.5358C503.349 83.8589 499.925 84.4443 496.561 85.287V85.3652C499.969 84.7866 503.347 84.083 506.787 83.8016C506.943 83.7078 506.943 83.5358 506.802 83.5358Z" fill="#A6A6A6"/>
    <path d="M489.337 72.5907L489.009 71.7463C488.743 71.1053 488.461 70.4798 488.196 69.8544C487.664 68.6661 487.117 67.4934 486.554 66.3207C486.554 66.2112 486.319 66.3207 486.366 66.3207C486.851 67.5559 487.336 68.8068 487.789 70.0577C488.024 70.6675 488.227 71.2929 488.462 71.9027C488.6 72.5132 488.844 73.0951 489.181 73.6226C489.216 73.6558 489.259 73.6781 489.307 73.687C489.354 73.6959 489.403 73.691 489.447 73.6728C489.492 73.6547 489.53 73.6241 489.558 73.5847C489.585 73.5452 489.601 73.4987 489.603 73.4507C489.569 73.1498 489.479 72.8581 489.337 72.5907Z" fill="#A6A6A6"/>
    <path d="M546.033 17.6775C543.625 15.0976 540.498 11.6578 536.526 12.9868C533.243 14.0813 532.648 17.8808 532.68 20.8829C532.789 30.1706 535.072 39.3958 537.011 48.4333C541.107 67.5403 545.298 86.6317 550.192 105.535C551.536 110.747 552.933 115.959 554.382 121.171C555.852 126.487 557.259 131.866 559.073 137.104C559.088 137.156 559.114 137.203 559.148 137.245C559.182 137.286 559.223 137.321 559.27 137.346C559.318 137.372 559.369 137.388 559.423 137.393C559.476 137.398 559.53 137.393 559.581 137.378C559.632 137.362 559.68 137.337 559.722 137.303C559.763 137.269 559.798 137.228 559.823 137.18C559.849 137.133 559.865 137.082 559.87 137.028C559.875 136.975 559.87 136.921 559.855 136.87C558.682 132.304 557.306 127.77 556.071 123.22C554.836 118.67 553.726 114.307 552.615 109.82C550.364 100.772 548.211 91.6873 546.158 82.5664C544.109 73.5132 542.124 64.4444 540.122 55.3912C539.122 50.8568 538.121 46.3381 537.136 41.8037C536.151 37.2693 535.228 33.0163 534.572 28.5601C534.212 26.074 533.931 23.5566 533.805 21.0549C533.587 19.2179 533.863 17.3559 534.603 15.6605C535.168 14.6894 536.062 13.9533 537.124 13.586C538.186 13.2187 539.344 13.2447 540.388 13.6591C542.568 14.54 544.47 15.9932 545.892 17.8652C545.986 17.9434 546.142 17.8652 546.033 17.6775Z" fill="#A6A6A6"/>
    <path d="M544.563 16.5361C544.563 16.5361 538.121 5.68485 547.033 9.59381C561.856 16.114 567.923 37.2536 567.923 37.2536C567.923 37.2536 542.827 30.3739 537.949 22.7748C530.6 11.4388 544.563 16.5361 544.563 16.5361Z" fill="#EBEBEB"/>
    <path d="M561.043 29.7484L560.167 28.951C560.103 28.6115 560.014 28.2771 559.902 27.9503C559.761 27.45 559.62 26.9496 559.495 26.3867C559.261 25.386 559.042 24.3853 558.823 23.3846C558.823 23.2595 558.588 23.3846 558.62 23.3846C558.818 24.3749 559.037 25.36 559.276 26.3398L559.605 27.8096C559.605 27.9972 559.605 28.2317 559.73 28.4507C558.526 27.3405 557.306 26.2616 556.055 25.214L554.961 24.3228C554.487 23.0848 554.121 21.8084 553.866 20.5076C553.522 19.1473 553.178 17.7714 552.866 16.3954C552.866 16.2547 552.631 16.3954 552.662 16.3954C552.991 17.8183 553.303 19.2568 553.6 20.6953C553.79 21.75 554.035 22.7939 554.335 23.8224C551.474 21.524 548.519 19.3506 545.532 17.2241C545.439 17.2241 545.313 17.3179 545.407 17.3961C547.268 18.7877 549.097 20.2418 550.895 21.7272C548.175 21.8211 545.485 22.165 542.78 22.4778C542.64 22.4778 542.64 22.7123 542.78 22.6967C545.642 22.3839 548.534 22.3527 551.411 22.2276L555.68 25.8238C556.259 26.3085 556.821 26.8089 557.384 27.3092H557.275L556.399 27.4187L554.539 27.7314C553.256 27.9659 551.99 28.2318 550.723 28.4976C550.703 28.5057 550.686 28.5197 550.673 28.5378C550.661 28.5559 550.655 28.5773 550.655 28.5992C550.655 28.6211 550.661 28.6425 550.673 28.6606C550.686 28.6787 550.703 28.6927 550.723 28.7008C551.974 28.4037 553.225 28.1692 554.492 27.9816L556.493 27.7001L557.369 27.575H557.634L560.543 30.1081C562.247 31.6716 563.858 33.2352 565.64 34.6425C565.649 34.6517 565.66 34.659 565.672 34.664C565.684 34.669 565.697 34.6716 565.71 34.6716C565.723 34.6716 565.736 34.669 565.748 34.664C565.761 34.659 565.771 34.6517 565.781 34.6425C565.79 34.6332 565.797 34.6222 565.802 34.6102C565.807 34.5981 565.81 34.5852 565.81 34.5721C565.81 34.559 565.807 34.5461 565.802 34.534C565.797 34.5219 565.79 34.511 565.781 34.5017C564.293 32.8282 562.712 31.2412 561.043 29.7484Z" fill="#A6A6A6"/>
    <path d="M552.099 17.8652C551.99 17.4117 551.88 16.9583 551.755 16.5049C551.466 15.5526 551.247 14.5806 551.099 13.5966C551.099 13.4402 550.849 13.4715 550.895 13.5966C551.146 14.5504 551.286 15.5198 551.505 16.4892C551.599 16.9583 551.724 17.443 551.849 17.9121C551.849 18.131 551.974 18.3499 552.021 18.5688C552.066 18.8031 552.145 19.0296 552.256 19.2411C552.265 19.2573 552.279 19.2707 552.296 19.28C552.312 19.2893 552.331 19.2942 552.35 19.2942C552.368 19.2942 552.387 19.2893 552.403 19.28C552.42 19.2707 552.434 19.2573 552.443 19.2411C552.436 19.0207 552.388 18.8034 552.303 18.6001C552.24 18.4124 552.178 18.1779 552.099 17.8652Z" fill="#A6A6A6"/>
    <path d="M550.708 23.5097C549.863 23.5097 549.019 23.7599 548.19 23.9163C547.362 24.0726 546.361 24.229 545.439 24.3541C545.422 24.3474 545.404 24.3449 545.386 24.3469C545.368 24.3488 545.351 24.355 545.337 24.3651C545.322 24.3751 545.31 24.3886 545.301 24.4044C545.293 24.4202 545.288 24.4378 545.288 24.4557C545.288 24.4736 545.293 24.4912 545.301 24.507C545.31 24.5228 545.322 24.5363 545.337 24.5463C545.351 24.5563 545.368 24.5626 545.386 24.5645C545.404 24.5664 545.422 24.564 545.439 24.5573C547.174 24.2133 548.972 24.0726 550.708 23.6817C550.833 23.6504 550.802 23.4941 550.708 23.5097Z" fill="#A6A6A6"/>
    <path d="M571.05 80.7057C565.359 79.1421 559.558 75.8586 553.538 77.9069C548.566 79.5955 546.549 84.6147 546.158 89.4774C546.007 92.0428 546.075 94.6164 546.361 97.1702C546.674 100.61 547.039 104.045 547.456 107.474C548.284 114.229 549.347 120.952 550.692 127.613C551.427 131.335 552.256 135.04 553.131 138.715C553.951 142.49 554.996 146.212 556.259 149.863C556.312 149.998 556.413 150.109 556.542 150.174C556.671 150.24 556.82 150.256 556.961 150.219C557.101 150.183 557.223 150.096 557.304 149.976C557.385 149.856 557.419 149.71 557.4 149.566C556.868 146.439 555.961 143.312 555.258 140.184C554.554 137.057 553.851 133.93 553.21 130.709C551.927 124.382 550.823 118.013 549.895 111.602C549.019 105.567 548.097 99.4531 547.815 93.3395C547.596 88.9771 547.925 83.6609 551.568 80.6588C557.134 76.0775 564.983 79.2516 571.003 80.9559C571.097 80.9402 571.191 80.7526 571.05 80.7057Z" fill="#A6A6A6"/>
    <path d="M565.265 79.2985C565.265 79.2985 556.712 69.2446 561.731 64.7727C569.236 57.9712 602.384 75.0924 613.142 116.668C613.142 116.668 591.517 113.713 574.052 107.724C556.587 101.736 547.69 88.5862 552.068 82.7071C556.446 76.828 565.265 79.2985 565.265 79.2985Z" fill="#EBEBEB"/>
    <path d="M607.185 109.085C606.034 107.952 604.8 106.907 603.495 105.958C602.212 104.879 600.93 103.815 599.632 102.83C597.084 100.798 594.551 98.7651 591.987 96.7637L590.72 95.7943C590.72 95.6379 590.72 95.4659 590.642 95.2939L590.454 94.0431C590.329 93.1049 590.141 92.1668 589.969 91.2442C589.625 89.4149 589.266 87.5698 589.078 85.7248C589.078 85.5841 588.844 85.6153 588.859 85.7248C589.156 87.5698 589.266 89.4618 589.407 91.3224C589.407 92.2293 589.516 93.1518 589.625 94.0743L589.719 95.0125C586.592 92.6202 583.465 90.3217 580.338 88.0858C580.305 87.6204 580.205 87.1623 580.041 86.7255L579.572 84.9117C579.228 83.5358 578.868 82.1598 578.571 80.7839C577.909 78.0869 577.387 75.3574 577.007 72.6063C577.007 72.4812 576.773 72.5125 576.804 72.6063C577.132 75.3582 577.398 78.1414 577.899 80.862C578.149 82.2067 578.415 83.5358 578.727 84.8648C578.884 85.5215 579.056 86.1782 579.243 86.8349L579.384 87.4291C578.399 86.7724 577.414 86.1157 576.398 85.4903C573.27 83.5983 570.221 81.8002 567.016 80.0021C566.907 80.0021 566.781 80.1115 566.907 80.1897C572.334 83.4624 577.556 87.0655 582.542 90.9784L585.357 93.1362L584.747 93.2769C583.965 93.4645 583.184 93.7147 582.417 93.9336C580.854 94.3714 579.29 94.8092 577.727 95.2783C574.599 96.1852 571.55 97.1702 568.439 97.9989C568.298 97.9989 568.345 98.2491 568.439 98.2178C571.566 97.3891 574.818 96.6543 578.024 95.9819C579.587 95.6275 581.151 95.2522 582.714 94.8561C583.938 94.6557 585.138 94.3309 586.295 93.8867L592.049 98.2804C591.773 98.3577 591.501 98.4517 591.236 98.5618L589.672 99.1404L586.874 100.204C584.95 100.954 583.027 101.767 581.088 102.471C580.963 102.471 581.088 102.721 581.182 102.674C583.152 101.939 585.154 101.282 587.139 100.641L590.001 99.7345L591.424 99.2967C591.859 99.2196 592.271 99.043 592.628 98.7807L597.522 102.518C599.085 103.659 600.539 104.801 602.072 105.926C603.574 107.171 605.168 108.3 606.841 109.304C607.138 109.319 607.278 109.194 607.185 109.085Z" fill="#A6A6A6"/>
    <path d="M586.295 80.1428C586.608 81.4917 586.827 82.8604 586.952 84.2394C587.124 85.6623 587.249 87.0851 587.311 88.508C587.304 88.5292 587.302 88.5519 587.305 88.5741C587.308 88.5963 587.317 88.6175 587.33 88.6358C587.343 88.6541 587.36 88.669 587.38 88.6793C587.4 88.6896 587.422 88.695 587.444 88.695C587.467 88.695 587.489 88.6896 587.509 88.6793C587.529 88.669 587.546 88.6541 587.559 88.6358C587.572 88.6175 587.58 88.5963 587.584 88.5741C587.587 88.5519 587.585 88.5292 587.577 88.508C587.499 87.1008 587.358 85.6935 587.171 84.3019C586.983 82.9103 586.686 81.5188 586.514 80.1272C586.498 79.9708 586.264 80.0177 586.295 80.1428Z" fill="#A6A6A6"/>
    <path d="M576.194 92.9173C575.832 92.7775 575.431 92.7775 575.068 92.9173L573.302 93.3395C572.207 93.5896 571.113 93.8867 570.018 94.1682C567.751 94.7467 565.484 95.3721 563.216 95.935C563.076 95.935 563.123 96.1852 563.216 96.1383C565.374 95.6067 567.532 95.1376 569.674 94.5747C570.737 94.3089 571.785 94.0743 572.801 93.7929L574.365 93.402C574.93 93.1886 575.528 93.0723 576.132 93.058C576.159 93.0475 576.18 93.0269 576.192 93.0005C576.204 92.9742 576.204 92.9443 576.194 92.9173Z" fill="#A6A6A6"/>
    <path d="M596.005 105.426C594.942 105.739 593.894 106.098 592.878 106.474L591.314 107.021L590.548 107.287C590.233 107.428 589.902 107.533 589.563 107.599C589.407 107.599 589.485 107.881 589.563 107.803C589.858 107.666 590.168 107.561 590.485 107.49L591.314 107.224L592.878 106.724C593.925 106.38 594.989 106.051 596.005 105.661C596.208 105.645 596.13 105.426 596.005 105.426Z" fill="#A6A6A6"/>
    <path d="M600.571 98.5931L600.242 96.7012L599.539 93.0111C599.539 92.886 599.304 92.9173 599.335 93.0111C599.507 94.2307 599.695 95.4503 599.867 96.6543C599.961 97.2641 600.039 97.8739 600.148 98.4836L600.289 99.328C600.306 99.621 600.381 99.9078 600.508 100.172C600.52 100.195 600.538 100.215 600.56 100.228C600.582 100.241 600.607 100.249 600.633 100.249C600.659 100.249 600.684 100.241 600.706 100.228C600.728 100.215 600.746 100.195 600.758 100.172C600.793 99.6389 600.729 99.1036 600.571 98.5931Z" fill="#A6A6A6"/>
    <path d="M600.961 127.363L607.482 141.701L626.698 183.996L576.022 210.827L551.849 171.143L543.656 157.697L600.961 127.363Z" fill="#EBEBEB"/>
    <path d="M600.961 127.363L607.482 141.701L551.849 171.143L543.656 157.697L600.961 127.363Z" fill="#DBDBDB"/>
    <path d="M599.649 115.52L534.586 149.954L541.937 163.843L607 129.408L599.649 115.52Z" fill="#EBEBEB"/>
    <path d="M174.884 454.887L52.0492 437.875L0.231941 474.229L121.363 499.012L174.884 454.887Z" fill="#DBDBDB"/>
    <path d="M167.379 455.247L118.392 495.759L4.87579 472.618L55.0043 437.735C55.0043 437.735 88.1836 438.094 89.7628 438.391C91.3421 438.689 106.462 442.926 106.462 442.926C106.462 442.926 127.101 444.005 128.524 444.302C129.947 444.599 167.379 455.247 167.379 455.247Z" fill="white"/>
    <path d="M106.524 442.926C102.709 446.449 98.8629 449.925 94.9852 453.355L83.3053 463.643L71.5002 473.775C67.5495 477.142 63.5467 480.488 59.4918 483.814C63.3174 480.311 67.169 476.835 71.0467 473.384L82.7267 463.112L94.5318 452.964C98.5137 449.555 102.511 446.209 106.524 442.926Z" fill="#DBDBDB"/>
    <path d="M155.699 456.341C151.65 455.294 147.584 454.199 143.55 453.074L131.417 449.649L128.399 448.789C127.899 448.664 127.383 448.508 126.835 448.414C126.288 448.32 125.788 448.289 125.272 448.226L119.018 447.523C114.848 447.054 110.678 446.533 106.509 445.959C110.678 446.241 114.848 446.569 119.018 446.944L125.272 447.538C125.803 447.538 126.319 447.538 126.835 447.71C127.351 447.882 127.867 447.961 128.399 448.086L131.526 448.914C135.545 450.103 139.579 451.275 143.581 452.511C147.584 453.746 151.743 455.012 155.699 456.341Z" fill="#DBDBDB"/>
    <path d="M152.275 458.968C148.21 457.905 144.16 456.826 140.11 455.7L128.008 452.276L124.99 451.416L123.427 451.025C122.927 451.025 122.379 450.916 121.863 450.853L115.609 450.15C111.439 449.681 107.27 449.159 103.1 448.586C107.27 448.868 111.439 449.196 115.609 449.571L121.863 450.165C122.379 450.165 122.895 450.165 123.427 450.337C123.958 450.509 124.474 450.587 124.99 450.713L128.024 451.541C132.042 452.73 136.076 453.902 140.079 455.137C144.082 456.373 148.288 457.639 152.275 458.968Z" fill="#DBDBDB"/>
    <path d="M148.835 461.595C144.864 460.553 140.903 459.484 136.952 458.39L125.162 455.059L122.207 454.215C121.248 453.906 120.265 453.676 119.268 453.527L113.17 452.823C109.094 452.354 105.023 451.833 100.958 451.26C105.055 451.51 109.136 451.807 113.232 452.167C115.265 452.339 117.313 452.558 119.346 452.776C120.38 452.91 121.4 453.135 122.395 453.449L125.366 454.262C129.306 455.419 133.184 456.56 137.155 457.78C141.127 459 144.942 460.36 148.835 461.595Z" fill="#DBDBDB"/>
    <path d="M145.395 464.222C141.486 463.179 137.583 462.137 133.684 461.095L122.035 457.811C120.096 457.295 118.126 456.638 116.234 456.248L110.23 455.544C106.207 455.075 102.199 454.554 98.2062 453.98C102.24 454.231 106.259 454.528 110.293 454.872C112.31 455.044 114.311 455.247 116.328 455.481C118.345 455.716 120.284 456.482 122.239 457.045C126.116 458.202 130.056 459.312 133.856 460.516C137.655 461.72 141.564 462.94 145.395 464.222Z" fill="#DBDBDB"/>
    <path d="M141.955 466.849C138.067 465.806 134.179 464.764 130.291 463.722L118.674 460.438C116.75 459.922 114.78 459.281 112.888 458.874C110.996 458.468 108.901 458.421 106.915 458.171C102.913 457.717 98.9255 457.217 94.9227 456.607C98.9567 456.842 102.96 457.139 106.978 457.499C108.995 457.671 110.981 457.874 112.998 458.108C115.015 458.343 116.938 459.109 118.877 459.672C122.755 460.813 126.695 461.923 130.463 463.127C134.231 464.331 138.14 465.567 141.955 466.849Z" fill="#DBDBDB"/>
    <path d="M138.515 469.46C134.638 468.459 130.698 467.427 126.898 466.333L115.312 463.065C113.389 462.549 111.434 461.923 109.558 461.501C107.682 461.079 105.571 461.048 103.585 460.798C99.6134 460.329 95.6263 459.844 91.6392 459.234C95.6524 459.463 99.6604 459.755 103.663 460.11C105.665 460.297 107.635 460.485 109.667 460.735C111.7 460.985 113.576 461.736 115.515 462.299C119.377 463.44 123.224 464.55 127.054 465.754C130.885 466.958 134.716 468.178 138.515 469.46Z" fill="#DBDBDB"/>
    <path d="M135.091 472.087C131.245 471.086 127.414 470.07 123.614 468.96L112.169 465.739C110.277 465.223 108.354 464.613 106.478 464.175C104.601 463.737 102.569 463.69 100.63 463.44C96.6895 462.987 92.8118 462.502 88.8403 461.876C92.7962 462.095 96.6583 462.392 100.692 462.736C102.678 462.924 104.617 463.065 106.634 463.393C108.651 463.721 110.48 464.394 112.388 464.957C116.187 466.067 119.987 467.177 123.771 468.35C127.555 469.522 131.323 470.836 135.091 472.087Z" fill="#DBDBDB"/>
    <path d="M131.651 474.714C127.821 473.713 123.99 472.697 120.175 471.586L108.745 468.365C106.837 467.849 104.93 467.24 103.038 466.802C101.146 466.364 99.1444 466.317 97.1899 466.067C93.2497 465.598 89.372 465.113 85.4005 464.503C89.3563 464.722 93.3122 465.019 97.2524 465.363C99.2382 465.551 101.177 465.692 103.194 466.004C105.211 466.317 107.04 467.021 108.948 467.568C112.748 468.694 116.563 469.788 120.331 470.977C124.099 472.165 127.883 473.463 131.651 474.714Z" fill="#DBDBDB"/>
    <path d="M128.884 477.559C124.99 476.543 121.066 475.495 117.235 474.432L105.633 471.133L99.848 469.569C97.9717 469.178 95.9077 469.053 93.922 468.788C89.9348 468.319 85.9477 467.834 81.9606 467.224C85.979 467.443 89.9818 467.74 94.0002 468.1C96.0016 468.303 97.9717 468.412 100.036 468.788C102.1 469.163 103.929 469.835 105.852 470.351C109.699 471.508 113.561 472.618 117.407 473.838C121.253 475.058 125.069 476.324 128.884 477.559Z" fill="#DBDBDB"/>
    <path d="M125.444 480.296C121.566 479.264 117.626 478.216 113.842 477.168L102.272 473.854L96.5019 472.196C94.6412 471.79 92.5617 471.68 90.6072 471.414C86.6201 470.945 82.6329 470.461 78.6614 469.851C82.6642 470.091 86.667 470.382 90.6697 470.726C92.6711 470.945 94.6256 471.024 96.6895 471.446C98.7535 471.868 100.567 472.478 102.49 473.009C106.337 474.166 110.183 475.276 113.998 476.512C117.814 477.747 121.644 479.013 125.444 480.296Z" fill="#DBDBDB"/>
    <path d="M122.035 483.188C118.283 482.141 114.514 481.109 110.777 480.061C107.04 479.013 103.303 477.841 99.5665 476.746L93.8907 475.026C92.9763 474.732 92.0326 474.538 91.0763 474.448L88.1836 474.119C84.3059 473.65 80.3657 473.166 76.5818 472.556C80.4751 472.759 84.3997 473.056 88.2462 473.4L91.1701 473.682C91.6548 473.682 92.1395 473.791 92.6398 473.885C93.1402 473.979 93.6093 474.119 94.0783 474.245C95.9703 474.776 97.8466 475.323 99.7073 475.902C103.429 477.059 107.166 478.169 110.871 479.404C114.577 480.64 118.33 481.906 122.035 483.188Z" fill="#DBDBDB"/>
    <path d="M118.58 485.643C114.765 484.752 110.965 483.861 107.181 482.907C103.397 481.953 99.6134 480.968 95.8296 480.014C93.9376 479.561 92.0301 479.013 90.1694 478.622L84.3998 477.653C80.5533 476.965 76.7069 476.261 72.8761 475.464C76.7695 475.917 80.6941 476.449 84.4936 477.028L90.2945 477.919C92.2646 478.31 94.1096 478.826 96.0172 479.326C99.7854 480.327 103.569 481.312 107.322 482.453C111.075 483.595 114.843 484.517 118.58 485.643Z" fill="#DBDBDB"/>
    <path d="M62.9786 474.432C59.3668 473.635 55.7861 472.743 52.2212 471.805L49.5474 471.133C48.6645 470.897 47.7658 470.724 46.8581 470.617L41.3855 469.804L30.4404 468.1C26.7973 467.537 23.1541 466.896 19.4953 466.301C23.1697 466.755 26.8285 467.161 30.4404 467.662L41.3855 469.116L46.8581 469.898C47.7904 469.997 48.715 470.159 49.6256 470.382C50.5325 470.586 51.4237 470.851 52.315 471.086C55.9425 472.066 59.4971 473.181 62.9786 474.432Z" fill="#DBDBDB"/>
    <path d="M66.2309 471.18C62.6972 470.586 59.1791 469.929 55.6923 469.163C53.9411 468.819 52.1899 468.412 50.47 468.131L45.1694 467.302L34.5839 465.567C31.0502 465.004 27.5322 464.347 24.0141 463.737C27.5634 464.206 31.1128 464.613 34.6465 465.113L45.2632 466.677C48.8215 467.107 52.3548 467.722 55.8487 468.522C59.3355 469.241 62.791 470.164 66.2309 471.18Z" fill="#DBDBDB"/>
    <path d="M69.3893 468.256C65.8869 467.677 62.4001 467.036 58.9289 466.286L53.7222 465.223L48.4529 464.55L37.9143 463.143C34.3963 462.69 30.8782 462.142 27.3758 461.579C30.8938 461.939 34.4432 462.236 37.9613 462.643L48.5467 463.815L53.8473 464.441C55.6298 464.738 57.3341 465.16 59.0697 465.551C62.619 466.364 65.9807 467.271 69.3893 468.256Z" fill="#DBDBDB"/>
    <path d="M72.1256 466.051C68.6388 465.27 65.2146 464.253 61.7747 463.346C60.9428 463.089 60.09 462.906 59.226 462.799L56.5679 462.533L51.2361 462.002C44.1374 461.282 37.044 460.521 29.9557 459.719C37.0648 460.188 44.1791 460.709 51.2986 461.282L56.6305 461.767L59.3042 462.017C60.2106 462.107 61.1062 462.285 61.9779 462.549C65.4204 463.535 68.8077 464.704 72.1256 466.051Z" fill="#DBDBDB"/>
    <path d="M75.1277 463.487C71.6409 462.705 68.2166 461.689 64.7768 460.782C63.9473 460.516 63.0936 460.333 62.2281 460.235L59.57 459.953L54.2382 459.437C47.1395 458.718 40.046 457.957 32.9578 457.155C40.0877 457.624 47.2021 458.145 54.3007 458.718L59.6326 459.203L62.3063 459.453C63.213 459.541 64.1086 459.719 64.98 459.985C68.4225 460.971 71.8098 462.14 75.1277 463.487Z" fill="#DBDBDB"/>
    <path d="M78.0829 460.751C74.5804 459.985 71.1562 458.953 67.7319 458.046C66.8944 457.794 66.0363 457.616 65.1677 457.514L62.5096 457.233L57.1934 456.717C50.0947 455.997 42.996 455.247 35.8973 454.418C43.0273 454.887 50.1468 455.409 57.2559 455.982L62.5877 456.451L65.2458 456.717C66.1538 456.796 67.0504 456.974 67.9196 457.248C71.3679 458.232 74.7607 459.401 78.0829 460.751Z" fill="#DBDBDB"/>
    <path d="M81.0537 458.108C77.5513 457.327 74.1426 456.31 70.7027 455.403C69.8656 455.146 69.0076 454.963 68.1385 454.856L65.4804 454.59L60.1642 454.059C53.0655 453.35 45.9668 452.589 38.8681 451.776C45.9981 452.245 53.1176 452.766 60.2267 453.339L65.5585 453.824L68.2167 454.074C69.129 454.168 70.0298 454.351 70.906 454.622C74.3482 455.602 77.7356 456.766 81.0537 458.108Z" fill="#DBDBDB"/>
    <path d="M85.0252 455.794C81.5228 455.012 78.0985 453.996 74.6742 453.089C73.8371 452.832 72.9791 452.649 72.11 452.542L69.4519 452.276L64.1357 451.744C57.037 451.025 49.9383 450.264 42.8396 449.462C49.9696 449.931 57.0891 450.452 64.1982 451.025L69.5301 451.51L72.1882 451.76C73.0951 451.847 73.9909 452.025 74.8619 452.292C78.3102 453.275 81.7029 454.445 85.0252 455.794Z" fill="#DBDBDB"/>
    <path d="M88.8716 453.511C85.3848 452.73 81.9606 451.713 78.5207 450.806C77.6912 450.541 76.8375 450.357 75.972 450.259L73.3139 449.978L67.9821 449.415C60.8834 448.695 53.79 447.935 46.7017 447.132C53.8212 447.601 60.9355 448.122 68.0447 448.696L73.3765 449.18L76.0502 449.43C76.9567 449.52 77.8522 449.698 78.7239 449.962C82.1673 450.964 85.5547 452.148 88.8716 453.511Z" fill="#DBDBDB"/>
    <path d="M91.8581 450.853C88.3556 450.087 84.947 449.071 81.5228 448.164C80.6905 447.909 79.8378 447.726 78.9741 447.617L76.316 447.382L70.9842 446.96C63.8855 446.366 56.7868 445.756 49.7038 445.068C56.8233 445.391 63.9376 445.798 71.0467 446.288L76.3629 446.678L79.0367 446.882C79.9446 446.961 80.8412 447.139 81.7104 447.413C85.1495 448.386 88.5365 449.534 91.8581 450.853Z" fill="#DBDBDB"/>
    <path d="M94.8289 448.211C91.3421 447.445 87.9335 446.428 84.5092 445.521C83.6857 445.256 82.8368 445.078 81.9762 444.99L79.3181 444.802L73.9863 444.474C66.8876 444.02 59.7889 443.567 52.7059 443.02C59.815 443.207 66.9241 443.468 74.0332 443.801L79.365 444.083L82.0231 444.239C82.9354 444.324 83.8365 444.502 84.7125 444.771C88.1405 445.746 91.517 446.894 94.8289 448.211Z" fill="#DBDBDB"/>
    <path d="M97.7997 445.568C94.3285 444.802 90.9199 443.786 87.4957 442.879C86.6775 442.614 85.8337 442.436 84.9783 442.347L82.3202 442.238L77.004 442.082C69.9209 441.878 62.8223 441.659 55.7236 441.362C62.8223 441.3 69.9209 441.3 77.0196 441.362L82.3515 441.472L85.0252 441.566C85.9328 441.638 86.8296 441.811 87.6989 442.082C91.1257 443.063 94.4975 444.226 97.7997 445.568Z" fill="#DBDBDB"/>
    <path d="M115.187 489.239C111.309 488.457 107.447 487.639 103.601 486.784L92.0457 484.173C90.1225 483.751 88.1993 483.251 86.2917 482.86L80.4752 481.765C76.5975 480.999 72.6572 480.202 68.8734 479.342C72.798 479.889 76.6913 480.499 80.5846 481.14L86.4168 482.141C88.3869 482.547 90.2945 482.969 92.2177 483.423C96.0641 484.361 99.9105 485.237 103.726 486.222C107.541 487.207 111.372 488.192 115.187 489.239Z" fill="#DBDBDB"/>
    <path d="M60.6333 477.559C56.7347 476.85 52.8466 476.11 48.9689 475.339L37.3202 472.868L31.5193 471.68L25.6558 470.695C21.7625 470.007 17.8379 469.288 13.9759 468.522C17.9161 468.975 21.7938 469.507 25.7497 470.085L31.6287 470.961C33.6145 471.321 35.5377 471.711 37.4765 472.134C41.3542 472.978 45.2945 473.775 49.0784 474.682C52.8622 475.589 56.8025 476.527 60.6333 477.559Z" fill="#DBDBDB"/>
    <path d="M49.4756 202.708L47.9048 205.574L66.2364 215.622L67.8073 212.757L49.4756 202.708Z" fill="#EBEBEB"/>
    <path d="M49.4782 202.722L48.441 204.614L66.7726 214.663L67.8098 212.771L49.4782 202.722Z" fill="#C7C7C7"/>
    <path d="M31.9258 183.105C32.1338 185.367 32.9892 187.521 34.3895 189.31C35.7899 191.098 37.6759 192.445 39.8219 193.19C40.5259 193.413 41.2478 193.576 41.9797 193.675C43.0867 193.793 44.2031 193.793 45.3101 193.675L44.8723 188.984C44.2742 189.038 43.6723 189.038 43.0742 188.984C41.4028 188.864 39.8309 188.144 38.6474 186.958C37.464 185.772 36.7484 184.198 36.6322 182.526C36.0537 177.617 39.5874 169.048 43.8247 167.344C44.1218 167.203 45.0599 167.25 47.6711 169.486C48.1402 169.908 48.6875 170.393 49.2347 170.971C49.6799 171.448 50.1724 171.877 50.7045 172.254L51.9241 170.221L53.2531 168.251C52.9886 168.032 52.7379 167.797 52.5026 167.547C51.3632 166.402 50.1288 165.356 48.8125 164.42C46.7642 162.997 44.3407 162.012 42.0109 162.95C35.1468 165.796 31.1909 176.96 31.9258 183.105Z" fill="#EBEBEB"/>
    <path d="M44.8723 189C44.2742 189.054 43.6723 189.054 43.0742 189L41.9797 193.69C43.0867 193.809 44.2031 193.809 45.3101 193.69L44.8723 189Z" fill="#C7C7C7"/>
    <path d="M48.8595 164.451L47.6711 169.533C48.1402 169.955 48.6875 170.44 49.2347 171.018C49.6799 171.494 50.1724 171.924 50.7045 172.301L51.9241 170.268L53.2531 168.298C52.9886 168.079 52.7379 167.844 52.5026 167.594C51.3788 166.446 50.1601 165.395 48.8595 164.451Z" fill="#C7C7C7"/>
    <path d="M101.99 186.545C101.99 186.545 89.4814 204.026 81.4289 209.811C73.3765 215.596 67.5287 213.548 64.2295 211.75L58.241 208.466L52.2368 205.183C48.9376 203.369 44.1218 199.585 44.6378 189.641C45.1538 179.696 53.2375 159.792 53.2375 159.792L101.99 186.545Z" fill="#EBEBEB"/>
    <path d="M91.6861 196.818C91.4534 196.689 91.264 196.495 91.1418 196.259C91.0196 196.023 90.9701 195.756 90.9995 195.492C91.0288 195.228 91.1358 194.978 91.3069 194.775C91.478 194.571 91.7055 194.423 91.9607 194.349C92.2159 194.275 92.4873 194.278 92.7407 194.358C92.9941 194.438 93.2182 194.591 93.3845 194.799C93.5509 195.006 93.6521 195.258 93.6754 195.522C93.6987 195.787 93.643 196.053 93.5155 196.286C93.3409 196.596 93.0514 196.826 92.7094 196.925C92.3673 197.025 91.9999 196.986 91.6861 196.818ZM92.8587 194.675C92.6037 194.537 92.3039 194.505 92.0254 194.587C91.7468 194.669 91.5123 194.858 91.3733 195.113C91.2344 195.368 91.2025 195.668 91.2846 195.947C91.3667 196.225 91.5561 196.46 91.8111 196.599C91.9374 196.667 92.076 196.711 92.219 196.726C92.362 196.741 92.5066 196.728 92.6445 196.687C92.7824 196.647 92.911 196.579 93.0229 196.489C93.1348 196.399 93.2278 196.287 93.2966 196.161C93.3653 196.035 93.4086 195.896 93.4238 195.753C93.439 195.61 93.4259 195.465 93.3853 195.327C93.3446 195.19 93.2772 195.061 93.1869 194.949C93.0965 194.837 92.985 194.744 92.8587 194.675Z" fill="white"/>
    <path d="M60.2424 171.722C60.0097 171.594 59.8203 171.399 59.6981 171.163C59.5759 170.927 59.5264 170.66 59.5557 170.396C59.5851 170.132 59.6921 169.882 59.8632 169.679C60.0343 169.476 60.2618 169.328 60.517 169.254C60.7721 169.179 61.0436 169.182 61.297 169.262C61.5504 169.342 61.7745 169.496 61.9408 169.703C62.1072 169.91 62.2084 170.162 62.2317 170.427C62.255 170.692 62.1993 170.957 62.0717 171.19C61.8971 171.501 61.6077 171.73 61.2656 171.83C60.9236 171.929 60.5562 171.891 60.2424 171.722ZM61.415 169.58C61.285 169.501 61.14 169.449 60.9891 169.428C60.8383 169.407 60.6847 169.418 60.5381 169.459C60.3914 169.5 60.2548 169.571 60.1366 169.667C60.0185 169.763 59.9215 169.882 59.8515 170.018C59.7827 170.144 59.7394 170.283 59.7242 170.426C59.709 170.569 59.7221 170.713 59.7627 170.851C59.8034 170.989 59.8708 171.118 59.9611 171.229C60.0515 171.341 60.163 171.434 60.2893 171.503C60.4155 171.572 60.5541 171.615 60.6971 171.63C60.8401 171.646 60.9847 171.632 61.1226 171.592C61.2606 171.551 61.3891 171.484 61.501 171.393C61.6129 171.303 61.7059 171.192 61.7747 171.065C61.852 170.941 61.9041 170.803 61.9279 170.659C61.9517 170.514 61.9468 170.367 61.9133 170.224C61.8799 170.082 61.8187 169.948 61.7332 169.829C61.6477 169.71 61.5396 169.61 61.415 169.533V169.58Z" fill="white"/>
    <path d="M52.5339 189.86C52.3012 189.731 52.1118 189.537 51.9896 189.301C51.8674 189.065 51.8179 188.798 51.8473 188.534C51.8767 188.27 51.9836 188.02 52.1547 187.817C52.3258 187.613 52.5533 187.465 52.8085 187.391C53.0637 187.317 53.3351 187.32 53.5885 187.4C53.842 187.48 54.066 187.633 54.2323 187.841C54.3987 188.048 54.4999 188.3 54.5232 188.564C54.5465 188.829 54.4909 189.095 54.3633 189.328C54.1858 189.635 53.8964 189.863 53.5555 189.962C53.2145 190.061 52.8485 190.024 52.5339 189.86ZM53.7066 187.717C53.5803 187.649 53.4417 187.605 53.2987 187.59C53.1557 187.575 53.0111 187.588 52.8732 187.629C52.5946 187.711 52.3601 187.9 52.2212 188.155C52.0822 188.41 52.0503 188.71 52.1324 188.989C52.2145 189.267 52.4039 189.502 52.659 189.641C52.7884 189.722 52.9335 189.776 53.0849 189.798C53.2363 189.82 53.3906 189.81 53.538 189.769C53.6853 189.728 53.8223 189.656 53.9403 189.558C54.0582 189.461 54.1543 189.34 54.2226 189.203C54.3419 188.941 54.3547 188.643 54.2585 188.372C54.1622 188.1 53.9643 187.877 53.7066 187.749V187.717Z" fill="white"/>
    <path d="M54.0975 164.342C53.8681 164.215 53.6814 164.023 53.561 163.79C53.4405 163.557 53.3916 163.294 53.4205 163.033C53.4494 162.772 53.5548 162.526 53.7233 162.325C53.8918 162.124 54.116 161.978 54.3677 161.904C54.6193 161.83 54.8872 161.832 55.1375 161.911C55.3878 161.989 55.6094 162.139 55.7744 162.343C55.9394 162.547 56.0405 162.795 56.0648 163.056C56.0892 163.317 56.0357 163.579 55.9112 163.81C55.7396 164.12 55.453 164.349 55.1135 164.449C54.774 164.548 54.4089 164.51 54.0975 164.342ZM55.2545 162.215C55.1261 162.133 54.9819 162.079 54.8312 162.056C54.6805 162.032 54.5266 162.041 54.3794 162.081C54.2321 162.12 54.0949 162.191 53.9763 162.286C53.8578 162.382 53.7606 162.502 53.6909 162.638C53.5499 162.893 53.516 163.193 53.5967 163.473C53.6773 163.753 53.8659 163.99 54.1209 164.131C54.376 164.272 54.6766 164.306 54.9566 164.225C55.2366 164.144 55.4731 163.956 55.6141 163.701C55.6883 163.58 55.7378 163.445 55.7599 163.305C55.7819 163.165 55.7761 163.021 55.7427 162.883C55.7093 162.745 55.649 162.615 55.5652 162.501C55.4814 162.386 55.3758 162.289 55.2545 162.215Z" fill="white"/>
    <path d="M66.4342 180.619C66.2015 180.49 66.0121 180.296 65.8899 180.06C65.7677 179.824 65.7182 179.557 65.7476 179.293C65.7769 179.029 65.8839 178.779 66.055 178.576C66.2261 178.373 66.4536 178.224 66.7088 178.15C66.964 178.076 67.2354 178.079 67.4888 178.159C67.7422 178.239 67.9663 178.393 68.1326 178.6C68.299 178.807 68.4002 179.059 68.4235 179.324C68.4468 179.588 68.3912 179.854 68.2636 180.087C68.1786 180.242 68.0638 180.379 67.9258 180.49C67.7877 180.601 67.6292 180.683 67.4592 180.733C67.2893 180.782 67.1112 180.798 66.9353 180.778C66.7594 180.758 66.5891 180.704 66.4342 180.619ZM67.6069 178.492C67.4774 178.411 67.3324 178.357 67.181 178.335C67.0296 178.313 66.8752 178.323 66.7279 178.364C66.5805 178.405 66.4435 178.477 66.3256 178.575C66.2077 178.672 66.1115 178.793 66.0433 178.93C65.9489 179.12 65.9115 179.333 65.9356 179.543C65.9598 179.753 66.0445 179.952 66.1794 180.116C66.3144 180.279 66.4938 180.399 66.6959 180.463C66.898 180.526 67.1142 180.529 67.3181 180.472C67.522 180.415 67.705 180.3 67.8449 180.141C67.9848 179.982 68.0755 179.786 68.106 179.576C68.1366 179.367 68.1057 179.153 68.0171 178.96C67.9285 178.768 67.786 178.605 67.6069 178.492Z" fill="white"/>
    <path d="M72.3601 200.117C72.0491 199.947 71.8184 199.66 71.7187 199.32C71.619 198.98 71.6585 198.614 71.8285 198.303C71.9985 197.992 72.2852 197.761 72.6253 197.662C72.9654 197.562 73.3313 197.601 73.6423 197.771C73.7985 197.853 73.9367 197.966 74.0485 198.102C74.1604 198.239 74.2436 198.396 74.2932 198.565C74.3428 198.735 74.3578 198.912 74.3373 199.087C74.3168 199.263 74.2612 199.432 74.1739 199.585C74.0023 199.895 73.7157 200.124 73.3762 200.223C73.0367 200.323 72.6716 200.285 72.3601 200.117ZM73.5328 197.975C73.2778 197.834 72.9772 197.8 72.6972 197.88C72.4171 197.961 72.1806 198.15 72.0396 198.405C71.8986 198.66 71.8647 198.96 71.9453 199.24C72.026 199.52 72.2146 199.757 72.4696 199.898C72.5959 199.968 72.7347 200.012 72.8781 200.028C73.0214 200.044 73.1666 200.032 73.3053 199.992C73.4439 199.952 73.5734 199.885 73.6862 199.795C73.799 199.705 73.893 199.594 73.9628 199.468C74.0326 199.342 74.0769 199.203 74.0931 199.059C74.1092 198.916 74.097 198.771 74.0571 198.632C74.0172 198.494 73.9503 198.364 73.8604 198.251C73.7704 198.138 73.6591 198.044 73.5328 197.975Z" fill="white"/>
    <path d="M75.4091 176.038C75.1125 175.859 74.8963 175.573 74.8054 175.239C74.7146 174.904 74.7561 174.548 74.9213 174.244C75.0865 173.94 75.3627 173.711 75.6924 173.605C76.0222 173.499 76.3799 173.525 76.6913 173.676C76.9879 173.855 77.2041 174.141 77.295 174.475C77.3858 174.81 77.3443 175.166 77.1791 175.47C77.0139 175.774 76.7377 176.003 76.408 176.109C76.0782 176.215 75.7205 176.189 75.4091 176.038ZM76.5818 173.895C76.3922 173.801 76.1793 173.764 75.9689 173.788C75.7585 173.812 75.5597 173.897 75.3964 174.032C75.2332 174.167 75.1126 174.346 75.0494 174.548C74.9861 174.75 74.9828 174.966 75.0399 175.17C75.097 175.374 75.212 175.557 75.3711 175.697C75.5301 175.837 75.7263 175.928 75.9359 175.958C76.1455 175.989 76.3594 175.958 76.5518 175.869C76.7441 175.781 76.9066 175.638 77.0196 175.459C77.1012 175.33 77.1548 175.184 77.1769 175.033C77.199 174.882 77.1891 174.727 77.1478 174.58C77.1066 174.433 77.0349 174.296 76.9374 174.178C76.8399 174.06 76.7188 173.964 76.5818 173.895Z" fill="white"/>
    <path d="M65.7462 190.329C65.5135 190.2 65.3241 190.006 65.2019 189.77C65.0797 189.534 65.0302 189.267 65.0596 189.003C65.089 188.739 65.1959 188.489 65.367 188.286C65.5381 188.082 65.7656 187.934 66.0208 187.86C66.276 187.786 66.5474 187.789 66.8008 187.869C67.0542 187.949 67.2783 188.102 67.4446 188.31C67.611 188.517 67.7122 188.769 67.7355 189.034C67.7588 189.298 67.7032 189.564 67.5756 189.797C67.4922 189.954 67.3782 190.092 67.2403 190.204C67.1025 190.316 66.9436 190.4 66.7731 190.449C66.6026 190.499 66.4238 190.514 66.2475 190.493C66.0711 190.472 65.9006 190.416 65.7462 190.329ZM66.9189 188.202C66.7929 188.114 66.6498 188.054 66.4989 188.025C66.348 187.995 66.1927 187.998 66.0431 188.033C65.8934 188.068 65.7528 188.134 65.6304 188.227C65.5079 188.32 65.4064 188.438 65.3325 188.572C65.2585 188.707 65.2137 188.856 65.201 189.009C65.1884 189.162 65.2081 189.316 65.2589 189.461C65.3097 189.606 65.3905 189.739 65.496 189.851C65.6015 189.962 65.7294 190.051 65.8713 190.11C65.9972 190.198 66.1403 190.258 66.2912 190.287C66.4421 190.317 66.5974 190.313 66.7471 190.279C66.8967 190.244 67.0373 190.178 67.1597 190.085C67.2822 189.992 67.3837 189.874 67.4577 189.74C67.5316 189.605 67.5764 189.456 67.5891 189.303C67.6018 189.15 67.582 188.996 67.5312 188.851C67.4804 188.706 67.3996 188.573 67.2941 188.461C67.1886 188.349 67.0607 188.261 66.9189 188.202Z" fill="white"/>
    <path d="M46.3265 198.006C46.0938 197.877 45.9044 197.683 45.7822 197.447C45.66 197.211 45.6105 196.944 45.6399 196.68C45.6692 196.416 45.7762 196.166 45.9473 195.963C46.1184 195.76 46.3459 195.612 46.6011 195.537C46.8562 195.463 47.1277 195.466 47.3811 195.546C47.6345 195.626 47.8586 195.78 48.0249 195.987C48.1913 196.194 48.2925 196.446 48.3158 196.711C48.3391 196.975 48.2834 197.241 48.1558 197.474C47.9784 197.782 47.689 198.009 47.348 198.108C47.0071 198.207 46.6411 198.17 46.3265 198.006ZM47.4991 195.864C47.2433 195.729 46.9449 195.699 46.6675 195.781C46.3901 195.863 46.1555 196.049 46.0137 196.302C45.9449 196.428 45.9016 196.566 45.8863 196.709C45.8711 196.852 45.8841 196.997 45.9248 197.135C45.9655 197.273 46.0329 197.402 46.1233 197.513C46.2137 197.625 46.3252 197.718 46.4515 197.787C46.7066 197.926 47.0063 197.958 47.2849 197.876C47.5635 197.794 47.798 197.604 47.9369 197.349C48.0759 197.094 48.1078 196.794 48.0257 196.516C47.9436 196.237 47.7542 196.003 47.4991 195.864Z" fill="white"/>
    <path d="M89.9036 186.263C89.6742 186.136 89.4875 185.944 89.3671 185.711C89.2466 185.478 89.1978 185.215 89.2267 184.954C89.2555 184.694 89.3609 184.447 89.5294 184.247C89.698 184.046 89.9222 183.899 90.1738 183.825C90.4254 183.752 90.6933 183.754 90.9436 183.832C91.1939 183.91 91.4155 184.061 91.5805 184.264C91.7455 184.468 91.8466 184.716 91.8709 184.977C91.8953 185.238 91.8418 185.501 91.7173 185.732C91.6339 185.886 91.5206 186.023 91.384 186.134C91.2473 186.244 91.0901 186.327 90.9214 186.376C90.7527 186.426 90.5759 186.441 90.4012 186.422C90.2265 186.402 90.0573 186.349 89.9036 186.263ZM91.0763 184.137C90.8254 184.019 90.539 184 90.275 184.085C90.011 184.17 89.7891 184.352 89.6541 184.594C89.5191 184.837 89.4811 185.121 89.5477 185.39C89.6143 185.659 89.7806 185.893 90.013 186.044C90.1388 186.126 90.28 186.181 90.428 186.206C90.5759 186.231 90.7275 186.226 90.8731 186.19C91.0188 186.154 91.1555 186.088 91.2747 185.997C91.3939 185.906 91.4931 185.791 91.5662 185.66C91.6392 185.529 91.6846 185.384 91.6993 185.235C91.7141 185.086 91.698 184.935 91.6521 184.792C91.6061 184.649 91.5313 184.517 91.4323 184.405C91.3332 184.292 91.212 184.201 91.0763 184.137Z" fill="white"/>
    <path d="M51.5801 178.445C51.3454 178.319 51.1535 178.126 51.0289 177.89C50.9044 177.654 50.8527 177.387 50.8806 177.121C50.9084 176.856 51.0144 176.605 51.1852 176.4C51.356 176.196 51.5838 176.046 51.8397 175.971C52.0956 175.896 52.368 175.899 52.6223 175.979C52.8766 176.059 53.1013 176.213 53.2679 176.422C53.4345 176.63 53.5354 176.883 53.5578 177.149C53.5803 177.414 53.5232 177.681 53.3939 177.914C53.2223 178.223 52.9357 178.453 52.5961 178.552C52.2566 178.652 51.8916 178.613 51.5801 178.445ZM52.7528 176.303C52.5638 176.197 52.3475 176.15 52.1315 176.167C51.9155 176.184 51.7094 176.265 51.5393 176.399C51.3693 176.533 51.2429 176.715 51.1762 176.921C51.1096 177.128 51.1056 177.349 51.1649 177.557C51.2241 177.766 51.3439 177.952 51.509 178.092C51.6742 178.233 51.8772 178.321 52.0925 178.345C52.3078 178.37 52.5256 178.331 52.7183 178.231C52.911 178.132 53.0699 177.978 53.175 177.789C53.2465 177.664 53.2924 177.526 53.3099 177.383C53.3274 177.24 53.3162 177.095 53.2768 176.957C53.2375 176.819 53.1709 176.69 53.0809 176.577C52.9909 176.465 52.8793 176.372 52.7528 176.303Z" fill="white"/>
    <path d="M77.5513 188.108C77.2408 187.934 77.0111 187.644 76.9117 187.302C76.8123 186.96 76.8511 186.593 77.0196 186.279C77.1044 186.126 77.2187 185.99 77.3559 185.881C77.4931 185.772 77.6506 185.692 77.8191 185.644C77.9877 185.596 78.1641 185.582 78.3382 185.602C78.5123 185.622 78.6806 185.677 78.8334 185.763C78.9874 185.847 79.1233 185.961 79.2334 186.098C79.3434 186.234 79.4255 186.391 79.4748 186.56C79.5242 186.728 79.5399 186.905 79.5211 187.079C79.5022 187.254 79.4492 187.423 79.365 187.577C79.2808 187.731 79.1671 187.867 79.0304 187.977C78.8937 188.087 78.7367 188.169 78.5682 188.218C78.3998 188.268 78.2233 188.283 78.0488 188.264C77.8743 188.246 77.7053 188.193 77.5513 188.108ZM78.7239 185.966C78.5945 185.885 78.4494 185.831 78.298 185.809C78.1466 185.787 77.9923 185.797 77.8449 185.838C77.6976 185.879 77.5606 185.951 77.4426 186.049C77.3247 186.146 77.2286 186.267 77.1604 186.404C77.0214 186.659 76.9895 186.959 77.0716 187.237C77.1537 187.516 77.3431 187.751 77.5982 187.889C77.8532 188.028 78.153 188.06 78.4315 187.978C78.7101 187.896 78.9446 187.707 79.0836 187.452C79.2253 187.205 79.267 186.914 79.2 186.637C79.1331 186.361 78.9627 186.121 78.7239 185.966Z" fill="white"/>
    <path d="M58.9446 202.618C58.7098 202.492 58.518 202.299 58.3934 202.063C58.2689 201.827 58.2172 201.56 58.2451 201.294C58.2729 201.029 58.3789 200.778 58.5497 200.573C58.7205 200.369 58.9483 200.219 59.2042 200.144C59.4601 200.069 59.7325 200.072 59.9868 200.152C60.2411 200.232 60.4658 200.386 60.6324 200.595C60.799 200.803 60.8999 201.056 60.9223 201.322C60.9447 201.587 60.8877 201.854 60.7583 202.087C60.5867 202.396 60.3001 202.626 59.9606 202.725C59.6211 202.825 59.2561 202.786 58.9446 202.618ZM60.1173 200.476C59.9286 200.379 59.7159 200.34 59.505 200.361C59.294 200.383 59.094 200.466 58.9291 200.599C58.7643 200.732 58.6417 200.911 58.5763 201.113C58.5109 201.314 58.5055 201.531 58.5608 201.735C58.6161 201.94 58.7296 202.124 58.8877 202.266C59.0457 202.407 59.2414 202.5 59.451 202.532C59.6606 202.564 59.875 202.535 60.0682 202.447C60.2615 202.36 60.4252 202.219 60.5394 202.04C60.6241 201.912 60.6805 201.768 60.7051 201.617C60.7296 201.465 60.7216 201.311 60.6817 201.163C60.6418 201.015 60.5708 200.877 60.4734 200.759C60.3761 200.64 60.2547 200.544 60.1173 200.476Z" fill="white"/>
    <path d="M66.4967 212.281C66.1862 212.107 65.9566 211.817 65.8572 211.475C65.7578 211.133 65.7965 210.766 65.9651 210.452C66.0935 210.219 66.288 210.03 66.524 209.908C66.76 209.786 67.0269 209.736 67.291 209.765C67.5551 209.795 67.8046 209.902 68.0079 210.073C68.2113 210.244 68.3594 210.471 68.4336 210.727C68.5077 210.982 68.5046 211.253 68.4246 211.507C68.3446 211.76 68.1913 211.984 67.9841 212.15C67.7768 212.317 67.5249 212.418 67.2602 212.441C66.9955 212.465 66.7298 212.409 66.4967 212.281ZM67.6694 210.139C67.5431 210.071 67.4045 210.027 67.2615 210.012C67.1185 209.997 66.9739 210.01 66.836 210.051C66.6981 210.091 66.5695 210.159 66.4576 210.249C66.3457 210.339 66.2528 210.451 66.184 210.577C66.1152 210.703 66.0719 210.842 66.0567 210.985C66.0415 211.128 66.0546 211.273 66.0952 211.41C66.1359 211.548 66.2033 211.677 66.2937 211.789C66.384 211.901 66.4955 211.994 66.6218 212.063C66.8768 212.201 67.1766 212.233 67.4551 212.151C67.7337 212.069 67.9683 211.88 68.1072 211.625C68.2461 211.37 68.278 211.07 68.1959 210.791C68.1138 210.513 67.9244 210.278 67.6694 210.139Z" fill="white"/>
    <path d="M83.1802 198.537C82.9508 198.41 82.7641 198.218 82.6437 197.985C82.5232 197.752 82.4744 197.489 82.5032 197.229C82.5321 196.968 82.6375 196.722 82.806 196.521C82.9745 196.32 83.1987 196.173 83.4504 196.1C83.702 196.026 83.9698 196.028 84.2202 196.106C84.4705 196.184 84.6921 196.335 84.8571 196.539C85.0221 196.742 85.1232 196.99 85.1475 197.252C85.1718 197.513 85.1184 197.775 84.9939 198.006C84.8223 198.315 84.5357 198.545 84.1962 198.644C83.8567 198.744 83.4916 198.705 83.1802 198.537ZM84.3372 196.395C84.2109 196.327 84.0723 196.283 83.9294 196.268C83.7864 196.253 83.6418 196.266 83.5038 196.307C83.3659 196.347 83.2373 196.415 83.1255 196.505C83.0136 196.595 82.9206 196.707 82.8518 196.833C82.783 196.959 82.7398 197.098 82.7245 197.241C82.7093 197.384 82.7224 197.529 82.7631 197.667C82.8037 197.805 82.8711 197.933 82.9615 198.045C83.0518 198.157 83.1633 198.25 83.2896 198.319C83.5446 198.458 83.8444 198.489 84.123 198.407C84.4016 198.325 84.6361 198.136 84.775 197.881C84.9139 197.626 84.9459 197.326 84.8638 197.047C84.7817 196.769 84.5922 196.534 84.3372 196.395Z" fill="white"/>
    <path d="M78.4269 209.717C78.1942 209.589 78.0048 209.394 77.8826 209.158C77.7604 208.922 77.7109 208.655 77.7403 208.391C77.7697 208.127 77.8766 207.878 78.0477 207.674C78.2188 207.471 78.4463 207.323 78.7015 207.249C78.9567 207.174 79.2281 207.178 79.4815 207.258C79.7349 207.338 79.959 207.491 80.1253 207.698C80.2917 207.905 80.3929 208.157 80.4162 208.422C80.4395 208.687 80.3839 208.952 80.2563 209.186C80.0817 209.496 79.7922 209.726 79.4502 209.825C79.1081 209.924 78.7407 209.886 78.4269 209.717ZM79.5996 207.575C79.4733 207.506 79.3347 207.463 79.1917 207.448C79.0487 207.433 78.9041 207.446 78.7662 207.486C78.6282 207.527 78.4997 207.594 78.3878 207.685C78.2759 207.775 78.1829 207.887 78.1142 208.013C78.0454 208.139 78.0021 208.278 77.9869 208.421C77.9717 208.564 77.9848 208.708 78.0254 208.846C78.0661 208.984 78.1335 209.113 78.2238 209.225C78.3142 209.336 78.4257 209.429 78.552 209.498C78.6814 209.58 78.8265 209.633 78.9779 209.656C79.1293 209.678 79.2836 209.668 79.4309 209.626C79.5783 209.585 79.7153 209.514 79.8332 209.416C79.9512 209.319 80.0473 209.197 80.1155 209.06C80.1794 208.929 80.2168 208.786 80.2254 208.641C80.234 208.495 80.2138 208.349 80.1659 208.211C80.1179 208.073 80.0432 207.945 79.9461 207.836C79.8489 207.727 79.7311 207.639 79.5996 207.575Z" fill="white"/>
    <path d="M330.51 386.314L329.28 390.336L419.051 417.799L420.281 413.777L330.51 386.314Z" fill="#DBDBDB"/>
    <path d="M330.505 386.318L329.275 390.34L374.46 404.163L375.69 400.141L330.505 386.318Z" fill="#A6A6A6"/>
    <path d="M369.598 402.632L282.115 375.879L288.839 312.961L376.321 339.729L369.598 402.632Z" fill="#DBDBDB"/>
    <path d="M334.542 359.43C334.408 360.131 334.127 360.795 333.717 361.379C333.307 361.962 332.778 362.452 332.164 362.816C331.551 363.179 330.867 363.408 330.158 363.488C329.45 363.568 328.732 363.496 328.053 363.277C326.619 362.797 325.407 361.813 324.642 360.508C323.877 359.202 323.612 357.664 323.894 356.178C324.028 355.478 324.309 354.814 324.719 354.23C325.129 353.646 325.658 353.157 326.272 352.793C326.885 352.429 327.569 352.2 328.278 352.121C328.987 352.041 329.704 352.113 330.383 352.332C331.818 352.812 333.029 353.796 333.794 355.101C334.559 356.406 334.825 357.944 334.542 359.43Z" fill="white"/>
</svg>