<svg width="483" height="483" viewBox="0 0 483 483" fill="none" xmlns="http://www.w3.org/2000/svg">
<path d="M124.094 190.897L51.1976 144.937L62.0094 127.772L123.35 166.449L135.054 147.91L146.609 155.192L124.094 190.897Z" fill="#002856"/>
<path d="M153.259 150.956L98.9032 84.1164L114.656 71.2983L169.012 138.138L153.259 150.956Z" fill="#002856"/>
<path d="M172.319 55.8795L179.899 76.4627L199.293 69.3291L203.9 81.7757L184.506 88.9093L197.398 123.945L178.375 130.967L148.578 50.1207L189.707 34.9618L194.426 47.78L172.319 55.8795Z" fill="#002856"/>
<path d="M226.341 115.363L230.651 29.3145L274.529 31.5066L273.861 45.1421L250.231 43.9531L249.116 65.8367L269.736 66.877L269.068 80.1409L248.447 79.1006L247.258 102.731L270.888 103.919L270.219 117.555L226.341 115.363Z" fill="#002856"/>
<path d="M306.296 134.163L356.751 64.3135L373.21 76.2026L322.755 146.052L306.296 134.163Z" fill="#002856"/>
<path d="M409.806 137.729L350.137 178.933L338.62 162.251L398.289 121.047L389.446 108.266L400.667 100.501L429.869 142.745L418.649 150.51L409.806 137.729Z" fill="#002856"/>
<path d="M360.652 288.611L410.215 292.958C413.596 293.292 418.946 293.924 420.544 294.184L420.581 293.924C418.909 293.255 415.231 291.881 410.735 289.726L364.293 266.988L366.002 256.845L417.274 251.049C422.587 250.417 426.303 250.306 427.975 250.194L428.012 249.934L426.526 249.674C425.411 249.488 421.101 248.745 417.832 247.816L369.68 235.072L372.541 218.279L455.952 241.686L452.645 261.303L402.933 266.728C398.66 267.136 395.614 267.248 391.675 267.248L391.638 267.508C395.502 268.808 398.363 269.774 402.116 271.558L447.258 293.07L443.914 312.724L357.42 307.337L360.652 288.611Z" fill="#002856"/>
<path d="M349.432 309.269L414.525 365.705L385.731 398.921L375.402 389.967L390.895 372.096L374.325 357.754L360.801 373.359L350.769 364.665L364.293 349.06L346.422 333.567L330.929 351.438L320.6 342.484L349.432 309.269Z" fill="#002856"/>
<path d="M314.321 346.571L352.032 424.037L312.501 443.283L306.519 431.022L327.808 420.656L318.222 400.964L299.645 409.993L293.849 398.066L312.426 389.038L302.06 367.749L280.771 378.115L274.789 365.854L314.321 346.571Z" fill="#002856"/>
<path d="M239.01 441.09L235.889 368.64L256.175 367.786L259.296 440.236L274.827 439.567L275.421 453.203L224.112 455.395L223.517 441.759L239.01 441.09Z" fill="#002856"/>
<path d="M149.655 367.006C156.603 351.996 172.319 347.834 188.481 355.302C204.606 362.77 211.628 377.483 204.68 392.456L179.156 447.592L160.727 439.084L186.363 383.725C189.298 377.372 186.623 371.576 181.273 369.086C175.923 366.597 169.867 368.381 166.932 374.734L141.296 430.093L124.131 422.142L149.655 367.006Z" fill="#002856"/>
<path d="M113.356 335.908C114.21 337.134 115.399 339.215 116.068 340.589L142.633 321.752L154.151 337.989L86.7167 385.768C80.3634 381.979 73.4528 375.514 67.5825 367.229C53.7612 347.723 58.1082 332.824 70.6662 323.907C83.4472 314.916 99.609 316.514 113.356 335.908ZM76.9081 360.504C78.2827 362.436 79.8803 364.071 81.4036 365.148L106.52 347.351C105.777 345.865 104.811 344.268 103.696 342.744C97.4169 333.864 89.689 334.236 81.7381 339.883C73.6014 345.642 71.0377 352.219 76.9081 360.504Z" fill="#002856"/>
<path d="M117.852 263.569C119.226 273.006 118.669 281.552 116.328 287.979L101.838 284.896C103.845 279.546 104.253 273.675 103.547 268.585C102.47 261.006 97.9743 257.105 92.2526 257.922C76.8709 260.151 85.342 291.435 58.0711 295.373C43.5811 297.454 31.5061 287.571 29.0168 270.22C27.8279 262.046 28.6453 254.467 30.9488 248.559L43.8783 251.234C42.3179 255.247 41.7234 260.894 42.3922 265.501C43.3953 272.561 47.4451 276.796 53.5012 275.904C68.8829 273.675 59.5572 241.612 87.4598 237.599C102.396 235.407 115.214 245.475 117.852 263.569Z" fill="#002856"/>
<path d="M241.5 483C108.341 483 0 374.659 0 241.5C0 108.341 108.341 0 241.5 0C374.659 0 483 108.341 483 241.5C483 374.659 374.659 483 241.5 483ZM241.5 3.71538C110.384 3.71538 3.71538 110.384 3.71538 241.5C3.71538 372.616 110.384 479.285 241.5 479.285C372.616 479.285 479.285 372.616 479.285 241.5C479.285 110.384 372.616 3.71538 241.5 3.71538Z" fill="#002856"/>
</svg>
