<svg width="700" height="700" viewBox="0 0 700 700" fill="none" xmlns="http://www.w3.org/2000/svg">
<path d="M229.094 309.897L156.198 263.937L167.009 246.772L228.35 285.449L240.054 266.91L251.609 274.192L229.094 309.897Z" fill="#002856"/>
<path d="M258.259 269.956L203.903 203.116L219.656 190.298L274.013 257.138L258.259 269.956Z" fill="#002856"/>
<path d="M277.319 174.879L284.899 195.463L304.293 188.329L308.9 200.776L289.506 207.909L302.398 242.945L283.375 249.967L253.578 169.121L294.707 153.962L299.426 166.78L277.319 174.879Z" fill="#002856"/>
<path d="M331.341 234.363L335.651 148.314L379.529 150.507L378.861 164.142L355.231 162.953L354.116 184.837L374.737 185.877L374.068 199.141L353.447 198.101L352.258 221.731L375.888 222.919L375.22 236.555L331.341 234.363Z" fill="#002856"/>
<path d="M411.296 253.163L461.751 183.313L478.21 195.203L427.755 265.052L411.296 253.163Z" fill="#002856"/>
<path d="M514.807 256.729L455.137 297.933L443.62 281.251L503.289 240.047L494.446 227.266L505.667 219.501L534.87 261.745L523.649 269.51L514.807 256.729Z" fill="#002856"/>
<path d="M465.652 407.611L515.215 411.958C518.596 412.292 523.946 412.924 525.544 413.184L525.581 412.924C523.909 412.255 520.231 410.881 515.735 408.726L469.293 385.988L471.002 375.845L522.274 370.049C527.587 369.417 531.303 369.306 532.975 369.194L533.012 368.934L531.526 368.674C530.411 368.488 526.101 367.745 522.832 366.816L474.68 354.072L477.541 337.279L560.952 360.686L557.645 380.303L507.933 385.728C503.66 386.136 500.614 386.248 496.675 386.248L496.638 386.508C500.502 387.808 503.363 388.774 507.116 390.558L552.258 412.07L548.914 431.724L462.42 426.337L465.652 407.611Z" fill="#002856"/>
<path d="M454.432 428.269L519.525 484.705L490.731 517.921L480.402 508.967L495.895 491.096L479.325 476.754L465.801 492.359L455.769 483.665L469.293 468.06L451.422 452.567L435.929 470.438L425.6 461.484L454.432 428.269Z" fill="#002856"/>
<path d="M419.321 465.571L457.032 543.037L417.501 562.283L411.519 550.022L432.808 539.656L423.222 519.964L404.645 528.993L398.849 517.066L417.426 508.038L407.06 486.749L385.771 497.115L379.789 484.854L419.321 465.571Z" fill="#002856"/>
<path d="M344.01 560.09L340.889 487.64L361.175 486.786L364.296 559.236L379.827 558.567L380.421 572.203L329.112 574.395L328.517 560.759L344.01 560.09Z" fill="#002856"/>
<path d="M254.655 486.006C261.603 470.996 277.319 466.834 293.481 474.302C309.606 481.77 316.628 496.483 309.68 511.456L284.156 566.592L265.727 558.084L291.363 502.725C294.298 496.372 291.623 490.576 286.273 488.086C280.923 485.597 274.867 487.381 271.932 493.734L246.296 549.093L229.131 541.142L254.655 486.006Z" fill="#002856"/>
<path d="M218.356 454.908C219.211 456.134 220.399 458.215 221.068 459.589L247.633 440.752L259.151 456.989L191.717 504.768C185.363 500.979 178.453 494.514 172.582 486.229C158.761 466.723 163.108 451.824 175.666 442.907C188.447 433.916 204.609 435.514 218.356 454.908ZM181.908 479.504C183.283 481.436 184.88 483.071 186.404 484.148L211.52 466.351C210.777 464.865 209.811 463.268 208.696 461.744C202.417 452.864 194.689 453.236 186.738 458.883C178.601 464.642 176.038 471.219 181.908 479.504Z" fill="#002856"/>
<path d="M222.852 382.569C224.226 392.006 223.669 400.552 221.328 406.979L206.838 403.896C208.845 398.546 209.253 392.675 208.547 387.585C207.47 380.006 202.974 376.105 197.253 376.922C181.871 379.151 190.342 410.435 163.071 414.373C148.581 416.454 136.506 406.571 134.017 389.22C132.828 381.046 133.645 373.467 135.949 367.559L148.878 370.234C147.318 374.247 146.723 379.894 147.392 384.501C148.395 391.561 152.445 395.796 158.501 394.904C173.883 392.675 164.557 360.612 192.46 356.599C207.396 354.407 220.214 364.475 222.852 382.569Z" fill="#002856"/>
<path d="M346.5 602C213.341 602 105 493.659 105 360.5C105 227.341 213.341 119 346.5 119C479.659 119 588 227.341 588 360.5C588 493.659 479.659 602 346.5 602ZM346.5 122.715C215.384 122.715 108.715 229.384 108.715 360.5C108.715 491.616 215.384 598.285 346.5 598.285C477.616 598.285 584.285 491.616 584.285 360.5C584.285 229.384 477.616 122.715 346.5 122.715Z" fill="#002856"/>
<path d="M347.41 465.78C405.063 465.78 451.8 419.043 451.8 361.39C451.8 303.737 405.063 257 347.41 257C289.757 257 243.02 303.737 243.02 361.39C243.02 419.043 289.757 465.78 347.41 465.78Z" fill="#37A9E0"/>
</svg>
