<svg width="700" height="700" viewBox="0 0 700 700" fill="none" xmlns="http://www.w3.org/2000/svg">
<g clip-path="url(#clip0)">
<path d="M347.41 465.78C405.063 465.78 451.8 419.043 451.8 361.39C451.8 303.737 405.063 257 347.41 257C289.757 257 243.02 303.737 243.02 361.39C243.02 419.043 289.757 465.78 347.41 465.78Z" fill="url(#paint0_radial)"/>
<path d="M255.24 646.89V587.4H269.25V637.46H284.38V646.88H255.24V646.89Z" fill="#002856"/>
<path d="M290.6 646.89V587.4H304.61V646.88H290.6V646.89Z" fill="#002856"/>
<path d="M327.95 596.83V611.96H342.13V621.12H327.95V646.88H313.86V587.4H344.21V596.82H327.95V596.83Z" fill="#002856"/>
<path d="M350.86 646.89V587.4H381.29V596.82H364.95V611.95H379.22V621.11H364.95V637.45H381.29V646.87H350.86V646.89Z" fill="#002856"/>
<path d="M394.86 593.2C390.88 593.2 387.68 590.43 387.68 586.89C387.68 583.43 390.88 580.58 394.86 580.58C398.84 580.58 402.04 583.43 402.04 586.89C402.04 590.43 398.84 593.2 394.86 593.2ZM388.12 646.89V600.29H401.61V646.89H388.12Z" fill="#009ED2"/>
<path d="M431.95 596.83V646.89H417.86V596.83H407.48V587.41H442.24V596.83H431.95Z" fill="#009ED2"/>
<path d="M257.48 679.54C255.96 679.54 254.73 678.48 254.73 677.12C254.73 675.8 255.95 674.7 257.48 674.7C259 674.7 260.23 675.79 260.23 677.12C260.22 678.48 259 679.54 257.48 679.54ZM254.9 700.09V682.25H260.06V700.09H254.9Z" fill="#002856"/>
<path d="M277.23 680.93V700.09H271.84V680.93H267.87V677.32H281.17V680.93H277.23Z" fill="#002856"/>
<path d="M308.73 685.59V700.08H303.57V685.59H301.62V682.25H303.57V680.43C303.57 675.96 306.65 673.61 311.48 674.14V677.41C309.76 677.34 308.73 677.94 308.73 679.99V682.24H311.48V685.58H308.73V685.59Z" fill="#002856"/>
<path d="M325.84 700.42C320.68 700.42 317.96 696.48 317.96 691.15C317.96 685.82 320.67 681.92 325.8 681.92C331 681.92 333.71 685.83 333.71 691.15C333.72 696.48 331 700.42 325.84 700.42ZM325.84 685.13C323.56 685.13 323.09 687.91 323.09 691.09C323.09 694.3 323.59 696.91 325.84 696.91C328.12 696.91 328.59 694.3 328.59 691.09C328.59 687.91 328.12 685.13 325.84 685.13Z" fill="#002856"/>
<path d="M350.33 685.62C349.07 685.09 347.75 685.12 346.89 685.52V700.08H341.73V683.24C343.72 682.28 346.49 681.75 351.29 681.98L350.33 685.62Z" fill="#002856"/>
<path d="M372.04 700.09V674.11H377.2V700.09H372.04Z" fill="#002856"/>
<path d="M388.62 679.54C387.1 679.54 385.87 678.48 385.87 677.12C385.87 675.8 387.09 674.7 388.62 674.7C390.14 674.7 391.37 675.79 391.37 677.12C391.36 678.48 390.14 679.54 388.62 679.54ZM386.03 700.09V682.25H391.19V700.09H386.03Z" fill="#002856"/>
<path d="M406.15 685.59V700.08H400.99V685.59H399.04V682.25H400.99V680.43C400.99 675.96 404.07 673.61 408.9 674.14V677.41C407.18 677.34 406.15 677.94 406.15 679.99V682.24H408.9V685.58H406.15V685.59Z" fill="#002856"/>
<path d="M420.28 692.97C420.64 695.58 421.97 696.88 424.58 696.88C426.67 696.88 428.25 696.42 429.21 695.92L430.37 699.13C428.98 699.83 426.99 700.42 423.98 700.42C418.52 700.42 415.38 696.81 415.38 691.12C415.38 685.53 418.29 681.92 423.42 681.92C428.58 681.92 431.2 685.43 430.97 691.45L420.28 692.97ZM423.23 684.96C421.11 684.96 419.79 686.78 419.95 690.45L426.17 689.52C426.17 686.35 425.11 684.96 423.23 684.96Z" fill="#002856"/>
<path d="M429.81 541.09C423.51 536.64 419.52 538.11 418.6 537.19C417.67 536.26 418.01 537.11 415.04 532.78C412.07 528.45 407.57 522.51 408.25 521.24C408.93 519.97 417.58 504.78 418.94 502.49C420.3 500.2 417.84 499.1 416.82 500.03C415.8 500.96 409.69 507.33 406.22 510.98C402.74 514.63 399.69 510.81 395.44 509.96C391.2 509.11 388.14 515.39 387.04 514.46C385.94 513.53 384.83 509.88 382.71 506.14C380.59 502.41 383.4 500.85 386.46 501.93C386.8 502.05 387.08 502.13 387.34 502.2C388.54 502.59 389.16 502.16 389.45 501.66C389.77 501.09 390.06 500.63 390.56 500.53C391.05 500.43 391.33 500.35 391.42 499.55C391.9 499.65 392.19 499.49 392.28 499.22C392.37 498.95 392.27 499.01 392.46 498.48C392.65 497.95 392.82 497.99 393.71 497.78C394.6 497.57 394.35 496.59 394.15 495.48C393.97 494.46 393.96 493.63 395 492.64C396.1 491.62 396.6 490.84 396.89 490.11C397.65 489.83 398.34 489.29 398.58 488.52C399.19 486.58 398.31 484.4 397.49 483.04C396.5 481.42 393.24 476.23 386.36 477.03C379.82 477.8 376.88 483.6 377.62 489.68C378.1 493.62 377.65 495.49 376.15 496.09C371.47 497.94 366.5 503.68 363.48 512.54C357.75 488.34 356.45 451.23 355.65 427.66C354.42 391.69 391.79 389.8 421.81 364.56C393.23 374.02 371.6 382.86 348.72 382.86C325.84 382.86 311.66 377.5 294.1 371.82C324.53 396.57 340.07 397.29 340.07 432.07C340.07 432.95 340.07 433.9 340.06 434.91C340.01 438.49 337.28 441.61 334.21 442.31C322.9 444.9 326.34 420.75 324.97 415.53C322.74 407.03 313.91 405.87 306.7 404.98C303.39 404.57 302.68 404.38 299.83 404.29C304.11 406 305.8 408.08 307.42 409.97C311.11 414.25 309.34 421.55 310.03 426.97C310.91 433.88 313.69 437.8 319.46 441.65C324.44 444.97 331.48 449.31 335.84 453.44C337.87 455.37 339.29 457.39 339.24 460.08C337.33 491.17 331.19 531.86 311.93 536.85C255.07 540.43 203.35 551.95 161.66 569.05C216.25 555.54 280.7 547.73 349.76 547.73C418.82 547.73 483.27 555.54 537.86 569.05C506.73 556.31 470.04 546.66 429.81 541.09ZM389.26 536.97C390.2 535.26 391.32 533.17 392.47 531.17C394.42 527.78 395.95 525.06 397.39 526.42C398.83 527.78 405.87 536.18 406.72 538.3C406.73 538.33 406.74 538.37 406.75 538.4C400.98 537.83 395.15 537.35 389.26 536.97Z" fill="#002856"/>
<path d="M320.07 400.83C321.15 398.24 318.45 394.65 314.05 392.82C309.65 390.99 305.2 391.61 304.13 394.21C303.05 396.8 305.75 400.39 310.15 402.22C314.55 404.04 319 403.42 320.07 400.83Z" fill="#002856"/>
</g>
<defs>
<radialGradient id="paint0_radial" cx="0" cy="0" r="1" gradientUnits="userSpaceOnUse" gradientTransform="translate(347.926 312.348) scale(150.683)">
<stop offset="0.1273" stop-color="#C3E6FA"/>
<stop offset="0.2002" stop-color="#BDE4F9"/>
<stop offset="0.2952" stop-color="#ADDCF6"/>
<stop offset="0.4023" stop-color="#92D1F1"/>
<stop offset="0.5184" stop-color="#6DC0EA"/>
<stop offset="0.6404" stop-color="#3DACE1"/>
<stop offset="0.6545" stop-color="#37A9E0"/>
<stop offset="1" stop-color="#5BC4F1"/>
</radialGradient>
<clipPath id="clip0">
<rect width="700" height="700" fill="white"/>
</clipPath>
</defs>
</svg>
